<?xml version="1.0" encoding="utf-8"?>
<svg version="1.2" baseProfile="tiny" id="Layer_1" xmlns="http://www.w3.org/2000/svg" xmlns:xlink="http://www.w3.org/1999/xlink"
	 x="0px" y="0px" viewBox="0 0 180 102" xml:space="preserve">
<g>
	<polygon fill="#FFFFFF" points="44.3,3.8 73.6,2.9 73.6,5.1 44.3,5.9 	"/>
	<polygon fill="#FFFFFF" points="37.7,9.2 79.7,6.8 79.7,9 37.7,11.4 	"/>
	<polygon fill="#FFFFFF" points="26.6,14.5 97.2,10.1 97.2,12.2 26.6,16.6 	"/>
	<polygon fill="#FFFFFF" points="18,18.6 105.1,15.1 105.1,17.3 18,20.7 	"/>
	<polygon fill="#FFFFFF" points="6.8,24.5 117.8,26.4 117.8,28.6 6.8,26.6 	"/>
	<polygon fill="#FFFFFF" points="47.3,21.2 119.6,20 119.6,22.2 47.3,23.4 	"/>
	<polygon fill="#FFFFFF" points="21.1,28.7 106.4,31.7 106.4,33.9 21.1,30.9 	"/>
	<polygon fill="#FFFFFF" points="26.1,35.1 104.5,35.7 104.5,37.8 26.1,37.2 	"/>
	<polygon fill="#FFFFFF" points="48.8,39.7 100.7,39.9 100.7,42.1 48.8,41.8 	"/>
	<polyline fill="#FFFFFF" points="43.6,46.2 105.3,43.5 105.3,45.6 43.6,48.3 	"/>
	<polyline fill="#FFFFFF" points="42.7,52.4 101.4,47.4 101.4,49.6 42.7,54.5 	"/>
	<polyline fill="#FFFFFF" points="47.5,57.3 96.3,51.9 96.3,54.1 47.5,59.5 	"/>
	<g id="Ellipse_1_14_">
		<path fill-rule="evenodd" fill="#FFFFFF" d="M79.7,5.9c-1.1,0-2,0.9-2,2s0.9,2,2,2s2-0.9,2-2S80.8,5.9,79.7,5.9z"/>
	</g>
	<g id="Ellipse_1_copy_14_">
		<circle fill-rule="evenodd" fill="#FFFFFF" cx="37.7" cy="10.2" r="2"/>
	</g>
	<g id="Ellipse_1_12_">
		<ellipse fill-rule="evenodd" fill="#FFFFFF" cx="74.2" cy="4" rx="2" ry="2"/>
	</g>
	<g id="Ellipse_1_copy_12_">
		<circle fill-rule="evenodd" fill="#FFFFFF" cx="44.6" cy="4.9" r="2"/>
	</g>
	<g id="Ellipse_1_copy_2_6_">
		<ellipse fill-rule="evenodd" fill="#FFFFFF" cx="26.8" cy="15.6" rx="2" ry="2"/>
	</g>
	<g id="Ellipse_1_copy_3_6_">
		<path fill-rule="evenodd" fill="#FFFFFF" d="M97.2,9.2c-1.1,0-2,0.9-2,2s0.9,2,2,2c1.1,0,2-0.9,2-2S98.3,9.2,97.2,9.2z"/>
	</g>
	<g id="Ellipse_1_copy_4_6_">
		<path fill-rule="evenodd" fill="#FFFFFF" d="M105.1,14.3c-1.1,0-2,0.9-2,2c0,1.1,0.9,2,2,2c1.1,0,2-0.9,2-2
			C107,15.1,106.1,14.3,105.1,14.3z"/>
	</g>
	<g id="Ellipse_1_copy_5_6_">
		<path fill-rule="evenodd" fill="#FFFFFF" d="M18.3,17.7c-1.1,0-2,0.9-2,2c0,1.1,0.9,2,2,2c1.1,0,2-0.9,2-2
			C20.2,18.5,19.3,17.7,18.3,17.7z"/>
	</g>
	<g id="Ellipse_1_copy_6_6_">
		<path fill-rule="evenodd" fill="#FFFFFF" d="M47.7,20.2c-1.1,0-2,0.8-2,1.9c0,1.1,0.8,2,1.9,2c1.1,0,2-0.8,2-1.9
			C49.7,21.2,48.8,20.3,47.7,20.2z"/>
	</g>
	<g id="Ellipse_1_copy_7_14_">
		<path fill-rule="evenodd" fill="#FFFFFF" d="M119.7,19.1c-1.1,0-2,0.8-2,1.9c0,1.1,0.8,2,1.9,2s2-0.8,2-1.9
			C121.6,20.1,120.8,19.2,119.7,19.1z"/>
	</g>
	<g id="Ellipse_1_copy_7_12_">
		<path fill-rule="evenodd" fill="#FFFFFF" d="M117.8,25.5c-1.1,0-2,0.9-2,2c0,1.1,0.9,2,2,2c1.1,0,2-0.9,2-2
			C119.8,26.4,118.9,25.5,117.8,25.5z"/>
	</g>
	<g id="Ellipse_1_copy_8_6_">
		<path fill-rule="evenodd" fill="#FFFFFF" d="M6.7,23.6c-1.1,0-2,0.9-2,2s0.9,2,2,2c1.1,0,2-0.9,2-2S7.8,23.6,6.7,23.6z"/>
	</g>
	<g id="Ellipse_1_copy_11_6_">
		<path fill-rule="evenodd" fill="#FFFFFF" d="M43.6,45.4c-1.1,0-2,0.9-2,2s0.9,2,2,2c1.1,0,2-0.9,2-2S44.7,45.4,43.6,45.4z"/>
	</g>
	<g id="Ellipse_1_copy_12_6_">
		<path fill-rule="evenodd" fill="#FFFFFF" d="M42.5,51.6c-1.1,0-2,0.9-2,2c0,1.1,0.9,2,2,2c1.1,0,2-0.9,2-2
			C44.5,52.4,43.6,51.6,42.5,51.6z"/>
	</g>
	<g id="Ellipse_1_copy_13_6_">
		<ellipse fill-rule="evenodd" fill="#FFFFFF" cx="47.5" cy="58.5" rx="2" ry="2"/>
	</g>
	<g id="Ellipse_1_copy_14_6_">
		<path fill-rule="evenodd" fill="#FFFFFF" d="M96.3,51c-1.1,0-2,0.9-2,2c0,1.1,0.9,2,2,2c1.1,0,2-0.9,2-2
			C98.3,51.9,97.4,51,96.3,51z"/>
	</g>
	<g id="Ellipse_1_copy_15_6_">
		<path fill-rule="evenodd" fill="#FFFFFF" d="M101.4,46.6c-1.1,0-2,0.9-2,2c0,1.1,0.9,2,2,2c1.1,0,2-0.9,2-2
			C103.3,47.4,102.5,46.6,101.4,46.6z"/>
	</g>
	<g id="Ellipse_1_copy_16_6_">
		<path fill-rule="evenodd" fill="#FFFFFF" d="M105.3,42.6c-1.1,0-2,0.9-2,2s0.9,2,2,2c1.1,0,2-0.9,2-2S106.4,42.6,105.3,42.6z"/>
	</g>
	<g id="Ellipse_1_copy_17_6_">
		<circle fill-rule="evenodd" fill="#FFFFFF" cx="100.7" cy="41" r="2"/>
	</g>
	<g id="Rounded_Rectangle_1_6_">
		<path fill-rule="evenodd" fill="#FFFFFF" d="M73.3,55.9h-1.9c-0.3,0-0.5,0.2-0.5,0.5l-2.6,27.8c0,0.3,0.2,0.5,0.5,0.5h4.5
			c0.3,0,0.5-0.2,0.5-0.5V56.4C73.9,56.2,73.6,55.9,73.3,55.9z"/>
	</g>
	<g id="Ellipse_1_copy_9_6_">
		<circle fill-rule="evenodd" fill="#FFFFFF" cx="21.4" cy="29.9" r="2"/>
	</g>
	<g id="Ellipse_1_copy_18_6_">
		<path fill-rule="evenodd" fill="#FFFFFF" d="M106.3,30.8c-1.1,0-2,0.9-2,2s0.9,2,2,2c1.1,0,2-0.9,2-2S107.4,30.8,106.3,30.8z"/>
	</g>
	<g id="Ellipse_1_copy_10_6_">
		<ellipse fill-rule="evenodd" fill="#FFFFFF" cx="26.1" cy="36.2" rx="2" ry="2"/>
	</g>
	<g id="Ellipse_1_copy_19_6_">
		<path fill-rule="evenodd" fill="#FFFFFF" d="M104.5,34.8c-1.1,0-2,0.9-2,2s0.9,2,2,2c1.1,0,2-0.9,2-2S105.6,34.8,104.5,34.8z"/>
	</g>
	<g id="Ellipse_1_copy_20_6_">
		<path fill-rule="evenodd" fill="#FFFFFF" d="M48.8,38.7c-1.1,0-2,0.9-2,2c0,1.1,0.9,2,2,2c1.1,0,2-0.9,2-2
			C50.8,39.6,49.9,38.7,48.8,38.7z"/>
	</g>
	<g>
		<path fill="#FFFFFF" d="M115.5,72.1c-0.1,0.2-0.4,0.7-0.7,1.4c-0.4,0.7-0.8,1.6-1.4,2.5c-0.6,0.9-1.2,1.9-2,3
			c-0.7,1-1.6,2-2.5,2.8c-0.9,0.9-1.9,1.6-3,2.1c-1.1,0.6-2.2,0.8-3.4,0.8c-1.7,0-3.1-0.5-4.2-1.6c-1.1-1.1-2-2.4-2.5-4
			c-1,1.6-2.1,2.9-3.5,3.9c-1.4,1-2.7,1.4-4.1,1.4c-1.1,0-2-0.2-2.9-0.6c-0.9-0.4-1.6-0.9-2.2-1.6c-0.6-0.7-1.1-1.5-1.4-2.5
			c-0.3-0.9-0.5-2-0.5-3.1c0-2.2,0.4-4.2,1.1-5.9c0.8-1.7,1.7-3.1,2.9-4.3c1.2-1.1,2.5-2,3.9-2.6c1.4-0.6,2.8-0.9,4.1-0.9
			c0.9,0,1.7,0.1,2.5,0.4c0.7,0.2,1.4,0.5,1.9,0.8c0.5,0.3,0.9,0.6,1.2,0.8c0.3,0.2,0.4,0.4,0.5,0.4c0.3,0.4,0.5,0.8,0.5,1.2
			c0,0.4-0.2,0.8-0.5,1.1c-0.3,0.3-0.7,0.5-1.1,0.5c-0.5,0-0.8-0.2-1.2-0.5c-0.1-0.1-0.2-0.2-0.4-0.3c-0.2-0.2-0.5-0.3-0.8-0.5
			c-0.3-0.2-0.8-0.3-1.2-0.5c-0.5-0.1-1-0.2-1.6-0.2c-0.9,0-1.8,0.2-2.8,0.6c-1,0.4-1.9,1-2.8,1.9c-0.8,0.8-1.5,1.9-2.1,3.2
			c-0.6,1.3-0.8,2.8-0.8,4.6c0,0.5,0.1,1.1,0.2,1.7c0.1,0.6,0.3,1.1,0.6,1.5c0.3,0.5,0.7,0.8,1.2,1.1c0.5,0.3,1.1,0.4,1.8,0.4
			c0.5,0,1.1-0.2,1.8-0.5c0.7-0.3,1.3-0.9,1.9-1.6c0.6-0.7,1.2-1.6,1.7-2.7c0.5-1.1,0.9-2.4,1.1-3.9c0.1-0.4,0.2-0.7,0.6-1
			c0.3-0.3,0.7-0.4,1.1-0.4c0.4,0,0.8,0.2,1.1,0.5c0.3,0.3,0.5,0.7,0.5,1.1c0,0.5,0.1,1.3,0.2,2.3c0.1,1,0.3,2,0.6,3
			c0.3,1,0.8,1.8,1.4,2.5c0.6,0.7,1.4,1.1,2.5,1.1c0.7,0,1.4-0.2,2-0.6c0.7-0.4,1.3-0.9,2-1.5c0.6-0.6,1.3-1.3,1.9-2.1
			c0.6-0.8,1.1-1.6,1.6-2.4c0.5-0.8,0.9-1.6,1.3-2.3c0.4-0.7,0.7-1.4,0.9-1.9c0.1-0.3,0.4-0.6,0.6-0.7c0.3-0.2,0.6-0.3,0.9-0.3
			c0.5,0,0.9,0.2,1.2,0.5c0.3,0.4,0.5,0.7,0.5,1.1C115.7,71.7,115.6,71.9,115.5,72.1z"/>
		<path fill="#FFFFFF" d="M122.1,80.3c0.5-0.9,1-2,1.6-3.1c0.6-1.1,1.3-2.3,1.9-3.5c0.7-1.2,1.4-2.3,2.2-3.5
			c0.8-1.1,1.6-2.2,2.4-3.3c0.8-1,1.7-1.7,2.5-2.2c0.8-0.4,1.6-0.7,2.4-0.7c1.5,0,2.6,0.5,3.3,1.6c0.7,1.1,1.1,2.4,1.1,4.1
			c0,0.4,0,0.8-0.1,1.4c0,0.5-0.1,1.1-0.1,1.7c0,0.6-0.1,1.2-0.1,1.8c0,0.6-0.1,1.2-0.1,1.7c0,0.7,0,1.4,0.1,2
			c0.1,0.6,0.2,1.2,0.4,1.7c0.2,0.5,0.5,0.8,0.9,1.1c0.4,0.3,0.9,0.4,1.5,0.4c1.1,0,2.2-0.4,3.2-1.3c1-0.8,2-1.9,2.9-3
			s1.6-2.4,2.3-3.6c0.6-1.2,1.1-2.2,1.4-2.9c0.1-0.3,0.4-0.6,0.6-0.7c0.3-0.2,0.6-0.3,0.9-0.3c0.5,0,0.9,0.2,1.2,0.5
			c0.3,0.4,0.5,0.7,0.5,1.1c0,0.2,0,0.4-0.1,0.6c-0.1,0.2-0.3,0.7-0.7,1.4c-0.3,0.7-0.8,1.5-1.4,2.5c-0.6,0.9-1.2,1.9-2,3
			c-0.7,1-1.6,2-2.5,2.9c-0.9,0.9-1.9,1.6-2.9,2.2c-1.1,0.6-2.1,0.9-3.3,0.9c-1.3,0-2.3-0.3-3.1-0.8c-0.8-0.5-1.4-1.2-1.9-2
			c-0.5-0.8-0.8-1.7-0.9-2.7c-0.2-1-0.2-2-0.2-3c0-0.4,0-0.9,0.1-1.5c0-0.5,0.1-1.1,0.2-1.7c0.1-0.6,0.1-1.2,0.2-1.8
			c0-0.6,0.1-1.2,0.1-1.7c0-0.9-0.1-1.5-0.4-1.9c-0.3-0.3-0.5-0.5-0.8-0.5c-0.5,0-1,0.3-1.6,0.8c-0.6,0.5-1.2,1.2-1.9,2.1
			c-0.6,0.9-1.3,1.8-2,2.9c-0.7,1.1-1.3,2.2-1.9,3.2c-0.6,1.1-1.1,2.1-1.6,3c-0.5,1-0.9,1.8-1.2,2.4c-0.6,1.2-1.2,2-1.7,2.4
			c-0.6,0.4-1.2,0.6-1.8,0.6c-0.8,0-1.5-0.3-2-0.8s-0.8-1.2-0.8-2.1c0-0.2,0-0.6,0.1-1.2c0.1-0.6,0.1-1.3,0.2-2.1
			c0.1-0.8,0.2-1.7,0.3-2.7c0.1-0.9,0.2-1.9,0.3-2.8c0.1-0.9,0.2-1.8,0.2-2.6c0.1-0.8,0.1-1.5,0.1-2c0-0.7,0-1.4-0.1-2.1
			c-0.1-0.7-0.2-1.1-0.3-1.2c-0.3,0.1-0.7,0.6-1.4,1.6c-0.7,1-1.5,2.7-2.5,5.2c-0.1,0.3-0.4,0.6-0.6,0.7c-0.3,0.2-0.6,0.3-0.9,0.3
			c-0.5,0-0.9-0.2-1.2-0.5c-0.3-0.3-0.4-0.7-0.4-1.1c0-0.2,0-0.4,0.1-0.6c1.3-3.1,2.5-5.3,3.6-6.8c1.1-1.5,2.3-2.2,3.4-2.2
			c0.7,0,1.2,0.2,1.7,0.5c0.5,0.3,0.8,0.8,1.1,1.3c0.3,0.5,0.5,1.2,0.6,1.8c0.1,0.7,0.2,1.3,0.2,2c0,0.5,0,1.3-0.1,2.4
			c-0.1,1.1-0.2,2.3-0.3,3.5c-0.1,1.3-0.2,2.5-0.3,3.7C122.3,78.4,122.2,79.4,122.1,80.3z"/>
		<path fill="#FFFFFF" d="M157,79.4c0.6,0.8,1.4,1.5,2.3,2c0.9,0.5,2.1,0.8,3.5,0.8c1.4,0,2.7-0.3,3.8-1c1.1-0.7,2.2-1.6,3.1-2.7
			c0.9-1.1,1.8-2.3,2.5-3.7c0.7-1.4,1.4-2.7,2-4.1c0.1-0.3,0.3-0.6,0.6-0.7c0.3-0.2,0.5-0.2,0.9-0.2c0.5,0,0.9,0.2,1.2,0.5
			c0.3,0.3,0.5,0.7,0.5,1.1c0,0.1,0,0.3,0,0.4c0,0.1-0.1,0.2-0.1,0.3c-2,4.4-4.1,7.7-6.5,9.9c-2.3,2.2-5,3.3-8,3.4
			c-1.9,0-3.5-0.4-4.9-1.1c-1.4-0.7-2.5-1.7-3.4-2.8c-0.9-1.2-1.6-2.5-2-3.9c-0.4-1.5-0.6-2.9-0.6-4.4s0.2-2.8,0.5-4.1
			c0.4-1.2,0.9-2.3,1.6-3.2c0.7-0.9,1.5-1.6,2.4-2.2c0.9-0.5,2-0.8,3.1-0.8c0.7,0,1.3,0.1,2,0.4c0.6,0.3,1.2,0.7,1.7,1.2
			c0.5,0.5,0.9,1.1,1.3,1.8c0.3,0.7,0.5,1.5,0.5,2.5c0,1.2-0.2,2.3-0.6,3.3c-0.4,1-1,2-1.7,2.9c-0.7,0.9-1.5,1.7-2.5,2.5
			C159.2,78.2,158.1,78.9,157,79.4z M155.7,76.6c0.9-0.4,1.7-0.8,2.4-1.4c0.7-0.6,1.4-1.2,1.9-1.9c0.5-0.7,0.9-1.4,1.2-2.2
			c0.3-0.8,0.4-1.5,0.4-2.3c0-0.9-0.2-1.5-0.6-2c-0.4-0.4-0.9-0.7-1.5-0.7c-0.8,0-1.4,0.2-2,0.6c-0.5,0.4-1,1-1.3,1.7
			c-0.3,0.7-0.6,1.5-0.8,2.3c-0.2,0.8-0.2,1.7-0.2,2.5c0,0.5,0.1,1.1,0.2,1.6C155.5,75.6,155.6,76.1,155.7,76.6z"/>
	</g>
	<g>
		<path fill="#FFFFFF" d="M83.3,98.9c0,0,0-0.1,0-0.2c0-0.2,0.1-0.3,0.3-0.3c0.1,0,0.2,0.1,0.2,0.1c0.5,0.7,1,1.1,1.9,1.1
			c1,0,1.8-0.7,1.8-2.2v-5.2c0-0.2,0.1-0.3,0.3-0.3c0.2,0,0.3,0.1,0.3,0.3v5.2c0,0.9-0.3,1.6-0.7,2.1c-0.4,0.4-1,0.6-1.6,0.6
			C84.5,100.2,83.7,99.6,83.3,98.9z"/>
		<path fill="#FFFFFF" d="M92.6,99.8v-7.5c0-0.2,0.1-0.3,0.3-0.3h5.2c0.2,0,0.3,0.1,0.3,0.3c0,0.1-0.1,0.3-0.3,0.3h-4.9v3.2h4.4
			c0.2,0,0.3,0.1,0.3,0.3c0,0.2-0.1,0.3-0.3,0.3h-4.4v3.2h5c0.2,0,0.3,0.1,0.3,0.3c0,0.1-0.1,0.3-0.3,0.3h-5.3
			C92.7,100.1,92.6,99.9,92.6,99.8z"/>
		<path fill="#FFFFFF" d="M102.1,92.4c0-0.1,0-0.1,0-0.2c0-0.2,0.1-0.3,0.3-0.3s0.3,0.1,0.3,0.3l2.5,6.9l2.3-7
			c0-0.1,0.1-0.2,0.3-0.2h0c0.1,0,0.2,0.1,0.3,0.2l2.3,7l2.5-7c0.1-0.1,0.1-0.2,0.3-0.2c0.1,0,0.3,0.1,0.3,0.3c0,0,0,0.1,0,0.2
			l-2.7,7.5c-0.1,0.1-0.1,0.3-0.3,0.3h0c-0.2,0-0.3-0.1-0.3-0.3l-2.3-6.8l-2.3,6.8c0,0.1-0.2,0.3-0.3,0.3h0c-0.2,0-0.3-0.1-0.3-0.3
			L102.1,92.4z"/>
		<path fill="#FFFFFF" d="M117.6,99.8v-7.5c0-0.2,0.1-0.3,0.3-0.3h5.2c0.2,0,0.3,0.1,0.3,0.3c0,0.1-0.1,0.3-0.3,0.3h-4.9v3.2h4.4
			c0.1,0,0.3,0.1,0.3,0.3c0,0.2-0.1,0.3-0.3,0.3h-4.4v3.2h5c0.2,0,0.3,0.1,0.3,0.3c0,0.1-0.1,0.3-0.3,0.3h-5.3
			C117.7,100.1,117.6,99.9,117.6,99.8z"/>
		<path fill="#FFFFFF" d="M127.6,92.3c0-0.2,0.1-0.3,0.3-0.3s0.3,0.1,0.3,0.3v7.3h4.5c0.2,0,0.3,0.1,0.3,0.3c0,0.1-0.1,0.3-0.3,0.3
			h-4.8c-0.2,0-0.3-0.1-0.3-0.3V92.3z"/>
		<path fill="#FFFFFF" d="M137,92.3c0-0.2,0.1-0.3,0.3-0.3h3.1c1,0,1.8,0.3,2.3,0.8c0.4,0.4,0.6,0.9,0.6,1.5v0c0,1.3-1,2.1-2.4,2.3
			l2.3,3c0.1,0.1,0.1,0.1,0.1,0.2c0,0.2-0.2,0.3-0.3,0.3c-0.1,0-0.2-0.1-0.3-0.2l-2.5-3.2h-2.6v3.1c0,0.2-0.1,0.3-0.3,0.3
			c-0.2,0-0.3-0.1-0.3-0.3V92.3z M140.4,96.2c1.3,0,2.3-0.7,2.3-1.8v0c0-1.1-0.9-1.8-2.3-1.8h-2.8v3.6H140.4z"/>
		<path fill="#FFFFFF" d="M150,96.9l-3.1-4.4c0-0.1-0.1-0.1-0.1-0.2c0-0.2,0.2-0.3,0.3-0.3c0.1,0,0.2,0.1,0.3,0.2l2.9,4.2l2.9-4.2
			c0.1-0.1,0.1-0.2,0.3-0.2c0.2,0,0.3,0.1,0.3,0.3c0,0.1,0,0.2-0.1,0.2l-3.1,4.4v2.9c0,0.2-0.1,0.3-0.3,0.3c-0.2,0-0.3-0.1-0.3-0.3
			V96.9z"/>
	</g>
</g>
<g>
</g>
<g>
</g>
<g>
</g>
<g>
</g>
<g>
</g>
<g>
</g>
<g>
</g>
<g>
</g>
<g>
</g>
<g>
</g>
<g>
</g>
<g>
</g>
<g>
</g>
<g>
</g>
<g>
</g>
</svg>
