<?xml version="1.0" standalone="no"?><!DOCTYPE svg PUBLIC "-//W3C//DTD SVG 1.1//EN" "http://www.w3.org/Graphics/SVG/1.1/DTD/svg11.dtd" ><svg xmlns="http://www.w3.org/2000/svg"><metadata></metadata><defs><font id="2.001;ITFO;Kalam-Bold" horiz-adv-x="968"><font-face font-family="Kalam" font-weight="700" font-stretch="normal" units-per-em="1000" panose-1="2 0 0 0 0 0 0 0 0 0" ascent="1063" descent="-531" x-height="0" bbox="-260 -259 942 982" underline-thickness="50" underline-position="-125" unicode-range="U+0020-2019" /><missing-glyph horiz-adv-x="756" d="M241 625 l0 -549 l275 0 l0 549 l-275 0 ZM160 0 l0 701 l436 0 l0 -701 l-436 0 Z" /><glyph glyph-name="" unicode=" " d="" /><glyph glyph-name="" unicode="&quot;" d="M344 867 q0 15 16.5 15 q16.5 0 49 -24.5 q32.5 -24.5 32.5 -34.5 q0 -60 -19 -177.5 q-19 -117.5 -48 -117.5 q-12 0 -30.5 15.5 q-18.5 15.5 -18.5 30.5 q0 2 9 106.5 q9 104.5 9 186.5 ZM135 867 q0 15 16 15 q16 0 48.5 -24.5 q32.5 -24.5 32.5 -34.5 q0 -61 -18.5 -178 q-18.5 -117 -48.5 -117 q-12 0 -30 15.5 q-18 15.5 -18 30.5 q0 2 9 106.5 q9 104.5 9 186.5 Z" /><glyph glyph-name="" unicode="&#39;" d="M149 867 q0 15 16.5 15 q16.5 0 54.5 -24.5 q38 -24.5 38 -34.5 q0 -21 -13.5 -94 q-13.5 -73 -36.5 -141 q-23 -68 -41 -60 q-12 0 -30 15.5 q-18 15.5 -18 30.5 q0 3 15 109.5 q15 106.5 15 183.5 Z" /><glyph glyph-name="" unicode="(" d="M503 888 q31 0 52 -19 q21 -19 21 -41 q0 -22 -27 -49 q-27 -27 -67.5 -56 q-40.5 -29 -88 -75 q-47.5 -46 -88 -97.5 q-40.5 -51.5 -67.5 -128.5 q-27 -77 -27 -152.5 q0 -75.5 26 -126.5 q26 -51 63.5 -81 q37.5 -30 75 -53.5 q37.5 -23.5 63.5 -44.5 q26 -21 26 -41 q0 -23 -33 -23 q-87 0 -169.5 48 q-82.5 48 -136 136 q-53.5 88 -53.5 189 q0 101 34.5 198.5 q34.5 97.5 86.5 170.5 q52 73 112 130 q60 57 113 86.5 q53 29.5 84 29.5 Z" /><glyph glyph-name="" unicode=")" d="M455 616 q0 -125 -38.5 -243 q-38.5 -118 -96 -201.5 q-57.5 -83.5 -122.5 -148 q-65 -64.5 -119 -96.5 q-54 -32 -77 -32 q-40 0 -40 24 q0 29 92 113 q87 82 170 208 q39 60 65 143 q26 83 26 153.5 q0 70.5 -16 109.5 q-16 39 -38.5 60 q-22.5 21 -45.5 37 q-23 16 -39 33.5 q-16 17.5 -16 47.5 q0 30 21.5 49.5 q21.5 19.5 60.5 19.5 q80 0 146.5 -87.5 q66.5 -87.5 66.5 -189.5 Z" /><glyph glyph-name="" unicode="*" d="M231 694 l-3 95 q0 17 13 17 q13 0 34.5 -16 q21.5 -16 21.5 -25.5 q0 -9.5 -8 -35.5 q-8 -26 -9 -31 q17 10 47.5 37 q30.5 27 38.5 27 q8 0 22 -11.5 q14 -11.5 14 -24.5 q0 -13 -108 -64 q11 -10 35.5 -24.5 q24.5 -14.5 42 -25 q17.5 -10.5 17.5 -15.5 q0 -8 -9 -14 q-9 -6 -20 -6 q-11 0 -40 14.5 q-29 14.5 -49 31.5 q-5 -34 -16 -71 q-11 -37 -21 -37 q-10 0 -20.5 10 q-10.5 10 -10.5 17.5 q0 7.5 4 25 q4 17.5 9.5 37 q5.5 19.5 6.5 24.5 q-18 -17 -53.5 -35 q-35.5 -18 -46 -18 q-10.5 0 -21 9.5 q-10.5 9.5 -10.5 17.5 q0 6 23.5 16.5 q23.5 10.5 54.5 23.5 q31 13 43 21 q-39 16 -77.5 47 q-38.5 31 -38.5 44 q0 13 11 13 q24 0 52 -8.5 q28 -8.5 28 -20.5 q0 -7 14.5 -22 q14.5 -15 28.5 -23 Z" /><glyph glyph-name="" unicode="+" d="M281 572 q0 32 29 32 q31 0 77 -41.5 q46 -41.5 46 -64 q0 -22.5 -17 -100.5 q63 3 100 3 q117 0 117 -29 q0 -63 -244 -90 l-3 -15 q-29 -123 -41.5 -159.5 q-12.5 -36.5 -29.5 -36.5 q-23 0 -53 29.5 q-30 29.5 -30 57.5 q0 2 21 113 q-72 -4 -122 -4 q-31 0 -53.5 29.5 q-22.5 29.5 -22.5 57 q0 27.5 31 27.5 q72 0 165 9 l20 1 q10 87 10 181 Z" /><glyph glyph-name="" unicode="," d="M221 19 q0 -79 -61 -161.5 q-61 -82.5 -110 -82.5 q-30 0 -30 21 q0 10 21 40 q63 88 63 134 q0 21 -18 37 q-18 16 -35.5 28.5 q-17.5 12.5 -17.5 30.5 q0 18 28.5 47 q28.5 29 62.5 29 q34 0 65.5 -39 q31.5 -39 31.5 -84 Z" /><glyph glyph-name="" unicode="-" d="M497 335 q0 -26 -61 -43 q-48 -14 -110 -26.5 q-62 -12.5 -104 -23.5 q-88 -21 -108 -21 q-20 0 -42 27.5 q-22 27.5 -22 52.5 q0 28 116.5 48 q116.5 20 254.5 20 q76 0 76 -34 Z" /><glyph glyph-name="" unicode="." d="M144 -5 q-32 0 -71.5 39 q-39.5 39 -39.5 67.5 q0 28.5 25 57 q25 28.5 50.5 28.5 q25.5 0 57.5 -56 q32 -56 32 -85 q0 -15 -18.5 -33 q-18.5 -18 -35.5 -18 Z" /><glyph glyph-name="" unicode="/" d="M73 -80 q-22 0 -50 35 q-28 35 -28 63 q0 28 57.5 180 q57.5 152 137.5 351.5 q80 199.5 94 239.5 q14 40 16 46 q5 16 9 17 q9 5 16 5 q20 0 58 -48 q38 -48 38 -80 q0 -30 -21.5 -84 q-21.5 -54 -38.5 -93 q-72 -167 -109 -259 q-154 -373 -179 -373 Z" /><glyph glyph-name="" unicode="0" d="M376 521 q0 95 -27 95 q-17 0 -45 -35.5 q-28 -35.5 -56 -89 q-28 -53.5 -48 -125.5 q-20 -72 -20 -136 q0 -96 32 -96 q27 0 66 66.5 q39 66.5 68.5 160 q29.5 93.5 29.5 160.5 ZM432.5 202 q-38.5 -80 -97.5 -134.5 q-59 -54.5 -127 -54.5 q-68 0 -121.5 71.5 q-53.5 71.5 -53.5 155 q0 83.5 29 179 q29 95.5 74 167 q45 71.5 101.5 116.5 q56.5 45 109.5 45 q79 0 125 -56 q46 -56 46 -160 q0 -71 -23.5 -160 q-23.5 -89 -62 -169 Z" /><glyph glyph-name="" unicode="1" d="M297 648 q0 -63 -18 -141.5 q-18 -78.5 -34 -139.5 q-16 -61 -28.5 -118 q-12.5 -57 -21 -92.5 q-8.5 -35.5 -19.5 -72.5 q-22 -71 -48 -71 q-23 0 -52.5 29.5 q-29.5 29.5 -29.5 53.5 q0 24 22 110 q22 86 44.5 225.5 q22.5 139.5 22.5 290.5 q0 29 29.5 29 q29.5 0 81 -42 q51.5 -42 51.5 -61 Z" /><glyph glyph-name="" unicode="2" d="M181 149 q179 33 271.5 33 q92.5 0 92.5 -40 q0 -38 -158.5 -82 q-158.5 -44 -243.5 -44 q-35 0 -85 45 q-50 45 -50 80 q0 23 128 128 q53 44 106 92.5 q53 48.5 90.5 99.5 q37.5 51 37.5 91.5 q0 40.5 -38 40.5 q-29 0 -51.5 -21.5 q-22.5 -21.5 -35 -43 q-12.5 -21.5 -18.5 -21.5 q-26 0 -65.5 28.5 q-39.5 28.5 -39.5 49.5 q0 57 60.5 108.5 q60.5 51.5 146 51.5 q85.5 0 134.5 -52.5 q49 -52.5 49 -133.5 q0 -109 -93.5 -219 q-93.5 -110 -237.5 -191 Z" /><glyph glyph-name="" unicode="3" d="M153 355 l0 4 q0 12 11 20 q13 16 51 44 q38 28 71.5 52.5 q33.5 24.5 60.5 58.5 q27 34 27 66 q0 12 -9 12 q-33 0 -94 -32.5 q-61 -32.5 -78 -32.5 q-17 0 -54 35.5 q-37 35.5 -37 52.5 q0 28 47 54.5 q47 26.5 107.5 41 q60.5 14.5 106.5 14.5 q66 0 114.5 -48 q48.5 -48 48.5 -101 q0 -53 -44.5 -109.5 q-44.5 -56.5 -110.5 -101.5 q140 -31 140 -127 q0 -61 -70.5 -119.5 q-70.5 -58.5 -170.5 -92.5 q-100 -34 -189 -34 q-108 0 -108 47 q0 26 180 79 q67 19 123.5 52 q56.5 33 56.5 68 q0 19 -20 29.5 q-20 10.5 -45 13.5 q-76 9 -99 27 q-16 10 -16 27 Z" /><glyph glyph-name="" unicode="4" d="M418 579 q25 0 67.5 -37 q42.5 -37 42.5 -61 q0 -58 -71 -278.5 q-71 -220.5 -107 -220.5 q-19 0 -42.5 28.5 q-23.5 28.5 -23.5 48.5 q0 20 5 42.5 q5 22.5 10.5 42 q5.5 19.5 17 55.5 q11.5 36 18.5 58 q-72 -25 -141.5 -25 q-69.5 0 -108 38 q-38.5 38 -38.5 102 q0 46 49.5 140 q49.5 94 109.5 169 q60 75 85.5 75 q25.5 0 53 -25 q27.5 -25 27.5 -46.5 q0 -21.5 -93.5 -154.5 q-93.5 -133 -93.5 -157 q0 -10 4 -13 q4 -3 18 -3 q34 0 98 27 q64 27 69 28 q13 71 13 137 q0 30 31 30 Z" /><glyph glyph-name="" unicode="5" d="M393 739 q183 0 183 -44 q0 -19 -31 -33 q-37 -18 -89.5 -30 q-52.5 -12 -84 -19 q-31.5 -7 -49.5 -11.5 q-18 -4.5 -35.5 -41.5 q-17.5 -37 -17.5 -58 q0 -21 19.5 -44 q19.5 -23 47.5 -45 q28 -22 56 -46 q67 -57 67 -116 q0 -91 -89.5 -166.5 q-89.5 -75.5 -175.5 -75.5 q-86 0 -146.5 46.5 q-60.5 46.5 -60.5 105.5 q0 19 7 33 q7 14 19 14 q12 0 31 -18 q59 -56 105 -56 q46 0 99.5 38 q53.5 38 53.5 76 q0 34 -67 79 q-28 19 -55.5 41 q-27.5 22 -47 56 q-19.5 34 -19.5 82 q0 48 48 133.5 q48 85.5 88 92.5 q40 7 144 7 Z" /><glyph glyph-name="" unicode="6" d="M287 444 q89 -11 157 -55 q68 -44 68 -100.5 q0 -56.5 -50.5 -120.5 q-50.5 -64 -131 -107.5 q-80.5 -43.5 -155 -43.5 q-74.5 0 -118.5 46.5 q-44 46.5 -44 113 q0 66.5 46.5 166.5 q46.5 100 107.5 186.5 q61 86.5 122 149.5 q61 63 91 63 q30 0 62 -16.5 q32 -16.5 32 -36.5 q0 -12 -25 -45.5 q-25 -33.5 -78 -96.5 q-53 -63 -84 -103 ZM188 146 q63 0 113 42.5 q50 42.5 50 89.5 q0 25 -34 47 q-34 22 -93 32 q-70 -106 -70 -168 q0 -43 34 -43 Z" /><glyph glyph-name="" unicode="7" d="M334 608 l-159 -14 q-25 0 -57.5 43 q-32.5 43 -32.5 66 q0 38 215 38 q120 0 136 -15 q23 -21 43.5 -62.5 q20.5 -41.5 20.5 -76.5 q0 -20 -21.5 -60 q-21.5 -40 -33.5 -61.5 q-12 -21.5 -34.5 -59 q-22.5 -37.5 -41 -69 q-18.5 -31.5 -50.5 -91 q-32 -59.5 -52.5 -98 q-20.5 -38.5 -42.5 -75.5 q-42 -73 -64.5 -73 q-22.5 0 -45 28 q-22.5 28 -22.5 59.5 q0 31.5 43.5 112.5 q43.5 81 94.5 160 q139 211 139 238 q0 10 -35 10 Z" /><glyph glyph-name="" unicode="8" d="M593 597 q0 -93 -167 -239 q80 -82 80 -161 q0 -69 -93.5 -125.5 q-93.5 -56.5 -186.5 -56.5 q-43 0 -99.5 42 q-56.5 42 -56.5 90 q0 88 156 218 q-47 36 -73.5 58.5 q-26.5 22.5 -50.5 54 q-24 31.5 -24 59 q0 27.5 9.5 59 q9.5 31.5 25.5 31.5 q11 0 22 -9 q11 -9 28 -29 q17 -20 27 -30.5 q10 -10.5 29.5 -27 q19.5 -16.5 30.5 -26 q11 -9.5 40 -32 q29 -22.5 35 -27.5 q64 51 97.5 85.5 q33.5 34.5 33.5 62 q0 27.5 -34 27.5 q-45 0 -99.5 -30 q-54.5 -30 -73 -30 q-18.5 0 -44.5 19 q-26 19 -26 39 q0 50 68.5 88 q68.5 38 175.5 38 q78 0 124 -37 q46 -37 46 -111 ZM366 221 q0 24 -36 58 q-94 -73 -112 -99 q-9 -11 -9 -18.5 q0 -7.5 12.5 -17.5 q12.5 -10 17.5 -10 q37 0 82 26 q45 26 45 61 Z" /><glyph glyph-name="" unicode="9" d="M499 495 q0 -30 -25 -66 q-30 -73 -41 -107 q-11 -34 -36 -129.5 q-25 -95.5 -43 -145.5 q-18 -50 -36 -50 q-45 0 -45 114 q0 76 26 185 q-43 -17 -78 -17 q-47 0 -101 56.5 q-54 56.5 -54 100.5 q0 72 39 147 q39 75 99 123.5 q60 48.5 121 48.5 q61 0 93 -47 q32 -47 32 -106 q0 -34 -5 -55 q42 -8 50 -39 q4 -5 4 -13 ZM329 509 l4 68 q0 18 -7 34.5 q-7 16.5 -15 16.5 q-24 0 -74 -72 q-50 -72 -50 -121 q0 -15 13.5 -28 q13.5 -13 32.5 -13 q19 0 44.5 16.5 q25.5 16.5 39.5 31.5 q14 15 40 45 q-28 6 -28 22 Z" /><glyph glyph-name="" unicode=":" d="M241 354 q0 -35 -12.5 -51.5 q-12.5 -16.5 -36 -16.5 q-23.5 0 -62 59.5 q-38.5 59.5 -38.5 91 q0 31.5 17.5 66 q17.5 34.5 34.5 34.5 q38 0 67.5 -74 q29.5 -74 29.5 -109 ZM197 47 q0 -23 -13 -40 q-13 -17 -36.5 -17 q-23.5 0 -62 59.5 q-38.5 59.5 -38.5 91 q0 31.5 17.5 66 q17.5 34.5 34.5 34.5 q38 0 68 -74 q30 -74 30 -120 Z" /><glyph glyph-name="" unicode=";" d="M222 26 q0 -79 -61 -161.5 q-61 -82.5 -110 -82.5 q-30 0 -30 21 q0 10 21 39 q63 89 63 135 q0 31 -35.5 52 q-35.5 21 -35.5 41.5 q0 20.5 28.5 49.5 q28.5 29 62.5 29 q34 0 65.5 -39 q31.5 -39 31.5 -84 ZM223 286 q-27 0 -65 59 q-38 59 -38 91 q0 32 17 66.5 q17 34.5 34 34.5 q27 0 50.5 -40 q23.5 -40 35.5 -84 q12 -44 12 -68.5 q0 -24.5 -13 -41.5 q-13 -17 -33 -17 Z" /><glyph glyph-name="" unicode="?" d="M281 1 q-30 0 -67 37 q-37 37 -37 63.5 q0 26.5 23 53 q23 26.5 46 26.5 q23 0 53.5 -54 q30.5 -54 30.5 -81 q0 -13 -16.5 -29 q-16.5 -16 -32.5 -16 ZM230 650 q0 59 55.5 105.5 q55.5 46.5 125 46.5 q69.5 0 116 -42 q46.5 -42 46.5 -115 q0 -44 -25 -87.5 q-25 -43.5 -57 -72.5 q-93 -84 -116 -132 q-28 -62 -37 -78 q-16 -29 -36 -29 q-36 0 -36 95 q0 36 18 71 q18 35 44 61.5 q26 26.5 52 51.5 q62 60 62 103 q0 16 -12 25.5 q-12 9.5 -32 9.5 q-20 0 -34.5 -12.5 q-14.5 -12.5 -14.5 -36.5 q0 -24 -15 -31 q-24 -12 -35.5 -12 q-11.5 0 -40 30.5 q-28.5 30.5 -28.5 48.5 Z" /><glyph glyph-name="" unicode="a" d="M509 388 q40 0 57.5 -7.5 q17.5 -7.5 17.5 -27.5 q0 -27 -87 -55 q2 -76 2 -145.5 q0 -69.5 -11 -104 q-11 -34.5 -35 -34.5 q-24 0 -37.5 24.5 q-13.5 24.5 -22 80.5 q-8.5 56 -17.5 148 q-102 -23 -147 -37 q-78 -216 -104 -216 q-21 0 -55.5 28 q-34.5 28 -34.5 58 q0 17 39 106 q-17 11 -29.5 31.5 q-12.5 20.5 -12.5 39.5 q0 33 99 63 q8 20 16.5 45.5 q8.5 25.5 43 119.5 q34.5 94 54.5 157 q9 30 62.5 56 q53.5 26 83.5 26 q35 0 62.5 -97 q27.5 -97 38.5 -259 l17 0 ZM278 371 q30 4 87 10 q-3 29 -9.5 99 q-6.5 70 -9.5 101 q-17 -56 -68 -210 Z" /><glyph glyph-name="" unicode="b" d="M565 260 q0 -62 -68.5 -122 q-68.5 -60 -166 -95.5 q-97.5 -35.5 -185.5 -35.5 q-38 0 -89 46.5 q-51 46.5 -51 76.5 q0 17 7.5 27 q7.5 10 17.5 10 q10 0 44.5 -16.5 q34.5 -16.5 52 -16.5 q17.5 0 34.5 3 q-25 10 -50 35 q-25 25 -25 48 q0 10 33 145.5 q33 135.5 35 231.5 q-18 17 -32.5 41.5 q-14.5 24.5 -14.5 36.5 q0 28 44 45 q44 17 110 17 q140 0 224.5 -37 q84.5 -37 84.5 -118 q0 -51 -43 -104 q-43 -53 -113 -97 l10 -3 q60 -16 100.5 -47.5 q40.5 -31.5 40.5 -70.5 ZM388 609 q-31 0 -146 -22 q36 -40 36 -66.5 q0 -26.5 -17 -97.5 q16 12 57 35 q41 23 51.5 30.5 q10.5 7.5 28.5 22.5 q34 27 34 62.5 q0 35.5 -44 35.5 ZM439 264 q0 20 -57.5 34.5 q-57.5 14.5 -95.5 14.5 q-21 0 -45 31 q-45 -185 -54 -203 q84 18 168 55 q84 37 84 68 Z" /><glyph glyph-name="" unicode="c" d="M439 747 q28 0 61 -49.5 q33 -49.5 33 -81.5 q0 -32 -13 -32 q-6 0 -25.5 4 q-19.5 4 -33.5 4 q-50 0 -117 -64 q-67 -64 -114.5 -153 q-47.5 -89 -47.5 -154 q0 -32 10 -46.5 q10 -14.5 36 -14.5 q69 0 140 21 q71 21 117 42.5 q46 21.5 52.5 21.5 q6.5 0 13 -11.5 q6.5 -11.5 6.5 -27.5 q0 -34 -54 -80.5 q-54 -46.5 -130.5 -79.5 q-76.5 -33 -138.5 -33 q-62 0 -130.5 75 q-68.5 75 -68.5 143 q0 95 61 216.5 q61 121.5 157.5 210.5 q96.5 89 185.5 89 Z" /><glyph glyph-name="" unicode="d" d="M110 747 q78 0 170.5 -32 q92.5 -32 172 -84 q79.5 -52 133 -125 q53.5 -73 53.5 -148 q0 -56 -90.5 -139.5 q-90.5 -83.5 -209.5 -144.5 q-119 -61 -195 -61 q-17 0 -54.5 44.5 q-37.5 44.5 -37.5 65.5 q0 41 54.5 228.5 q54.5 187.5 67.5 257.5 q-36 24 -60 57.5 q-24 33.5 -24 57 q0 23.5 20 23.5 ZM495 386 q0 32 -59 84.5 q-59 52.5 -137 87.5 q-6 -75 -85 -321 q-4 -13 -12.5 -42.5 q-8.5 -29.5 -12.5 -39.5 q98 33 202 111.5 q104 78.5 104 119.5 Z" /><glyph glyph-name="" unicode="e" d="M248 433 q53 0 114 5.5 q61 5.5 75.5 5.5 q14.5 0 23 -7 q8.5 -7 8.5 -17 q0 -44 -83 -70 q-83 -26 -177 -30 q-39 -121 -39 -153 q0 -17 17 -17 q114 0 235 30 q41 11 47 11 q19 0 19 -27 q0 -36 -53 -70 q-53 -34 -133 -54 q-80 -20 -157 -20 q-46 0 -83 34.5 q-37 34.5 -37 81 q0 46.5 51.5 233.5 q51.5 187 54.5 282 q-1 3 -1 12 q0 14 4 22 q11 28 61 35.5 q50 7.5 180 7.5 q216 0 216 -48 q0 -31 -53 -43 q-36 -8 -99 -15 q-97 -11 -173 -32 q0 -68 -24 -157 l6 0 Z" /><glyph glyph-name="" unicode="f" d="M146 683 q11 33 64 42 q53 9 160.5 9 q107.5 0 164.5 -17.5 q57 -17.5 57 -49.5 q0 -15 -11.5 -21.5 q-11.5 -6.5 -20 -10 q-8.5 -3.5 -23 -6.5 q-14.5 -3 -26.5 -5.5 q-12 -2.5 -31.5 -4.5 q-19.5 -2 -33.5 -3.5 q-14 -1.5 -37 -4 q-23 -2.5 -42 -4.5 q-19 -2 -100 -15 l0 -1 q0 -36 -31 -191 q13 -1 47.5 -1 q34.5 0 90.5 5.5 q56 5.5 73.5 5.5 q17.5 0 29.5 -9 q12 -9 12 -20 q0 -27 -32 -48 q-32 -21 -80 -33 q-96 -24 -169 -26 q-30 -127 -36.5 -155.5 q-6.5 -28.5 -13.5 -54.5 q-13 -51 -24 -51 q-21 0 -57 47 q-36 47 -36 70 q0 40 49.5 254 q49.5 214 52.5 269 l0 8 q0 13 3 22 Z" /><glyph glyph-name="" unicode="g" d="M277 340 q0 21 48 34 q48 13 104 13 q56 0 85.5 -45 q29.5 -45 29.5 -100 q0 -55 -46.5 -189.5 q-46.5 -134.5 -80.5 -134.5 q-14 0 -23.5 8.5 q-9.5 8.5 -9.5 21.5 q0 72 40 206 q-47 -60 -102.5 -97 q-55.5 -37 -114 -37 q-58.5 0 -122.5 51 q-64 51 -64 112 q0 108 64 239.5 q64 131.5 162 224.5 q98 93 185 93 q30 0 62.5 -47 q32.5 -47 32.5 -86 q0 -18 -13 -18 q-2 0 -19 4 q-17 4 -42 4 q-67 0 -137 -68.5 q-70 -68.5 -114 -168.5 q-44 -100 -44 -188 q0 -26 34 -26 q47 0 115.5 42 q68.5 42 105.5 94 q-22 -1 -53.5 -1 q-31.5 0 -57 19 q-25.5 19 -25.5 40 Z" /><glyph glyph-name="" unicode="h" d="M147 13 q-21 0 -59 47.5 q-38 47.5 -38 73 q0 25.5 30 154.5 q-24 24 -24 60 q0 20 48 40 q63 256 63 324 q0 33 29 33 q24 0 62.5 -48 q38.5 -48 38.5 -90 q0 -27 -36 -180 q86 15 171 18 q48 201 48 267 q0 33 29 33 q24 0 62.5 -48 q38.5 -48 38.5 -90 q0 -21 -39 -172 q50 -12 50 -39 q0 -31 -74 -49 q-36 -138 -47 -182.5 q-11 -44.5 -16.5 -67 q-5.5 -22.5 -11.5 -43.5 q-11 -41 -21 -41 q-24 0 -57.5 38 q-33.5 38 -33.5 76 q0 22 42 195 q-115 -19 -177 -35 q-31 -119 -41 -165.5 q-10 -46.5 -16 -67.5 q-11 -41 -21 -41 Z" /><glyph glyph-name="" unicode="i" d="M138 13 q-20 0 -54 41.5 q-34 41.5 -34 60.5 q0 19 49.5 278.5 q49.5 259.5 51.5 318.5 q2 33 31 33 q24 0 64 -48 q40 -48 40 -90 q0 -18 -27.5 -135.5 q-27.5 -117.5 -37 -164 q-9.5 -46.5 -16.5 -83 q-7 -36.5 -11 -57.5 q-28 -128 -44 -147 q-6 -7 -12 -7 Z" /><glyph glyph-name="" unicode="j" d="M13 206 q0 27 5.5 38 q5.5 11 20 11 q14.5 0 38.5 -28 q24 -28 54.5 -56 q30.5 -28 60.5 -28 q23 0 46 64 q23 64 49 164.5 q26 100.5 33 134.5 q16 79 23 96 q-27 -6 -89.5 -14.5 q-62.5 -8.5 -83.5 -8.5 q-21 0 -34 13 q-13 13 -13 31 q0 36 76.5 65 q76.5 29 153 40.5 q76.5 11.5 105.5 11.5 q56 0 56 -36 q0 -15 -36 -125 q-36 -110 -44 -144 q-54 -229 -81 -296 q-42 -105 -108 -122 q-16 -4 -32 -4 q-71 0 -135.5 68.5 q-64.5 68.5 -64.5 124.5 Z" /><glyph glyph-name="" unicode="k" d="M119 13 l-2 0 q-22 0 -55 40.5 q-33 40.5 -33 71 q0 30.5 58.5 273.5 q58.5 243 58.5 307 q0 40 29 40 q24 0 58 -47.5 q34 -47.5 34 -90.5 q0 -26 -26 -133 q82 109 154 182.5 q72 73.5 98.5 73.5 q26.5 0 53.5 -22.5 q27 -22.5 27 -39 q0 -16.5 -51 -64.5 q-51 -48 -126 -122 q-75 -74 -116 -138 q0 -77 89 -155 q27 -23 72 -47.5 q45 -24.5 70.5 -42 q25.5 -17.5 25.5 -35.5 q0 -51 -72 -51 q-72 0 -155 58.5 q-83 58.5 -124 155.5 q-26 -74 -32 -107.5 q-6 -33.5 -8.5 -44.5 q-2.5 -11 -4.5 -17.5 q-2 -6.5 -4 -14.5 q-2 -8 -4 -12.5 q-2 -4.5 -4 -8.5 q-6 -9 -11 -9 Z" /><glyph glyph-name="" unicode="l" d="M218 760 q25 0 61 -33 q36 -33 36 -68 q0 -96 -99 -372 q-34 -97 -34 -135 q0 -5 2 -6 q2 -1 37 -1 q35 0 96.5 10.5 q61.5 10.5 100 20.5 q38.5 10 45.5 10 q25 0 25 -32 q0 -63 -95.5 -101.5 q-95.5 -38.5 -221.5 -38.5 q-49 0 -89.5 36.5 q-40.5 36.5 -40.5 80.5 q0 44 74 284.5 q74 240.5 74 311.5 q0 33 29 33 Z" /><glyph glyph-name="" unicode="m" d="M179 745 q19 0 74.5 -40.5 q55.5 -40.5 55.5 -60.5 q0 -35 23 -115 q23 -80 53 -145 q30 35 101.5 129.5 q71.5 94.5 120.5 149.5 q49 55 73 55 q24 0 50 -27 q26 -27 26 -54 q0 -27 -8 -69.5 q-8 -42.5 -17.5 -79 q-9.5 -36.5 -27 -99.5 q-17.5 -63 -27 -99.5 q-9.5 -36.5 -19.5 -78 q-10 -41.5 -15.5 -65 q-5.5 -23.5 -12 -49 q-6.5 -25.5 -11.5 -39 q-5 -13.5 -11 -24.5 q-11 -21 -31 -21 q-20 0 -39.5 39.5 q-19.5 39.5 -19.5 82.5 q0 106 61 281 q-17 -22 -49 -64.5 q-32 -42.5 -47.5 -62 q-15.5 -19.5 -38.5 -45.5 q-41 -45 -80 -45 q-52 0 -74 41 q-11 21 -29.5 94.5 q-18.5 73.5 -26.5 101.5 q-13 -103 -35 -187 q-22 -84 -29 -110 q-7 -26 -19 -63 q-20 -63 -36 -63 q-18 0 -49.5 47.5 q-31.5 47.5 -31.5 74.5 q0 27 58.5 270 q58.5 243 58.5 307 q0 33 29 33 Z" /><glyph glyph-name="" unicode="n" d="M524 750 q29 0 64.5 -30 q35.5 -30 35.5 -49 q0 -63 -29.5 -218.5 q-29.5 -155.5 -75.5 -297.5 q-46 -142 -83 -142 q-15 0 -39 16.5 q-24 16.5 -32 39 q-8 22.5 -31 93.5 q-53 163 -100 270 q-7 -30 -18.5 -85 q-11.5 -55 -18.5 -86.5 q-7 -31.5 -17 -76 q-10 -44.5 -17.5 -70.5 q-7.5 -26 -16.5 -52 q-16 -49 -30 -49 q-20 0 -52 36.5 q-32 36.5 -32 63 q0 26.5 57.5 278.5 q57.5 252 62.5 316 q3 38 23 38 q17 0 43.5 -20 q26.5 -20 46 -48.5 q19.5 -28.5 70.5 -185.5 q51 -157 81 -225 q39 116 72 350 q13 93 17 113.5 q4 20.5 19 20.5 Z" /><glyph glyph-name="" unicode="o" d="M321 185.5 q58 51.5 101 130 q43 78.5 43 150.5 q0 72 -18 111 q-18 39 -50 39 q-32 0 -83.5 -57.5 q-51.5 -57.5 -93 -150.5 q-41.5 -93 -41.5 -178 q0 -43 12 -69.5 q12 -26.5 30 -26.5 q42 0 100 51.5 ZM222 13 q-74 0 -132 72.5 q-58 72.5 -58 144.5 q0 92 35 188.5 q35 96.5 87.5 167 q52.5 70.5 115.5 116 q63 45.5 116 45.5 q97 0 159 -82.5 q62 -82.5 62 -185.5 q0 -103 -52 -208.5 q-52 -105.5 -143.5 -181.5 q-91.5 -76 -189.5 -76 Z" /><glyph glyph-name="" unicode="p" d="M109 18 q-23 0 -55 38.5 q-32 38.5 -32 62.5 q0 24 24 99 q74 230 79 403 q-34 36 -34 57 q0 33 78.5 62.5 q78.5 29.5 149.5 29.5 q120 0 189.5 -56 q69.5 -56 69.5 -143 q0 -111 -108.5 -201 q-108.5 -90 -273.5 -123 q-47 -169 -61.5 -199 q-14.5 -30 -25.5 -30 ZM436 568 q0 32 -23 52.5 q-23 20.5 -62 20.5 q-39 0 -108 -37 q20 -35 20 -63 q0 -55 -29 -163 q90 36 146 86.5 q56 50.5 56 103.5 Z" /><glyph glyph-name="" unicode="q" d="M386 747 q100 0 179 -84.5 q79 -84.5 79 -185 q0 -100.5 -48 -207 q-48 -106.5 -126 -176.5 q8 -23 21 -58 q13 -35 20 -54.5 q7 -19.5 15 -43.5 q14 -45 14 -68.5 q0 -23.5 -8 -32.5 q-8 -9 -29 -9 q-60 0 -139 201 q-43 -16 -85 -16 q-78 0 -162.5 74.5 q-84.5 74.5 -84.5 142.5 q0 92 35 188.5 q35 96.5 87.5 167 q52.5 70.5 115.5 116 q63 45.5 116 45.5 ZM398 616 l-3 0 q-18 -14 -18 -29 q0 -166 46 -341 q79 112 79 215 q0 72 -34.5 113.5 q-34.5 41.5 -69.5 41.5 ZM254 462 l0 12 q-75 -127 -75 -244 q0 -39 37.5 -67.5 q37.5 -28.5 59.5 -28.5 q22 0 47 14 q-30 95 -49.5 185 q-19.5 90 -19.5 129 Z" /><glyph glyph-name="" unicode="r" d="M567 49 q0 -41 -57 -41 q-78 0 -163.5 81 q-85.5 81 -121.5 169 q-16 -48 -22 -65 q-6 -17 -18 -54 q-12 -37 -18.5 -55 q-6.5 -18 -14.5 -38 q-15 -38 -29 -38 q-23 0 -55.5 38.5 q-32.5 38.5 -32.5 62.5 q0 24 23 89 q68 199 78 363 q-19 15 -34 42 q-15 27 -15 45 q0 30 77.5 63 q77.5 33 179 33 q101.5 0 169.5 -48 q68 -48 68 -125 q0 -57 -33.5 -109.5 q-33.5 -52.5 -73 -82 q-39.5 -29.5 -73 -53.5 q-33.5 -24 -33.5 -31 q0 -24 16 -45.5 q16 -21.5 45 -50 q29 -28.5 50 -48 q21 -19.5 34.5 -32.5 q13.5 -13 26.5 -27 q27 -26 27 -43 ZM427 561 q0 42 -82 42 q-39 0 -93 -22 q25 -38 25 -70 q0 -58 -16 -128 q11 8 41 28.5 q30 20.5 46.5 33 q16.5 12.5 37.5 32.5 q41 39 41 84 Z" /><glyph glyph-name="" unicode="s" d="M499 220 q0 -85 -81 -146 q-81 -61 -185 -61 q-104 0 -167.5 51.5 q-63.5 51.5 -63.5 106.5 q0 55 31 55 q24 0 50 -24 q26 -24 58.5 -48 q32.5 -24 73.5 -24 q41 0 93 34 q52 34 52 57 q0 23 -56.5 77 q-56.5 54 -113 111.5 q-56.5 57.5 -56.5 89 q0 31.5 11.5 68.5 q11.5 37 28.5 51 q54 53 139.5 91.5 q85.5 38.5 150.5 38.5 q38 0 63 -32.5 q25 -32.5 25 -67.5 q0 -14 -22.5 -22.5 q-22.5 -8.5 -65 -17.5 q-42.5 -9 -86.5 -26 q-102 -38 -102 -64 q0 -12 35 -43.5 q35 -31.5 76.5 -66 q41.5 -34.5 76.5 -87 q35 -52.5 35 -101.5 Z" /><glyph glyph-name="" unicode="t" d="M245 603 q-108 -6 -118 -6 q-24 0 -48 29.5 q-24 29.5 -24 61.5 q0 49 285 49 q146 0 215 -30 q69 -30 69 -73 q0 -13 -15 -24.5 q-15 -11.5 -38 -11.5 q-23 0 -84 3 q-61 3 -111 4 q4 -12 4 -28 q0 -16 -11.5 -63 q-11.5 -47 -32.5 -130.5 q-21 -83.5 -46 -202 q-25 -118.5 -34.5 -141 q-9.5 -22.5 -18.5 -22.5 q-21 0 -52.5 38.5 q-31.5 38.5 -31.5 62.5 q0 24 41 198.5 q41 174.5 51 285.5 Z" /><glyph glyph-name="" unicode="u" d="M170 747 q25 0 63.5 -36 q38.5 -36 38.5 -70.5 q0 -34.5 -36 -178.5 q-36 -144 -36 -198.5 q0 -54.5 13.5 -83.5 q13.5 -29 38 -29 q24.5 0 57.5 35.5 q33 35.5 63.5 92 q30.5 56.5 51 135 q20.5 78.5 20.5 146 q0 67.5 -6.5 108.5 q-6.5 41 -6.5 49 q0 31 26 31 q32 0 82.5 -54 q50.5 -54 50.5 -128.5 q0 -74.5 -26 -171 q-26 -96.5 -70 -182.5 q-44 -86 -111.5 -143 q-67.5 -57 -138 -57 q-70.5 0 -127.5 74 q-57 74 -57 151 q0 77 20 178.5 q20 101.5 40 182.5 q20 81 20 115 q0 34 30 34 Z" /><glyph glyph-name="" unicode="v" d="M512 745 q28 0 56.5 -20.5 q28.5 -20.5 28.5 -39.5 q0 -19 -7.5 -42 q-7.5 -23 -24 -57.5 q-16.5 -34.5 -33 -67 q-16.5 -32.5 -43.5 -85 q-27 -52.5 -47 -93.5 q-20 -41 -44.5 -97 q-24.5 -56 -40.5 -91.5 q-16 -35.5 -34 -69.5 q-35 -68 -68 -68 q-15 0 -41.5 22 q-26.5 22 -35.5 44 q-29 77 -77 321 q-48 244 -48 294 q0 50 27 50 q34 0 70 -29 q36 -29 56 -77 q8 -20 15.5 -84.5 q7.5 -64.5 18 -160 q10.5 -95.5 22.5 -163.5 q101 274 159.5 394 q58.5 120 90.5 120 Z" /><glyph glyph-name="" unicode="w" d="M153 13 q-20 0 -57.5 31.5 q-37.5 31.5 -37.5 62.5 q0 73 21 252 q21 179 21 344 q0 42 26 42 q36 0 86.5 -40 q50.5 -40 50.5 -80 q0 -14 -33 -170.5 q-33 -156.5 -38 -251.5 q48 97 113.5 162 q65.5 65 107.5 65 q30 0 39 -133 q4 -50 16 -91.5 q12 -41.5 33 -41.5 q39 0 69.5 83.5 q30.5 83.5 30.5 172.5 q0 193 -106 193 q-31 0 -57.5 32 q-26.5 32 -26.5 57 q0 45 55 45 q74 0 129.5 -27.5 q55.5 -27.5 86.5 -75.5 q62 -95 62 -234 q0 -94 -33 -185.5 q-33 -91.5 -91.5 -151.5 q-58.5 -60 -124.5 -60 q-122 0 -139 207 l-31 -44 q-110 -163 -172 -163 Z" /><glyph glyph-name="" unicode="x" d="M534 736 q19 0 51.5 -35.5 q32.5 -35.5 32.5 -60.5 q0 -11 -10 -19 q-10 -8 -27.5 -19 q-17.5 -11 -29.5 -26 q-122 -151 -182 -230 q24 -43 68 -118 q44 -75 63 -111.5 q19 -36.5 19 -56 q0 -19.5 -15.5 -34 q-15.5 -14.5 -35.5 -14.5 q-53 0 -182 216 q-66 -98 -115 -156.5 q-49 -58.5 -79.5 -58.5 q-30.5 0 -61.5 22 q-31 22 -31 42 q0 11 5 16 q14 14 18 20 q86 98 191 248 q-57 110 -94 205.5 q-37 95.5 -37 138 q0 42.5 18 42.5 q42 0 88.5 -17.5 q46.5 -17.5 46.5 -40.5 q0 -72 62 -205 q99 154 148 203 q49 49 89 49 Z" /><glyph glyph-name="" unicode="y" d="M302 404 q18 0 63.5 86 q45.5 86 92.5 171.5 q47 85.5 70 85.5 q34 0 56.5 -31 q22.5 -31 22.5 -74 q0 -30 -52 -115.5 q-52 -85.5 -132 -211.5 q-80 -126 -123 -214 q-13 -28 -42 -58 q-29 -30 -56 -30 q-40 0 -40 64 q0 38 76 177 q12 22 17 33 q-44 17 -80 56 q-36 39 -57 88 q-44 103 -44 200 q0 60 13.5 88 q13.5 28 55.5 28 q22 0 33 -30.5 q11 -30.5 20 -87.5 q9 -57 25.5 -100.5 q16.5 -43.5 41 -84 q24.5 -40.5 39.5 -40.5 Z" /><glyph glyph-name="" unicode="z" d="M479 690 q32 -11 58 -58 q26 -47 26 -82.5 q0 -35.5 -36.5 -85.5 q-36.5 -50 -88.5 -96 q-52 -46 -103.5 -87.5 q-51.5 -41.5 -88 -72.5 q-36.5 -31 -36.5 -42 q0 -15 15 -15 q49 0 137 12.5 q88 12.5 131 12.5 q67 0 67 -35 q0 -31 -69 -62 q-69 -31 -158.5 -48.5 q-89.5 -17.5 -159.5 -17.5 q-49 0 -86.5 52 q-37.5 52 -37.5 93 q0 41 60.5 105.5 q60.5 64.5 132.5 119.5 q72 55 132.5 104 q60.5 49 60.5 63 q0 46 -123 46 q-42 0 -71.5 -5.5 q-29.5 -5.5 -38.5 -5.5 q-27 0 -55 37 q-28 37 -28 63 q0 26 59 39 q32 7 81 7 q108 0 220 -41 Z" /><glyph glyph-name="" unicode="`" d="M10 793 q0 29 22 55.5 q22 26.5 45 26.5 q18 0 40 -22 q8 -8 25.5 -26 q17.5 -18 47.5 -48 q30 -30 44 -48 q14 -18 14 -36 q0 -18 -12.5 -31.5 q-12.5 -13.5 -25 -13.5 q-12.5 0 -23.5 6 q-11 6 -32.5 22 q-21.5 16 -35.5 24.5 q-14 8.5 -26 16 q-12 7.5 -18.5 11.5 q-6.5 4 -16 9.5 q-9.5 5.5 -14.5 9.5 q-5 4 -11.5 9 q-6.5 5 -10 9 q-3.5 4 -6.5 9 q-6 8 -6 17 Z" /><glyph glyph-name="" unicode="a" d="M450 296 q18 -16 18 -29 q0 -13 -12 -54 q-12 -41 -16 -63.5 q-4 -22.5 -6.5 -35.5 q-2.5 -13 -3.5 -20.5 q-1 -7.5 -3.5 -18.5 q-2.5 -11 -4 -17.5 q-1.5 -6.5 -4 -15 q-2.5 -8.5 -5.5 -13 q-3 -4.5 -7 -9.5 q-6 -8 -20 -8 q-14 0 -34.5 28 q-20.5 28 -30.5 68 q-94 -96 -158 -96 q-43 0 -93 47.5 q-50 47.5 -50 95 q0 47.5 43 135.5 q43 88 117.5 163 q74.5 75 147.5 75 q42 0 97 -49 q55 -49 55 -89.5 q0 -40.5 -30 -93.5 ZM159 138 q40 0 106.5 54.5 q66.5 54.5 82.5 137.5 q1 12 17 14 q-3 57 -19 57 q-40 0 -89.5 -52 q-49.5 -52 -81 -111 q-31.5 -59 -31.5 -87 q0 -8 2.5 -10.5 q2.5 -2.5 12.5 -2.5 Z" /><glyph glyph-name="" unicode="b" d="M413 527 q46 0 87.5 -51 q41.5 -51 41.5 -97 q0 -46 -21 -108 q-21 -62 -56 -120 q-35 -58 -88 -98 q-53 -40 -110.5 -40 q-57.5 0 -130.5 55 q-20 -56 -33 -56 q-21 0 -53 35 q-32 35 -32 57 q0 22 33 144 q99 366 99 530 q0 30 29 30 q23 0 62 -43.5 q39 -43.5 39 -81.5 q0 -89 -51 -277 q114 121 184 121 ZM251 128 q55 0 112.5 86 q57.5 86 57.5 169 q0 6 -2.5 7.5 q-2.5 1.5 -13.5 1.5 q-55 0 -117.5 -66 q-62.5 -66 -110.5 -165 q42 -33 74 -33 Z" /><glyph glyph-name="" unicode="c" d="M25 169 q0 70 44 154 q44 84 115.5 144 q71.5 60 140.5 60 q35 0 72 -45.5 q37 -45.5 37 -81.5 q0 -26 -24 -26 q-12 0 -33 11 q-21 11 -43 11 q-22 0 -62.5 -37.5 q-40.5 -37.5 -72 -90 q-31.5 -52.5 -31.5 -82.5 q0 -30 11.5 -39 q11.5 -9 56 -9 q44.5 0 81 8 q36.5 8 54 16.5 q17.5 8.5 31.5 8.5 q28 0 28 -24 q0 -44 -77 -89.5 q-77 -45.5 -154 -45.5 q-49 0 -111.5 54.5 q-62.5 54.5 -62.5 102.5 Z" /><glyph glyph-name="" unicode="d" d="M452 808 q24 0 63 -43.5 q39 -43.5 39 -81.5 q0 -19 -35 -158 q-35 -139 -42 -168 q-80 -345 -117 -345 q-21 0 -47 25 q-26 25 -26 49 q0 5 1 8 q-100 -82 -143.5 -82 q-43.5 0 -84 46.5 q-40.5 46.5 -40.5 84.5 q0 38 10.5 84.5 q10.5 46.5 32.5 98.5 q22 52 50.5 97.5 q28.5 45.5 69 75 q40.5 29.5 83.5 29.5 q64 0 105 -65 q54 237 52 315 q0 30 29 30 ZM157 139 q25 0 84.5 43 q59.5 43 88.5 109 q-1 8 -1 35 q0 27 -18 51 q-18 24 -33 24 q-30 0 -57.5 -32 q-27.5 -32 -43.5 -76 q-34 -93 -34 -141 q0 -8 2.5 -10.5 q2.5 -2.5 11.5 -2.5 Z" /><glyph glyph-name="" unicode="e" d="M473 341 q0 -49 -66.5 -88 q-66.5 -39 -136.5 -39 q-70 0 -115 10 q-9 -27 -9 -54 q0 -27 9 -38.5 q9 -11.5 45 -11.5 q75 0 128.5 14 q53.5 14 55.5 14 q41 0 41 -27 q0 -39 -64.5 -74 q-64.5 -35 -149 -35 q-84.5 0 -135.5 53 q-51 53 -51 125.5 q0 72.5 42.5 151.5 q42.5 79 106.5 132.5 q64 53.5 127.5 53.5 q63.5 0 117.5 -62.5 q54 -62.5 54 -124.5 ZM357 357 q0 10 -21 29 q-21 19 -39.5 19 q-18.5 0 -47.5 -26.5 q-29 -26.5 -55 -68.5 q9 -1 26 -1 q137 0 137 48 Z" /><glyph glyph-name="" unicode="f" d="M412.5 608.5 q-4.5 22.5 -13.5 41.5 q-9 19 -21.5 19 q-12.5 0 -25 -18 q-12.5 -18 -24.5 -59 q-19 -64 -38 -149 q76 4 114.5 4 q38.5 0 57.5 -11.5 q19 -11.5 19 -27.5 q0 -31 -56 -48 q-56 -17 -162 -33 q-50 -209 -70 -261.5 q-20 -52.5 -44 -52.5 q-19 0 -44.5 31.5 q-25.5 31.5 -25.5 47.5 q0 16 7 38 q31 87 47 168 q-30 -8 -53.5 -8 q-23.5 0 -46.5 21.5 q-23 21.5 -23 52.5 q0 36 144 62 q29 192 81 278.5 q52 86.5 150 86.5 q47 0 86 -46 q39 -46 39 -109 q0 -41 -13 -64.5 q-13 -23.5 -34 -23.5 q-21 0 -33.5 19 q-12.5 19 -17 41.5 Z" /><glyph glyph-name="" unicode="g" d="M420 312 q15 -17 15 -41 q0 -24 -20 -59 q-25 -60 -44 -149 q-19 -89 -37.5 -142.5 q-18.5 -53.5 -40 -91.5 q-21.5 -38 -58.5 -63 q-37 -25 -85 -25 q-67 0 -120 44 q-53 44 -53 75.5 q0 31.5 17 57 q17 25.5 31.5 25.5 q14.5 0 28 -16 q13.5 -16 25 -34.5 q11.5 -18.5 30.5 -34.5 q19 -16 42 -16 q23 0 42 30 q19 30 29 65 q25 82 31 117 q-68 -42 -110.5 -42 q-42.5 0 -82.5 46.5 q-40 46.5 -40 88 q0 41.5 22.5 104 q22.5 62.5 58 125 q35.5 62.5 90 107.5 q54.5 45 109.5 45 q37 0 63 -18.5 q26 -18.5 38 -49.5 q21 -54 21 -122 q0 -10 -2 -26 ZM143 151 q0 -13 11 -13 q29 0 94 53 q65 53 87 105 l0 19 q0 65 -12 79 q-6 7 -16 7 q-48 0 -106 -101 q-58 -101 -58 -149 Z" /><glyph glyph-name="" unicode="h" d="M150 766 q0 42 33 42 q27 0 62 -45 q35 -45 35 -77 q0 -32 -13 -90 q-13 -58 -26.5 -106 q-13.5 -48 -40.5 -136.5 q-27 -88.5 -37 -123.5 q65 132 137.5 215 q72.5 83 121.5 83 q31 0 71 -54.5 q40 -54.5 40 -98 q0 -43.5 -16 -126.5 q-16 -83 -56 -160 q-40 -77 -82 -77 q-33 0 -33 47 q0 34 20 111 q29 115 29 140 q0 25 -8 25 q-58 0 -170 -193 q-38 -66 -63.5 -98 q-25.5 -32 -48.5 -32 q-23 0 -55.5 37 q-32.5 37 -32.5 57.5 q0 20.5 8.5 60.5 q8.5 40 26 114 q17.5 74 58 268.5 q40.5 194.5 40.5 216.5 Z" /><glyph glyph-name="" unicode="i" d="M123 653 q0 26 23.5 53.5 q23.5 27.5 46 27.5 q22.5 0 53.5 -54 q31 -54 31 -78.5 q0 -24.5 -16 -37.5 q-16 -13 -33 -13 q-29 0 -67 38 q-38 38 -38 64 ZM138 528 q35 0 62.5 -40 q27.5 -40 27.5 -77 q0 -19 -34.5 -136.5 q-34.5 -117.5 -68.5 -222.5 q-12 -39 -49 -39 q-22 0 -38.5 16.5 q-16.5 16.5 -16.5 43 q0 26.5 25.5 132 q25.5 105.5 39 180 q13.5 74.5 25 109 q11.5 34.5 27.5 34.5 Z" /><glyph glyph-name="" unicode="j" d="M-91 -149 q32 0 67.5 108.5 q35.5 108.5 75.5 277 q40 168.5 54.5 215 q14.5 46.5 24 61.5 q9.5 15 22.5 15 q30 0 59.5 -39 q29.5 -39 29.5 -82 q0 -18 -134 -478 q-28 -96 -84 -140.5 q-56 -44.5 -130 -44.5 q-52 0 -103 43 q-51 43 -51 76 q0 23 17 51.5 q17 28.5 34 28.5 q17 0 51 -41 q9 -11 11 -14 q30 -37 56 -37 ZM174.5 706.5 q23.5 27.5 46.5 27.5 q23 0 53.5 -54 q30.5 -54 30.5 -86 q0 -16 -16 -29.5 q-16 -13.5 -32 -13.5 q-30 0 -68 38 q-38 38 -38 64 q0 26 23.5 53.5 Z" /><glyph glyph-name="" unicode="k" d="M118 12 q-23 0 -57.5 37 q-34.5 37 -34.5 59 q0 6 33.5 119 q33.5 113 67 272 q33.5 159 33.5 278 q0 31 28 31 q24 0 63.5 -43.5 q39.5 -43.5 39.5 -81.5 q0 -55 -39.5 -208 q-39.5 -153 -78.5 -241 q13 17 35.5 45.5 q22.5 28.5 36.5 46.5 q14 18 34.5 44 q20.5 26 34.5 42.5 q14 16.5 31 37 q17 20.5 29.5 33 q12.5 12.5 25.5 23.5 q24 22 37 22 q25 0 55 -33.5 q30 -33.5 30 -58.5 q0 -10 -42.5 -46 q-42.5 -36 -85 -80 q-42.5 -44 -42.5 -78.5 q0 -34.5 20.5 -67 q20.5 -32.5 44.5 -49.5 q24 -17 44.5 -34.5 q20.5 -17.5 20.5 -29.5 q0 -39 -53 -39 q-63 0 -167 106 l-24 24 q-90 -130 -120 -130 Z" /><glyph glyph-name="" unicode="l" d="M166 808 q24 0 62 -44 q38 -44 38 -84 q0 -40 -12 -142.5 q-12 -102.5 -25 -163.5 q-83 -362 -116 -362 q-22 0 -54.5 35.5 q-32.5 35.5 -32.5 58.5 q0 2 27 104 q27 102 54.5 262.5 q27.5 160.5 27.5 306.5 q0 29 31 29 Z" /><glyph glyph-name="" unicode="m" d="M698 528 q39 0 65 -52 q26 -52 26 -95 q0 -43 -16.5 -127.5 q-16.5 -84.5 -52 -163 q-35.5 -78.5 -76.5 -78.5 q-33 0 -33 45 q0 45 26 147 q26 102 26 134 q0 32 -10 32 q-21 0 -50 -46 q-29 -46 -69.5 -123 q-40.5 -77 -50.5 -99 q-10 -22 -16.5 -35 q-6.5 -13 -14.5 -27 q-32 -53 -85 0 q-27 27 -27 49 q0 4 16.5 76.5 q16.5 72.5 16.5 165.5 q0 39 -9 39 q-12 0 -28 -24 q-16 -24 -49 -87 q-33 -63 -57 -104 q-84 -143 -128 -143 q-22 0 -54.5 37 q-32.5 37 -32.5 56.5 q0 19.5 22.5 94 q22.5 74.5 29 158.5 q6.5 84 12 131 q5.5 47 23.5 47 q38 0 73.5 -31.5 q35.5 -31.5 35.5 -57.5 q0 -59 -43 -206 q70 167 118 226 q51 61 98 61 q26 0 64.5 -48 q38.5 -48 38.5 -89.5 q0 -41.5 -1 -72.5 q31 78 94 144 q63 66 118 66 Z" /><glyph glyph-name="" unicode="n" d="M393 528 q52 0 91.5 -46.5 q39.5 -46.5 39.5 -99.5 q0 -85 -27.5 -177.5 q-27.5 -92.5 -60 -142.5 q-32.5 -50 -66 -50 q-33.5 0 -33.5 47 q0 36 33 145 q25 90 25 129 q0 39 -10 39 q-13 0 -25.5 -13 q-12.5 -13 -20.5 -23 q-8 -10 -18.5 -25.5 q-10.5 -15.5 -18 -28 q-7.5 -12.5 -19 -32 q-11.5 -19.5 -18.5 -32 q-7 -12.5 -18 -32.5 q-93 -174 -146 -174 q-21 0 -53 36.5 q-32 36.5 -32 53.5 q0 11 14.5 47.5 q14.5 36.5 21 56 q6.5 19.5 11 41.5 q4.5 22 7.5 47.5 q3 25.5 4.5 39.5 q1.5 14 3.5 44 q9 130 15.5 144 q6.5 14 14.5 14 q38 0 73 -31.5 q35 -31.5 35 -57.5 q0 -62 -32 -178 q65 114 118.5 186.5 q53.5 72.5 90.5 72.5 Z" /><glyph glyph-name="" unicode="o" d="M166 114 q54 24 94 97 q40 73 40 137 q0 64 -18 88 q-43 -25 -85.5 -105 q-42.5 -80 -42.5 -140.5 q0 -60.5 12 -76.5 ZM20 180 q0 125 77.5 237 q77.5 112 153.5 112 q76 0 128 -53.5 q52 -53.5 52 -129 q0 -75.5 -36 -153.5 q-36 -78 -101 -129.5 q-65 -51.5 -139 -51.5 q-55 0 -95 49 q-40 49 -40 119 Z" /><glyph glyph-name="" unicode="p" d="M388 527 q37 0 79.5 -66 q42.5 -66 42.5 -132 q0 -40 -34 -95 q-34 -55 -85.5 -103.5 q-51.5 -48.5 -119 -82.5 q-67.5 -34 -128.5 -34 l-12 0 q-63 -262 -89 -262 q-21 0 -44.5 35 q-23.5 35 -23.5 58 q0 23 29 141 q86 350 86 528 q0 30 29 30 q24 0 61 -27 q37 -27 46 -70 q85 80 163 80 ZM162 133 q78 15 147.5 86 q69.5 71 69.5 123 q0 52 -29 52 q-42 0 -89 -48 q-19 -20 -42 -59 q-23 -39 -40 -91 l-17 -63 Z" /><glyph glyph-name="" unicode="q" d="M349 -64 q47 22 71.5 22 q24.5 0 38 -15 q13.5 -15 13.5 -29 q0 -14 -16 -27.5 q-16 -13.5 -51.5 -36 q-35.5 -22.5 -72 -50.5 q-36.5 -28 -58 -42 q-21.5 -14 -38 -14 q-16.5 0 -36 29 q-19.5 29 -19.5 53.5 q0 24.5 79 222.5 q-55 -37 -97 -37 q-42 0 -88.5 50.5 q-46.5 50.5 -46.5 91.5 q0 41 26.5 103 q26.5 62 68.5 122.5 q42 60.5 101 104.5 q59 44 111.5 44 q52.5 0 96.5 -47 q44 -47 44 -88 q0 -28 -26 -28 q-11 0 -38.5 20.5 q-27.5 20.5 -42.5 20.5 q-44 0 -99 -53.5 q-55 -53.5 -91 -114 q-36 -60.5 -36 -87.5 q0 -9 3 -11 q3 -2 15 -2 q39 1 105.5 58.5 q66.5 57.5 85.5 140.5 q4 17 24.5 17 q20.5 0 61.5 -27.5 q41 -27.5 41 -43 q0 -15.5 -18 -63 q-18 -47.5 -53.5 -135 q-35.5 -87.5 -58.5 -149.5 Z" /><glyph glyph-name="" unicode="r" d="M80 359 l-6 113 q0 56 35 56 q20 0 39.5 -15 q19.5 -15 29.5 -47 q34 30 74.5 48.5 q40.5 18.5 71.5 18.5 q73 0 73 -35 q0 -18 -6.5 -26.5 q-6.5 -8.5 -10 -12.5 q-3.5 -4 -12 -10.5 q-8.5 -6.5 -12.5 -9.5 q-23 -15 -33 -21 q-45 -28 -77 -67.5 q-32 -39.5 -48 -109.5 q-27 -115 -52.5 -171.5 q-25.5 -56.5 -57 -56.5 q-31.5 0 -47 30 q-15.5 30 -15.5 56.5 q0 26.5 19.5 79.5 q19.5 53 27 91.5 q7.5 38.5 7.5 88.5 Z" /><glyph glyph-name="" unicode="s" d="M344 527 q38 0 75 -45 q37 -45 37 -81 q0 -24 -21 -24 q-12 0 -35 9.5 q-23 9.5 -46.5 9.5 q-23.5 0 -69 -16 q-45.5 -16 -45.5 -42 q0 -10 27 -29 q27 -19 59 -39 q32 -20 59 -55.5 q27 -35.5 27 -77 q0 -41.5 -60.5 -83.5 q-60.5 -42 -142 -42 q-81.5 0 -139.5 37 q-58 37 -58 76 q0 39 32 39 q13 0 31 -10 q50 -29 124.5 -29 q74.5 0 74.5 20 q0 20 -28.5 44.5 q-28.5 24.5 -62 45.5 q-33.5 21 -62 51.5 q-28.5 30.5 -28.5 59.5 q0 54 98 117.5 q98 63.5 154 63.5 Z" /><glyph glyph-name="" unicode="t" d="M284 409 q-8 -27 -23.5 -75.5 q-15.5 -48.5 -38 -121.5 q-22.5 -73 -22.5 -77.5 q0 -4.5 16.5 -4.5 q16.5 0 78.5 22.5 q62 22.5 73 22.5 q25 0 25 -34 q0 -34 -67 -81.5 q-67 -47.5 -140 -47.5 q-32 0 -76 35 q-44 35 -44 71 q0 30 30.5 126.5 q30.5 96.5 41.5 132.5 q-39 -11 -59 -11 q-20 0 -42 27.5 q-22 27.5 -22 52.5 q0 32 155 54 q19 93 19 161 q0 30 30 30 q26 0 66.5 -31.5 q40.5 -31.5 40.5 -62 q0 -30.5 -13 -85.5 q48 2 73 2 q75 0 75 -34 q0 -22 -43.5 -37.5 q-43.5 -15.5 -133.5 -33.5 Z" /><glyph glyph-name="" unicode="u" d="M376 503 q8 25 32 25 q24 0 55.5 -41 q31.5 -41 31.5 -71 q0 -11 -46 -147 q-46 -136 -71 -215 q-14 -42 -47 -42 q-20 0 -33.5 14.5 q-13.5 14.5 -13.5 45.5 q0 31 12 88 q-103 -148 -164 -148 q-32 0 -77 41.5 q-45 41.5 -45 80.5 q0 96 54.5 245 q54.5 149 102.5 149 q29 0 51.5 -26 q22.5 -26 22.5 -57 q0 -12 -25 -67 q-76 -165 -76 -233 q0 -6 5 -6 q15 0 56.5 47.5 q41.5 47.5 93 136 q51.5 88.5 81.5 180.5 Z" /><glyph glyph-name="" unicode="v" d="M375 528 q26 0 50.5 -18.5 q24.5 -18.5 24.5 -38.5 q0 -36 -59.5 -167 q-59.5 -131 -110 -211 q-50.5 -80 -78.5 -80 q-15 0 -43.5 20 q-28.5 20 -36.5 40 q-24 58 -58 214.5 q-34 156.5 -34 198.5 q0 42 28 42 q34 0 70 -27 q60 -46 67 -123 q3 -36 5 -88.5 q2 -52.5 9 -90.5 q24 46 59 136.5 q35 90.5 60.5 141.5 q25.5 51 46.5 51 Z" /><glyph glyph-name="" unicode="w" d="M625.5 528 q27.5 0 61 -19 q33.5 -19 33.5 -40 q0 -21 -34 -142 q-34 -121 -106.5 -217.5 q-72.5 -96.5 -107.5 -96.5 q-14 0 -42 20 q-28 20 -40 45 q-21 41 -21 240 q-43 -140 -98 -222.5 q-55 -82.5 -89 -82.5 q-15 0 -43.5 20 q-28.5 20 -36.5 40 q-22 54 -42 206 q-20 152 -20 208 q0 41 28 41 q38 0 78 -46 q40 -46 40 -72 q0 -145 3 -231 q40 61 72.5 152 q32.5 91 52.5 144 q20 53 42 53 q44 0 87 -42.5 q43 -42.5 43 -86.5 q0 -20 -6.5 -83 q-6.5 -63 -6.5 -95 q0 -32 4 -53 q33 33 57.5 97 q24.5 64 35.5 121 q28 142 55.5 142 Z" /><glyph glyph-name="" unicode="x" d="M404 49 q0 -37 -33 -37 q-54 0 -142 132 q-114 -132 -153 -132 q-27 0 -51.5 26.5 q-24.5 26.5 -24.5 46.5 q0 5 21 25 q83 79 139 149 q-43 78 -73 149 q-30 71 -30 86.5 q0 15.5 1 20.5 q3 13 18 13 q42 0 88.5 -16.5 q46.5 -16.5 46.5 -38.5 q0 -35 30 -102 q61 86 99.5 122 q38.5 36 63 36 q24.5 0 55 -29 q30.5 -29 30.5 -52 q0 -11 -9 -21 q-9 -10 -27 -23.5 q-18 -13.5 -34.5 -30.5 q-16.5 -17 -109.5 -131 l29 -51 q66 -116 66 -142 Z" /><glyph glyph-name="" unicode="y" d="M398 503 q6 25 33 25 q27 0 55.5 -34 q28.5 -34 28.5 -77 q0 -25 -18 -79 q-18 -54 -25.5 -77 q-7.5 -23 -21.5 -62.5 q-14 -39.5 -25.5 -73 q-11.5 -33.5 -31 -89.5 q-19.5 -56 -35.5 -104 q-31 -90 -75.5 -139 q-44.5 -49 -115.5 -49 q-71 0 -127 37.5 q-56 37.5 -56 75.5 q0 23 20.5 51 q20.5 28 35 28 q14.5 0 38 -23.5 q23.5 -23.5 48.5 -47 q25 -23.5 44 -23.5 q13 0 21.5 12 q8.5 12 14 21.5 q5.5 9.5 11.5 26 q6 16.5 11 30.5 q5 14 12 37 q7 23 12 41 q17 54 29 96 q-33 -43 -68 -68.5 q-35 -25.5 -64.5 -25.5 q-29.5 0 -73 44.5 q-43.5 44.5 -43.5 98 q0 53.5 23.5 143.5 q23.5 90 58.5 160 q35 70 62 70 q31 0 58.5 -26.5 q27.5 -26.5 27.5 -51 q0 -24.5 -24.5 -78.5 q-24.5 -54 -49.5 -118 q-25 -64 -25 -109 q0 -6 5 -6 q13 0 55 48.5 q42 48.5 94.5 138 q52.5 89.5 80.5 177.5 Z" /><glyph glyph-name="" unicode="z" d="M173 139 l218 8 q21 0 37 -9.5 q16 -9.5 16 -28.5 q0 -47 -89 -72.5 q-89 -25.5 -221 -25.5 q-48 0 -91 43 q-43 43 -43 70.5 q0 27.5 51 69.5 q51 42 111.5 77.5 q60.5 35.5 111.5 68 q51 32.5 51 43.5 q0 11 -54 11 q-54 0 -88 -6 q-34 -6 -55 -6 q-21 0 -48 34.5 q-27 34.5 -27 54.5 q0 28 50.5 42.5 q50.5 14.5 112.5 14.5 q62 0 135 -17 q33 -9 63.5 -51 q30.5 -42 30.5 -65 q0 -42 -43.5 -88.5 q-43.5 -46.5 -95.5 -77.5 q-52 -31 -95.5 -56.5 q-43.5 -25.5 -43.5 -30.5 q0 -3 6 -3 Z" /><glyph glyph-name="" unicode="¦" d="M295 430 q-21 0 -56.5 38 q-35.5 38 -35.5 54 q0 16 24 142.5 q24 126.5 24 180.5 q0 30 29 30 q24 0 66.5 -44 q42.5 -44 42.5 -82 q0 -38 -36.5 -178.5 q-36.5 -140.5 -57.5 -140.5 ZM187 -166 q-21 0 -56.5 38 q-35.5 38 -35.5 54 q0 16 24 142.5 q24 126.5 24 180.5 q0 30 29 30 q24 0 66 -44 q42 -44 42 -82 q0 -38 -36 -178.5 q-36 -140.5 -57 -140.5 Z" /><glyph glyph-name="" unicode="¨" d="M188 736.5 q0 23.5 21 48.5 q21 25 41.5 25 q20.5 0 47.5 -49 q27 -49 27 -66.5 q0 -17.5 -15.5 -32 q-15.5 -14.5 -30.5 -14.5 q-27 0 -59 32.5 q-32 32.5 -32 56 ZM10 736.5 q0 23.5 21 48.5 q21 25 41.5 25 q20.5 0 47.5 -49 q27 -49 27 -66.5 q0 -17.5 -15.5 -32 q-15.5 -14.5 -30.5 -14.5 q-27 0 -59 32.5 q-32 32.5 -32 56 Z" /><glyph glyph-name="" unicode="©" d="M672 404 q0 -148 -105.5 -246 q-105.5 -98 -260.5 -98 q-118 0 -183 70 q-65 70 -65 179 q0 136 110.5 243.5 q110.5 107.5 246.5 107.5 q117 0 187 -72.5 q70 -72.5 70 -183.5 ZM302 134 q128 0 201 72.5 q73 72.5 73 203.5 q0 77 -41 126 q-41 49 -105 49 q-64 0 -126.5 -33 q-62.5 -33 -107 -101.5 q-44.5 -68.5 -44.5 -150.5 q0 -82 40 -124 q40 -42 110 -42 ZM461 445 l-28 4 q-34 0 -81.5 -54.5 q-47.5 -54.5 -47.5 -98.5 q0 -19 17 -19 q47 0 99 16 l51 16 q7 0 12 -6.5 q5 -6.5 5 -14.5 q0 -24 -58 -56 q-58 -32 -98.5 -32 q-40.5 0 -76 34 q-35.5 34 -35.5 64 q0 68 67 148.5 q67 80.5 136 80.5 q17 0 35 -24.5 q18 -24.5 18 -41 q0 -16.5 -15 -16.5 Z" /><glyph glyph-name="" unicode="«" d="M560 475 q18 0 45 -22.5 q27 -22.5 27 -38.5 q0 -21 -31 -24 q-189 -21 -189 -66 q0 -25 80 -60 q30 -13 55 -30.5 q25 -17.5 25 -32.5 q-3 -27 -38 -27 q-66 0 -149.5 54.5 q-83.5 54.5 -83.5 105.5 q0 12 14 33 q14 21 42 39 q28 18 95.5 43.5 q67.5 25.5 107.5 25.5 ZM48 395 q39 34 102 70 q63 36 88 36 q25 0 52.5 -17 q27.5 -17 27.5 -32 q0 -21 -29 -30 q-77 -24 -122.5 -50 q-45.5 -26 -45.5 -41 q0 -22 47.5 -47 q47.5 -25 94.5 -46.5 q47 -21.5 47 -35.5 q0 -31 -46 -31 q-61 0 -155 52 q-94 52 -94 98 q0 16 11.5 41 q11.5 25 21.5 33 Z" /><glyph glyph-name="" unicode="®" d="M105 450 q0 102 83 182.5 q83 80.5 178 80.5 q95 0 147.5 -54 q52.5 -54 52.5 -138 q0 -111 -79 -184.5 q-79 -73.5 -196 -73.5 q-88 0 -137 52.5 q-49 52.5 -49 134.5 ZM288 319 q96 0 151 54 q55 54 55 152 q0 58 -31 95 q-31 37 -78 37 q-77 0 -143 -61 q-66 -61 -66 -157 q0 -58 30 -89 q30 -31 82 -31 ZM280 381 q-8 0 -19.5 12 q-11.5 12 -11.5 19 q0 7 13.5 51 q13.5 44 16.5 82 q-8 6 -15.5 16.5 q-7.5 10.5 -7.5 15.5 q0 9 26 20 q26 11 50 11 q90 0 90 -54 q0 -33 -46 -68 q-16 -11 -16 -15 q0 -13 12 -24.5 q12 -11.5 26 -22.5 q25 -21 25 -29 q0 -14 -21 -14 q-21 0 -48.5 24 q-27.5 24 -42.5 51 q-23 -75 -31 -75 ZM363 536 q6 8 6 15 q0 7 -17.5 7 q-17.5 0 -29.5 -5 q6 -7 6 -19 q0 -12 -4 -29 q7 3 13.5 8.5 q6.5 5.5 12 9.5 q5.5 4 8 6.5 q2.5 2.5 5.5 6.5 Z" /><glyph glyph-name="" unicode="°" d="M242 480 q27 0 48.5 30.5 q21.5 30.5 21.5 56.5 q0 53 -34 53 q-27 0 -48.5 -31 q-21.5 -31 -21.5 -56.5 q0 -25.5 9.5 -39 q9.5 -13.5 24.5 -13.5 ZM89 505 q0 81 66.5 151 q66.5 70 151.5 70 q57 0 92 -35.5 q35 -35.5 35 -90.5 q0 -81 -67 -150.5 q-67 -69.5 -151 -69.5 q-58 0 -92.5 35 q-34.5 35 -34.5 90 Z" /><glyph glyph-name="" unicode="±" d="M343 637 q0 13 7.5 19.5 q7.5 6.5 18.5 6.5 q28 0 72 -37 q44 -37 44 -55 q0 -26 -9 -77 q76 4 85 4 q99 0 99 -35 q0 -53 -206 -82 q-43 -192 -73 -192 q-22 0 -51 26.5 q-29 26.5 -29 50.5 q0 8 18 102 q-63 -4 -105 -4 q-28 0 -53 34 q-25 34 -25 60 q0 22 27 22 q62 0 172 5 q8 72 8 152 ZM110 143 l387 21 q112 0 112 -31.5 q0 -31.5 -95 -54.5 q-160 -39 -356 -39 q-30 0 -54 27.5 q-24 27.5 -24 52 q0 24.5 30 24.5 Z" /><glyph glyph-name="" unicode="´" d="M49.5 650 q-16.5 0 -28 14.5 q-11.5 14.5 -11.5 34 q0 19.5 12 38 q12 18.5 36.5 39 q24.5 20.5 43 37 q18.5 16.5 27.5 24 q9 7.5 20 16.5 q11 9 17 13 q15 8 26 8 q24 0 44 -27.5 q20 -27.5 20 -49.5 q0 -22 -3.5 -31.5 q-3.5 -9.5 -16 -18.5 q-12.5 -9 -24 -15 q-11.5 -6 -39 -19.5 q-27.5 -13.5 -44 -22.5 q-16.5 -9 -33.5 -20 q-30 -20 -46.5 -20 Z" /><glyph glyph-name="" unicode="ç" d="M559 206 q0 -50 -101.5 -115.5 q-101.5 -65.5 -194.5 -76.5 q-6 -13 -22 -41 q29 -4 62 -23 q33 -19 33 -41 q-1 -43 -66 -78 q-65 -35 -144 -35 q-29 0 -50 13 q-21 13 -21 26 q0 13 24 19.5 q24 6.5 66.5 14 q42.5 7.5 70.5 21.5 q-9 7 -30.5 12 q-21.5 5 -37 10 q-15.5 5 -15.5 15.5 q0 10.5 43 104.5 q-54 29 -96.5 89 q-42.5 60 -42.5 110 q0 95 61 216.5 q61 121.5 157.5 210.5 q96.5 89 185.5 89 q28 0 61 -49.5 q33 -49.5 33 -81.5 q0 -32 -13 -32 q-6 0 -25.5 4 q-19.5 4 -33.5 4 q-50 0 -117 -64 q-67 -64 -114.5 -153 q-47.5 -89 -47.5 -154 q0 -32 10 -46.5 q10 -14.5 36 -14.5 q69 0 140 21 q71 21 117 42.5 q46 21.5 52.5 21.5 q6.5 0 13 -11.5 q6.5 -11.5 6.5 -27.5 Z" /><glyph glyph-name="" unicode="ö" d="M507 887.5 q0 23.5 21 48.5 q21 25 41.5 25 q20.5 0 47.5 -49 q27 -49 27 -66.5 q0 -17.5 -15.5 -32 q-15.5 -14.5 -30.5 -14.5 q-27 0 -59 32.5 q-32 32.5 -32 56 ZM329 887.5 q0 23.5 21 48.5 q21 25 41.5 25 q20.5 0 47.5 -49 q27 -49 27 -66.5 q0 -17.5 -15.5 -32 q-15.5 -14.5 -30.5 -14.5 q-27 0 -59 32.5 q-32 32.5 -32 56 ZM321 185.5 q58 51.5 101 130 q43 78.5 43 150.5 q0 72 -18 111 q-18 39 -50 39 q-32 0 -83.5 -57.5 q-51.5 -57.5 -93 -150.5 q-41.5 -93 -41.5 -178 q0 -43 12 -69.5 q12 -26.5 30 -26.5 q42 0 100 51.5 ZM222 13 q-74 0 -132 72.5 q-58 72.5 -58 144.5 q0 92 35 188.5 q35 96.5 87.5 167 q52.5 70.5 115.5 116 q63 45.5 116 45.5 q97 0 159 -82.5 q62 -82.5 62 -185.5 q0 -103 -52 -208.5 q-52 -105.5 -143.5 -181.5 q-91.5 -76 -189.5 -76 Z" /><glyph glyph-name="" unicode="ü" d="M352 887.5 q0 23.5 21 48.5 q21 25 41.5 25 q20.5 0 47.5 -49 q27 -49 27 -66.5 q0 -17.5 -15.5 -32 q-15.5 -14.5 -30.5 -14.5 q-27 0 -59 32.5 q-32 32.5 -32 56 ZM174 887.5 q0 23.5 21 48.5 q21 25 41.5 25 q20.5 0 47.5 -49 q27 -49 27 -66.5 q0 -17.5 -15.5 -32 q-15.5 -14.5 -30.5 -14.5 q-27 0 -59 32.5 q-32 32.5 -32 56 ZM156 747 q25 0 63.5 -36 q38.5 -36 38.5 -70.5 q0 -34.5 -36 -178.5 q-36 -144 -36 -198.5 q0 -54.5 13.5 -83.5 q13.5 -29 38 -29 q24.5 0 57.5 35.5 q33 35.5 63.5 92 q30.5 56.5 51 135 q20.5 78.5 20.5 146 q0 67.5 -6.5 108.5 q-6.5 41 -6.5 49 q0 31 26 31 q32 0 82.5 -54 q50.5 -54 50.5 -128.5 q0 -74.5 -26 -171 q-26 -96.5 -70 -182.5 q-44 -86 -111.5 -143 q-67.5 -57 -138 -57 q-70.5 0 -127.5 74 q-57 74 -57 151 q0 77 20 178.5 q20 101.5 40 182.5 q20 81 20 115 q0 34 30 34 Z" /><glyph glyph-name="" unicode="ç" d="M402 171 q28 0 28 -24 q0 -40 -64.5 -82 q-64.5 -42 -137.5 -51 q-13 -28 -22 -42 q29 -4 62 -23 q33 -19 33 -41 q-1 -43 -66 -78 q-65 -35 -144 -35 q-29 0 -50 13 q-21 13 -21 26 q0 13 24 19.5 q24 6.5 66.5 14 q42.5 7.5 70.5 21.5 q-9 7 -30.5 12 q-21.5 5 -37 10 q-15.5 5 -15.5 13 q0 18 43 106 q-45 23 -80.5 63.5 q-35.5 40.5 -35.5 75.5 q0 70 44 154 q44 84 115.5 144 q71.5 60 140.5 60 q35 0 72 -45.5 q37 -45.5 37 -81.5 q0 -26 -24 -26 q-12 0 -33 11 q-21 11 -43 11 q-22 0 -62.5 -37.5 q-40.5 -37.5 -72 -90 q-31.5 -52.5 -31.5 -82.5 q0 -30 11.5 -39 q11.5 -9 56 -9 q44.5 0 81 8 q36.5 8 54 16.5 q17.5 8.5 31.5 8.5 Z" /><glyph glyph-name="" unicode="ö" d="M166 114 q54 24 94 97 q40 73 40 137 q0 64 -18 88 q-43 -25 -85.5 -105 q-42.5 -80 -42.5 -140.5 q0 -60.5 12 -76.5 ZM20 180 q0 125 77.5 237 q77.5 112 153.5 112 q76 0 128 -53.5 q52 -53.5 52 -129 q0 -75.5 -36 -153.5 q-36 -78 -101 -129.5 q-65 -51.5 -139 -51.5 q-55 0 -95 49 q-40 49 -40 119 ZM340 651.5 q0 23.5 21 48.5 q21 25 41.5 25 q20.5 0 47.5 -49 q27 -49 27 -66.5 q0 -17.5 -15.5 -32 q-15.5 -14.5 -30.5 -14.5 q-27 0 -59 32.5 q-32 32.5 -32 56 ZM162 651.5 q0 23.5 21 48.5 q21 25 41.5 25 q20.5 0 47.5 -49 q27 -49 27 -66.5 q0 -17.5 -15.5 -32 q-15.5 -14.5 -30.5 -14.5 q-27 0 -59 32.5 q-32 32.5 -32 56 Z" /><glyph glyph-name="" unicode="ü" d="M373 503 q8 25 32 25 q24 0 55.5 -41 q31.5 -41 31.5 -71 q0 -11 -46 -147 q-46 -136 -71 -215 q-14 -42 -47 -42 q-20 0 -33.5 14.5 q-13.5 14.5 -13.5 45.5 q0 31 12 88 q-103 -148 -164 -148 q-32 0 -77 41.5 q-45 41.5 -45 80.5 q0 96 54.5 245 q54.5 149 102.5 149 q29 0 51.5 -26 q22.5 -26 22.5 -57 q0 -12 -25 -67 q-76 -169 -76 -233 q0 -6 5 -6 q15 0 56.5 47.5 q41.5 47.5 93 136 q51.5 88.5 81.5 180.5 ZM250 563 q-27 0 -59 32.5 q-32 32.5 -32 56 q0 23.5 21 48.5 q21 25 41.5 25 q20.5 0 47.5 -49 q27 -49 27 -66.5 q0 -17.5 -15.5 -32 q-15.5 -14.5 -30.5 -14.5 ZM428 563 q-27 0 -59 32.5 q-32 32.5 -32 56 q0 23.5 21 48.5 q21 25 41.5 25 q20.5 0 47.5 -49 q27 -49 27 -66.5 q0 -17.5 -15.5 -32 q-15.5 -14.5 -30.5 -14.5 Z" /><glyph glyph-name="" unicode="&#x11e;" d="M573 885 q24 18 43 36 q19 18 35 18 q16 0 24.5 -9 q8.5 -9 8.5 -23 q0 -46 -58.5 -92.5 q-58.5 -46.5 -123 -46.5 q-64.5 0 -108 43 q-43.5 43 -43.5 86.5 q0 43.5 23.5 64 q23.5 20.5 45.5 20.5 q20 0 34 -58 q6 -21 22.5 -39 q16.5 -18 44.5 -18 q28 0 52 18 ZM277 340 q0 21 48 34 q48 13 104 13 q56 0 85.5 -45 q29.5 -45 29.5 -100 q0 -55 -46.5 -189.5 q-46.5 -134.5 -80.5 -134.5 q-14 0 -23.5 8.5 q-9.5 8.5 -9.5 21.5 q0 72 40 206 q-47 -60 -102.5 -97 q-55.5 -37 -114 -37 q-58.5 0 -122.5 51 q-64 51 -64 112 q0 108 64 239.5 q64 131.5 162 224.5 q98 93 185 93 q30 0 62.5 -47 q32.5 -47 32.5 -86 q0 -18 -13 -18 q-2 0 -19 4 q-17 4 -42 4 q-67 0 -137 -68.5 q-70 -68.5 -114 -168.5 q-44 -100 -44 -188 q0 -26 34 -26 q47 0 115.5 42 q68.5 42 105.5 94 q-22 -1 -53.5 -1 q-31.5 0 -57 19 q-25.5 19 -25.5 40 Z" /><glyph glyph-name="" unicode="&#x11f;" d="M427 669 q24 18 43 36 q19 18 35 18 q16 0 24.5 -9 q8.5 -9 8.5 -23 q0 -46 -58.5 -92.5 q-58.5 -46.5 -123 -46.5 q-64.5 0 -108 43 q-43.5 43 -43.5 86.5 q0 43.5 23.5 64 q23.5 20.5 45.5 20.5 q20 0 34 -58 q6 -21 22.5 -39 q16.5 -18 44.5 -18 q28 0 52 18 ZM409 312 q15 -17 15 -41 q0 -24 -20 -59 q-25 -60 -44 -149 q-19 -89 -37.5 -142.5 q-18.5 -53.5 -40 -91.5 q-21.5 -38 -58.5 -63 q-37 -25 -85 -25 q-67 0 -120 44 q-53 44 -53 75.5 q0 31.5 17 57 q17 25.5 31.5 25.5 q14.5 0 28 -16 q13.5 -16 25 -34.5 q11.5 -18.5 30.5 -34.5 q19 -16 42 -16 q23 0 42 30 q19 30 30 65 q24 83 30 117 q-68 -42 -110.5 -42 q-42.5 0 -82.5 46.5 q-40 46.5 -40 88 q0 41.5 22.5 104 q22.5 62.5 58 125 q35.5 62.5 90 107.5 q54.5 45 109.5 45 q37 0 63 -18.5 q26 -18.5 38 -49.5 q21 -54 21 -122 q0 -10 -2 -26 ZM132 151 q0 -13 11 -13 q29 0 94 53 q65 53 87 105 l0 19 q0 65 -12 79 q-6 7 -16 7 q-48 0 -106 -101 q-58 -101 -58 -149 Z" /><glyph glyph-name="" unicode="&#x130;" d="M283 785 q-27 0 -59 32 q-32 32 -32 55.5 q0 23.5 20.5 47.5 q20.5 24 41 24 q20.5 0 47.5 -47 q27 -47 27 -65 q0 -18 -15 -32.5 q-15 -14.5 -30 -14.5 ZM138 13 q-20 0 -54 41.5 q-34 41.5 -34 60.5 q0 19 49.5 278.5 q49.5 259.5 51.5 318.5 q2 33 31 33 q24 0 64 -48 q40 -48 40 -90 q0 -18 -27.5 -135.5 q-27.5 -117.5 -37 -164 q-9.5 -46.5 -16.5 -83 q-7 -36.5 -11 -57.5 q-28 -128 -44 -147 q-6 -7 -12 -7 Z" /><glyph glyph-name="" unicode="&#x131;" d="M160 528 q35 0 62.5 -40 q27.5 -40 27.5 -77 q0 -19 -34.5 -136.5 q-34.5 -117.5 -68.5 -222.5 q-12 -39 -51 -39 q-22 0 -37 16.5 q-15 16.5 -15 37.5 q0 21 6 51.5 q6 30.5 18.5 81.5 q12.5 51 18 79 q5.5 28 13 68 q7.5 40 12.5 66.5 q5 26.5 12 55.5 q16 59 36 59 Z" /><glyph glyph-name="" unicode="&#x15e;" d="M378 582.5 q-44 -16.5 -73 -33 q-29 -16.5 -29 -30 q0 -13.5 35 -45 q35 -31.5 76.5 -66 q41.5 -34.5 76.5 -87 q35 -52.5 35 -101.5 q0 -81 -74 -140.5 q-74 -59.5 -178 -65.5 q-10 -25 -25 -49 q29 -4 62 -23 q33 -19 33 -41 q-1 -43 -66 -78 q-65 -35 -144 -35 q-29 0 -50 13 q-21 13 -21 26 q0 13 24 19.5 q24 6.5 66.5 14 q42.5 7.5 70.5 21.5 q-9 7 -30.5 12 q-21.5 5 -37 10 q-15.5 5 -15.5 13 q0 15 42 104 q-70 18 -112 62.5 q-42 44.5 -42 93.5 q0 49 31 49 q24 0 50 -24 q26 -24 58.5 -48 q32.5 -24 73.5 -24 q41 0 93 34 q52 34 52 57 q0 23 -56.5 77 q-56.5 54 -113 111.5 q-56.5 57.5 -56.5 89 q0 31.5 11.5 68.5 q11.5 37 28.5 51 q54 53 139.5 91.5 q85.5 38.5 150.5 38.5 q38 0 63 -32.5 q25 -32.5 25 -67.5 q0 -14 -22.5 -22.5 q-22.5 -8.5 -65 -17.5 q-42.5 -9 -86.5 -25.5 Z" /><glyph glyph-name="" unicode="&#x15f;" d="M344 527 q38 0 75 -45 q37 -45 37 -81 q0 -24 -21 -24 q-12 0 -35 9.5 q-23 9.5 -46.5 9.5 q-23.5 0 -69 -16 q-45.5 -16 -45.5 -42 q0 -10 27 -29 q27 -19 59 -39 q32 -20 59 -55.5 q27 -35.5 27 -76 q0 -40.5 -56.5 -81.5 q-56.5 -41 -132.5 -45 q-6 -16 -21 -40 q29 -4 62 -23 q33 -19 33 -41 q-1 -43 -66 -78 q-65 -35 -144 -35 q-29 0 -50 13 q-21 13 -21 26 q0 13 24 19.5 q24 6.5 66.5 14 q42.5 7.5 70.5 21.5 q-9 7 -30.5 12 q-21.5 5 -37 10 q-15.5 5 -15.5 13 q0 18 39 98 q-54 15 -87.5 44.5 q-33.5 29.5 -33.5 55.5 q0 42 32 42 q13 0 31 -10 q50 -29 124.5 -29 q74.5 0 74.5 20 q0 20 -28.5 44.5 q-28.5 24.5 -62 45.5 q-33.5 21 -62 51.5 q-28.5 30.5 -28.5 59.5 q0 54 98 117.5 q98 63.5 154 63.5 Z" /><glyph glyph-name="" unicode="&#x2014;" d="M98.5 221 q-19.5 0 -37 26.5 q-17.5 26.5 -17.5 53 q0 26.5 97.5 45 q97.5 18.5 243.5 25.5 q250 12 403.5 12 q153.5 0 153.5 -39 q0 -33 -116 -49 q-79 -11 -201.5 -21 q-122.5 -10 -178.5 -16 q-56 -6 -148 -16 q-180 -21 -199.5 -21 Z" /><glyph glyph-name="" unicode="&#x2019;" d="M158 882 q52 0 85.5 -37 q33.5 -37 33.5 -100 q0 -63 -56.5 -140 q-56.5 -77 -103.5 -77 q-47 0 -47 40 q0 18 37 69.5 q37 51.5 37 86 q0 34.5 -27 56.5 q-27 22 -27 42 q0 20 21 40 q21 20 47 20 Z" /></font>
</defs>
</svg>
