<?xml version="1.0" standalone="no"?><!DOCTYPE svg PUBLIC "-//W3C//DTD SVG 1.1//EN" "http://www.w3.org/Graphics/SVG/1.1/DTD/svg11.dtd" ><svg xmlns="http://www.w3.org/2000/svg"><metadata></metadata><defs><font id="2.001;ITFO;Kalam-Regular" horiz-adv-x="917"><font-face font-family="Kalam" font-weight="400" font-stretch="normal" units-per-em="1000" panose-1="2 0 0 0 0 0 0 0 0 0" ascent="1063" descent="-531" x-height="0" bbox="-221 -247 889 945" underline-thickness="50" underline-position="-125" unicode-range="U+0020-2019" /><missing-glyph horiz-adv-x="752" d="M236 642 l0 -583 l280 0 l0 583 l-280 0 ZM173 0 l0 701 l406 0 l0 -701 l-406 0 Z" /><glyph glyph-name="" unicode=" " d="" /><glyph glyph-name="" unicode="&quot;" d="M261 846 q11 0 31.5 -16.5 q20.5 -16.5 20.5 -26.5 q0 -53 -15 -151.5 q-15 -98.5 -35 -98.5 q-10 0 -22 12.5 q-12 12.5 -12 20 q0 7.5 9 91.5 q9 84 9 150 q0 19 14 19 ZM78 827 q0 19 12 19 q12 0 33 -16.5 q21 -16.5 21 -26.5 q0 -52 -15.5 -151 q-15.5 -99 -34.5 -99 q-11 0 -22.5 12.5 q-11.5 12.5 -11.5 20 q0 7.5 9 91.5 q9 84 9 150 Z" /><glyph glyph-name="" unicode="&#39;" d="M84 827 q0 19 12.5 19 q12.5 0 35 -16.5 q22.5 -16.5 22.5 -26.5 q0 -46 -20 -150.5 q-20 -104.5 -39 -99.5 q-10 0 -22 13 q-12 13 -12 20 q0 7 11.5 92 q11.5 85 11.5 149 Z" /><glyph glyph-name="" unicode="(" d="M499.5 875 q20.5 0 36 -14.5 q15.5 -14.5 15.5 -29 q0 -14.5 -28.5 -38.5 q-28.5 -24 -70.5 -54 q-42 -30 -92 -78 q-50 -48 -92 -102 q-42 -54 -70.5 -133 q-28.5 -79 -28.5 -152.5 q0 -73.5 20.5 -123 q20.5 -49.5 51 -79.5 q30.5 -30 66.5 -54.5 q36 -24.5 67 -38.5 q71 -34 71 -55.5 q0 -21.5 -29 -21.5 q-48 0 -104 24.5 q-56 24.5 -109 68.5 q-53 44 -88 117.5 q-35 73.5 -35 168 q0 94.5 37 193 q37 98.5 91 169 q54 70.5 114 125 q60 54.5 108.5 81.5 q48.5 27 69 27 Z" /><glyph glyph-name="" unicode=")" d="M426 571 q0 -96 -27.5 -188.5 q-27.5 -92.5 -70.5 -162 q-43 -69.5 -94.5 -129 q-51.5 -59.5 -100.5 -97.5 q-104 -81 -142 -81 q-23 0 -23 17 q0 18 94 100 q93 80 176 202 q41 60 68 140.5 q27 80.5 27 152 q0 71.5 -16.5 116.5 q-16.5 45 -40 70 q-23.5 25 -47.5 43 q-24 18 -40.5 33.5 q-16.5 15.5 -16.5 30.5 q0 43 56 43 q67 0 132.5 -86 q65.5 -86 65.5 -204 Z" /><glyph glyph-name="" unicode="*" d="M381 726 q0 -6 -38 -27.5 q-38 -21.5 -72 -35.5 q13 -11 36.5 -24.5 q23.5 -13.5 38.5 -22.5 q15 -9 15 -14.5 q0 -5.5 -7.5 -11.5 q-7.5 -6 -16.5 -6 q-9 0 -35 16 q-26 16 -49 36 q-4 -32 -14.5 -69.5 q-10.5 -37.5 -18.5 -37.5 q-8 0 -15.5 7.5 q-7.5 7.5 -7.5 13.5 q0 6 4.5 21.5 q4.5 15.5 11 35.5 q6.5 20 8.5 31 q-16 -15 -51.5 -35 q-35.5 -20 -44 -20 q-8.5 0 -16.5 7.5 q-8 7.5 -8 15.5 q0 5 18 13 q18 8 47.5 21 q29.5 13 46.5 24 q-29 11 -66.5 40.5 q-37.5 29.5 -37.5 41.5 q0 12 10 12 q48 0 57 -19 q4 -8 21.5 -27 q17.5 -19 29.5 -25 l0 91 q0 15 13 15 q10 0 24.5 -13 q14.5 -13 14.5 -21.5 q0 -8.5 -18 -72.5 q16 10 37 27.5 q21 17.5 34 28 q13 10.5 20.5 10.5 q7.5 0 18 -8.5 q10.5 -8.5 10.5 -17.5 Z" /><glyph glyph-name="" unicode="+" d="M606 362 q0 -44 -252 -69 q-37 -179 -44 -201 q-7 -22 -18 -22 q-14 0 -30 19.5 q-16 19.5 -16 35 q0 15.5 3 33 q3 17.5 9.5 54 q6.5 36.5 12.5 74.5 q-86 -6 -154 -6 q-24 0 -43 20 q-19 20 -19 41 q0 21 28 21 q148 0 199 4 q9 75 18 181 q1 30 20 30 q19 0 47.5 -28 q28.5 -28 28.5 -48.5 q0 -20.5 -24 -128.5 q142 12 165 12 q69 0 69 -22 Z" /><glyph glyph-name="" unicode="," d="M174 26 q0 -63 -54 -132.5 q-54 -69.5 -93 -69.5 q-20 0 -20 14 q0 11 21 36 q63 75 63 125 q0 16 -12.5 26.5 q-12.5 10.5 -25.5 19.5 q-13 9 -13 22.5 q0 13.5 17 34 q17 20.5 36 20.5 q32 0 56.5 -29.5 q24.5 -29.5 24.5 -66.5 Z" /><glyph glyph-name="" unicode="-" d="M422 328 q0 -16 -32.5 -26 q-32.5 -10 -157 -35 q-124.5 -25 -136 -25 q-11.5 0 -27.5 17 q-16 17 -16 31 q0 22 113 42.5 q113 20.5 196 20.5 q60 0 60 -25 Z" /><glyph glyph-name="" unicode="." d="M145 -6 q-25 0 -57 32.5 q-32 32.5 -32 54 q0 21.5 17.5 43 q17.5 21.5 36 21.5 q18.5 0 43 -49 q24.5 -49 24.5 -74 q0 -8 -11 -18 q-11 -10 -21 -10 Z" /><glyph glyph-name="" unicode="/" d="M201 217 q-61 -148 -94.5 -221 q-33.5 -73 -45 -73 q-11.5 0 -29 21.5 q-17.5 21.5 -17.5 35.5 q0 55 316 787 q1 3 3 7.5 q2 4.5 3 7 q1 2.5 2.5 5.5 q1.5 3 3 4 q1.5 1 3.5 3 q3 2 12 2 q9 0 31.5 -30 q22.5 -30 22.5 -52.5 q0 -22.5 -25.5 -82 q-25.5 -59.5 -75 -163 q-49.5 -103.5 -110.5 -251.5 Z" /><glyph glyph-name="" unicode="0" d="M381 488 q0 157 -46 157 q-21 0 -53.5 -41.5 q-32.5 -41.5 -63 -103.5 q-30.5 -62 -52 -141.5 q-21.5 -79.5 -21.5 -146.5 q0 -115 61 -115 q29 0 70.5 64 q41.5 64 73 158 q31.5 94 31.5 169 ZM432.5 284 q-38.5 -111 -102.5 -188.5 q-64 -77.5 -125.5 -77.5 q-61.5 0 -107 56.5 q-45.5 56.5 -45.5 126.5 q0 121 44.5 245 q44.5 124 112 202.5 q67.5 78.5 130.5 78.5 q63 0 97.5 -59.5 q34.5 -59.5 34.5 -166 q0 -106.5 -38.5 -217.5 Z" /><glyph glyph-name="" unicode="1" d="M271 651 q0 -107 -51 -308 q-11 -40 -25 -99 q-14 -59 -23 -94.5 q-9 -35.5 -20 -71.5 q-20 -71 -39 -71 q-14 0 -29.5 20 q-15.5 20 -15.5 41.5 q0 21.5 21.5 103.5 q21.5 82 48.5 224 q27 142 37 299 q3 31 23 31 q22 0 47.5 -28 q25.5 -28 25.5 -47 Z" /><glyph glyph-name="" unicode="2" d="M231.5 115 q77.5 12 136 20 q58.5 8 86 8 q27.5 0 42 -4.5 q14.5 -4.5 14.5 -18.5 q0 -28 -150.5 -63.5 q-150.5 -35.5 -220.5 -35.5 q-31 0 -64.5 27.5 q-33.5 27.5 -33.5 57.5 q0 24 96 96 q90 66 177 154 q41 42 68.5 92.5 q27.5 50.5 27.5 93 q0 42.5 -19 66.5 q-19 24 -52 24 q-33 0 -62 -20 q-29 -20 -47 -39.5 q-18 -19.5 -23 -19.5 q-17 0 -40 15 q-23 15 -23 30 q0 37 61.5 82 q61.5 45 131.5 45 q70 0 116.5 -49.5 q46.5 -49.5 46.5 -122.5 q0 -216 -370 -453 q24 3 101.5 15 Z" /><glyph glyph-name="" unicode="3" d="M328 369 q91 -12 145 -45 q54 -33 54 -87.5 q0 -54.5 -63.5 -107.5 q-63.5 -53 -154 -83 q-90.5 -30 -183 -30 q-92.5 0 -92.5 34 q0 9 59.5 23.5 q59.5 14.5 130.5 31 q71 16.5 130.5 53 q59.5 36.5 59.5 84.5 q0 26 -36 42.5 q-36 16.5 -80 23.5 q-116 17 -116 40 q0 8 3 12 q8 14 51 39 q43 25 87.5 49 q44.5 24 81.5 63 q37 39 37 79 q0 47 -51 47 q-41 0 -104 -32.5 q-63 -32.5 -71.5 -32.5 q-8.5 0 -31.5 21.5 q-23 21.5 -23 32.5 q0 30 81.5 62 q81.5 32 144.5 32 q63 0 106.5 -43 q43.5 -43 43.5 -98.5 q0 -55.5 -63 -113 q-63 -57.5 -146 -96.5 Z" /><glyph glyph-name="" unicode="4" d="M441 532 q16 0 42 -23.5 q26 -23.5 26 -43.5 q0 -90 -58 -283.5 q-58 -193.5 -91 -193.5 q-11 0 -21.5 14.5 q-10.5 14.5 -10.5 31 q0 16.5 9 47.5 q9 31 25.5 82 q16.5 51 27.5 95 q-95 -43 -181 -43 q-58 0 -97.5 34.5 q-39.5 34.5 -39.5 95.5 q0 44 33.5 111.5 q33.5 67.5 76.5 125 q43 57.5 85 100 q42 42.5 58.5 42.5 q16.5 0 32 -12 q15.5 -12 15.5 -26.5 q0 -14.5 -53 -77 q-53 -62.5 -106 -138.5 q-53 -76 -53 -121 q0 -55 56 -55 q48 0 118.5 26 q70.5 26 72.5 27 q12 81 12 153 q0 32 21 32 Z" /><glyph glyph-name="" unicode="5" d="M444 716 q146 0 146 -31 q0 -22 -172 -49 q-76 -12 -95.5 -16.5 q-19.5 -4.5 -46 -53 q-26.5 -48.5 -26.5 -70 q0 -21.5 21 -45 q21 -23.5 51.5 -46 q30.5 -22.5 61.5 -46.5 q72 -57 72 -111 q0 -84 -80 -156 q-80 -72 -168 -72 q-69 0 -124 47 q-55 47 -55 93 q0 29 16 29 q6 0 29 -23 q68 -68 118.5 -68 q50.5 0 110 47 q59.5 47 59.5 94 q0 43 -74 94 q-30 21 -60.5 43.5 q-30.5 22.5 -52 53.5 q-21.5 31 -21.5 71.5 q0 40.5 46 115 q46 74.5 76 81.5 q62 18 168 18 Z" /><glyph glyph-name="" unicode="6" d="M491 257 q0 -84 -97 -160.5 q-97 -76.5 -203 -76.5 q-63 0 -103.5 42.5 q-40.5 42.5 -40.5 115 q0 72.5 47.5 173.5 q47.5 101 108.5 180 q61 79 117.5 134 q56.5 55 77 55 q20.5 0 40.5 -10.5 q20 -10.5 20 -21 q0 -10.5 -34 -46.5 q-135 -143 -191 -224 q111 -10 184.5 -58.5 q73.5 -48.5 73.5 -102.5 ZM200 101 q66 0 129.5 47 q63.5 47 63.5 101 q0 38 -53.5 70 q-53.5 32 -142.5 43 q-61 -107 -61 -193 q0 -34 17.5 -51 q17.5 -17 46.5 -17 Z" /><glyph glyph-name="" unicode="7" d="M99 685 q0 10 82.5 22 q82.5 12 162 12 q79.5 0 100.5 -14 q17 -13 29.5 -41.5 q12.5 -28.5 12.5 -46.5 q0 -18 -9.5 -40.5 q-9.5 -22.5 -27.5 -54 q-18 -31.5 -35.5 -60 q-17.5 -28.5 -41.5 -67 q-24 -38.5 -46 -76 q-22 -37.5 -73.5 -132.5 q-51.5 -95 -76 -134.5 q-24.5 -39.5 -37.5 -39.5 q-13 0 -25 18.5 q-12 18.5 -12 36.5 q0 33 74 158.5 q74 125.5 148.5 247 q74.5 121.5 74.5 142.5 q0 18 -33.5 18 q-33.5 0 -107 -11 q-73.5 -11 -93.5 -11 q-20 0 -43 27.5 q-23 27.5 -23 45.5 Z" /><glyph glyph-name="" unicode="8" d="M444 729 q78 0 118 -32 q40 -32 40 -85.5 q0 -53.5 -52 -112 q-52 -58.5 -145 -132.5 q93 -88 93 -150 q0 -49 -43.5 -95.5 q-43.5 -46.5 -105 -73 q-61.5 -26.5 -111.5 -26.5 q-50 0 -98.5 36.5 q-48.5 36.5 -48.5 82.5 q0 46 49 102.5 q49 56.5 136 127.5 q-145 112 -170 149 q-14 20 -14 37.5 q0 17.5 5.5 35 q5.5 17.5 14.5 17.5 q9 0 25 -16.5 q16 -16.5 29.5 -29.5 q13.5 -13 44 -38 q30.5 -25 69.5 -55 q39 -30 60 -48 q59 47 89 73 q30 26 57.5 59 q27.5 33 27.5 55 q0 38 -50.5 38 q-50.5 0 -115.5 -24.5 q-65 -24.5 -79 -24.5 q-14 0 -35.5 15 q-21.5 15 -21.5 29 q0 30 77 58 q77 28 155 28 ZM408 230 q0 28 -66 87 q-54 -43 -83 -67.5 q-29 -24.5 -54 -54.5 q-25 -30 -25 -48.5 q0 -18.5 17.5 -33.5 q17.5 -15 38.5 -15 q55 0 113.5 40.5 q58.5 40.5 58.5 91.5 Z" /><glyph glyph-name="" unicode="9" d="M470 509 q0 -20 -25.5 -86 q-25.5 -66 -41 -113 q-15.5 -47 -34 -132.5 q-18.5 -85.5 -30 -129 q-11.5 -43.5 -24.5 -43.5 q-34 0 -34 80 q0 80 54 255 q-73 -56 -128 -56 q-55 0 -96.5 43 q-41.5 43 -41.5 99 q0 56 39 127.5 q39 71.5 101.5 122 q62.5 50.5 118.5 50.5 q56 0 86 -37.5 q30 -37.5 30 -76.5 q0 -39 -7 -61 q33 -6 33 -42 ZM358 524 l9 67 q0 22 -10.5 36.5 q-10.5 14.5 -29.5 14.5 q-53 0 -116 -84 q-63 -84 -63 -143 q0 -25 17.5 -40 q17.5 -15 36 -15 q18.5 0 30.5 3 q12 3 24 9.5 q12 6.5 21.5 12.5 q9.5 6 21 18 q11.5 12 18.5 19 q7 7 18.5 22 q11.5 15 16.5 21 q19 26 29 41 q-23 3 -23 18 Z" /><glyph glyph-name="" unicode=":" d="M202 336 q-23 0 -55 41 q-32 41 -32 64.5 q0 23.5 14.5 47 q14.5 23.5 28.5 23.5 q25 0 48.5 -57 q23.5 -57 23.5 -79 q0 -40 -28 -40 ZM125 -7 q-23 0 -54.5 40 q-31.5 40 -31.5 64 q0 24 14 47.5 q14 23.5 29 23.5 q24 0 47.5 -56.5 q23.5 -56.5 23.5 -89.5 q0 -11 -8 -20 q-8 -9 -20 -9 Z" /><glyph glyph-name="" unicode=";" d="M171 8 q0 -63 -54 -133 q-54 -70 -93 -70 q-20 0 -20 15 q0 10 21 35 q63 75 63 126 q0 16 -13 26.5 q-13 10.5 -25.5 19 q-12.5 8.5 -12.5 22 q0 13.5 17 34.5 q17 21 36 21 q32 0 56.5 -29.5 q24.5 -29.5 24.5 -66.5 ZM213 336 q-23 0 -54.5 41 q-31.5 41 -31.5 64.5 q0 23.5 14.5 47 q14.5 23.5 28.5 23.5 q24 0 48 -57 q24 -57 24 -79 q0 -22 -8.5 -31 q-8.5 -9 -20.5 -9 Z" /><glyph glyph-name="" unicode="?" d="M222 -3 q-24 0 -55.5 31.5 q-31.5 31.5 -31.5 52.5 q0 21 17 41.5 q17 20.5 34 20.5 q17 0 41 -48.5 q24 -48.5 24 -72.5 q0 -7 -10 -16 q-10 -9 -19 -9 ZM258 634 l2 -26 q0 -12 -12.5 -17.5 q-12.5 -5.5 -22 -5.5 q-9.5 0 -28.5 23 q-19 23 -19 39 q0 55 49 98 q49 43 114 43 q65 0 110.5 -41 q45.5 -41 45.5 -111 q0 -41 -27.5 -86 q-27.5 -45 -61.5 -78 q-100 -99 -124.5 -158 q-24.5 -59 -33.5 -67 q-9 -8 -16 -8 q-25 0 -25 64 q0 41 31.5 88 q31.5 47 69 82.5 q37.5 35.5 69 79 q31.5 43.5 31.5 76.5 q0 33 -21.5 52.5 q-21.5 19.5 -52.5 19.5 q-31 0 -54.5 -19 q-23.5 -19 -23.5 -48 Z" /><glyph glyph-name="" unicode="a" d="M564 363 q0 -19 -88 -44 q8 -104 8 -177 q0 -126 -32 -126 q-17 0 -27 21 q-10 21 -16 73 q-7 96 -15 188 q-45 -12 -82 -21.5 q-37 -9.5 -112 -30.5 q-88 -230 -104 -230 q-16 0 -34.5 19.5 q-18.5 19.5 -18.5 41.5 q0 10 57 142 l-7 0 q-20 0 -35.5 13 q-15.5 13 -15.5 32.5 q0 19.5 99 51.5 q16 36 26 65 q23 57 64 156 q41 99 52 126.5 q11 27.5 38.5 47 q27.5 19.5 53.5 19.5 q31 0 55.5 -99 q24.5 -99 39.5 -245 q28 3 49 3 q45 0 45 -26 ZM237 342 q71 19 150 32 q-18 171 -35 257 q-45 -103 -115 -289 Z" /><glyph glyph-name="" unicode="b" d="M575 254 q0 -59 -61 -114.5 q-61 -55.5 -158 -89 q-97 -33.5 -198 -33.5 q-59 0 -105.5 33 q-46.5 33 -46.5 61.5 q0 28.5 17 28.5 q4 0 39.5 -21.5 q35.5 -21.5 74.5 -22.5 q-14 7 -26.5 26 q-12.5 19 -12.5 36 q0 17 24 95 q74 235 76 361 l-8 0 q-18 0 -37 22.5 q-19 22.5 -19 36.5 q0 17 42.5 29.5 q42.5 12.5 102.5 12.5 q140 0 216 -38 q76 -38 76 -110 q0 -60 -50.5 -109 q-50.5 -49 -147.5 -79 l9 -1 q84 -5 138.5 -41 q54.5 -36 54.5 -83 ZM481 562 q0 33 -33.5 51.5 q-33.5 18.5 -81 18.5 q-47.5 0 -115.5 -12 q28 -30 28 -57.5 q0 -27.5 -35 -165.5 q24 15 75 34.5 q51 19.5 80.5 34.5 q29.5 15 43 26.5 q13.5 11.5 26 30.5 q12.5 19 12.5 39 ZM488 258 q0 30 -69.5 50.5 q-69.5 20.5 -138.5 20.5 q-27 0 -47 28 q-61 -241 -80 -261 q71 2 149 25.5 q78 23.5 132 61.5 q54 38 54 75 Z" /><glyph glyph-name="" unicode="c" d="M470 718 q26 0 53.5 -33 q27.5 -33 27.5 -54.5 q0 -21.5 -7.5 -21.5 q-7.5 0 -28.5 7.5 q-21 7.5 -38 7.5 q-39 0 -94.5 -40 q-55.5 -40 -105 -99 q-49.5 -59 -84.5 -134.5 q-35 -75.5 -35 -130.5 q0 -55 28.5 -80.5 q28.5 -25.5 74.5 -25.5 q46 0 95 13.5 q49 13.5 80 30.5 q80 43 88 43 q17 0 17 -22.5 q0 -22.5 -46 -60 q-46 -37.5 -114 -67.5 q-68 -30 -122 -30 q-70 0 -132 60.5 q-62 60.5 -62 133.5 q0 94 61.5 212.5 q61.5 118.5 158 204.5 q96.5 86 185.5 86 Z" /><glyph glyph-name="" unicode="d" d="M151 721 q94 0 200.5 -49 q106.5 -49 183.5 -135.5 q77 -86.5 77 -179.5 q0 -61 -84.5 -143.5 q-84.5 -82.5 -195.5 -141 q-111 -58.5 -184 -58.5 q-19 0 -43.5 32.5 q-24.5 32.5 -24.5 66 q0 33.5 58 241.5 q58 208 63 274 q-32 13 -51 34 q-19 21 -19 40 q0 19 20 19 ZM520 368 q0 62 -74 134.5 q-74 72.5 -172 104.5 q5 -18 5 -42.5 q0 -24.5 -17.5 -91.5 q-17.5 -67 -63.5 -224 q-19 -66 -31 -145 q69 9 154.5 60.5 q85.5 51.5 142 110.5 q56.5 59 56.5 93 Z" /><glyph glyph-name="" unicode="e" d="M208 333 q-54 -171 -54 -207 q0 -12 7.5 -19.5 q7.5 -7.5 19.5 -7.5 q115 0 254 37 q45 12 52 12 q15 0 15 -21 q0 -36 -110.5 -74 q-110.5 -38 -213.5 -38 q-46 0 -80.5 27 q-34.5 27 -34.5 68 q0 41 29.5 140 q29.5 99 59.5 211 q30 112 30 189 q0 11 4 23 q17 37 218 37 q201 0 201 -29 q0 -20 -43 -27 q-36 -7 -95.5 -12.5 q-59.5 -5.5 -83.5 -8 q-24 -2.5 -116 -18.5 l0 -3 q0 -68 -37 -205 q6 -1 40.5 -1 q34.5 0 92.5 5 q58 5 87.5 5 q29.5 0 29.5 -14 q0 -35 -82 -52 q-82 -17 -190 -17 Z" /><glyph glyph-name="" unicode="f" d="M197 313 l-2 0 q-2 -10 -19.5 -80 q-17.5 -70 -22.5 -91.5 q-5 -21.5 -8.5 -34.5 q-3.5 -13 -7.5 -29.5 q-4 -16.5 -7.5 -26 q-3.5 -9.5 -6.5 -18.5 q-6 -17 -12 -17 q-13 0 -34 28.5 q-21 28.5 -21 46.5 q0 18 57.5 250 q57.5 232 59.5 309 q0 15 7 24 q10 21 59.5 30 q49.5 9 145 9 q95.5 0 150 -10 q54.5 -10 54.5 -28 q0 -12 -17 -17 q-17 -5 -30 -7.5 q-13 -2.5 -34 -5 q-21 -2.5 -39 -4 q-18 -1.5 -46.5 -4.5 q-28.5 -3 -52.5 -5.5 q-24 -2.5 -65 -7.5 q-41 -5 -53 -6 q1 -3 1 -9 q0 -47 -39 -216 q62 -3 133.5 3 q71.5 6 87.5 6 q38 0 38 -16 q0 -31 -86.5 -52 q-86.5 -21 -189.5 -21 Z" /><glyph glyph-name="" unicode="g" d="M461 624 q-63 0 -139.5 -69 q-76.5 -69 -130.5 -172.5 q-54 -103.5 -54 -192.5 q0 -36 23 -61.5 q23 -25.5 54 -25.5 q48 0 112.5 52.5 q64.5 52.5 119.5 135.5 q-56 -15 -83 -15 q-27 0 -46 14.5 q-19 14.5 -19 27.5 q0 16 43 25.5 q43 9.5 108 9.5 q36 0 58.5 -30.5 q22.5 -30.5 22.5 -71 q0 -40.5 -50 -190.5 q-50 -150 -75.5 -150 q-25.5 0 -25.5 29 q0 28 14.5 76 q14.5 48 30.5 98.5 q16 50.5 26 82.5 q-49 -83 -111 -131.5 q-62 -48.5 -120.5 -48.5 q-58.5 0 -115.5 54.5 q-57 54.5 -57 119.5 q0 101 64 225 q64 124 161 212.5 q97 88.5 182 88.5 q28 0 55 -33.5 q27 -33.5 27 -54 q0 -20.5 -11 -20.5 q-3 0 -22 7.5 q-19 7.5 -41 7.5 Z" /><glyph glyph-name="" unicode="h" d="M120 17 q-12 0 -33 26.5 q-21 26.5 -21 50.5 q0 24 44 196 q-13 5 -22.5 17.5 q-9.5 12.5 -9.5 28.5 q0 13 52 29 q67 262 67 325 q0 17 4.5 23.5 q4.5 6.5 18 6.5 q13.5 0 36 -31 q22.5 -31 22.5 -69.5 q0 -38.5 -49 -231.5 q132 27 259 35 q51 208 51 267 q0 30 20 30 q17 0 40 -31 q23 -31 23 -64.5 q0 -33.5 -45 -203.5 q46 -7 46 -27.5 q0 -20.5 -62 -33.5 q-32 -118 -43.5 -163.5 q-11.5 -45.5 -18.5 -72.5 q-7 -27 -15 -54 q-14 -53 -25 -53 q-14 0 -32.5 23.5 q-18.5 23.5 -18.5 48.5 q0 25 60 257 q-146 -20 -263 -46 q-14 -52 -26.5 -100.5 q-12.5 -48.5 -19.5 -75.5 q-7 -27 -15 -54 q-14 -53 -24 -53 Z" /><glyph glyph-name="" unicode="i" d="M119 19 q-12 0 -31.5 24 q-19.5 24 -19.5 44 q0 20 59.5 279.5 q59.5 259.5 60.5 321.5 q0 17 4.5 23.5 q4.5 6.5 19 6.5 q14.5 0 38 -31 q23.5 -31 23.5 -66.5 q0 -35.5 -72 -328.5 q-7 -27 -19 -77.5 q-12 -50.5 -19 -77.5 q-7 -27 -15 -59 q-17 -59 -29 -59 Z" /><glyph glyph-name="" unicode="j" d="M8 165 q0 29 18 29 q11 0 60 -50 q19 -18 46 -33.5 q27 -15.5 53 -15.5 q33 0 60.5 69.5 q27.5 69.5 76.5 248 q49 178.5 79 227.5 q-44 -7 -123.5 -26 q-79.5 -19 -95.5 -19 q-37 0 -37 25 q0 34 124.5 69 q124.5 35 182.5 35 q18 0 31.5 -8 q13.5 -8 13.5 -23.5 q0 -15.5 -14 -56.5 q-62 -181 -81 -246 q-65 -237 -99 -307 q-34 -70 -101.5 -70 q-67.5 0 -130.5 56 q-63 56 -63 96 Z" /><glyph glyph-name="" unicode="k" d="M105 20 q-14 0 -32.5 23.5 q-18.5 23.5 -18.5 49 q0 25.5 65 277.5 q65 252 65 316 q0 18 4 25 q4 7 18.5 7 q14.5 0 34.5 -31 q20 -31 20 -71 q0 -40 -52 -237 q91 124 192 228.5 q101 104.5 128 104.5 q20 0 37.5 -13 q17.5 -13 17.5 -25.5 q0 -12.5 -47.5 -56 q-47.5 -43.5 -127.5 -121.5 q-80 -78 -137 -156 q0 -41 22 -89 q35 -80 144 -133 q47 -23 73.5 -39 q26.5 -16 26.5 -33 q0 -26 -39 -26 q-39 0 -82 16.5 q-43 16.5 -86 46.5 q-43 30 -78.5 79.5 q-35.5 49.5 -48.5 108.5 q-31 -55 -58 -145 q-33 -106 -40 -106 l-1 0 Z" /><glyph glyph-name="" unicode="l" d="M199 695 q0 16 4.5 23 q4.5 7 19 7 q14.5 0 36.5 -25 q22 -25 22 -53 q0 -70 -86 -354 q-43 -138 -43 -165 q0 -27 26 -27 q113 0 248 37 q43 12 51.5 12 q8.5 0 11.5 -3.5 q3 -3.5 3 -13.5 q0 -42 -102.5 -79 q-102.5 -37 -208.5 -37 q-48 0 -83.5 28 q-35.5 28 -35.5 66.5 q0 38.5 68.5 276.5 q68.5 238 68.5 307 Z" /><glyph glyph-name="" unicode="m" d="M185 688 q0 17 4.5 23.5 q4.5 6.5 17 6.5 q12.5 0 43.5 -27 q31 -27 33 -48 q4 -36 38 -127.5 q34 -91.5 78 -185.5 q56 66 141 175.5 q85 109.5 126 155.5 q41 46 59 46 q18 0 38 -20 q20 -20 20 -38 q0 -18 -4 -41 q-4 -23 -13.5 -60.5 q-9.5 -37.5 -17 -65 q-7.5 -27.5 -24.5 -85.5 q-17 -58 -26 -92.5 q-9 -34.5 -21 -84 q-12 -49.5 -19.5 -81 q-7.5 -31.5 -15.5 -61.5 q-15 -58 -28.5 -58 q-13.5 0 -26.5 24 q-13 24 -13 64.5 q0 40.5 34.5 185.5 q34.5 145 74.5 254 q-184 -230 -226.5 -275 q-42.5 -45 -70 -45 q-27.5 0 -51.5 31 q-36 52 -97 246 q-17 -105 -37.5 -179.5 q-20.5 -74.5 -27 -99 q-6.5 -24.5 -11 -40.5 q-4.5 -16 -10.5 -37.5 q-6 -21.5 -10.5 -35.5 q-4.5 -14 -9.5 -30.5 q-5 -16.5 -8.5 -26.5 q-3.5 -10 -7.5 -19 q-8 -17 -12 -17 q-12 0 -30 26 q-18 26 -18 50 q0 24 64.5 276 q64.5 252 64.5 316 Z" /><glyph glyph-name="" unicode="n" d="M562 680 q2 43 20.5 43 q18.5 0 40.5 -23 q22 -23 22 -41 q0 -82 -25.5 -233 q-25.5 -151 -68 -280 q-42.5 -129 -80.5 -129 q-13 0 -29.5 13 q-16.5 13 -25.5 32 q-30 70 -177 444 q-30 -116 -66.5 -262.5 q-36.5 -146.5 -48.5 -186.5 q-12 -40 -21 -40 q-13 0 -31.5 22.5 q-18.5 22.5 -18.5 46.5 q0 24 65 281.5 q65 257.5 67 321.5 q0 32 17 32 q11 0 30.5 -18.5 q19.5 -18.5 28.5 -40.5 q161 -418 204 -512 q65 172 87 411 q10 110 10 119 Z" /><glyph glyph-name="" unicode="o" d="M340.5 155 q65.5 59 112.5 145.5 q47 86.5 47 163.5 q0 77 -29.5 125 q-29.5 48 -69.5 48 q-40 0 -100 -62 q-60 -62 -108 -162.5 q-48 -100.5 -48 -192.5 q0 -55 24 -89.5 q24 -34.5 56 -34.5 q50 0 115.5 59 ZM219 17 q-66 0 -115.5 65 q-49.5 65 -49.5 132 q0 91 33.5 185 q33.5 94 84 164 q50.5 70 111.5 114.5 q61 44.5 113 44.5 q84 0 140 -76.5 q56 -76.5 56 -172.5 q0 -96 -53 -201.5 q-53 -105.5 -141.5 -180 q-88.5 -74.5 -178.5 -74.5 Z" /><glyph glyph-name="" unicode="p" d="M559 553 q0 -108 -103.5 -183 q-103.5 -75 -273.5 -108 q-73 -247 -87 -247 q-14 0 -33 22.5 q-19 22.5 -19 45 q0 22.5 29 119.5 q90 299 94 417 q-24 22 -24 40 q0 25 68 48 q68 23 130 23 q96 0 157.5 -49 q61.5 -49 61.5 -128 ZM471 547 q0 44 -33.5 72.5 q-33.5 28.5 -80.5 28.5 q-47 0 -114 -30 q10 -22 10 -41 q0 -56 -49 -237 q120 32 193.5 88.5 q73.5 56.5 73.5 118.5 Z" /><glyph glyph-name="" unicode="q" d="M396 719 q84 0 147.5 -76 q63.5 -76 63.5 -171.5 q0 -95.5 -50 -200 q-50 -104.5 -128 -173.5 q14 -39 35 -91.5 q21 -52.5 31 -80 q10 -27.5 10 -42.5 q0 -23 -25 -23 q-45 0 -118 191 q-61 -32 -125 -32 q-64 0 -122 60 q-58 60 -58 134 q0 93 33 187 q33 94 82.5 162.5 q49.5 68.5 110 112 q60.5 43.5 113.5 43.5 ZM398 191 q51 60 84.5 133.5 q33.5 73.5 33.5 144.5 q0 71 -36 119 q-36 48 -77 48 q-16 0 -35 -8 q-23 -32 -23 -97 q0 -163 53 -340 ZM145 221 q0 -55 32.5 -90 q32.5 -35 70.5 -35 q38 0 86 35 q-71 222 -71 346 q0 39 7 68 q-54 -66 -89.5 -154 q-35.5 -88 -35.5 -170 Z" /><glyph glyph-name="" unicode="r" d="M100 16 q-15 0 -34 22 q-19 22 -19 44.5 q0 22.5 55 216.5 q55 194 63 295 q-13 8 -23 25 q-10 17 -10 30 q0 23 68 47.5 q68 24.5 150.5 24.5 q82.5 0 143 -39.5 q60.5 -39.5 60.5 -111.5 q0 -49 -27.5 -91.5 q-27.5 -42.5 -67 -69.5 q-39.5 -27 -78.5 -48 q-39 -21 -66.5 -34.5 q-27.5 -13.5 -27.5 -19.5 q0 -22 34.5 -57 q34.5 -35 48.5 -48 q14 -13 37 -34.5 q23 -21.5 43.5 -38.5 q20.5 -17 33 -28 q12.5 -11 25.5 -23 q25 -23 25 -37 q0 -24 -33 -24 q-60 0 -171 104.5 q-111 104.5 -136 177.5 q-47 -156 -54 -180.5 q-7 -24.5 -16 -50.5 q-16 -52 -24 -52 ZM251 567 q0 -65 -42 -215 q17 13 65 38.5 q48 25.5 86.5 47 q38.5 21.5 70.5 57.5 q32 36 32 75 q0 62 -108 62 q-49 0 -114 -25 q10 -22 10 -40 Z" /><glyph glyph-name="" unicode="s" d="M468 214 q0 -82 -74 -137.5 q-74 -55.5 -169.5 -55.5 q-95.5 0 -157.5 49.5 q-62 49.5 -62 93.5 q0 30 18 30 q16 0 63 -48 q18 -17 48.5 -32 q30.5 -15 64.5 -15 q70 0 124.5 36 q54.5 36 54.5 78 q0 27 -36 69 q-36 42 -79.5 79.5 q-43.5 37.5 -79.5 80.5 q-36 43 -36 68 q0 25 10 53 q10 28 22 41 q39 43 121.5 79 q82.5 36 138.5 36 q29 0 49 -19 q20 -19 20 -40 q0 -10 -21 -16 q-21 -6 -63.5 -15.5 q-42.5 -9.5 -75.5 -22.5 q-115 -44 -115 -85 q0 -22 117 -123 q45 -39 81.5 -90.5 q36.5 -51.5 36.5 -93.5 Z" /><glyph glyph-name="" unicode="t" d="M284 632 l-171 -8 q-16 0 -33 21 q-17 21 -17 41 q0 18 57.5 23 q57.5 5 252.5 5 q101 0 166.5 -22 q65.5 -22 65.5 -49 q0 -19 -33 -19 q-33 0 -92 4 q-59 4 -113 5 q3 -10 3 -22 q0 -37 -78 -344 q-8 -32 -24 -100 q-16 -68 -24 -95 q-14 -53 -25 -53 q-15 0 -33.5 22.5 q-18.5 22.5 -18.5 45.5 q0 23 54 236.5 q54 213.5 63 308.5 Z" /><glyph glyph-name="" unicode="u" d="M169 689 q0 17 4 23.5 q4 6.5 18.5 6.5 q14.5 0 38.5 -26.5 q24 -26.5 24 -62 q0 -35.5 -40.5 -193.5 q-40.5 -158 -40.5 -214.5 q0 -56.5 21 -91.5 q21 -35 54 -35 q33 0 73 38 q40 38 74.5 99.5 q34.5 61.5 58 150 q23.5 88.5 23.5 178.5 q0 42 -4.5 84 q-4.5 42 -4.5 52 q0 21 18 21 q23 0 53 -34.5 q30 -34.5 30 -88.5 q0 -154 -45 -289 q-45 -135 -121 -215.5 q-76 -80.5 -162 -80.5 q-63 0 -109.5 61 q-46.5 61 -46.5 140 q0 79 42 248.5 q42 169.5 42 228.5 Z" /><glyph glyph-name="" unicode="v" d="M545 718 q16 0 32 -11.5 q16 -11.5 16 -28 q0 -16.5 -18.5 -52.5 q-18.5 -36 -63.5 -115.5 q-45 -79.5 -77 -143.5 q-32 -64 -60.5 -125.5 q-28.5 -61.5 -45 -98 q-16.5 -36.5 -32.5 -69.5 q-32 -61 -53 -61 q-12 0 -29 19.5 q-17 19.5 -27 44.5 q-27 67 -72.5 310 q-45.5 243 -45.5 300 q0 31 17 31 q21 0 43 -21.5 q22 -21.5 35 -54.5 q6 -18 29.5 -199.5 q23.5 -181.5 53.5 -295.5 q64 181 165 376 q101 195 133 195 Z" /><glyph glyph-name="" unicode="w" d="M498 719 q117 0 177 -93 q60 -93 60 -234 q0 -141 -69.5 -256.5 q-69.5 -115.5 -160.5 -115.5 q-64 0 -94 72 q-30 72 -39 205 q-42 -59 -96 -134 q-104 -144 -146 -144 q-16 0 -37 26 q-21 26 -21 65.5 q0 39.5 27 247 q27 207.5 27 323.5 q0 37 22 37 q22 0 51.5 -26 q29.5 -26 29.5 -47.5 q0 -21.5 -33.5 -211.5 q-33.5 -190 -41.5 -298 q61 103 137.5 190.5 q76.5 87.5 109.5 87.5 q34 0 47 -150 q5 -56 19.5 -103 q14.5 -47 39.5 -47 q56 0 97.5 90.5 q41.5 90.5 41.5 200.5 q0 122 -54 188 q-28 35 -61.5 35 q-33.5 0 -57 23 q-23.5 23 -23.5 40 q0 29 48 29 Z" /><glyph glyph-name="" unicode="x" d="M574 715 q12 0 32 -21 q20 -21 20 -31.5 q0 -10.5 -6.5 -16.5 q-6.5 -6 -20.5 -16 q-14 -10 -24 -20 q-37 -36 -217 -268 q27 -44 78 -120.5 q51 -76.5 73.5 -115 q22.5 -38.5 22.5 -54.5 q0 -16 -8 -24.5 q-8 -8.5 -18 -8.5 q-25 0 -82.5 71.5 q-57.5 71.5 -122.5 178.5 q-52 -69 -67.5 -89 q-15.5 -20 -32.5 -42.5 q-17 -22.5 -27.5 -35 q-10.5 -12.5 -24 -28 q-13.5 -15.5 -22.5 -24 q-9 -8.5 -19 -16.5 q-18 -14 -33.5 -14 q-15.5 0 -32.5 13 q-17 13 -17 21 q0 8 1 10.5 q1 2.5 3.5 6 q2.5 3.5 4 5.5 q1.5 2 15.5 16 q81 88 208 254 q-135 243 -135 346 q0 27 14 27 q29 0 57.5 -14.5 q28.5 -14.5 28.5 -33.5 q0 -92 90 -251 q141 195 187.5 245 q46.5 50 74.5 50 Z" /><glyph glyph-name="" unicode="y" d="M327 373 q18 0 65.5 85.5 q47.5 85.5 97 171.5 q49.5 86 70.5 86 q21 0 34 -15 q13 -15 13 -36 q0 -21 -38 -84 q-38 -63 -102 -166.5 q-64 -103.5 -128 -224.5 q-64 -121 -88 -151 q-24 -30 -39 -30 q-22 0 -22 36 q0 28 28 85 q9 17 14 28.5 q5 11.5 16 32.5 q11 21 17 32.5 q6 11.5 18.5 36 q12.5 24.5 18.5 35.5 q-59 15 -108.5 74.5 q-49.5 59.5 -75.5 133 q-26 73.5 -26 143.5 q0 70 40 70 q16 0 25.5 -31 q9.5 -31 23.5 -89 q14 -58 37 -106.5 q23 -48.5 55 -82.5 q32 -34 54 -34 Z" /><glyph glyph-name="" unicode="z" d="M467 680 q39 -13 67 -47 q28 -34 28 -66 q0 -32 -41.5 -85.5 q-41.5 -53.5 -101 -106 q-59.5 -52.5 -119.5 -102.5 q-60 -50 -101.5 -89 q-41.5 -39 -41.5 -51 q0 -12 7 -19 q7 -7 19 -7 q53 0 169.5 16.5 q116.5 16.5 150.5 16.5 q34 0 34 -24 q0 -32 -125 -63.5 q-125 -31.5 -252 -31.5 q-38 0 -69.5 34.5 q-31.5 34.5 -31.5 68 q0 33.5 43.5 84 q43.5 50.5 105 102.5 q61.5 52 122.5 103 q149 123 149 166 q0 19 -45.5 31.5 q-45.5 12.5 -97 12.5 q-51.5 0 -95 -7.5 q-43.5 -7.5 -53.5 -7.5 q-22 0 -43 23 q-21 23 -21 42 q-2 18 66 31 q35 6 81 6 q106 0 196 -30 Z" /><glyph glyph-name="" unicode="`" d="M17.5 769.5 q-4.5 5.5 -6 9.5 q-1.5 4 -1.5 16 q0 12 15 30.5 q15 18.5 33 18.5 q13 0 38 -26 q6 -7 17 -19 q11 -12 18 -19 q65 -66 70 -82 q2 -5 2 -13.5 q0 -8.5 -8.5 -17.5 q-8.5 -9 -17.5 -9 q-9 0 -19.5 6.5 q-10.5 6.5 -29.5 21.5 q-19 15 -30 23 q-11 8 -24 17 q-13 9 -19 13 q-6 4 -15 10.5 q-9 6.5 -13.5 10.5 q-4.5 4 -9 9.5 Z" /><glyph glyph-name="" unicode="a" d="M297 511 q45 0 83 -45.5 q38 -45.5 38 -82 q0 -36.5 -25 -74.5 q12 -15 12 -26 q0 -28 -12.5 -96 q-12.5 -68 -15 -89 q-2.5 -21 -4.5 -33.5 q-2 -12.5 -5 -24.5 q-4 -25 -18 -25 q-18 0 -29.5 31.5 q-11.5 31.5 -13.5 81.5 q-89 -113 -165 -113 q-46 0 -90.5 39.5 q-44.5 39.5 -44.5 81.5 q0 60 44 148.5 q44 88.5 114 157.5 q70 69 132 69 ZM343 335 q0 93 -37 93 q-39 0 -91 -55.5 q-52 -55.5 -88 -125.5 q-36 -70 -36 -111 q0 -17 14 -27.5 q14 -10.5 33 -10.5 q47 0 106 63.5 q59 63.5 82 154.5 q3 15 17 18 l0 1 Z" /><glyph glyph-name="" unicode="b" d="M74 15 q-14 0 -33 21.5 q-19 21.5 -19 40.5 q0 19 31.5 130 q31.5 111 63 267.5 q31.5 156.5 31.5 286.5 q0 30 22 30 q16 0 39 -29.5 q23 -29.5 23 -57.5 q0 -123 -54 -351 q119 161 216 161 q47 0 79.5 -46 q32.5 -46 32.5 -109.5 q0 -63.5 -36.5 -145.5 q-36.5 -82 -98.5 -140.5 q-62 -58.5 -130 -58.5 q-68 0 -134 69 l-1 -1 q-22 -67 -32 -67 ZM233 92 q65 0 127.5 88.5 q62.5 88.5 62.5 186.5 q0 59 -36 59 q-58 0 -129.5 -81 q-71.5 -81 -123.5 -193 q47 -60 99 -60 Z" /><glyph glyph-name="" unicode="c" d="M192.5 15 q-58.5 0 -109.5 45.5 q-51 45.5 -51 108 q0 62.5 42 144.5 q42 82 108.5 140 q66.5 58 129.5 58 q41 0 72 -37 q31 -37 31 -65 q0 -8 -5 -13.5 q-5 -5.5 -14.5 -5.5 q-9.5 0 -33.5 18 q-24 18 -43 18 q-54 0 -126 -95 q-72 -95 -72 -166 q0 -31 19.5 -49 q19.5 -18 63 -18 q43.5 0 80 10.5 q36.5 10.5 56.5 21 q20 10.5 31 10.5 q19 0 19 -19 q0 -29 -69.5 -67.5 q-69.5 -38.5 -128 -38.5 Z" /><glyph glyph-name="" unicode="d" d="M459 791 q16 0 39.5 -29.5 q23.5 -29.5 23.5 -55.5 q0 -26 -25 -147.5 q-25 -121.5 -58 -251.5 q-72 -292 -95 -292 q-14 0 -30.5 17.5 q-16.5 17.5 -16.5 30.5 q0 13 7 52 q-98 -100 -171 -100 q-44 0 -79.5 40 q-35.5 40 -35.5 83 q0 62 33.5 147.5 q33.5 85.5 96.5 155.5 q63 70 134 70 q71 0 99 -85 q51 212 56 335 q0 30 22 30 ZM349 300 q0 54 -18.5 91 q-18.5 37 -44.5 37 q-43 0 -88 -53 q-45 -53 -71.5 -121.5 q-26.5 -68.5 -26.5 -118.5 q0 -18 13 -29 q13 -11 31 -11 q39 0 105.5 56 q66.5 56 96.5 132 l3 12 l0 5 Z" /><glyph glyph-name="" unicode="e" d="M430 345.5 q0 -53.5 -57.5 -87 q-57.5 -33.5 -130 -33.5 q-72.5 0 -131.5 16 q-14 -44 -14 -78.5 q0 -34.5 21.5 -53.5 q21.5 -19 71 -19 q49.5 0 102 17.5 q52.5 17.5 57.5 17.5 q26 0 26 -20 q0 -27 -61 -58.5 q-61 -31.5 -119 -31.5 q-78 0 -127 46.5 q-49 46.5 -49 117.5 q0 71 38 148.5 q38 77.5 98 130.5 q60 53 119 53 q59 0 107.5 -56 q48.5 -56 48.5 -109.5 ZM279 432 q-37 0 -77 -38.5 q-40 -38.5 -68 -95.5 q40 -9 91 -9 q51 0 89 16.5 q38 16.5 38 43.5 q0 27 -24.5 55 q-24.5 28 -48.5 28 Z" /><glyph glyph-name="" unicode="f" d="M103 13 q-13 0 -28 19 q-15 19 -15 31 q0 12 10 47 q50 180 68 257 q-43 -10 -59 -10 q-16 0 -32 14 q-16 14 -16 31 q0 17 45 30 q58 14 80 18 q10 48 15 74 q24 138 65 199 q41 61 111 61 q50 0 82 -39.5 q32 -39.5 32 -93 q0 -53.5 -28 -53.5 q-24 0 -39 54 q-5 20 -17 37 q-12 17 -29 17 q-17 0 -31 -15.5 q-14 -15.5 -25 -44.5 q-29 -81 -40 -148 l-8 -35 q37 5 73.5 5 q36.5 0 53 -8 q16.5 -8 16.5 -20 q0 -19 -33 -29 q-33 -10 -129 -26 q-71 -288 -97 -343 q-14 -29 -25 -29 Z" /><glyph glyph-name="" unicode="g" d="M427 285 q0 -40 -35 -91 q-27 -61 -58 -175.5 q-31 -114.5 -52 -163.5 q-42 -102 -129 -102 q-71 0 -119.5 38.5 q-48.5 38.5 -48.5 76.5 q0 16 9.5 32 q9.5 16 20 16 q10.5 0 23.5 -15 q13 -15 24.5 -32.5 q11.5 -17.5 35 -32.5 q23.5 -15 45.5 -15 q22 0 33 6.5 q11 6.5 21 21 q10 14.5 17 29 q7 14.5 15.5 41 q8.5 26.5 13.5 45.5 q5 19 14 53.5 q9 34.5 15 55.5 q-78 -58 -127 -58 q-49 0 -85 39.5 q-36 39.5 -36 92 q0 52.5 39.5 139.5 q39.5 87 106.5 156 q67 69 131 69 q41 0 69 -31 q46 -51 46 -145 q0 -12 -1 -17 q12 -17 12 -33 ZM105 136 q0 -17 11 -27.5 q11 -10.5 28 -10.5 q50 0 118 59.5 q68 59.5 96 138.5 q-4 13 -7 40 q-3 27 -6 43 q-3 16 -13 32.5 q-10 16.5 -26 16.5 q-39 0 -88 -56 q-49 -56 -81 -125 q-32 -69 -32 -111 Z" /><glyph glyph-name="" unicode="h" d="M149 752 q0 39 24 39 q19 0 40.5 -30 q21.5 -30 21.5 -58 q0 -65 -32.5 -221.5 q-32.5 -156.5 -84.5 -312.5 q100 181 167.5 261.5 q67.5 80.5 115.5 80.5 q26 0 60.5 -45 q34.5 -45 34.5 -90 q0 -45 -25 -135 q-62 -226 -117 -226 q-22 0 -22 30 q0 30 24 101 q53 155 53 209 q0 18 -9 30 q-9 12 -22 12 q-13 0 -32 -14 q-19 -14 -46 -49 q-34 -45 -70.5 -101 q-36.5 -56 -44 -67.5 q-7.5 -11.5 -26 -41.5 q-18.5 -30 -27.5 -44.5 q-9 -14.5 -22 -31.5 q-23 -33 -35 -33 q-12 0 -32 22.5 q-20 22.5 -20 38 q0 15.5 11 58.5 q50 192 63 263 q52 260 52 355 Z" /><glyph glyph-name="" unicode="i" d="M159 653 q0 20 16 38 q16 18 32.5 18 q16.5 0 39.5 -40.5 q23 -40.5 23 -67.5 q0 -10 -9 -18 q-9 -8 -19 -8 q-24 0 -53.5 29 q-29.5 29 -29.5 49 ZM154 511 q19 0 36 -23 q17 -23 17 -45 q0 -22 -29 -131.5 q-29 -109.5 -73 -245.5 q-17 -50 -43 -50 q-14 0 -24 11.5 q-10 11.5 -10 26 q0 14.5 7.5 46 q7.5 31.5 22 84 q14.5 52.5 23 85.5 q8.5 33 17.5 74.5 q9 41.5 14.5 67 q5.5 25.5 12.5 51.5 q14 49 29 49 Z" /><glyph glyph-name="" unicode="j" d="M-149 -121 q43 -55 71 -55 q28 0 47 30 q19 30 37 94.5 q18 64.5 34 132.5 q16 68 41.5 180 q25.5 112 49.5 201 q15 49 29 49 q17 0 35 -21.5 q18 -21.5 18 -46.5 q0 -23 -31 -139.5 q-31 -116.5 -55 -209.5 q-24 -93 -47 -182 q-43 -157 -156 -157 q-50 0 -97.5 42 q-47.5 42 -47.5 72 q0 13 10.5 30.5 q10.5 17.5 19.5 17.5 q11 0 23 -14.5 q12 -14.5 19 -23.5 ZM172 653 q0 20 16 38 q16 18 33 18 q17 0 39.5 -40.5 q22.5 -40.5 22.5 -67.5 q0 -10 -9 -18 q-9 -8 -18 -8 q-24 0 -54 29 q-30 29 -30 49 Z" /><glyph glyph-name="" unicode="k" d="M473 457 q0 -9 -89 -94 q-33 -32 -60.5 -75.5 q-27.5 -43.5 -27.5 -79.5 q0 -36 21.5 -66.5 q21.5 -30.5 47 -46 q25.5 -15.5 47 -30.5 q21.5 -15 21.5 -25 q0 -25 -39.5 -25 q-39.5 0 -94 44.5 q-54.5 44.5 -67.5 99.5 q-5 10 -8 19 q-68 -92 -98.5 -127.5 q-30.5 -35.5 -45.5 -35.5 q-15 0 -33 23.5 q-18 23.5 -18 39 q0 15.5 32.5 129 q32.5 113.5 65 272.5 q32.5 159 32.5 284 q0 16 4.5 22 q4.5 6 19.5 6 q15 0 37 -29.5 q22 -29.5 22 -57.5 q0 -89 -36 -249 q-36 -160 -86 -304 q113 161 195.5 260.5 q82.5 99.5 102 99.5 q19.5 0 37.5 -19 q18 -19 18 -35 Z" /><glyph glyph-name="" unicode="l" d="M228 707 q0 -188 -78 -488 q-50 -204 -70 -204 q-14 0 -32.5 22 q-18.5 22 -18.5 34 q0 12 29 124 q29 112 58 275.5 q29 163.5 29 294.5 q0 14 4 20 q4 6 17 6 q13 0 37.5 -28.5 q24.5 -28.5 24.5 -55.5 Z" /><glyph glyph-name="" unicode="m" d="M678 511 q30 0 53.5 -41.5 q23.5 -41.5 23.5 -94 q0 -52.5 -18.5 -136.5 q-18.5 -84 -49.5 -154 q-31 -70 -61 -70 q-21 0 -21 27.5 q0 27.5 34.5 135 q34.5 107.5 34.5 171 q0 63.5 -20 63.5 q-25 0 -57.5 -44 q-32.5 -44 -69.5 -106 q-37 -62 -40 -66.5 q-3 -4.5 -7.5 -12.5 q-4.5 -8 -10 -17 q-5.5 -9 -28 -54 q-22.5 -45 -39.5 -70.5 q-17 -25.5 -29.5 -25.5 q-12.5 0 -27.5 16 q-15 16 -15 30 q0 14 18 58 q52 130 52 242 q0 21 -9 35.5 q-9 14.5 -20 14.5 q-11 0 -23 -9.5 q-12 -9.5 -30 -34 q-18 -24.5 -32 -46.5 q-14 -22 -42.5 -68.5 q-28.5 -46.5 -43 -69 q-14.5 -22.5 -33.5 -52 q-19 -29.5 -29.5 -45.5 q-10.5 -16 -23.5 -35 q-27 -37 -39.5 -37 q-12.5 0 -32.5 22.5 q-20 22.5 -20 34 q0 11.5 4 28.5 q4 17 8.5 33 q4.5 16 14 47.5 q9.5 31.5 22 74 q12.5 42.5 19 117 q6.5 74.5 9.5 109 q3 34.5 17 34.5 q22 0 43.5 -23 q21.5 -23 21.5 -46 q0 -88 -66 -290 q112 210 141 249 q29 39 50 63 q39 43 79 43 q24 0 57.5 -41.5 q33.5 -41.5 33.5 -83.5 q0 -42 -12 -104 q118 229 214 229 Z" /><glyph glyph-name="" unicode="n" d="M129 189 q96 163 156.5 242.5 q60.5 79.5 99 79.5 q38.5 0 73 -41 q34.5 -41 34.5 -87 q0 -72 -33 -176 q-60 -192 -108 -192 q-22 0 -22 30 q0 21 21.5 85.5 q21.5 64.5 40 127 q18.5 62.5 18.5 94 q0 31.5 -9.5 46.5 q-9.5 15 -19 15 q-9.5 0 -19.5 -6 q-10 -6 -22.5 -20 q-12.5 -14 -23.5 -27.5 q-11 -13.5 -27.5 -38.5 q-16.5 -25 -27.5 -42.5 q-11 -17.5 -32 -50.5 q-21 -33 -32 -50 q-11 -17 -29 -46 q-18 -29 -28.5 -45 q-10.5 -16 -23.5 -35 q-25 -37 -39.5 -37 q-14.5 0 -33.5 22.5 q-19 22.5 -19 39.5 q0 5 7 27 q19 58 42 143.5 q23 85.5 25 194.5 q3 73 21 73 q22 0 44 -23 q22 -23 22 -50.5 q0 -27.5 -16.5 -106 q-16.5 -78.5 -38.5 -146.5 Z" /><glyph glyph-name="" unicode="o" d="M333 341 q0 34 -11 64.5 q-11 30.5 -32 44.5 q-69 -19 -118.5 -106.5 q-49.5 -87.5 -49.5 -164.5 q0 -77 38 -96 q72 14 122.5 98.5 q50.5 84.5 50.5 159.5 ZM70.5 332 q34.5 78 91 128.5 q56.5 50.5 116 50.5 q59.5 0 99.5 -50.5 q40 -50.5 40 -123 q0 -72.5 -35 -148 q-35 -75.5 -96.5 -125 q-61.5 -49.5 -130.5 -49.5 q-51 0 -85 47 q-34 47 -34 119.5 q0 72.5 34.5 150.5 Z" /><glyph glyph-name="" unicode="p" d="M358 514 q43 0 74.5 -55 q31.5 -55 31.5 -113.5 q0 -58.5 -34 -117 q-34 -58.5 -84 -104.5 q-50 -46 -110.5 -76.5 q-60.5 -30.5 -111.5 -30.5 q-20 0 -38 5 q-4 -17 -14 -61 q-10 -44 -17 -73 q-7 -29 -16 -62 q-18 -68 -32 -68 q-14 0 -29.5 21.5 q-15.5 21.5 -15.5 38.5 q0 17 32 146 q96 389 96 524 q0 30 22 30 q18 0 43.5 -26.5 q25.5 -26.5 25.5 -58.5 q0 -16 -4 -35 q89 116 181 116 ZM114 95 q53 0 114.5 36 q61.5 36 105 95.5 q43.5 59.5 43.5 118.5 q0 83 -39 83 q-39 0 -105.5 -67 q-66.5 -67 -105.5 -174 l-23 -92 l10 0 Z" /><glyph glyph-name="" unicode="q" d="M396 -78 q10 0 19 -8.5 q9 -8.5 9 -18.5 q0 -16 -39.5 -39.5 q-39.5 -23.5 -74.5 -48.5 q-35 -25 -55 -38.5 q-20 -13.5 -32 -13.5 q-12 0 -25 21.5 q-13 21.5 -13 33.5 q0 12 1.5 19.5 q1.5 7.5 5.5 20.5 q4 13 9 26.5 q5 13.5 13.5 37.5 q8.5 24 16.5 45.5 q8 21.5 21.5 58.5 q13.5 37 25.5 69 q-34 -33 -74 -52.5 q-40 -19.5 -75 -19.5 q-35 0 -74 42 q-39 42 -39 85.5 q0 43.5 27.5 107 q27.5 63.5 68.5 121.5 q41 58 96.5 99 q55.5 41 101 41 q45.5 0 82.5 -37 q37 -37 37 -62.5 q0 -25.5 -17 -25.5 q-12 0 -38.5 22.5 q-26.5 22.5 -46.5 22.5 q-44 0 -100.5 -56.5 q-56.5 -56.5 -94.5 -126.5 q-38 -70 -38 -112 q0 -16 11 -27 q11 -11 27 -11 q55 0 125 62 q70 62 95 159 q4 15 20 15 q16 0 37.5 -15.5 q21.5 -15.5 21.5 -30 q0 -14.5 -17 -62 q-17 -47.5 -58.5 -156.5 q-41.5 -109 -72.5 -197 q73 49 113 49 Z" /><glyph glyph-name="" unicode="r" d="M91 389 l-3 75 q0 47 22 47 q19 0 36.5 -24.5 q17.5 -24.5 17.5 -58 q0 -33.5 -2 -50.5 q87 132 165 132 q49 0 49 -24 q0 -12 -11 -22 q-11 -10 -35 -23 q-53 -23 -89.5 -70.5 q-36.5 -47.5 -59.5 -107.5 q-23 -60 -36.5 -101 q-13.5 -41 -20.5 -64 q-7 -23 -16 -45 q-16 -40 -37 -40 q-17 0 -27.5 19.5 q-10.5 19.5 -10.5 38 q0 18.5 17 73.5 q41 126 41 245 Z" /><glyph glyph-name="" unicode="s" d="M317 511 q34 0 64 -37.5 q30 -37.5 30 -65.5 q0 -17 -16 -17 q-11 0 -34 17.5 q-23 17.5 -47 17.5 q-24 0 -75.5 -28 q-51.5 -28 -51.5 -59 q0 -23 92 -79 q35 -22 63.5 -56.5 q28.5 -34.5 28.5 -74 q0 -39.5 -54.5 -77 q-54.5 -37.5 -127 -37.5 q-72.5 0 -128 35 q-55.5 35 -55.5 66 q0 13 6.5 20.5 q6.5 7.5 16.5 7.5 q10 0 28 -13 q54 -39 112.5 -39 q58.5 0 84.5 13.5 q26 13.5 26 36 q0 22.5 -29 48 q-29 25.5 -63.5 45.5 q-34.5 20 -63.5 49 q-29 29 -29 59 q0 53 83.5 110.5 q83.5 57.5 138.5 57.5 Z" /><glyph glyph-name="" unicode="t" d="M143 115 q0 -19 22 -19 q38 0 92.5 21.5 q54.5 21.5 60.5 21.5 q18 0 18 -19 q0 -29 -59.5 -67 q-59.5 -38 -108 -38 q-48.5 0 -80.5 26.5 q-32 26.5 -32 54.5 q0 28 12 71.5 q12 43.5 34.5 115 q22.5 71.5 35.5 118.5 q-47 -11 -63 -11 q-16 0 -31.5 16.5 q-15.5 16.5 -15.5 31.5 q0 24 130 46 q18 83 18 147 q0 30 20 30 q17 0 42 -21.5 q25 -21.5 25 -48.5 q0 -27 -17 -95 q57 5 91 5 q60 0 60 -26 q0 -15 -32.5 -25 q-32.5 -10 -136.5 -31 q-21 -79 -53 -180.5 q-32 -101.5 -32 -123.5 Z" /><glyph glyph-name="" unicode="u" d="M385 483 q4 16 8 22 q4 6 17.5 6 q13.5 0 33 -26 q19.5 -26 19.5 -50 q0 -13 -44 -154 q-44 -141 -68 -224 q-12 -42 -34 -42 q-13 0 -22 11 q-9 11 -9 40 q0 29 23 105 q-42 -68 -91 -112 q-49 -44 -89.5 -44 q-40.5 0 -76.5 38 q-36 38 -36 78 q0 95 55.5 237.5 q55.5 142.5 92.5 142.5 q18 0 31.5 -16.5 q13.5 -16.5 13.5 -37.5 q0 -9 -27 -64.5 q-27 -55.5 -54 -130 q-27 -74.5 -27 -130.5 q0 -16 10 -26.5 q10 -10.5 24 -10.5 q38 0 90.5 67 q52.5 67 95.5 156 q43 89 64 165 Z" /><glyph glyph-name="" unicode="v" d="M376 511 q17 0 33 -12.5 q16 -12.5 16 -27.5 q0 -27 -72.5 -187 q-72.5 -160 -103 -215.5 q-30.5 -55.5 -53.5 -55.5 q-13 0 -32 19 q-19 19 -28 41 q-27 63 -58 203 q-31 140 -31 205 q0 30 18 30 q22 0 45 -18.5 q23 -18.5 32 -46.5 q3 -16 8 -80 q14 -158 48 -243 q27 58 69 164.5 q42 106.5 68.5 165 q26.5 58.5 40.5 58.5 Z" /><glyph glyph-name="" unicode="w" d="M433 405 l-7 -188 q0 -78 7 -113 q43 45 74.5 105.5 q31.5 60.5 47 112.5 q15.5 52 27 97.5 q11.5 45.5 21.5 72.5 q10 27 23 27 q19 0 34 -15.5 q15 -15.5 15 -35.5 q0 -51 -46 -168 q-39 -108 -102 -197.5 q-63 -89.5 -98 -89.5 q-35 0 -52.5 39 q-17.5 39 -19.5 149.5 q-2 110.5 3 191.5 q-69 -188 -122 -284 q-53 -96 -84 -96 q-14 0 -29.5 13 q-15.5 13 -24.5 34 q-22 53 -37.5 202.5 q-15.5 149.5 -15.5 213.5 q0 41 25 41 q22 0 40.5 -25 q18.5 -25 21.5 -49.5 q3 -24.5 5.5 -136 q2.5 -111.5 18.5 -198.5 q41 71 82.5 178 q41.5 107 68 168 q26.5 61 48.5 61 q33 0 54.5 -30.5 q21.5 -30.5 21.5 -79.5 Z" /><glyph glyph-name="" unicode="x" d="M207 314 q81 109 120.5 153 q39.5 44 58.5 44 q19 0 37.5 -16 q18.5 -16 18.5 -27.5 q0 -11.5 -7 -19 q-7 -7.5 -22.5 -20.5 q-15.5 -13 -29 -27.5 q-13.5 -14.5 -34.5 -40 q-21 -25.5 -50.5 -63 q-29.5 -37.5 -48.5 -60.5 q6 -9 18.5 -30 q12.5 -21 21 -35 q8.5 -14 22 -35.5 q13.5 -21.5 22.5 -35 q9 -13.5 17 -27.5 q16 -26 16 -36 q0 -10 -7 -16.5 q-7 -6.5 -17 -6.5 q-45 0 -144 161 q-131 -161 -159 -161 q-16 0 -33 16.5 q-17 16.5 -17 30.5 q0 5 22 27 q97 97 145 158 q-46 82 -78 152 q-32 70 -32 84.5 q0 14.5 1 18.5 q2 9 22 9 q20 0 49 -12 q29 -12 29 -29 q0 -42 59 -156 Z" /><glyph glyph-name="" unicode="y" d="M422 511 q16 0 34.5 -23.5 q18.5 -23.5 18.5 -52.5 q0 -20 -41 -136 q-41 -116 -55.5 -157.5 q-14.5 -41.5 -39 -110 q-24.5 -68.5 -47.5 -133.5 q-50 -143 -150 -143 q-57 0 -109 34.5 q-52 34.5 -52 71.5 q0 14 12.5 31 q12.5 17 21.5 17 q9 0 29 -22 q58 -66 99 -66 q31 0 56 54.5 q25 54.5 47.5 123 q22.5 68.5 25 75.5 q2.5 7 6 18 q3.5 11 6.5 20 q-71 -97 -140 -97 q-42 0 -77.5 39 q-35.5 39 -35.5 92 q0 53 26 143 q26 90 61 156 q35 66 57 66 q18 0 33.5 -16.5 q15.5 -16.5 15.5 -33.5 q0 -17 -26 -71 q-81 -166 -81 -258 q0 -16 10 -26.5 q10 -10.5 24 -10.5 q36 0 86 64 q50 64 92 152 q35 74 73 189 q4 11 20 11 Z" /><glyph glyph-name="" unicode="z" d="M54 471 q0 19 44 29.5 q44 10.5 120.5 10.5 q76.5 0 125.5 -20 q22 -9 40.5 -36.5 q18.5 -27.5 18.5 -45.5 q0 -38 -46.5 -87 q-46.5 -49 -101.5 -87 q-55 -38 -101.5 -73 q-46.5 -35 -46.5 -47 q0 -17 26 -17 q57 0 140 8 q83 8 99 8 q39 0 39 -23 q0 -32 -100 -54 q-100 -22 -193 -22 q-43 0 -79 32.5 q-36 32.5 -36 59.5 q0 27 50.5 72.5 q50.5 45.5 110.5 86.5 q161 112 161 140 q0 19 -102 19 q-25 0 -62 -5.5 q-37 -5.5 -53.5 -5.5 q-16.5 0 -35 21 q-18.5 21 -18.5 36 Z" /><glyph glyph-name="" unicode="¦" d="M243 430 q-14 0 -34.5 22.5 q-20.5 22.5 -20.5 41.5 q0 19 26.5 133.5 q26.5 114.5 26.5 170.5 q0 16 4.5 23 q4.5 7 19 7 q14.5 0 39 -29.5 q24.5 -29.5 24.5 -62.5 q0 -33 -34 -169.5 q-34 -136.5 -51 -136.5 ZM123 -135 q-14 0 -34.5 22.5 q-20.5 22.5 -20.5 41 q0 18.5 26 133.5 q26 115 26 171 q0 30 22 30 q17 0 41 -29.5 q24 -29.5 24 -62 q0 -32.5 -33.5 -169.5 q-33.5 -137 -50.5 -137 Z" /><glyph glyph-name="" unicode="¨" d="M175.5 808.5 q14.5 17.5 30.5 17.5 q16 0 36.5 -39 q20.5 -39 20.5 -54 q0 -15 -8.5 -24 q-8.5 -9 -17.5 -9 q-22 0 -49 26.5 q-27 26.5 -27 45.5 q0 19 14.5 36.5 ZM10 772 q0 19 15 36.5 q15 17.5 30.5 17.5 q15.5 0 36.5 -39 q21 -39 21 -54 q0 -15 -9 -24 q-9 -9 -18 -9 q-22 0 -49 26.5 q-27 26.5 -27 45.5 Z" /><glyph glyph-name="" unicode="©" d="M693 404 q0 -148 -105.5 -246 q-105.5 -98 -260.5 -98 q-118 0 -183 70 q-65 70 -65 179 q0 136 110.5 243.5 q110.5 107.5 246.5 107.5 q117 0 187 -72.5 q70 -72.5 70 -183.5 ZM316 113 q142 0 224 78.5 q82 78.5 82 221.5 q0 84 -47.5 138.5 q-47.5 54.5 -116.5 54.5 q-52 0 -106.5 -21.5 q-54.5 -21.5 -100.5 -60.5 q-46 -39 -75 -100 q-29 -61 -29 -139 q0 -78 46.5 -125 q46.5 -47 122.5 -47 ZM452 543 q16 0 32.5 -18 q16.5 -18 16.5 -33 q0 -15 -13 -15 q-5 0 -15 3.5 q-10 3.5 -19 3.5 q-40 0 -98 -68 q-58 -68 -58 -131 q0 -18 13 -29.5 q13 -11.5 31 -11.5 q43 0 89.5 20.5 q46.5 20.5 49.5 20.5 q14 0 14 -17 q0 -21 -53.5 -52.5 q-53.5 -31.5 -95.5 -31.5 q-42 0 -77 33 q-35 33 -35 70 q0 76 72.5 166 q72.5 90 145.5 90 Z" /><glyph glyph-name="" unicode="«" d="M663 474 q19 0 35.5 -13 q16.5 -13 16.5 -24 q0 -17 -55 -29 q-101 -21 -175 -47.5 q-74 -26.5 -74 -45 q0 -18.5 123.5 -67 q123.5 -48.5 123.5 -65.5 q0 -19 -32 -19 q-59 0 -179.5 56.5 q-120.5 56.5 -120.5 95.5 q0 12 13 31 q13 19 26 28 q40 29 147 64 q107 35 151 35 ZM352 497 q19 0 35 -11 q16 -11 16 -22 q0 -16 -35 -26 q-88 -28 -167.5 -64.5 q-79.5 -36.5 -79.5 -55.5 q0 -17 62 -47 q62 -30 124.5 -58.5 q62.5 -28.5 62.5 -40.5 q0 -21 -41.5 -21 q-41.5 0 -166 61.5 q-124.5 61.5 -124.5 97.5 q0 14 12 35 q12 21 23 29 q42 34 141 78.5 q99 44.5 138 44.5 Z" /><glyph glyph-name="" unicode="®" d="M86 482 q0 92 75 165 q75 73 161.5 73 q86.5 0 134 -49 q47.5 -49 47.5 -125 q0 -101 -71.5 -167.5 q-71.5 -66.5 -177.5 -66.5 q-81 0 -125 47.5 q-44 47.5 -44 122.5 ZM248 349 q95 0 150.5 53 q55.5 53 55.5 150 q0 57 -31.5 93.5 q-31.5 36.5 -78.5 36.5 q-77 0 -143.5 -59 q-66.5 -59 -66.5 -154 q0 -57 31 -88.5 q31 -31.5 83 -31.5 ZM232 408 q-5 0 -12.5 8 q-7.5 8 -7.5 15.5 q0 7.5 16.5 65.5 q16.5 58 19.5 89 q-13 9 -13 20 q0 9 23 17.5 q23 8.5 51 8.5 q28 0 48.5 -12.5 q20.5 -12.5 20.5 -36.5 q0 -24 -21 -43 q-21 -19 -41.5 -28 q-20.5 -9 -20.5 -10 q0 -12 39 -43 q8 -8 17 -15 q9 -7 13 -12 q9 -8 9 -14 q0 -10 -15.5 -10 q-15.5 0 -47.5 27 q-32 27 -47 52 l-1 -2 q-22 -77 -30 -77 ZM341 582 q0 14 -30 14 q-12 0 -30 -6 q2 -4 2 -14.5 q0 -10.5 -11 -51.5 q54 27 64 43 q5 7 5 15 Z" /><glyph glyph-name="" unicode="°" d="M204 483 q34 0 57.5 37 q23.5 37 23.5 68.5 q0 31.5 -12 48.5 q-12 17 -32 17 q-34 0 -58 -38 q-24 -38 -24 -69.5 q0 -31.5 12.5 -47.5 q12.5 -16 32.5 -16 ZM79 530 q0 70 54 132.5 q54 62.5 127 62.5 q48 0 77 -32.5 q29 -32.5 29 -82.5 q0 -70 -54 -132.5 q-54 -62.5 -126 -62.5 q-48 0 -77.5 32.5 q-29.5 32.5 -29.5 82.5 Z" /><glyph glyph-name="" unicode="±" d="M543 487 q61 0 61 -25 q0 -39 -222 -64 q-33 -168 -46 -191 q-6 -10 -12 -11 q-15 0 -30.5 18.5 q-15.5 18.5 -15.5 34 q0 15.5 21 141.5 q-82 -5 -135 -5 q-22 0 -41.5 21.5 q-19.5 21.5 -19.5 41 q0 19.5 26 19.5 l106 0 q29 0 77 2 q14 100 14 158 q0 26 18 26 q18 0 45.5 -25.5 q27.5 -25.5 27.5 -43.5 q0 -18 -18 -108 q132 11 144 11 ZM495 152 q66 0 66 -19 q0 -19 -54.5 -34.5 q-54.5 -15.5 -130.5 -22.5 q-159 -16 -243 -16 q-20 0 -37 19.5 q-17 19.5 -17 36 q0 16.5 20 16.5 q86 0 230 10 q144 10 166 10 Z" /><glyph glyph-name="" unicode="´" d="M35.5 658 q-10.5 0 -18 8.5 q-7.5 8.5 -7.5 22 q0 13.5 12 29.5 q12 16 37 40 q25 24 39.5 38 q14.5 14 22.5 22 q8 8 17 16 q17 14 30.5 14 q13.5 0 27 -19 q13.5 -19 13.5 -32.5 q0 -13.5 -2.5 -20 q-2.5 -6.5 -6.5 -11 q-4 -4.5 -13.5 -12 q-9.5 -7.5 -17.5 -12.5 q-8 -5 -25 -15.5 q-17 -10.5 -28.5 -18.5 q-11.5 -8 -24.5 -18 q-13 -10 -19 -14 q-26 -17 -36.5 -17 Z" /><glyph glyph-name="" unicode="ç" d="M243 -33 q31 0 62.5 -17.5 q31.5 -17.5 31.5 -39.5 q-1 -44 -62 -71 q-61 -27 -126 -27 q-19 0 -31.5 7.5 q-12.5 7.5 -12.5 18.5 q0 11 26.5 16.5 q26.5 5.5 64.5 15 q38 9.5 56 28.5 q-6 9 -47 17.5 q-41 8.5 -41 19.5 q0 11 17.5 47.5 q17.5 36.5 22.5 49.5 q-56 22 -97 74 q-41 52 -41 109 q0 94 61.5 212.5 q61.5 118.5 158 204.5 q96.5 86 185.5 86 q25 0 52.5 -33 q27.5 -33 27.5 -54.5 q0 -21.5 -7 -21.5 q-7 0 -28 7.5 q-21 7.5 -39 7.5 q-52 0 -127.5 -65 q-75.5 -65 -133 -164.5 q-57.5 -99.5 -57.5 -183.5 q0 -46 28 -71.5 q28 -25.5 74.5 -25.5 q46.5 0 95.5 13.5 q49 13.5 79 30.5 q81 43 89 43 q17 0 17 -22 q0 -22 -44.5 -59 q-44.5 -37 -111 -67 q-66.5 -30 -120.5 -32 q-12 -29 -26 -54 l3 0 Z" /><glyph glyph-name="" unicode="ö" d="M509 871 q0 19 15 36.5 q15 17.5 30.5 17.5 q15.5 0 36.5 -39 q21 -39 21 -54 q0 -15 -9 -24 q-9 -9 -18 -9 q-22 0 -49 26.5 q-27 26.5 -27 45.5 ZM358 871 q0 19 15 36.5 q15 17.5 30.5 17.5 q15.5 0 36.5 -39 q21 -39 21 -54.5 q0 -15.5 -8.5 -24 q-8.5 -8.5 -18.5 -8.5 q-22 0 -49 26.5 q-27 26.5 -27 45.5 ZM340.5 155 q65.5 59 112.5 145.5 q47 86.5 47 163.5 q0 77 -29.5 125 q-29.5 48 -69.5 48 q-40 0 -100 -62 q-60 -62 -108 -162.5 q-48 -100.5 -48 -192.5 q0 -55 24 -89.5 q24 -34.5 56 -34.5 q50 0 115.5 59 ZM219 17 q-66 0 -115.5 65 q-49.5 65 -49.5 132 q0 91 33.5 185 q33.5 94 84 164 q50.5 70 111.5 114.5 q61 44.5 113 44.5 q84 0 140 -76.5 q56 -76.5 56 -172.5 q0 -96 -53 -201.5 q-53 -105.5 -141.5 -180 q-88.5 -74.5 -178.5 -74.5 Z" /><glyph glyph-name="" unicode="ü" d="M389 871 q0 19 15 36.5 q15 17.5 30.5 17.5 q15.5 0 36.5 -39 q21 -39 21 -54 q0 -15 -9 -24 q-9 -9 -18 -9 q-22 0 -49 26.5 q-27 26.5 -27 45.5 ZM238 871 q0 19 15 36.5 q15 17.5 30.5 17.5 q15.5 0 36.5 -39 q21 -39 21 -54.5 q0 -15.5 -8.5 -24 q-8.5 -8.5 -18.5 -8.5 q-22 0 -49 26.5 q-27 26.5 -27 45.5 ZM164 689 q0 17 4 23.5 q4 6.5 18.5 6.5 q14.5 0 39 -26.5 q24.5 -26.5 24.5 -62 q0 -35.5 -41 -193.5 q-41 -158 -41 -214.5 q0 -56.5 21 -91.5 q21 -35 54 -35 q33 0 73 38 q40 38 74.5 99.5 q34.5 61.5 58 150 q23.5 88.5 23.5 178.5 q0 42 -4.5 84 q-4.5 42 -4.5 52 q0 21 18 21 q23 0 53 -34.5 q30 -34.5 30 -88.5 q0 -154 -45 -289 q-45 -135 -121 -215.5 q-76 -80.5 -162 -80.5 q-63 0 -109.5 61 q-46.5 61 -46.5 140 q0 79 42 248.5 q42 169.5 42 228.5 Z" /><glyph glyph-name="" unicode="ç" d="M179 -33 q30 0 61.5 -18 q31.5 -18 31.5 -39 q-1 -44 -61.5 -71 q-60.5 -27 -125.5 -27 q-20 0 -32.5 7 q-12.5 7 -12.5 17 q0 13 27 18.5 q27 5.5 65 14.5 q38 9 56 28 q-7 9 -48 17.5 q-41 8.5 -41 19.5 q0 10 16.5 45.5 q16.5 35.5 21.5 47.5 q-44 18 -74.5 55.5 q-30.5 37.5 -30.5 80.5 q0 68 42 150 q42 82 108.5 140 q66.5 58 129.5 58 q41 0 72 -37 q31 -37 31 -65 q0 -8 -5 -13.5 q-5 -5.5 -14.5 -5.5 q-9.5 0 -33.5 18 q-24 18 -43 18 q-54 0 -126 -95 q-72 -95 -72 -166 q0 -31 19.5 -49 q19.5 -18 63 -18 q43.5 0 80 10.5 q36.5 10.5 56.5 21 q20 10.5 31 10.5 q19 0 19 -19 q0 -28 -66 -65.5 q-66 -37.5 -124 -40.5 q-11 -27 -24 -48 l3 0 Z" /><glyph glyph-name="" unicode="ö" d="M333 341 q0 34 -11 64.5 q-11 30.5 -32 44.5 q-69 -19 -118.5 -106.5 q-49.5 -87.5 -49.5 -164.5 q0 -77 38 -96 q72 14 122.5 98.5 q50.5 84.5 50.5 159.5 ZM70.5 332 q34.5 78 91 128.5 q56.5 50.5 116 50.5 q59.5 0 99.5 -50.5 q40 -50.5 40 -123 q0 -72.5 -35 -148 q-35 -75.5 -96.5 -125 q-61.5 -49.5 -130.5 -49.5 q-51 0 -85 47 q-34 47 -34 119.5 q0 72.5 34.5 150.5 ZM355.5 686.5 q14.5 17.5 30.5 17.5 q16 0 37 -39 q21 -39 21 -54 q0 -15 -8.5 -23.5 q-8.5 -8.5 -18.5 -8.5 q-22 0 -49 26 q-27 26 -27 45 q0 19 14.5 36.5 ZM205 687 q14 17 30 17 q16 0 37 -39 q21 -39 21 -54 q0 -15 -8.5 -23.5 q-8.5 -8.5 -17.5 -8.5 q-22 0 -49 26 q-27 26 -27 45.5 q0 19.5 14 36.5 Z" /><glyph glyph-name="" unicode="ü" d="M384 483 q4 16 8 22 q4 6 17.5 6 q13.5 0 33 -26 q19.5 -26 19.5 -50 q0 -13 -44 -154 q-44 -141 -68 -224 q-12 -42 -34 -42 q-13 0 -22 11 q-9 11 -9 40 q0 29 23 105 q-42 -68 -91 -112 q-49 -44 -89.5 -44 q-40.5 0 -76.5 38 q-36 38 -36 78 q0 95 55.5 237.5 q55.5 142.5 92.5 142.5 q17 0 30.5 -16.5 q13.5 -16.5 13.5 -31.5 q0 -15 -27 -71 q-80 -168 -80 -260 q0 -16 10 -26.5 q10 -10.5 24 -10.5 q38 0 90.5 67 q52.5 67 95.5 156 q43 89 64 165 ZM266 579 q-23 0 -49.5 26 q-26.5 26 -26.5 45.5 q0 19.5 14 36.5 q14 17 30 17 q16 0 37 -39 q21 -39 21 -54 q0 -15 -8.5 -23.5 q-8.5 -8.5 -17.5 -8.5 ZM416 579 q-22 0 -49 26 q-27 26 -27 45 q0 19 14.5 36.5 q14.5 17.5 30.5 17.5 q16 0 37 -39 q21 -39 21 -54 q0 -15 -8.5 -23.5 q-8.5 -8.5 -18.5 -8.5 Z" /><glyph glyph-name="" unicode="&#x11e;" d="M654 910 q23 0 23 -23 q0 -33 -50.5 -69.5 q-50.5 -36.5 -101 -36.5 q-50.5 0 -91.5 36 q-41 36 -41 73 q0 25 14.5 40 q14.5 15 27 15 q12.5 0 20.5 -15 q8 -15 15 -33 q7 -18 24 -33 q17 -15 43.5 -15 q26.5 0 48.5 15.5 q22 15.5 38 30.5 q16 15 30 15 ZM453 717 q28 0 55 -33.5 q27 -33.5 27 -54 q0 -20.5 -11 -20.5 q-3 0 -22 7.5 q-19 7.5 -41 7.5 q-63 0 -139.5 -69 q-76.5 -69 -130.5 -172.5 q-54 -103.5 -54 -192.5 q0 -36 23 -61.5 q23 -25.5 54 -25.5 q48 0 112.5 52.5 q64.5 52.5 119.5 135.5 q-56 -15 -83 -15 q-27 0 -46 14.5 q-19 14.5 -19 27.5 q0 16 43 25.5 q43 9.5 108 9.5 q36 0 58.5 -30.5 q22.5 -30.5 22.5 -71 q0 -40.5 -50 -190.5 q-50 -150 -75.5 -150 q-25.5 0 -25.5 29 q0 28 14.5 76 q14.5 48 30.5 98.5 q16 50.5 26 82.5 q-49 -83 -111 -131.5 q-62 -48.5 -120.5 -48.5 q-58.5 0 -115.5 54.5 q-57 54.5 -57 119.5 q0 101 64 225 q64 124 161 212.5 q97 88.5 182 88.5 Z" /><glyph glyph-name="" unicode="&#x11f;" d="M498 696 q23 0 23 -23 q0 -33 -50.5 -69.5 q-50.5 -36.5 -101 -36.5 q-50.5 0 -91.5 36 q-41 36 -41 73 q0 25 14.5 40 q14.5 15 27 15 q12.5 0 20.5 -15 q8 -15 15 -33 q7 -18 24 -33 q17 -15 43.5 -15 q26.5 0 49 15.5 q22.5 15.5 38.5 30.5 q16 15 29 15 ZM423 285 q0 -40 -35 -91 q-27 -61 -58 -175.5 q-31 -114.5 -52 -163.5 q-42 -102 -129 -102 q-70 0 -119 38.5 q-49 38.5 -49 76.5 q0 15 10 31.5 q10 16.5 20.5 16.5 q10.5 0 23 -15 q12.5 -15 24 -32.5 q11.5 -17.5 35 -32.5 q23.5 -15 45.5 -15 q22 0 33 6.5 q11 6.5 21 21 q10 14.5 17 29 q7 14.5 15.5 41 q8.5 26.5 13.5 45.5 q5 19 14 53.5 q9 34.5 15 55.5 q-78 -58 -126.5 -58 q-48.5 0 -85 39.5 q-36.5 39.5 -36.5 83.5 q0 61 40 148 q40 87 106.5 156 q66.5 69 130.5 69 q41 0 69 -31 q46 -51 46 -145 q0 -12 -1 -17 q12 -15 12 -33 ZM101 136 q0 -17 11 -27.5 q11 -10.5 28 -10.5 q49 0 117 59.5 q68 59.5 97 137.5 q-4 17 -7 42.5 q-3 25.5 -6 41.5 q-3 16 -13 32.5 q-10 16.5 -26 16.5 q-58 0 -129.5 -112 q-71.5 -112 -71.5 -180 Z" /><glyph glyph-name="" unicode="&#x130;" d="M293 788 q-22 0 -50 26.5 q-28 26.5 -28 46.5 q0 20 15.5 39 q15.5 19 32 19 q16.5 0 37 -42.5 q20.5 -42.5 20.5 -64.5 q0 -7 -9 -15.5 q-9 -8.5 -18 -8.5 ZM119 19 q-12 0 -31.5 24 q-19.5 24 -19.5 44 q0 20 59.5 279.5 q59.5 259.5 60.5 321.5 q0 17 4.5 23.5 q4.5 6.5 19 6.5 q14.5 0 38 -31 q23.5 -31 23.5 -66.5 q0 -35.5 -72 -328.5 q-7 -27 -19 -77.5 q-12 -50.5 -19 -77.5 q-7 -27 -15 -59 q-17 -59 -29 -59 Z" /><glyph glyph-name="" unicode="&#x131;" d="M166 511 q16 0 33 -23 q17 -23 17 -44 q0 -57 -103 -378 q-15 -50 -43 -50 q-14 0 -24 11.5 q-10 11.5 -10 26 q0 14.5 10.5 56 q10.5 41.5 26.5 99 q16 57.5 38.5 157 q22.5 99.5 30.5 122.5 q8 23 24 23 Z" /><glyph glyph-name="" unicode="&#x15e;" d="M219 -36 q31 0 62 -17.5 q31 -17.5 31 -43.5 q0 -26 -32 -49 q-61 -45 -155 -45 q-19 0 -31.5 7.5 q-12.5 7.5 -12.5 18.5 q0 11 26.5 17 q26.5 6 64.5 15 q38 9 56 28 q-7 9 -47.5 17.5 q-40.5 8.5 -40.5 19.5 q0 14 16.5 48 q16.5 34 21.5 46 q-68 14 -114 57.5 q-46 43.5 -46 77 q0 33.5 18 33.5 q16 0 64 -48 q17 -17 47.5 -32 q30.5 -15 64.5 -15 q70 0 124.5 36 q54.5 36 54.5 78 q0 27 -36 69 q-36 42 -79.5 79.5 q-43.5 37.5 -79.5 80.5 q-36 43 -36 68 q0 25 10 53 q10 28 22 41 q39 43 121.5 79 q82.5 36 138.5 36 q29 0 49 -19 q20 -19 20 -40 q0 -10 -21 -16 q-21 -6 -63.5 -15.5 q-42.5 -9.5 -75.5 -22.5 q-115 -44 -115 -85 q0 -22 118 -123 q44 -39 80.5 -90.5 q36.5 -51.5 36.5 -93.5 q0 -79 -68.5 -133.5 q-68.5 -54.5 -169.5 -59.5 q-8 -23 -27 -57 l3 0 Z" /><glyph glyph-name="" unicode="&#x15f;" d="M148 -53 q31 0 62 -17.5 q31 -17.5 31 -43.5 q0 -26 -31 -49 q-62 -45 -156 -45 q-20 0 -32 7.5 q-12 7.5 -12 18.5 q0 11 26.5 17 q26.5 6 64.5 15 q38 9 56 28 q-7 9 -47.5 17.5 q-40.5 8.5 -40.5 18.5 q0 10 8 28.5 q8 18.5 20 43.5 q12 25 17 40 q-45 14 -76.5 41.5 q-31.5 27.5 -31.5 44.5 q0 17 6.5 24.5 q6.5 7.5 16.5 7.5 q10 0 28 -13 q54 -39 112.5 -39 q58.5 0 84.5 13.5 q26 13.5 26 36 q0 22.5 -29 48 q-29 25.5 -63.5 45.5 q-34.5 20 -63.5 49 q-29 29 -29 59 q0 53 83.5 110.5 q83.5 57.5 138.5 57.5 q34 0 64 -37.5 q30 -37.5 30 -65.5 q0 -17 -16 -17 q-11 0 -34 17.5 q-23 17.5 -47 17.5 q-24 0 -75.5 -28 q-51.5 -28 -51.5 -59 q0 -23 92 -79 q35 -22 63.5 -56.5 q28.5 -34.5 28.5 -74 q0 -39.5 -54.5 -77 q-54.5 -37.5 -130.5 -37.5 l-11 0 q-7 -28 -30 -68 l3 0 Z" /><glyph glyph-name="" unicode="&#x2014;" d="M67 292 q0 33 229 53.5 q229 20.5 494 20.5 q99 0 99 -28 q0 -22 -104 -32 q-64 -6 -194 -14 q-130 -8 -198.5 -14.5 q-68.5 -6.5 -171 -20.5 q-102.5 -14 -116 -14.5 q-13.5 -0.5 -26 16 q-12.5 16.5 -12.5 33.5 Z" /><glyph glyph-name="" unicode="&#x2019;" d="M231 744 q0 -63 -58 -127 q-58 -64 -95 -64 q-27 0 -27 22 q0 12 22.5 34 q22.5 22 45.5 51 q23 29 23 54 q0 25 -9 37 q-9 12 -19 17 q-29 12 -29 31 q0 19 15.5 32.5 q15.5 13.5 36.5 13.5 q39 0 66.5 -27.5 q27.5 -27.5 27.5 -73.5 Z" /></font>
</defs>
</svg>
