<svg xmlns="http://www.w3.org/2000/svg" viewBox="0 0 217.33 152.67"><title>Asset 1</title><rect x="2" y="2" width="213.33" height="148.67" style="fill:#313539;stroke:#e6e6e6;stroke-miterlimit:10;stroke-width:4px"/><path d="M107.59,125.54V113.81h3.1a6.7,6.7,0,0,1,4.67,1.45,5.45,5.45,0,0,1,1.61,4.25,5.84,5.84,0,0,1-1.72,4.36,6.54,6.54,0,0,1-4.74,1.67Zm.86-11v10.26h1.93a6.06,6.06,0,0,0,4.23-1.36,5,5,0,0,0,1.47-3.91c0-3.32-1.84-5-5.52-5Z" style="fill:#e6e6e6"/><path d="M120.81,125.54V113.81h5.77v.74h-4.92v4.71h4.56V120h-4.56v4.82h5.2v.73Z" style="fill:#e6e6e6"/><path d="M130.56,125.12v-.92a5.2,5.2,0,0,0,2.69.8,3.59,3.59,0,0,0,2.2-.57,1.88,1.88,0,0,0,.75-1.59,2,2,0,0,0-.51-1.43,9.71,9.71,0,0,0-2.18-1.47,7.93,7.93,0,0,1-2.38-1.73,2.75,2.75,0,0,1-.5-1.62,2.67,2.67,0,0,1,1-2.11,4,4,0,0,1,2.71-.87,7.39,7.39,0,0,1,2.21.35v.85a5.82,5.82,0,0,0-2.32-.46,3,3,0,0,0-2,.6,1.93,1.93,0,0,0-.74,1.54,2,2,0,0,0,.5,1.43,10,10,0,0,0,2.18,1.45,7.75,7.75,0,0,1,2.3,1.66,2.57,2.57,0,0,1,.58,1.66,2.79,2.79,0,0,1-1,2.21,4.19,4.19,0,0,1-2.79.85,7.22,7.22,0,0,1-1.47-.19A5,5,0,0,1,130.56,125.12Z" style="fill:#e6e6e6"/><path d="M141.05,125.54V113.81h.85v11.73Z" style="fill:#e6e6e6"/><path d="M155.33,124.72a8.19,8.19,0,0,1-3.94,1,5.41,5.41,0,0,1-4.08-1.63,5.92,5.92,0,0,1-1.56-4.27,6.26,6.26,0,0,1,1.68-4.46,5.9,5.9,0,0,1,4.49-1.78,8.43,8.43,0,0,1,3.16.62v.89a7.76,7.76,0,0,0-3.28-.77,4.91,4.91,0,0,0-3.76,1.51,6.15,6.15,0,0,0-.08,7.74,4.71,4.71,0,0,0,3.59,1.4,6,6,0,0,0,2.92-.69v-3.87h-2.91v-.73h3.77Z" style="fill:#e6e6e6"/><path d="M168.24,125.54l-7.36-9.48a5.45,5.45,0,0,1-.4-.58l-.11-.16h0c0,.14,0,.31,0,.52v9.7h-.86V113.81h.66l7.3,9.4c.16.21.34.46.53.75h0c0-.38,0-.71,0-1v-9.17h.85v11.73Z" style="fill:#e6e6e6"/><path d="M178,93s-.06,0-.09,0l0,.1Z" style="fill:#e9e9e9"/><path d="M177.5,93.5c0,.12,0,.27.09.24s0-.15,0-.3.1-.14.12-.11.09-.13.07-.2a.58.58,0,0,0-.23.4S177.51,93.51,177.5,93.5Z" style="fill:#e9e9e9"/><path d="M172,101.36l0,0Z" style="fill:#e9e9e9"/><path d="M167,104.23s.06,0,.06,0Z" style="fill:#e9e9e9"/><path d="M166,104.3h0Z" style="fill:#e9e9e9"/><path d="M172,101.36l-.13.09S172,101.41,172,101.36Z" style="fill:#e9e9e9"/><path d="M177.05,94.76a.31.31,0,0,0,0-.08l0,.07Z" style="fill:#e9e9e9"/><path d="M173.69,99.35l0,0v0Z" style="fill:#e9e9e9"/><path d="M174.83,97.7s0,.09,0,.12a.15.15,0,0,1,0-.11Z" style="fill:#e9e9e9"/><path d="M176.58,95l0,0Z" style="fill:#e9e9e9"/><path d="M172.77,100.45s0,0,0,0Z" style="fill:#e9e9e9"/><path d="M158.83,99.25h0S158.81,99.26,158.83,99.25Z" style="fill:#e9e9e9"/><path d="M156.45,98.81h0l0,0Z" style="fill:#e9e9e9"/><path d="M164.16,104.21h0Z" style="fill:#e9e9e9"/><path d="M154.69,92.64c-.09.18-.05-.32-.15,0C154.57,92.58,154.62,92.87,154.69,92.64Z" style="fill:#e9e9e9"/><path d="M177,94.81l0,.07Z" style="fill:#e9e9e9"/><path d="M154.54,92.6h0v0Z" style="fill:#e9e9e9"/><path d="M160.19,103.05a.17.17,0,0,0,0,0S160.21,103.08,160.19,103.05Z" style="fill:#e9e9e9"/><path d="M163.09,104.2l-.08,0Z" style="fill:#e9e9e9"/><path d="M158.77,102.25l-.09-.07v0A.1.1,0,0,1,158.77,102.25Z" style="fill:#e9e9e9"/><polygon points="157.5 101.12 157.51 101.16 157.55 101.19 157.5 101.12" style="fill:#e9e9e9"/><path d="M162.91,95.75l-.1,0C162.87,95.79,162.74,96,162.91,95.75Z" style="fill:#e9e9e9"/><path d="M177,94.75s0,0,0,.06l0-.06A0,0,0,0,0,177,94.75Z" style="fill:#e9e9e9"/><path d="M158.38,102.65l-.23-.18A1.54,1.54,0,0,0,158.38,102.65Z" style="fill:#e9e9e9"/><path d="M162.08,84.89h0Z" style="fill:#e9e9e9"/><path d="M157.52,101.92a.42.42,0,0,0-.09-.14h0Z" style="fill:#e9e9e9"/><path d="M162.81,95.78Z" style="fill:#e9e9e9"/><path d="M161.78,97.33c.19-.19,0-.15,0-.23.2-.25.15-.06.26-.11a3.79,3.79,0,0,1,.24-.46s0,0,0,0c.08-.21.39-.5.45-.76h0a.13.13,0,0,1-.12,0c.06-.1.07-.22.15-.22a.15.15,0,0,0,0,.12l.05-.12c.13,0-.07.16,0,.19a5.17,5.17,0,0,1,.33-.63c.1,0-.21.38,0,.21l-.19.23c.24-.11-.11.14.13,0,.24-.3.19-.39.41-.7,0-.1-.07,0-.07-.11.2-.5.41-.26.49-.67a.43.43,0,0,1,.09-.43l0,.13c.17-.33,0-.24.19-.57,0,.08-.09.28-.06.23s0-.18.1-.36h.09a9.57,9.57,0,0,0,.37-1.21s0,.11.08,0c.13-.53.34-1.13.47-1.66l0-.22s0-.08,0,0c0-.21,0,0-.07-.12s.05-.16.07-.08c0-.39-.14-1.05-.13-1.45l0,.07c0-.31-.18-.31-.19-.6l0,0a6.14,6.14,0,0,0-.72-1.78c-.13,0-.44-.55-.59-.45a1.53,1.53,0,0,0-.65-.54c-.14-.07-.24,0-.42,0V85l-.26,0-.11-.1h-.18c.07,0,.14.06.13.08a2,2,0,0,1-.65-.13A3.87,3.87,0,0,0,161,85s.1-.06.19-.09c-.32.13-.08-.07-.37,0,0,0,0,0,0,.07a1.67,1.67,0,0,0-.73.16l0-.07a7.11,7.11,0,0,0-1.34.59c.17-.06.17,0,.05.12l-.09,0c-.06.09.15,0,0,.1s-.16,0-.08-.1l-.18.14s0,0,0-.08-.38.13-.45.28h0a8.08,8.08,0,0,0-.9.71s-.09.15-.14.27a4.84,4.84,0,0,0-.77.65c-.14.21,0,.09-.05.2s-.29.25-.2.08a5,5,0,0,0-.62.93c.06,0,.11-.09.11,0s-.15.18-.17.15v0c-.25.56-.84,1.2-.85,1.74v0l0,.52c-.06.22,0-.15-.09,0a2.59,2.59,0,0,1-.12.69,3.05,3.05,0,0,0-.05.62c-.26.33-.06,1.23-.17,1.71l0,0c0,.12,0,.15,0,.24s0-.14.06-.06a16.51,16.51,0,0,0,.55,3.15c.11.38.28.13.38.62l-.14-.1a12.65,12.65,0,0,0,1.22,2c-.05,0-.07,0-.11-.08,0,.17.35.49.39.46s0,.05,0,.13.31.27.33.37,0,0-.07,0,.32.37.31.25c.17.23.38.4.52.58s.35.35.45.3c-.08.07.31.42.5.47-.07,0,.11.12,0,.12.17.12.34.22.34.15.23.35.69.34.79.59a15.52,15.52,0,0,0,1.61.65c-.06.1-.56-.24-.59-.12.51.18.81.21,1.3.38.13.05-.08,0-.13,0,.26.06.5.14.73.21a6.12,6.12,0,0,0,.71.11s0,0-.1,0,.21.06.2,0h-.09c-.12-.1.39-.08.41-.12-.18.13.44.1.17.25.07,0,.15,0,.14-.06s.11,0,0,.07c.34,0,.22-.06.52,0,0,0-.06,0-.1.06a1.22,1.22,0,0,1,.56,0s0,0-.06,0c.43,0,.73-.16,1.2-.13-.13.12.16,0,.2.12l.25-.07-.11,0a4,4,0,0,1,.59-.16l-.15.07.41-.1H167c.21-.09-.05-.11.24-.14a1.59,1.59,0,0,1,.34,0h0a.82.82,0,0,1,.35-.17s0,.11,0,.12.49-.19.59-.31a0,0,0,0,0,0,.08l.06-.09c.1,0,.11,0,.12,0,.28-.12-.14-.06.21-.18,0,0,0,0-.06.06.34-.15.62-.35.93-.49.13,0-.24.17-.11.18.41-.28.8-.63,1.19-.9l-.08,0c0-.15.31-.17.46-.37,0,.05,0,.11,0,.09a4.18,4.18,0,0,0,.81-.82l0,.07c.15-.11.37-.33.53-.47,0-.07.09-.15,0-.13.57-.34.73-1,1.19-1.3,0,.05-.08.15-.05.1l.27-.39c-.06,0-.06,0-.16.08a.64.64,0,0,1,.15-.28c-.11.19.07,0,.15,0s0,0,0,0c.23-.14-.07-.1.18-.34l0,0a1.52,1.52,0,0,1,.18-.33c.09,0,0,.13,0,.17.11-.16.11-.39.27-.49l-.13.25a.78.78,0,0,0,.26-.25h0l.21-.25-.07.06c0-.3.24-.43.32-.76-.08.32,0,.08.08.14s.15-.15.15-.11c0-.16.17-.19.21-.42,0,0,.09-.14.12-.08.09-.18-.06,0-.08,0,.08-.31.47-.57.58-1s.11-.45.25-.78c.09-.08,0,.13,0,.13a1.43,1.43,0,0,0,.25-.45s0,0,.08,0,0-.13.09-.28a.44.44,0,0,1,0,.18l.17-.5c.06,0,0,.12,0,.19a1.49,1.49,0,0,0,.18-.55l-.08.1c0-.07.07,0,0,0s-.14.21-.16.21l0-.12c-.18,0-.22.45-.34.67l-.05-.14,0,.27c-.05,0-.12,0-.08-.08-.13.14,0,.16-.17.27s0,0,0,0l-.06.17s-.08,0,0-.09c-.21.24-.18.48-.31.54v0c-.19.4,0,.07,0,.41l-.28.09,0,.08s-.07.11-.09.08c0,.17,0,0,0,.1-.17.15-.28.54-.41.52s.15-.16.06.06c-.14,0-.12.24-.28.38,0-.09.11-.23-.05-.09,0,.16-.23.31-.3.46s-.17.33-.3.58a7.77,7.77,0,0,0-.53.6v0c0,.1-.12.31-.23.48,0,0,0-.08,0-.18l-.11.14a.43.43,0,0,1-.09.21l0-.08a4.08,4.08,0,0,1-.47.66c0,.05.29-.08.11.21,0,0-.09,0,0-.12a.45.45,0,0,1-.1.13l.05-.14c-.12.09,0,.09-.1.17s-.08,0-.1,0,.08-.06.1-.1a.82.82,0,0,1-.28.2s0,0,0,.12-.1,0-.22.11-.14.16-.09.21-.08,0-.11,0-.42.42-.26.38l0,0,0,0h0a6.41,6.41,0,0,1-1,.85v0a6.67,6.67,0,0,0-.53.51s-.16.06-.15,0a1.38,1.38,0,0,1-.4.27c.13-.14-.08,0,.14-.14a1.2,1.2,0,0,0-.46.32c0-.11-.19,0-.29.1l.17,0a1.1,1.1,0,0,1-.32.17l0-.1c-.49.12-.71.58-1.14.53-.11.1.26,0,.18,0a4.16,4.16,0,0,1-.55.06c-.31,0-.23.23-.56.26,0,0,.11.09-.13.17s-.3-.07-.17-.12.08,0,.08,0,.17-.06.07-.07l0,0c-.12,0-.42,0-.36,0-.16.06-.06.06.06,0a6,6,0,0,1-.74.1c.05,0,.09,0,.05,0-.45,0-.19.07-.49.1s0-.11-.24,0,0-.08,0-.11a1.25,1.25,0,0,1-.66,0l.14,0h-.22l.07.06c-.08,0-.15,0-.15,0s.06.1-.11.14-.35,0-.38-.07c.35.05,0-.08.27-.07a.82.82,0,0,1-.21,0s0,0,0,0c-.32-.1-.16.09-.51,0,0,0-.07-.1-.12-.1.13,0,.05.09-.08.1a1,1,0,0,0-.36,0l.13,0a.74.74,0,0,1-.33,0s.15,0,.1,0-.38-.14-.62-.17,0-.09-.08-.14c-.27,0-.26-.14-.55-.18.06.08.08.07-.13.06l.46.1h-.31c.13,0,.3.05.38.09-.16,0-.14,0-.09.06-.16-.15-.39-.07-.59-.19l.06-.14c-.29-.19-.58-.17-1-.38l.12.08c-.08,0-.26-.09-.39-.15,0,0,0-.1-.07-.15s-.28-.17-.36-.1l-.14-.15c-.3-.2-.42-.1-.69-.31.11,0,0-.11.21,0-.09-.07-.17-.14-.19-.11s-.29-.13-.35-.23a.27.27,0,0,1-.2-.06s0,0,0,0-.18-.11-.13,0c-.15-.36-.76-.64-.87-1l-.55-.55s0,0,0,0c-.17-.26-.23-.06-.41-.38s.15.13.1,0c.1-.14-.27-.34-.33-.59l0,0c-.07-.17-.29-.35-.43-.61,0,0,0,0,0,0a2.41,2.41,0,0,1-.53-.72c.09.06.08.11.12,0s-.08.08-.2-.15-.06-.28,0-.33l.1.22c0-.15-.13-.28-.17-.4h0a4.6,4.6,0,0,1-.36-.7v0c-.16-.18,0-.19-.15-.38l.08-.09a5.59,5.59,0,0,1-.29-.72,3.24,3.24,0,0,1,.29.59,2.15,2.15,0,0,0-.17-.54.64.64,0,0,1,.06.18,1.45,1.45,0,0,1-.26-.65c.18,0,0-.75.09-1a5.93,5.93,0,0,1,0-1.57c-.17.19,0-.17-.14-.15,0-.14,0-.19,0-.2l.14-.4c0-.09,0,.13,0,.12.05-.29.08-.11.14-.3-.06,0-.05-.11,0-.27l-.12.22c0-.42.21-.33.22-.75l0,.14c0-.11,0-.3.08-.49a1.37,1.37,0,0,0,.07-.49s.08-.06.06,0a4.66,4.66,0,0,1,.66-1.36v0c0-.08,0-.17.14-.25s0,.05,0,0a1,1,0,0,1,.2-.33l0,.11c.34-.35.41-.64.69-1,.07.07.39-.17.55-.28h0c.45-.35.71-.68,1.15-1,.34-.08,1-.51,1.54-.61-.08,0,0-.09.07-.13s.31-.17.32-.07h-.05c.12.07.35,0,.55,0v-.14c.52.08,1.36-.12,1.58.16a2.32,2.32,0,0,1,.38.07l0,.06a3.71,3.71,0,0,1,.7.52l-.09,0c.14.16.36.06.48.24l-.05.12a10.35,10.35,0,0,1,.51,1.12s-.05,0-.07-.07c.06.19.1.75.22.66-.09,0,.07.43.12.67l-.08,0a.87.87,0,0,1,.17.47c0,.06-.06,0,0,0-.05.21.06.17,0,.42l0-.09a.6.6,0,0,0,.05.33c0,.14-.09.41-.16.43a.35.35,0,0,1,0,.3s0,0,0-.06c-.14.35-.07.56-.2.79a.05.05,0,0,0-.05,0c.08-.29.14-.52.14-.5s-.13.22-.17,0a1.72,1.72,0,0,1-.1.76l0,0v0a.83.83,0,0,0,0,.15.89.89,0,0,0-.08.17c-.06,0-.11.25-.17.36s0,.16.11,0,0,0,0-.09,0,0,0-.06h0l.1-.28a.45.45,0,0,1-.09.32.88.88,0,0,1,0,.2c-.15.11-.33.38-.4.4a4.74,4.74,0,0,0-.34,1.06c0,.1-.09.09-.13.11a.71.71,0,0,0,.05-.16c-.06.21-.3.55-.24.64-.17.21,0-.17-.17.15v-.06c-.5.52-.43,1.12-1.09,1.62,0,0,.06-.05.08-.05a7.32,7.32,0,0,1-2,1.83c-.22.11-.22.18-.32.3l-.09,0c-.06.07-.13.12-.19.18a1.17,1.17,0,0,1-.5.16,1.42,1.42,0,0,0-.57.12l.07,0L158,99c-.11,0-.19,0-.18,0a.1.1,0,0,1-.12,0v0l-.41.06c-.31-.09.06-.14-.36-.26-.16,0-.5,0-.45,0s.16.08.15.12l-.16,0c-.07.1-.26.17.13.37h.31l.08.09-.24-.07a.46.46,0,0,0,.33.07.21.21,0,0,0,.11.09l.31-.1s-.14.08.06.12-.13-.11.1-.14.1.1.27.06,0,.05-.08.06a.81.81,0,0,0,.46-.13c.16,0,.49-.12.51,0s.22-.17.34-.23c-.18.23.46-.19.47,0,.12-.16.54-.39.77-.61,0,0,0,0,0,.06.16-.08.22-.09.32-.15s.16-.29.23-.43c.23-.07,0,.18.08.2-.05-.05.25-.31.14-.31.17-.06.13-.07.25-.07-.07-.11.09-.13.13-.28.21-.13.13,0,.28-.18S161.78,97.33,161.78,97.33Zm3-5.46h0l0,.12Zm.16-.5-.07.22s0,0,0-.07S164.86,91.44,164.9,91.37Zm-.81.88c0-.08,0-.1.06-.11l0,.14h0Z" style="fill:#e9e9e9"/><path d="M164.13,92.42v0l0,0v0Z" style="fill:#e9e9e9"/><path d="M172.08,101.32h0Z" style="fill:#e9e9e9"/><polygon points="162.7 84.97 162.69 84.98 162.75 84.98 162.7 84.97" style="fill:#e9e9e9"/><path d="M174.11,99.33l0,0Z" style="fill:#e9e9e9"/><path d="M174.84,98.33l.11-.13Z" style="fill:#e9e9e9"/><path d="M175.38,97.56a0,0,0,0,0,0,0h0Z" style="fill:#e9e9e9"/><path d="M163.06,104.67h0C162.93,104.66,163,104.67,163.06,104.67Z" style="fill:#e9e9e9"/><path d="M167.55,104.38a.31.31,0,0,1-.13.06C167.5,104.44,167.56,104.42,167.55,104.38Z" style="fill:#e9e9e9"/><polygon points="158.4 102.67 158.4 102.67 158.38 102.65 158.4 102.67" style="fill:#e9e9e9"/><path d="M167.21,104.49a.65.65,0,0,0,.21,0A.72.72,0,0,0,167.21,104.49Z" style="fill:#e9e9e9"/><polygon points="177.46 94.03 177.48 93.99 177.47 93.98 177.46 94.03" style="fill:#e9e9e9"/><path d="M177.47,94l0,0A.17.17,0,0,0,177.47,94Z" style="fill:#e9e9e9"/><path d="M177.52,93.83l0,.1A.13.13,0,0,0,177.52,93.83Z" style="fill:#e9e9e9"/><path d="M176.83,95.11l0,0Z" style="fill:#e9e9e9"/><path d="M176.65,95.44a1.45,1.45,0,0,0,.21-.29v0C176.85,95.2,176.65,95.35,176.65,95.44Z" style="fill:#e9e9e9"/><path d="M175.58,96.65l.18-.26s-.12.08,0,0C175.44,96.64,175.8,96.3,175.58,96.65Z" style="fill:#e9e9e9"/><path d="M175,97.46c.08-.15,0,0,0,0S174.94,97.56,175,97.46Z" style="fill:#e9e9e9"/><path d="M170.37,102.7l0-.06C170.25,102.71,170.36,102.66,170.37,102.7Z" style="fill:#e9e9e9"/><polygon points="169.38 103.69 169.52 103.66 169.55 103.58 169.38 103.69" style="fill:#e9e9e9"/><path d="M168.48,103.64l0,0-.19.1Z" style="fill:#e9e9e9"/><path d="M157.75,101.3l0,.08C157.8,101.43,157.88,101.38,157.75,101.3Z" style="fill:#e9e9e9"/><path d="M155.06,97.08a.33.33,0,0,0-.07-.28C155,96.91,155,97,155.06,97.08Z" style="fill:#e9e9e9"/><polygon points="161.29 85.51 161.2 85.54 161.38 85.5 161.29 85.51" style="fill:#e9e9e9"/><path d="M149,103.6s0-.06-.06-.08l-.09.06Z" style="fill:#e9e9e9"/><path d="M148.44,103.26c-.11,0-.26,0-.23.11s.15,0,.29,0,.15.08.12.1.14.06.2,0a.8.8,0,0,0-.41-.15S148.43,103.27,148.44,103.26Z" style="fill:#e9e9e9"/><path d="M146.32,95.09v.06A.13.13,0,0,0,146.32,95.09Z" style="fill:#e9e9e9"/><path d="M146.46,89.5s0,.06,0,.06S146.47,89.49,146.46,89.5Z" style="fill:#e9e9e9"/><path d="M146.32,88.52v.06S146.33,88.53,146.32,88.52Z" style="fill:#e9e9e9"/><path d="M146.32,95.09l0-.15S146.33,95,146.32,95.09Z" style="fill:#e9e9e9"/><path d="M147.28,102.7l.07,0-.06-.06Z" style="fill:#e9e9e9"/><path d="M146.32,97.54v0l0,0Z" style="fill:#e9e9e9"/><path d="M146.44,99.4c0-.05-.08-.05-.11-.07a.15.15,0,0,1,.06.09Z" style="fill:#e9e9e9"/><path d="M147.23,102.18l0,0Z" style="fill:#e9e9e9"/><path d="M146.35,96.2l0,0Z" style="fill:#e9e9e9"/><path d="M129.16,87.32h0Z" style="fill:#e9e9e9"/><path d="M129.18,85.12v0h0Z" style="fill:#e9e9e9"/><path d="M145.48,86.87h0S145.5,86.89,145.48,86.87Z" style="fill:#e9e9e9"/><path d="M135.18,96.18c.12-.14,0,.3.13.08C135.27,96.27,135.3,96,135.18,96.18Z" style="fill:#e9e9e9"/><path d="M147.25,102.65l-.05-.06Z" style="fill:#e9e9e9"/><path d="M135.31,96.26h0l0,0Z" style="fill:#e9e9e9"/><path d="M141.42,86.17h0Z" style="fill:#e9e9e9"/><path d="M144.51,86.31l-.07,0Z" style="fill:#e9e9e9"/><path d="M140,87a.18.18,0,0,0-.1.06h0A.1.1,0,0,1,140,87Z" style="fill:#e9e9e9"/><polygon points="138.81 88.13 138.84 88.11 138.87 88.07 138.81 88.13" style="fill:#e9e9e9"/><path d="M129.36,92.18a.28.28,0,0,1,.06-.08S129.36,91.89,129.36,92.18Z" style="fill:#e9e9e9"/><path d="M147.31,102.67a.07.07,0,0,1-.06,0l0,0A0,0,0,0,0,147.31,102.67Z" style="fill:#e9e9e9"/><path d="M140.28,87.46l-.2.13Z" style="fill:#e9e9e9"/><path d="M129.09,103.78l0,0S129.08,103.78,129.09,103.78Z" style="fill:#e9e9e9"/><path d="M139.57,88.08l-.13.07v0Z" style="fill:#e9e9e9"/><path d="M129.42,92.1Z" style="fill:#e9e9e9"/><path d="M129.27,90.43c0,.24.09.11.14.16,0,.29-.06.13-.11.23a2.41,2.41,0,0,1,.1.46s0,0,0,0c.08.19,0,.57.09.8l0,0a.17.17,0,0,1,.13,0c0,.11,0,.21,0,.25a.14.14,0,0,0,0-.11l0,.12c-.09.1,0-.16-.09-.16a3.08,3.08,0,0,1,.05.65c-.09,0,0-.4-.1-.17l0-.26c-.14.19,0-.16-.13,0,0,.34,0,.39,0,.73,0,.08.07,0,.11.06.06.5-.23.38-.14.74.05.1.16.14.08.4l-.09-.1c0,.34.13.2,0,.55,0-.06,0-.26,0-.21-.09.22.05.16,0,.34l-.08,0c0,.36,0,.75,0,1.14,0,0,0-.1-.08,0a7.06,7.06,0,0,1-.3,1.52l0,.2s0,.07,0,0c-.06.18,0,0,.06.11s-.06.13-.08.06a4.89,4.89,0,0,1-.12,1.31l0-.07c-.06.27.11.32,0,.57v0c-.09.59-.06,1.26-.16,1.73.11.08,0,.61.14.63a2,2,0,0,0,0,.78c0,.14.12.18.22.33l-.07,0,.17.18a1.1,1.1,0,0,0,0,.16l.13.13c0-.06-.06-.13,0-.14a2.8,2.8,0,0,1,.25.35c.08.1.14.19.13.21a1.34,1.34,0,0,0,.63.24.4.4,0,0,1-.24,0c.38,0,.05.11.41.11-.05,0,0,0,0,0a1.5,1.5,0,0,0,.37,0,1.25,1.25,0,0,0,.41-.16l0,.07a3.18,3.18,0,0,0,1.1-.93c-.13.12-.17,0-.09-.08h.1c0-.1-.12.09,0-.09s.15,0,.1.06a1.74,1.74,0,0,0,.11-.18s0,0,0,.08.29-.24.29-.4h0c.27-.38.36-.58.56-.9-.06,0,0-.16,0-.29a5,5,0,0,0,.51-.76c.08-.22,0-.09,0-.2s.21-.28.17-.11a6.52,6.52,0,0,0,.39-.93s-.08.08-.09.05.11-.18.14-.15v0c.16-.55.71-1.11.76-1.57v0l.12-.45c.09-.19,0,.14.09,0,.09-.51.31-.73.4-1.14.3-.22.4-1,.67-1.41h0c0-.11.07-.11.11-.19s-.08.1-.08,0a26.85,26.85,0,0,1,1.11-2.67c.14-.32-.14-.26.13-.63l0,.15c.19-.7.56-1.34.8-2,0,0,0,.06,0,.12.11-.1.24-.47.2-.49s0,0,.11,0,.11-.34.2-.37,0,0,0,.06.24-.35.13-.31a5.17,5.17,0,0,1,.42-.53c0-.15.31-.28.27-.38.07.09.38-.22.48-.35,0,.06.13-.06.11,0,.14-.1.27-.2.21-.23.34-.06.54-.41.78-.32a4.71,4.71,0,0,1,1.42-.49c0,.1-.52.09-.48.2a2.62,2.62,0,0,1,1.13-.19c.11,0-.07,0-.1.06a2.77,2.77,0,0,1,1.17.29h-.08c.06,0,.14.1.16,0l-.07,0c-.07-.14.34,0,.38,0-.19,0,.28.29,0,.29,0,0,.1,0,.12,0s.05.08,0,.06c.21.18.18.07.34.27,0,0-.05,0-.09,0a.72.72,0,0,1,.33.34s0,0-.06,0a2.8,2.8,0,0,1,.52.93c-.14-.08,0,.14-.06.19l.08.21,0-.1a1.7,1.7,0,0,1,.15.52l-.06-.14c0,.12,0,.24.07.36,0-.07,0-.14,0-.21.07.19.11,0,.12.23,0,0,0,.2,0,.31h0a.63.63,0,0,1,.06.35s-.1,0-.12,0,0,.47.12.59a.06.06,0,0,0-.08,0l.06.08c0,.1,0,.11-.07.1,0,.28.12-.09.07.24,0,0,0,0,0-.07,0,.34,0,.65,0,1-.1.09,0-.27-.1-.17a12.42,12.42,0,0,1,0,1.36l0-.08c.13.07-.09.32,0,.54,0-.05-.07-.07-.05-.06a6.33,6.33,0,0,0,0,1.06l0-.06c0,.18-.05.46-.07.65s0,.17.07.1c-.22.58.06,1.12-.1,1.63,0-.06,0-.14,0-.09l0,.44c.06,0,0-.06.08-.15a.57.57,0,0,1,.06.29c0-.2-.09,0-.12.09s0,0,.06,0c-.1.24.11,0,.05.35h0a2,2,0,0,1,.07.35c-.07.06,0-.12-.1-.13,0,.18.14.35.09.51,0-.07,0-.18,0-.26A.63.63,0,0,0,146,99v.29l0-.08c.19.2.08.45.24.73-.15-.27-.07,0-.15,0s0,.2,0,.17c.09.13,0,.25.12.43,0,0,0,.15,0,.13.06.18,0,0,.06,0,.15.25.08.69.36,1a3.74,3.74,0,0,0,.52.58c0,.11-.13,0-.13,0a.92.92,0,0,0,.3.4s0,0,0,.08.12,0,.23.16a.37.37,0,0,1-.17,0c.14.1.3.17.44.26s-.12,0-.18,0a1,1,0,0,0,.52.22l-.09-.08c.06,0,0,.07,0,0s-.19-.15-.18-.17l.11,0c0-.17-.4-.26-.56-.46h.14l-.22-.13s0-.12.09,0c-.07-.15-.12-.09-.16-.24s0,0,0,0l-.12-.11s0-.06.09,0c-.12-.26-.3-.36-.29-.49l0,0c-.19-.36-.09,0-.29-.25,0-.09.06-.18.1-.26h-.08s0-.13,0-.12,0,0-.09,0-.18-.53-.08-.6c-.07-.06,0,.2-.08,0,.11-.08-.07-.24,0-.43.08,0,.07.22.1,0-.14-.09,0-.36-.07-.51s-.08-.33-.13-.59c0,0,0-.5.05-.74h0c-.09,0-.08-.3-.1-.48.05,0,.07,0,.1.13v-.17a.36.36,0,0,1-.06-.2l.07,0a3.65,3.65,0,0,1,0-.76c-.06,0-.18.24-.22-.08,0,0,.1,0,.11.06a.34.34,0,0,1,0-.15l.06.13c0-.14-.05-.07,0-.18s0-.08.07-.06,0,.09,0,.13a.85.85,0,0,1,.08-.31s-.06,0-.07-.09.07-.08.1-.21,0-.2-.07-.21,0-.08.06-.11,0-.55-.06-.42v0h0c-.05-.39.09-.81.08-1.2h0a3.62,3.62,0,0,0,0-.68c0-.07.06-.16.08-.13a1.43,1.43,0,0,1,0-.45c0,.18,0-.06,0,.18a1.18,1.18,0,0,0,0-.53c.06.09.08-.17.07-.28l-.05.16a1.9,1.9,0,0,1,0-.34l.08.06c.12-.47-.15-.85,0-1.22-.06-.12,0,.26-.1.15a4.24,4.24,0,0,1,.11-.52c0-.31-.13-.28-.13-.59,0,0-.1.08-.15-.14s.08-.29.13-.16,0,.08,0,.08,0,.17.06.07l0,0c0-.11,0-.42,0-.36-.06-.16-.06-.06,0,.07a3.27,3.27,0,0,0-.16-.74s0,.1,0,0c-.12-.42-.11-.16-.24-.42s.13,0,0-.25.06-.07.11,0a3.24,3.24,0,0,1-.29-.62l.1.11a1.25,1.25,0,0,1-.15-.19v.11c0-.08-.08-.14-.06-.15s0,.11-.18,0-.25-.24-.22-.33c.22.29,0-.08.24.15l-.14-.17s0,0,0,0c-.2-.31-.18-.06-.45-.3.07,0,0-.12-.07-.14.12.08,0,.1-.12,0s-.23-.11-.33-.17l.11.07c-.06,0-.15,0-.3-.09,0,0,.14,0,.09,0s-.34-.23-.6-.23,0-.09-.09-.13c-.29,0-.3-.11-.61-.07.09.06.1,0-.1.1a3.85,3.85,0,0,1,.48,0,1.55,1.55,0,0,0-.31.06,2.21,2.21,0,0,1,.38,0c-.15,0-.13,0-.07.07-.18-.12-.38,0-.6,0v-.15a3.81,3.81,0,0,0-1,.2H142c0,.07-.26.07-.38.14s-.09,0-.16-.06-.31.1-.31.21l-.2,0c-.34.11-.3.29-.6.43.06-.1-.09,0,.09-.19-.1,0-.2.1-.18.13s-.23.22-.34.24,0,.1-.1.17,0,0,0,0-.13.14,0,.12c-.37.09-.69.65-1,.81s-.29.45-.4.64c0,0,0,0,0,0-.2.23,0,.23-.19.5-.16.11.05-.18,0-.1s-.18.37-.36.54v-.06c-.12.14-.13.42-.26.67,0,0,0,0,0,0a3.67,3.67,0,0,1-.21.82c0-.1,0-.13-.06-.11s.11,0,0,.24c-.07.06-.17.21-.24.21l.09-.22c-.13.08-.12.28-.18.38l0,0c-.13.34,0,.38-.18.74l.05,0c0,.23-.12.14-.12.36l-.12,0c0,.13-.08.48-.14.72a3.42,3.42,0,0,1,.06-.62,1.59,1.59,0,0,0-.13.51.53.53,0,0,1,0-.17,1.45,1.45,0,0,1-.12.66c-.16-.12-.29.64-.5.77a10.1,10.1,0,0,1-.56,1.39c.22-.12-.05.16.1.18a.84.84,0,0,1-.07.18l-.23.33c-.08.07,0-.13,0-.13-.12.26-.11.08-.21.24.06,0,0,.12,0,.26l.15-.18c-.07.4-.25.27-.32.67v-.14a3.21,3.21,0,0,0-.26.93s-.09.05-.07,0a10.64,10.64,0,0,1-.55,1.36l0,0c0,.08,0,.17-.09.26s0,0,0,0a.9.9,0,0,1-.12.35V100a6.11,6.11,0,0,0-.41,1.05c-.09-.05-.31.25-.42.4h0c-.29.46-.4.84-.68,1.26-.27.18-.71.8-1.13,1,.06,0,0,.08,0,.13s-.24.17-.26.08h0c-.1-.07-.26,0-.39,0l0,.13a4.52,4.52,0,0,1-.58-.43.71.71,0,0,1-.26-.54c-.06-.1-.09-.23-.16-.33h.07c0-.31-.06-.47-.1-.87l0,.08c0-.22-.22-.27-.22-.49l.1-.07a8.11,8.11,0,0,0,.06-1.21.11.11,0,0,1,0,.09c0-.19.15-.73,0-.67.09,0,0-.42,0-.65l.07,0a.87.87,0,0,1-.07-.47c0-.06.06,0,0,0,.07-.2,0-.17,0-.41l0,.1a.45.45,0,0,0,0-.32c0-.14.08-.4.15-.42a.34.34,0,0,1,0-.28s0,0,0,.06c.11-.34,0-.54.11-.77a0,0,0,0,0,.05,0c-.05.28-.09.5-.09.48s.11-.21.17,0a2.28,2.28,0,0,1,0-.74s0,0,0,0v0a.71.71,0,0,0,0-.14,1.62,1.62,0,0,0,0-.19c.06,0,.05-.27.06-.38s0-.15-.11,0v.15h0l0,.29a.44.44,0,0,1,0-.32l-.1-.17c.11-.15.18-.44.24-.48a3.07,3.07,0,0,0-.09-1c0-.1,0-.11.07-.15s0,.13,0,.16c0-.2,0-.59-.07-.64.05-.25.07.14.08-.2l0,0c.17-.68-.19-1.11,0-1.86,0,0,0,.08,0,.09.09-.86-.09-1.76,0-2.61a.72.72,0,0,0-.1-.41l.07-.06-.11-.24c-.09-.35.13-.63-.05-1.07l0,.07c0-.16-.1-.51,0-.49a.1.1,0,0,1,0-.11h0l-.13-.38c0-.31.17,0,.1-.43-.05-.16-.2-.44-.22-.38s0,.18,0,.19l-.05-.15c-.12,0-.25-.09-.27.29l.12.24,0,.09,0-.21a.34.34,0,0,0,.07.27.21.21,0,0,0,0,.12l.15.23s-.11-.09-.11.08.09-.13.15.06-.08.1,0,.24,0,0-.07-.06c0,.12.06.33.13.39s.07.43,0,.43a1,1,0,0,1,.12.33c-.15-.2,0,.45-.11.4.13.15.09.57.17.85a.07.07,0,0,1,0-.07,1.11,1.11,0,0,1-.05.31c.09,0,.13.27.19.4s-.12-.12-.2-.05c.07,0,.09.34.15.27-.06.15,0,.13-.11.21.13,0,0,.14.11.26s-.12.06-.08.29S129.27,90.43,129.27,90.43Zm-.06,5.66h0v0Zm-.07.47,0-.2s0,0,0,.06S129.17,96.5,129.14,96.56Zm.62-1c0,.08,0,.11,0,.12v-.14h0Z" style="fill:#e9e9e9"/><path d="M129.68,95.47v0l0,0,0,0Z" style="fill:#e9e9e9"/><path d="M146.31,95.16h0s0,0,0,0Z" style="fill:#e9e9e9"/><polygon points="128.76 103.27 128.78 103.26 128.74 103.22 128.76 103.27" style="fill:#e9e9e9"/><path d="M146,97.8l0,0S146,97.81,146,97.8Z" style="fill:#e9e9e9"/><path d="M146,99v.16A1,1,0,0,0,146,99Z" style="fill:#e9e9e9"/><path d="M146.11,99.83l0,0h0Z" style="fill:#e9e9e9"/><path d="M144.35,86.75h0C144.25,86.72,144.29,86.74,144.35,86.75Z" style="fill:#e9e9e9"/><path d="M146.25,90l0-.13C146.21,90,146.21,90,146.25,90Z" style="fill:#e9e9e9"/><polygon points="140.3 87.44 140.3 87.44 140.28 87.46 140.3 87.44" style="fill:#e9e9e9"/><path d="M146.19,89.71a.37.37,0,0,0,0,.19A.62.62,0,0,0,146.19,89.71Z" style="fill:#e9e9e9"/><polygon points="147.93 103.23 147.96 103.26 147.97 103.25 147.93 103.23" style="fill:#e9e9e9"/><path d="M148,103.25l.05,0Z" style="fill:#e9e9e9"/><path d="M148.12,103.31l-.1,0S148.09,103.32,148.12,103.31Z" style="fill:#e9e9e9"/><path d="M147,102.37h0Z" style="fill:#e9e9e9"/><path d="M146.83,102.07a1.53,1.53,0,0,0,.16.31h0C147,102.35,146.91,102.12,146.83,102.07Z" style="fill:#e9e9e9"/><path d="M146.58,100.57a2.93,2.93,0,0,0,0,.29c0-.06,0-.13.08,0C146.68,100.48,146.66,100.94,146.58,100.57Z" style="fill:#e9e9e9"/><path d="M146.44,99.68c0,.15,0,0,.05,0S146.45,99.56,146.44,99.68Z" style="fill:#e9e9e9"/><path d="M146.48,93.1l.07,0C146.54,93,146.52,93.11,146.48,93.1Z" style="fill:#e9e9e9"/><polygon points="146.21 91.82 146.17 91.93 146.22 91.99 146.21 91.82" style="fill:#e9e9e9"/><polygon points="146.68 91.07 146.69 91.13 146.66 90.92 146.68 91.07" style="fill:#e9e9e9"/><path d="M139,87.86l.08,0C139.08,87.8,139,87.73,139,87.86Z" style="fill:#e9e9e9"/><path d="M136.8,92.22a.3.3,0,0,0-.12.24A1.77,1.77,0,0,0,136.8,92.22Z" style="fill:#e9e9e9"/><path d="M130,103.78h.07l-.13,0Z" style="fill:#e9e9e9"/><path d="M120.69,104.1s0,0,0-.09l-.09,0Z" style="fill:#e9e9e9"/><path d="M120.3,103.64c-.11,0-.24,0-.24.06s.13,0,.28,0,.1.1.08.12.1.09.16.08a.49.49,0,0,0-.32-.25S120.28,103.65,120.3,103.64Z" style="fill:#e9e9e9"/><path d="M117.57,96.23l0,0Z" style="fill:#e9e9e9"/><path d="M116.77,97.43a.18.18,0,0,0,0-.06S116.76,97.43,116.77,97.43Z" style="fill:#e9e9e9"/><path d="M116.23,98.12l0,0S116.23,98.1,116.23,98.12Z" style="fill:#e9e9e9"/><path d="M117.57,96.23l.05-.13S117.58,96.17,117.57,96.23Z" style="fill:#e9e9e9"/><path d="M119.3,103l.07,0-.06,0Z" style="fill:#e9e9e9"/><path d="M117.59,98.46v0l0,0Z" style="fill:#e9e9e9"/><path d="M118,100.11s-.08,0-.12,0a.1.1,0,0,1,.07.07Z" style="fill:#e9e9e9"/><path d="M119.25,102.53l0,0Z" style="fill:#e9e9e9"/><path d="M117.55,97.24h0Z" style="fill:#e9e9e9"/><path d="M116.79,86.25h0S116.8,86.26,116.79,86.25Z" style="fill:#e9e9e9"/><path d="M118.53,87.23h0a.06.06,0,0,0,0,0Z" style="fill:#e9e9e9"/><path d="M115.19,99.31h0S115.2,99.29,115.19,99.31Z" style="fill:#e9e9e9"/><path d="M103.49,101.05c0,.18-.18-.21-.15,0C103.36,101.07,103.53,101.26,103.49,101.05Z" style="fill:#e9e9e9"/><path d="M119.27,103l0,0Z" style="fill:#e9e9e9"/><path d="M103.34,101.1h0v0Z" style="fill:#e9e9e9"/><path d="M112.51,101.77h0Z" style="fill:#e9e9e9"/><path d="M114.66,100.09l-.06,0Z" style="fill:#e9e9e9"/><path d="M111.37,102.6a.18.18,0,0,0-.09,0h0A.12.12,0,0,1,111.37,102.6Z" style="fill:#e9e9e9"/><polygon points="110.04 103.23 110.07 103.23 110.11 103.21 110.04 103.23" style="fill:#e9e9e9"/><path d="M112.39,84.81a.22.22,0,0,1,.07.06C112.44,84.82,112.66,84.79,112.39,84.81Z" style="fill:#e9e9e9"/><path d="M119.33,103a.07.07,0,0,1-.06,0l0,0Z" style="fill:#e9e9e9"/><path d="M111.58,103.11l-.22.11A1.12,1.12,0,0,0,111.58,103.11Z" style="fill:#e9e9e9"/><path d="M104,91.35l0,0A.08.08,0,0,0,104,91.35Z" style="fill:#e9e9e9"/><path d="M110.71,103.55a.38.38,0,0,0-.15,0,0,0,0,0,0,0,0Z" style="fill:#e9e9e9"/><path d="M112.46,84.87Z" style="fill:#e9e9e9"/><path d="M114.14,84.85c-.24-.06-.13.06-.2.1-.28,0-.11-.1-.2-.17s-.34.06-.47,0,0,0,0,0c-.2.06-.57,0-.78.1l0,0a.17.17,0,0,1,.05.12c-.11,0-.19.08-.23,0s.06,0,.09-.05l-.11,0c-.1-.08.15,0,.14-.11a4.48,4.48,0,0,1-.61.15c-.05-.08.38-.08.15-.12h.26c-.21-.11.15,0,0-.13-.34,0-.37.09-.71.14-.06.06,0,.06,0,.13-.44.19-.42-.12-.73.09-.07.08-.07.19-.32.23l.05-.12c-.31.1-.12.19-.46.26,0-.06.22-.13.17-.12-.23,0-.12.11-.27.18l-.07-.06a11,11,0,0,0-.93.59s0-.09,0-.06c-.39.28-.86.56-1.25.81l-.09.17s-.08,0-.06,0c-.15.1,0,0,0,.12s-.13.06-.1,0a4.81,4.81,0,0,1-.85.9l0-.07c-.2.17-.1.31-.3.45l0,0c-.4.39-.72.92-1.06,1.2,0,.13-.36.43-.26.55a2.23,2.23,0,0,0-.48.49c-.07.1,0,.2-.08.33l-.07,0,0,.21-.13,0,0,.14s.09-.09.1-.07a.9.9,0,0,1-.34.43l-.17.49s0-.11,0-.18c0,.29-.09,0-.14.27,0,0,0,0,0,.05a1.46,1.46,0,0,0-.28.56l0-.06a10.62,10.62,0,0,0-.42,1.17c.08-.13.15-.07.12.05l-.1,0c0,.09.08-.11.08.06s-.12.08-.12,0l0,.2s0,0-.05-.07-.17.31-.12.44h0a9,9,0,0,0-.19,1c.06,0,0,.15.06.27a5.81,5.81,0,0,0-.19.84c0,.22,0,.07.09.17s-.08.32-.12.16a3.56,3.56,0,0,0,.05,1s0-.11.06-.08,0,.2-.06.19v0c.1.52-.07,1.26.16,1.65v0c.06.14.1.28.17.41s-.08-.1-.08,0c.25.43.2.74.43,1.07-.06.37.49,1,.68,1.37l0,0c.1.06.06.12.1.2s0-.12,0-.09a5,5,0,0,0,2.38,1.6c.35.07.24-.19.65,0l-.13.07a7.58,7.58,0,0,0,2.09-.2s0,0-.1.06a.74.74,0,0,0,.5-.16c.1,0,0,0,.1,0s.32-.18.41-.14,0,0-.05,0,.41-.13.3-.17c.25,0,.43-.2.63-.23s.41-.14.39-.26c0,.11.44-.11.55-.23,0,.05.13,0,.1,0,.16-.09.29-.19.23-.22.36,0,.51-.44.76-.39.41-.35.78-.67,1.12-1,.06.09-.4.34-.31.41a9.07,9.07,0,0,1,.82-.82c.09-.07,0,.08,0,.12a10.79,10.79,0,0,0,.89-.91s0,0,0,.08.15-.12.1-.15l0,.06c-.14,0,.1-.33.08-.37,0,.2.29-.26.29,0,0,0,.05-.11,0-.12s.09-.06.06,0c.17-.22.07-.18.23-.38,0,0,0,.06,0,.1a.89.89,0,0,1,.24-.41s0,0,0,.06c.24-.29.28-.58.56-.88,0,.16.1-.1.19-.07l.1-.2-.09,0a4,4,0,0,1,.25-.46s0,.1,0,.14a3.18,3.18,0,0,0,.16-.32l-.13.16c0-.19-.11,0,0-.25,0,.05.1-.16.19-.23h0a1,1,0,0,1,.12-.31s.08.07.11.06.17-.42.13-.56a.08.08,0,0,0,.07.06l0-.1c0-.08.07-.09.1-.06.1-.25-.14,0,0-.24,0,0,0,0,0,.07.14-.29.15-.6.26-.87.11-.06,0,.25.05.18a4.92,4.92,0,0,0,.1-.94l.16-1.28-.41,1.21a3.45,3.45,0,0,1-.14.34l0-.07c.11.1-.19.25-.19.47,0,0,0-.08,0-.07a3.82,3.82,0,0,0-.18,1l0-.06a3.87,3.87,0,0,0-.13.61s0,.15.07.1c-.26.53.06,1-.06,1.53,0-.06,0-.14,0-.09s0,.27.07.41c0,0,0-.06.06-.15a.57.57,0,0,1,.1.26c-.06-.18-.09,0-.11.1s0,0,.06,0c-.07.23.12,0,.1.31h0a2,2,0,0,1,.13.31c-.06.07-.06-.1-.12-.1,0,.17.2.29.18.45,0-.06-.06-.16-.1-.22a.52.52,0,0,0,0,.31h0l.06.28V100c.24.14.16.4.39.61-.21-.21-.08,0-.16,0s0,.19,0,.17,0,.23.21.36c0,0,.07.13,0,.13.1.14,0-.06,0-.06.19.2.21.61.53.87s.34.24.56.45c0,.11-.12,0-.12,0a.83.83,0,0,0,.29.35s0,0,0,.08.13,0,.22.14a.32.32,0,0,1-.16,0,3.73,3.73,0,0,0,.39.25c0,.06-.12,0-.18,0,.15.11.37.27.45.26l-.07-.09c.05,0,0,.06,0,0s-.15-.16-.14-.18l.09.06c0-.17-.34-.28-.48-.45h.14l-.22-.1s0-.12.09,0c-.06-.15-.12-.07-.16-.22s0,0,0,0l-.12-.1s0-.07.08,0c-.11-.25-.33-.29-.33-.42h0c-.23-.29-.08,0-.31-.17l0-.26h-.08s-.06-.1,0-.1c-.12-.1,0,0-.1,0s-.28-.45-.19-.54c-.08,0,0,.18-.09,0,.1-.11-.11-.2-.12-.39.08,0,.11.19.1,0s-.12-.31-.18-.44-.13-.29-.23-.51c0,0-.07-.45-.08-.68h0c-.09,0-.11-.26-.16-.43.06,0,.08,0,.12.12l0-.16s-.06-.08-.08-.18l.07,0a2.67,2.67,0,0,1-.09-.68c-.06,0-.17.22-.22-.07,0,0,.1,0,.11.05s0-.09,0-.14l.06.12c0-.13,0-.07,0-.17s0-.07.07-.06,0,.09,0,.13a.63.63,0,0,1,.08-.29s-.07,0-.07-.08,0-.07.09-.19,0-.18,0-.19,0-.07.06-.09,0-.51,0-.4v0h0a4.23,4.23,0,0,1,.27-1.06h0c0-.22.15-.45.16-.61s.09-.12.11-.08l0-.08-.24-.07a.67.67,0,0,1-.06.33c0-.16,0,.05,0-.16a.9.9,0,0,0-.08.47c0-.09-.11.13-.12.23l.08-.13a2.63,2.63,0,0,1-.08.3l-.07-.08c-.2.38-.08.79-.36,1,0,.12.13-.2.15-.08a2.4,2.4,0,0,1-.31.37c-.15.22,0,.28-.16.51,0,0,.13,0,0,.19s-.23.15-.19,0,0,0,0,0,0-.14,0-.09l0,0c-.07.07-.21.31-.22.23,0,.14,0,.08.08,0-.17.19-.21.33-.38.54,0,0,.09,0,.07,0-.25.3,0,.17-.2.39s0-.1-.17.13-.09,0-.07-.08c-.09.23-.3.32-.39.42l.06-.11a1.11,1.11,0,0,1-.12.16h.09s-.09.09-.11.08.12,0,.06.17-.17.25-.25.22c.23-.21-.08,0,.08-.23a.69.69,0,0,1-.12.14s0,0,0,0c-.25.17,0,.16-.23.38,0,0-.11,0-.14,0s.1,0,.05.12-.14.17-.21.24l.09-.07c0,.06-.07.12-.15.23s.07-.11,0-.08-.3.19-.42.36-.06,0-.14,0c-.14.2-.23.13-.38.33.09,0,.09,0,0,.14l.28-.31-.14.24c.1-.08.17-.2.24-.24-.06.12-.07.1,0,.1-.19,0-.21.27-.41.34l-.09-.11c-.27.13-.35.39-.69.58l.12,0c0,.08-.19.15-.28.24s-.09,0-.15,0-.23.16-.21.26l-.17,0c-.28.14-.22.31-.49.44,0-.09-.09-.05.06-.18-.08,0-.16.08-.15.11s-.2.2-.31.2,0,.1-.11.14,0,0,0,0-.14.11,0,.11c-.34,0-.77.39-1.07.36a6.48,6.48,0,0,1-.63.26s0,0,0,0c-.26,0-.11.19-.43.22s.15-.09,0-.09c-.08-.15-.36.12-.58.06l0,0c-.16,0-.37.13-.62.15,0,0,0,0,0,0a1.89,1.89,0,0,1-.75.16c.07-.06.11,0,.06-.1s0,.11-.19.12-.23-.08-.24-.15h.2c-.09-.1-.26,0-.37-.05l0,0c-.3,0-.34.08-.66,0l0,0c-.21,0-.14-.1-.34-.09v-.11a3.06,3.06,0,0,1-.63-.19,4.45,4.45,0,0,1,.55.11,1.36,1.36,0,0,0-.45-.16s.11,0,.15.06a1,1,0,0,1-.56-.23c.14-.1-.45-.45-.45-.68a3.34,3.34,0,0,1-.7-1.11c-.07.22-.07-.14-.19,0a.52.52,0,0,1-.07-.16l0-.36c0-.09.07.09.1.06-.09-.23,0-.12,0-.29-.05,0-.1-.06-.13-.2v.22c-.19-.32,0-.33-.15-.65l.07.09c-.08-.17-.14-.66-.3-.81,0,0,0-.09.07,0a4.91,4.91,0,0,1-.17-1.31l0,0c0-.08-.08-.14,0-.24s0,0,0,0a.65.65,0,0,1,0-.33l0,.1a8.64,8.64,0,0,0,0-1c.11,0,.19-.31.24-.48h0c.12-.49.09-.85.19-1.32.19-.25.34-.93.59-1.33,0,0-.07,0,0-.13s0-.31.13-.25l0,0c.12,0,.2-.25.28-.41l-.11-.08c.36-.34.49-1.12.77-1.25,0-.11.11-.23.14-.34l0,0c.18-.26.27-.38.47-.7v.09c.13-.17,0-.34.1-.51l.12,0a6.43,6.43,0,0,0,.7-.88s0,0,0,.09c.12-.14.5-.47.36-.51.07.06.27-.27.39-.45l0,.07a.73.73,0,0,1,.21-.38c.05,0,.08,0,0,0,.16-.1.07-.15.26-.27l0,.09a.46.46,0,0,0,.17-.24c.07-.1.3-.22.36-.19a.28.28,0,0,1,.16-.2s0,0,0,.06c.29-.15.35-.35.58-.41,0,0,0,0,0,0l-.37.24s.21,0,.13.11a1.48,1.48,0,0,1,.47-.46h0l0,0a.31.31,0,0,0,.11-.08l.15-.06s.22-.09.32-.13.08-.11-.06-.11c0,0,0,0-.07,0l0,0h0l-.23.13a.38.38,0,0,1,.24-.16,1.38,1.38,0,0,1,.08-.17c.17,0,.44,0,.5,0a3.86,3.86,0,0,0,.82-.47c.09-.05.11,0,.15,0l-.12.07c.16-.08.5-.15.53-.24.23,0-.11.11.19,0l0,0c.61,0,1-.38,1.65-.14l-.07,0a4.66,4.66,0,0,1,2.17.83c.18.14.23.1.37.13v.09l.24,0c.32.11.4.46.84.55l0-.07c.13.08.45.17.4.22a.11.11,0,0,1,.12,0v0l.37.06c.28.1-.09.14.33.26.17,0,.48-.05.42-.08s-.16,0-.15-.09h.14c0-.11.14-.21-.16-.34l-.23,0-.06-.07.18,0a.28.28,0,0,0-.25,0,.13.13,0,0,0-.07-.08,1.9,1.9,0,0,1-.25,0c0-.05.13-.05,0-.12s.06.13-.12.1,0-.12-.17-.13,0,0,.08,0c-.12,0-.29-.11-.37-.09s-.36-.17-.29-.26a.62.62,0,0,1-.32-.08c.24,0-.35-.21-.24-.31-.19,0-.49-.24-.76-.31h.07a1.22,1.22,0,0,1-.23-.2c-.06.08-.29,0-.43,0-.14-.16.15-.06.14-.16,0,.07-.35-.06-.31,0-.11-.11-.1-.08-.15-.18-.06.1-.14,0-.28,0-.18-.13,0-.14-.26-.16S114.14,84.85,114.14,84.85Zm-5.26,1.27h0l.09-.06Zm-.38.25.17-.11s0,0,0,.07S108.57,86.35,108.5,86.37Zm1-.07s-.08,0-.09,0l.1-.06h0A.06.06,0,0,1,109.55,86.3Z" style="fill:#e9e9e9"/><path d="M109.62,86.16h0v0Z" style="fill:#e9e9e9"/><path d="M117.54,96.29h0s0,0,0,0Z" style="fill:#e9e9e9"/><polygon points="104.24 90.89 104.26 90.9 104.27 90.86 104.24 90.89" style="fill:#e9e9e9"/><path d="M117.31,98.74a0,0,0,0,0,0,0A0,0,0,0,0,117.31,98.74Z" style="fill:#e9e9e9"/><path d="M117.53,99.79l0,.16A1.57,1.57,0,0,0,117.53,99.79Z" style="fill:#e9e9e9"/><path d="M117.78,100.59h0Z" style="fill:#e9e9e9"/><path d="M115,100.38l0,0C115,100.47,115,100.43,115,100.38Z" style="fill:#e9e9e9"/><path d="M117.22,97.15a.28.28,0,0,1,0,.13C117.23,97.22,117.26,97.17,117.22,97.15Z" style="fill:#e9e9e9"/><polygon points="111.6 103.1 111.6 103.1 111.58 103.11 111.6 103.1" style="fill:#e9e9e9"/><path d="M117.1,97.44a.38.38,0,0,0,.09-.16A.83.83,0,0,0,117.1,97.44Z" style="fill:#e9e9e9"/><polygon points="119.84 103.53 119.86 103.56 119.88 103.55 119.84 103.53" style="fill:#e9e9e9"/><path d="M119.88,103.55l0,0Z" style="fill:#e9e9e9"/><path d="M120,103.62l-.08,0S120,103.63,120,103.62Z" style="fill:#e9e9e9"/><path d="M119.07,102.73h0Z" style="fill:#e9e9e9"/><path d="M118.86,102.47a1.35,1.35,0,0,0,.16.27h0C119,102.72,118.94,102.5,118.86,102.47Z" style="fill:#e9e9e9"/><path d="M118.38,101.14l.11.25s0-.12.07,0C118.47,101,118.54,101.46,118.38,101.14Z" style="fill:#e9e9e9"/><path d="M118.06,100.37c.07.13,0,0,.06,0S118,100.26,118.06,100.37Z" style="fill:#e9e9e9"/><path d="M118.15,94.51l0,0v0l-.42-.12s0,0,0,0l.36.1Z" style="fill:#e9e9e9"/><polygon points="117.93 95.61 118 95.51 117.95 95.44 117.93 95.61" style="fill:#e9e9e9"/><polygon points="117.27 96.11 117.28 96.06 117.24 96.24 117.27 96.11" style="fill:#e9e9e9"/><path d="M110.25,103.07l.06.06C110.38,103.09,110.36,103,110.25,103.07Z" style="fill:#e9e9e9"/><path d="M106.06,103.63a.27.27,0,0,0-.22-.1A1,1,0,0,0,106.06,103.63Z" style="fill:#e9e9e9"/><polygon points="104.24 92.23 104.23 92.32 104.28 92.16 104.24 92.23" style="fill:#e9e9e9"/><polygon points="63.02 33.81 93.52 32.94 93.52 35.19 63.02 36.06 63.02 33.81" style="fill:#e6e6e6"/><polygon points="56.1 39.48 99.92 36.98 99.92 39.23 56.1 41.73 56.1 39.48" style="fill:#e6e6e6"/><polygon points="44.6 44.94 118.11 40.38 118.11 42.63 44.6 47.19 44.6 44.94" style="fill:#e6e6e6"/><polygon points="23.97 51.39 139.56 53.4 139.56 55.65 23.97 53.64 23.97 51.39" style="fill:#e6e6e6"/><polygon points="66.12 48 141.44 46.75 141.44 49 66.12 50.25 66.12 48" style="fill:#e6e6e6"/><polygon points="44.09 57.42 125.66 58.04 125.66 60.29 44.09 59.67 44.09 57.42" style="fill:#e6e6e6"/><polygon points="67.72 62.19 121.79 62.48 121.79 64.73 67.72 64.44 67.72 62.19" style="fill:#e6e6e6"/><polyline points="61.38 72 122.43 66.87 122.43 69.12 61.38 74.25" style="fill:#e6e6e6"/><polyline points="66.39 77.15 117.18 71.54 117.18 73.79 66.39 79.4" style="fill:#e6e6e6"/><path d="M99.92,36.05A2.06,2.06,0,1,0,102,38.11,2.06,2.06,0,0,0,99.92,36.05Z" style="fill:#e6e6e6;fill-rule:evenodd"/><path d="M56.1,38.46a2.06,2.06,0,1,0,2.06,2A2.06,2.06,0,0,0,56.1,38.46Z" style="fill:#e6e6e6;fill-rule:evenodd"/><path d="M94.16,32A2.06,2.06,0,1,0,96.22,34,2.06,2.06,0,0,0,94.16,32Z" style="fill:#e6e6e6;fill-rule:evenodd"/><circle cx="63.3" cy="34.99" r="2.06" style="fill:#e6e6e6"/><circle cx="44.85" cy="46.1" r="2.06" style="fill:#e6e6e6"/><circle cx="118.11" cy="41.51" r="2.06" style="fill:#fff"/><path d="M66.56,47a2.06,2.06,0,1,0,2,2.11A2.06,2.06,0,0,0,66.56,47Z" style="fill:#e6e6e6;fill-rule:evenodd"/><path d="M141.49,45.82a2.06,2.06,0,1,0,2,2.11A2.06,2.06,0,0,0,141.49,45.82Z" style="fill:#e6e6e6;fill-rule:evenodd"/><path d="M139.56,52.47a2.06,2.06,0,1,0,2.05,2.06A2.06,2.06,0,0,0,139.56,52.47Z" style="fill:#e6e6e6;fill-rule:evenodd"/><path d="M23.85,50.41a2.06,2.06,0,1,0,2,2.06A2.06,2.06,0,0,0,23.85,50.41Z" style="fill:#e6e6e6;fill-rule:evenodd"/><path d="M61.15,71.15a2.06,2.06,0,1,0,2.06,2.06A2.06,2.06,0,0,0,61.15,71.15Z" style="fill:#e6e6e6;fill-rule:evenodd"/><path d="M66.39,76.33a2.06,2.06,0,1,0,2.06,2.06A2.06,2.06,0,0,0,66.39,76.33Z" style="fill:#e6e6e6;fill-rule:evenodd"/><path d="M117.18,70.6a2.07,2.07,0,1,0,2.06,2.06A2.07,2.07,0,0,0,117.18,70.6Z" style="fill:#e6e6e6;fill-rule:evenodd"/><path d="M122.43,65.94A2.06,2.06,0,1,0,124.49,68,2.05,2.05,0,0,0,122.43,65.94Z" style="fill:#fff;fill-rule:evenodd"/><circle cx="121.79" cy="63.63" r="2.06" style="fill:#fff"/><path d="M93.25,75.71h-2a.54.54,0,0,0-.54.53L88,105.18a.53.53,0,0,0,.53.53h4.69a.54.54,0,0,0,.54-.53V76.24A.54.54,0,0,0,93.25,75.71Z" style="fill:#e6e6e6;fill-rule:evenodd"/><path d="M44.09,56.5a2.06,2.06,0,1,0,2.06,2.06A2.06,2.06,0,0,0,44.09,56.5Z" style="fill:#e6e6e6;fill-rule:evenodd"/><path d="M125.66,57.11a2.06,2.06,0,1,0,2.06,2.06A2.05,2.05,0,0,0,125.66,57.11Z" style="fill:#fff;fill-rule:evenodd"/><path d="M67.72,61.16a2.06,2.06,0,1,0,2.06,2.06A2.06,2.06,0,0,0,67.72,61.16Z" style="fill:#e6e6e6;fill-rule:evenodd"/></svg>