<svg xmlns="http://www.w3.org/2000/svg" viewBox="0 0 157.93 90.53"><defs><style>.a,.b{fill:#fff;}.b{fill-rule:evenodd;}</style></defs><title>logo-g</title><polygon class="a" points="41.23 1.84 71.73 0.96 71.73 3.21 41.23 4.09 41.23 1.84"/><polygon class="a" points="34.31 7.51 78.14 5.01 78.14 7.26 34.31 9.76 34.31 7.51"/><polygon class="a" points="22.81 12.97 96.32 8.41 96.32 10.66 22.81 15.22 22.81 12.97"/><polygon class="a" points="2.18 19.42 117.77 21.43 117.77 23.68 2.18 21.67 2.18 19.42"/><polygon class="a" points="44.33 16.03 119.65 14.78 119.65 17.03 44.33 18.28 44.33 16.03"/><polygon class="a" points="22.3 25.45 103.88 26.07 103.88 28.32 22.3 27.7 22.3 25.45"/><polygon class="a" points="45.93 30.22 100 30.5 100 32.76 45.93 32.47 45.93 30.22"/><polyline class="a" points="39.59 40.03 100.65 34.9 100.65 37.15 39.59 42.28"/><polyline class="a" points="44.61 45.18 95.39 39.57 95.39 41.82 44.61 47.43"/><ellipse class="a" cx="78.13" cy="6.14" rx="2.06" ry="2.06"/><path class="b" d="M34.31,6.48a2.06,2.06,0,1,0,2.06,2.06A2.05,2.05,0,0,0,34.31,6.48Z"/><circle class="a" cx="72.37" cy="2.06" r="2.06"/><path class="b" d="M41.51,1A2.06,2.06,0,1,0,43.57,3,2.05,2.05,0,0,0,41.51,1Z"/><path class="b" d="M23.06,12.07a2.06,2.06,0,1,0,2.06,2.06A2.06,2.06,0,0,0,23.06,12.07Z"/><path class="b" d="M96.32,7.48a2.06,2.06,0,1,0,2.06,2A2.05,2.05,0,0,0,96.32,7.48Z"/><path class="b" d="M44.77,15a2.06,2.06,0,1,0,2,2.11A2.06,2.06,0,0,0,44.77,15Z"/><path class="b" d="M119.7,13.84a2.06,2.06,0,1,0,2,2.12A2.07,2.07,0,0,0,119.7,13.84Z"/><path class="b" d="M117.77,20.5a2.06,2.06,0,1,0,2.06,2.06A2.06,2.06,0,0,0,117.77,20.5Z"/><path class="b" d="M2.06,18.44A2.06,2.06,0,1,0,4.12,20.5,2.06,2.06,0,0,0,2.06,18.44Z"/><path class="b" d="M39.36,39.18a2.06,2.06,0,1,0,2.06,2.06A2.06,2.06,0,0,0,39.36,39.18Z"/><path class="b" d="M44.61,44.36a2.06,2.06,0,1,0,2.06,2.06A2.06,2.06,0,0,0,44.61,44.36Z"/><circle class="a" cx="95.39" cy="40.69" r="2.06"/><path class="b" d="M100.65,34a2.07,2.07,0,1,0,2,2.06A2.06,2.06,0,0,0,100.65,34Z"/><path class="b" d="M100,29.6a2.06,2.06,0,1,0,2.06,2.06A2.06,2.06,0,0,0,100,29.6Z"/><path class="b" d="M71.46,43.74h-2a.53.53,0,0,0-.54.53L66.24,73.21a.54.54,0,0,0,.54.53h4.68a.54.54,0,0,0,.54-.53V44.27A.53.53,0,0,0,71.46,43.74Z"/><circle class="a" cx="22.3" cy="26.58" r="2.06"/><path class="b" d="M103.88,25.14a2.06,2.06,0,1,0,2.05,2.06A2.06,2.06,0,0,0,103.88,25.14Z"/><path class="b" d="M45.93,29.19A2.06,2.06,0,1,0,48,31.25,2.06,2.06,0,0,0,45.93,29.19Z"/><path class="a" d="M99.23,69.05a7.5,7.5,0,0,1-1.14-2.3,14.39,14.39,0,0,1-.61-3.07c-.09-1-.15-1.84-.18-2.41a1.74,1.74,0,0,0-.52-1.12,1.46,1.46,0,0,0-1.1-.49,1.75,1.75,0,0,0-1.75,1.48,14,14,0,0,1-1.1,4A12,12,0,0,1,91.08,68a6.76,6.76,0,0,1-2,1.66,4.2,4.2,0,0,1-1.86.54,3.67,3.67,0,0,1-1.89-.45,3.48,3.48,0,0,1-1.21-1.17A4.81,4.81,0,0,1,83.47,67a8.54,8.54,0,0,1-.18-1.73,11.8,11.8,0,0,1,.87-4.74,11,11,0,0,1,2.18-3.32,8.31,8.31,0,0,1,2.88-2,7.92,7.92,0,0,1,3-.63,6.14,6.14,0,0,1,1.68.2,6.27,6.27,0,0,1,1.28.47,4.84,4.84,0,0,1,.86.52,4.57,4.57,0,0,1,.4.33,1.65,1.65,0,0,0,1.21.5,1.55,1.55,0,0,0,1.17-.52,1.67,1.67,0,0,0,.5-1.19,1.86,1.86,0,0,0-.5-1.21l-.49-.43A8.15,8.15,0,0,0,97,52.47a12,12,0,0,0-2-.83,8.33,8.33,0,0,0-2.56-.38,11.39,11.39,0,0,0-4.29.9,12.4,12.4,0,0,0-4.06,2.69,14.21,14.21,0,0,0-3,4.47,14.93,14.93,0,0,0-1.2,6.17,9.92,9.92,0,0,0,.52,3.24,8,8,0,0,0,1.46,2.58A6.59,6.59,0,0,0,84.14,73a7.11,7.11,0,0,0,7.23-.9A13.13,13.13,0,0,0,95,68.05a9.68,9.68,0,0,0,2.58,4.18,6.15,6.15,0,0,0,.66.51,5,5,0,0,1,1.48-2.85A5,5,0,0,1,99.23,69.05Z"/><path class="a" d="M99.45,69.22c-.34-.5-.66-1-1-1.6,0-.08-.11-.15-.16-.24a4.38,4.38,0,0,1-3.09,1.33c.09.16.17.34.26.49.57,1,1.09,1.85,1.57,2.55L98,73.14a1.62,1.62,0,0,0,.48.43,1.8,1.8,0,0,0,1.27.18,1.53,1.53,0,0,0,1.1-.79,1.78,1.78,0,0,0,.22-.93,1.69,1.69,0,0,0-.34-1Q100.17,70.3,99.45,69.22Z"/><path class="a" d="M108.76,54.68a1.54,1.54,0,0,1,.5.08c-.07-.64-.15-1.29-.26-2a1.67,1.67,0,0,0-.23-.64,1.75,1.75,0,0,0-1-.79,1.52,1.52,0,0,0-1.31.19,1.77,1.77,0,0,0-.66.72,1.71,1.71,0,0,0-.18,1q.15,1,.27,1.89l.19-.15a1.35,1.35,0,0,1,1.65.11A1.37,1.37,0,0,1,108.76,54.68Z"/><path class="a" d="M125.18,72.66l1.29,1a1.51,1.51,0,0,0,.58.26,1.8,1.8,0,0,0,1.26-.21,1.54,1.54,0,0,0,.81-1.1,1.63,1.63,0,0,0-.07-1,1.76,1.76,0,0,0-.61-.8c-.33-.23-.71-.51-1.12-.83C126.52,70.83,126,71.86,125.18,72.66Z"/><path class="a" d="M128.12,70.52a1.07,1.07,0,0,1-.37-.33.92.92,0,0,1-.3-.14,2.7,2.7,0,0,1-.9-1.16,6.44,6.44,0,0,1-.43-1.73,19.6,19.6,0,0,1-.11-2.07c0-.57,0-1.17.07-1.82s.09-1.28.13-1.91.09-1.22.14-1.77.06-1,.06-1.42A7.52,7.52,0,0,0,125.29,54a3.86,3.86,0,0,0-3.46-1.7,5.4,5.4,0,0,0-2.49.69,9.06,9.06,0,0,0-2.63,2.27c-.87,1.08-1.7,2.22-2.49,3.41S112.67,61,112,62.24s-1.39,2.41-2,3.59-1.18,2.27-1.66,3.26c.09-.87.19-2,.29-3.24s.22-2.58.34-3.88.22-2.52.29-3.66.11-2,.11-2.52a10.89,10.89,0,0,0-.14-1.72,1.28,1.28,0,0,1-.66-.39,1.53,1.53,0,0,1-.66.15,1.48,1.48,0,0,1-.57-.11,1.43,1.43,0,0,1-.64.21,1.26,1.26,0,0,1-.82.49l0,.3c.06.69.09,1.4.09,2.15,0,.57,0,1.28-.09,2.11s-.13,1.75-.22,2.72-.18,1.95-.27,2.94-.18,1.91-.27,2.76-.16,1.59-.22,2.2-.09,1-.09,1.24a3,3,0,0,0,.78,2.22,2.81,2.81,0,0,0,2.09.79,3.13,3.13,0,0,0,1.84-.65,6.73,6.73,0,0,0,1.8-2.54q.45-1,1.23-2.49c.53-1,1.1-2.06,1.71-3.17s1.27-2.22,2-3.35,1.39-2.13,2.06-3a16.12,16.12,0,0,1,1.93-2.17,2.63,2.63,0,0,1,1.64-.84,1.23,1.23,0,0,1,.81.52,3.09,3.09,0,0,1,.45,1.95c0,.57,0,1.17-.07,1.8s-.1,1.26-.18,1.89-.13,1.23-.18,1.79-.06,1.08-.06,1.53a20.3,20.3,0,0,0,.24,3.12,8.55,8.55,0,0,0,1,2.83,5.77,5.77,0,0,0,2,2.07,4.62,4.62,0,0,0,.87.4,1.37,1.37,0,0,1,.87-1,12.91,12.91,0,0,1,.8-1.78A1.64,1.64,0,0,1,128.12,70.52Z"/><path class="a" d="M136.6,68.19A7,7,0,0,0,139,70.28a8.46,8.46,0,0,0,7.63-.27,13.28,13.28,0,0,0,3.28-2.76,22.13,22.13,0,0,0,2.65-3.82q1.17-2.11,2.11-4.22a1.6,1.6,0,0,1,.63-.74,1.65,1.65,0,0,1,.9-.25,1.54,1.54,0,0,1,1.23.54,1.72,1.72,0,0,1,.47,1.17,1.43,1.43,0,0,1,0,.38c0,.1-.08.21-.13.33A32.67,32.67,0,0,1,151,70.93a12.16,12.16,0,0,1-8.29,3.55A10.51,10.51,0,0,1,134,70.37,12.51,12.51,0,0,1,132,66.26a16.19,16.19,0,0,1-.68-4.58,15.17,15.17,0,0,1,.56-4.22,10.87,10.87,0,0,1,1.62-3.37A7.7,7.7,0,0,1,136,51.84a6.49,6.49,0,0,1,3.21-.81,5.26,5.26,0,0,1,2,.43,5.85,5.85,0,0,1,3.12,3.12,6.29,6.29,0,0,1,.5,2.56,9.45,9.45,0,0,1-.63,3.46,11.76,11.76,0,0,1-1.73,3,14.88,14.88,0,0,1-2.63,2.56A19.26,19.26,0,0,1,136.6,68.19Zm-1.34-2.92a11,11,0,0,0,2.53-1.48,10.48,10.48,0,0,0,2-2A9,9,0,0,0,141,59.54a6.71,6.71,0,0,0,.45-2.4,2.8,2.8,0,0,0-.67-2,2.1,2.1,0,0,0-1.57-.7,3.24,3.24,0,0,0-2.07.68,5,5,0,0,0-1.39,1.75,9.27,9.27,0,0,0-.79,2.4,14.7,14.7,0,0,0-.24,2.63,10.3,10.3,0,0,0,.15,1.7A16.52,16.52,0,0,0,135.26,65.27Z"/><path class="a" d="M85.71,90.33v-11h2.9A6.34,6.34,0,0,1,93,80.69a5.14,5.14,0,0,1,1.5,4,5.44,5.44,0,0,1-1.61,4.08,6.1,6.1,0,0,1-4.45,1.57Zm.8-10.3v9.61h1.81a5.63,5.63,0,0,0,4-1.27,4.73,4.73,0,0,0,1.39-3.66q0-4.68-5.18-4.68Z"/><path class="a" d="M98.1,90.33v-11h5.41V80H98.9v4.41h4.28v.69H98.9v4.51h4.88v.69Z"/><path class="a" d="M107.25,89.94v-.87a4.76,4.76,0,0,0,2.52.76,3.35,3.35,0,0,0,2.06-.54,1.75,1.75,0,0,0,.7-1.49,1.93,1.93,0,0,0-.47-1.35,9.76,9.76,0,0,0-2-1.37,7.22,7.22,0,0,1-2.23-1.63,2.53,2.53,0,0,1-.47-1.51,2.5,2.5,0,0,1,1-2,3.78,3.78,0,0,1,2.54-.82,7.1,7.1,0,0,1,2.07.33v.8a5.46,5.46,0,0,0-2.17-.43,2.84,2.84,0,0,0-1.87.56,1.8,1.8,0,0,0-.7,1.45,1.85,1.85,0,0,0,.48,1.34,9.41,9.41,0,0,0,2,1.36,7.3,7.3,0,0,1,2.16,1.55,2.43,2.43,0,0,1,.54,1.56,2.59,2.59,0,0,1-.93,2.07,3.9,3.9,0,0,1-2.61.8,6.23,6.23,0,0,1-1.38-.18A4.37,4.37,0,0,1,107.25,89.94Z"/><path class="a" d="M117.08,90.33v-11h.8v11Z"/><path class="a" d="M130.47,89.57a7.75,7.75,0,0,1-3.69,1A5,5,0,0,1,123,89a5.54,5.54,0,0,1-1.46-4,5.83,5.83,0,0,1,1.57-4.17,5.49,5.49,0,0,1,4.21-1.68,7.83,7.83,0,0,1,3,.59v.83a7.39,7.39,0,0,0-3.08-.72,4.57,4.57,0,0,0-3.52,1.42,5.74,5.74,0,0,0-.08,7.25,4.4,4.4,0,0,0,3.36,1.32,5.65,5.65,0,0,0,2.75-.65V85.55h-2.73v-.69h3.53Z"/><path class="a" d="M142.58,90.33l-6.9-8.89a4.33,4.33,0,0,1-.37-.54l-.11-.15h0c0,.13,0,.29,0,.48v9.1h-.8v-11H135l6.85,8.82c.15.19.31.43.49.7h0c0-.36,0-.66,0-.92v-8.6h.8v11Z"/></svg>