<?xml version="1.0" standalone="no"?><!DOCTYPE svg PUBLIC "-//W3C//DTD SVG 1.1//EN" "http://www.w3.org/Graphics/SVG/1.1/DTD/svg11.dtd" ><svg xmlns="http://www.w3.org/2000/svg"><metadata></metadata><defs><font id="1.000;CDK ;Mali-SemiBold" horiz-adv-x="1547"><font-face font-family="Mali SemiBold" font-weight="600" font-stretch="normal" units-per-em="1000" panose-1="0 0 7 0 0 0 0 0 0 0" ascent="1050" descent="-250" x-height="0" bbox="-80 -264 1507 949" underline-thickness="50" underline-position="-75" unicode-range="U+0020-2019" /><missing-glyph horiz-adv-x="522" d="M419 10 q-107 0 -138 1 l-61 0 l-137 -1 q-12 0 -16 4.5 q-4 4.5 -4 17.5 l0 327 q0 54 1 108.5 q1 54.5 2 96.5 l2 125 q0 15 9 24 q9 9 26 9 l95 -1 q20 -1 62 -1 l95 1 q23 1 63 1 q13 0 20 -7.5 q7 -7.5 7 -21.5 l-5 -329 l0 -122 l0 -208 q0 -13 -4 -18.5 q-4 -5.5 -17 -5.5 ZM384 296 l0 68 l3 299 l-131 0 l-34 0 q-21 1 -91 1 q-8 0 -8 -9 q0 -5 -1.5 -102 q-1.5 -97 -1.5 -230 q0 -230 1 -255 l122 1 q47 -1 95 -1 q16 -1 47 -1 l-1 229 Z" /><glyph glyph-name="space" unicode=" " d="" /><glyph glyph-name="A" unicode="a" d="M626 57 q3 -9 3 -16 q0 -25 -20.5 -38.5 q-20.5 -13.5 -48.5 -13.5 q-22 0 -38 9 q-16 9 -21 27 l-38 138 l-231 1 q-7 -24 -13.5 -45.5 q-6.5 -21.5 -11.5 -39.5 l-15 -51 q-6 -19 -21.5 -28.5 q-15.5 -9.5 -36.5 -9.5 q-28 0 -48.5 14 q-20.5 14 -20.5 37 q0 5 2 17 q0 0 142 426 l35 107 q21 65 46 93 q25 28 65 28 q39 0 62 -25 q23 -25 43 -87 q43 -130 101 -327 l28 0 q21 0 33 -14 q12 -14 12 -41 q0 -56 -35 -56 l-5 0 l32 -105 ZM432 275 q-30 112 -52 186 q-2 7 -4 12 q-2 5 -3 10 q-8 28 -13 41 q-5 13 -10 13 q-5 0 -10 -13 q-5 -13 -10 -32 q-5 -20 -7 -26 l-57 -190 l166 -1 Z" /><glyph glyph-name="B" unicode="b" d="M54 58 q0 22 10 39 q10 17 32 16 l11 0 q11 116 11 270 l-1 183 q-6 -2 -7 -2 q-14 -3 -24.5 9 q-10.5 12 -10.5 30 q0 24 14.5 39.5 q14.5 15.5 47.5 29.5 q43 18 91.5 27 q48.5 9 94.5 9 q81 0 145 -23.5 q64 -23.5 100 -67.5 q36 -44 36 -105 q0 -56 -40.5 -102.5 q-40.5 -46.5 -115.5 -60.5 q74 -17 110.5 -59.5 q36.5 -42.5 36.5 -96.5 q0 -63 -34.5 -107 q-34.5 -44 -93 -66.5 q-58.5 -22.5 -130.5 -22.5 q-36 0 -82 2 l-39 2 q-15 -31 -60 -31 q-42 0 -55 34 l-8 1 q-20 0 -29.5 15 q-9.5 15 -9.5 38 ZM226 105 q45 -3 92 -3 q156 0 156 98 q0 99 -147 103 q-34 1 -49.5 10 q-15.5 9 -15.5 39 q0 28 16.5 39 q16.5 11 46.5 11 q66 2 112 21 q46 19 46 81 q0 49 -42 75.5 q-42 26.5 -121 26.5 q-41 0 -82 -11 q2 -82 2 -211 q0 -72 -3 -129.5 q-3 -57.5 -11 -149.5 Z" /><glyph glyph-name="C" unicode="c" d="M637 309 q30 0 47 -15.5 q17 -15.5 17 -43.5 q0 -71 -39 -129 q-39 -58 -109 -91.5 q-70 -33.5 -158 -33.5 q-99 0 -177.5 40 q-78.5 40 -123 116.5 q-44.5 76.5 -44.5 180.5 q0 107 43 194 q43 87 116 137 q73 50 160 50 q117 0 181 -64 l0 18 q0 18 16 30.5 q16 12.5 42 12.5 q28 0 44 -14 q16 -14 16 -41 l-1 -102 q-1 -36 -15 -54.5 q-14 -18.5 -45 -18.5 q-34 0 -50 22 q-35 49 -70 74.5 q-35 25.5 -92 25.5 q-57 0 -108.5 -36 q-51.5 -36 -83 -98 q-31.5 -62 -31.5 -136 q0 -69 31 -120.5 q31 -51.5 82.5 -78.5 q51.5 -27 111.5 -27 q46 0 87 17 q41 17 66.5 49.5 q25.5 32.5 25.5 77.5 q0 26 16 42 q16 16 45 16 Z" /><glyph glyph-name="Ccedilla" unicode="ç" d="M701 250 q0 -69 -37.5 -126.5 q-37.5 -57.5 -104 -91.5 q-66.5 -34 -151.5 -36 l-35 -52 q84 -18 84 -76 q0 -43 -33 -69 q-33 -26 -93 -26 q-41 0 -76 15 q-15 6 -22.5 13.5 q-7.5 7.5 -7.5 19.5 q0 18 10 26.5 q10 8.5 26 8.5 q11 0 21 -3 q37 -11 53 -11 q24 0 35.5 6 q11.5 6 11.5 19 q0 12 -14 18 q-14 6 -47 11 q-18 3 -28 13.5 q-10 10.5 -10 24.5 q0 4 2 14 l35 54 q-80 14 -141 57.5 q-61 43.5 -95 113.5 q-34 70 -34 160 q0 107 43 194 q43 87 116 137 q73 50 160 50 q117 0 181 -64 l0 18 q0 18 16 30.5 q16 12.5 42 12.5 q28 0 44 -14 q16 -14 16 -41 l-1 -102 q-1 -36 -15 -54.5 q-14 -18.5 -45 -18.5 q-34 0 -50 22 q-35 49 -70 74.5 q-35 25.5 -92 25.5 q-57 0 -108.5 -36 q-51.5 -36 -83 -98 q-31.5 -62 -31.5 -136 q0 -69 31 -120.5 q31 -51.5 82.5 -78.5 q51.5 -27 111.5 -27 q46 0 87 17 q41 17 66.5 49.5 q25.5 32.5 25.5 77.5 q0 26 16 42 q16 16 45 16 q30 0 47 -15.5 q17 -15.5 17 -43.5 Z" /><glyph glyph-name="D" unicode="d" d="M237 697 q201 -17 310 -100.5 q109 -83.5 109 -234.5 q0 -107 -54.5 -187.5 q-54.5 -80.5 -156 -124.5 q-101.5 -44 -236.5 -44 l-67 0 q-36 0 -52.5 12.5 q-16.5 12.5 -16.5 42.5 q0 53 48 53 l18 0 l-13 479 l-6 0 q-22 0 -35 12.5 q-13 12.5 -13 39.5 q0 30 14.5 43.5 q14.5 13.5 37.5 13.5 l12 0 q14 17 49 17 q38 0 52 -22 ZM261 116 q78 7 139.5 38 q61.5 31 97.5 84.5 q36 53.5 36 123.5 q0 193 -285 225 l12 -471 Z" /><glyph glyph-name="E" unicode="e" d="M518 128 q26 0 40 -15 q14 -15 14 -41 q0 -23 -11 -35.5 q-11 -12.5 -35 -17.5 q-42 -9 -163 -9 l-31 0 q-59 0 -109 2.5 q-50 2.5 -121 11.5 q-38 4 -38 51 q0 22 9 37.5 q9 15.5 26 16.5 l12 0 q13 83 13 185 l-9 0 q-43 0 -43 55 q0 24 10 39.5 q10 15.5 31 15.5 l11 0 l0 105 l0 61 q-32 11 -32 49 q0 28 15 40.5 q15 12.5 45 15.5 q53 5 176 5 q129 0 197 -8 q25 -3 39 -15 q14 -12 14 -38 q0 -25 -13 -40.5 q-13 -15.5 -35 -14.5 q-94 8 -169 8 q-69 0 -117 -3 l3 -110 l1 -57 l37 0 q76 -2 104 -2 l77 -2 q35 0 35 -53 q0 -26 -10 -40.5 q-10 -14.5 -29 -14.5 q-31 0 -52 1 l-126 1 l-36 0 q-3 -107 -14 -190 q59 -4 115 -4 q83 0 158 9 l11 1 Z" /><glyph glyph-name="F" unicode="f" d="M528 691 q26 -6 37.5 -19.5 q11.5 -13.5 11.5 -35.5 q0 -25 -14 -40.5 q-14 -15.5 -38 -12.5 q-106 12 -189 12 l-83 -1 q6 -101 7 -185 q18 1 58 1 q55 0 92.5 -2 q37.5 -2 67.5 -8 q46 -10 46 -54 q0 -24 -12.5 -39.5 q-12.5 -15.5 -40.5 -12.5 q-84 7 -150 7 q-42 0 -61 -1 q-1 -134 -9 -247 q-2 -23 -17.5 -36.5 q-15.5 -13.5 -44.5 -13.5 q-29 0 -46 14.5 q-17 14.5 -15 36.5 q9 110 10 236 q-7 -1 -16.5 -2.5 q-9.5 -1.5 -16.5 -1.5 q-18 0 -29.5 15.5 q-11.5 15.5 -11.5 39.5 q0 26 14 38.5 q14 12.5 39 16.5 l21 3 q-1 103 -8 190 l-15 0 q-28 0 -41 12 q-13 12 -13 42 q0 27 11 39 q11 12 33 14 l16 2 l-1 8 q-2 22 15 35.5 q17 13.5 48 13.5 q55 0 61 -49 l0 -4 q31 1 95 1 q58 0 111 -3.5 q53 -3.5 78 -8.5 Z" /><glyph glyph-name="G" unicode="g" d="M664 376 q32 0 48.5 -14 q16.5 -14 16.5 -39 q0 -25 -16 -41 q-16 -16 -44 -15 l-6 0 q-9 -128 -77 -197.5 q-68 -69.5 -190 -69.5 q-100 0 -179.5 46 q-79.5 46 -123.5 125.5 q-44 79.5 -44 176.5 q0 96 43 174.5 q43 78.5 118 123.5 q75 45 166 45 q73 0 123 -27.5 q50 -27.5 75 -63.5 l0 23 q0 18 15 31 q15 13 41 13 q27 0 41.5 -12 q14.5 -12 15.5 -31 q2 -78 -13 -109 q-8 -15 -23.5 -22 q-15.5 -7 -33.5 -7 q-17 0 -30 6.5 q-13 6.5 -34 25.5 q-33 29 -64.5 45.5 q-31.5 16.5 -84.5 16.5 q-68 0 -121 -30 q-53 -30 -82.5 -83 q-29.5 -53 -29.5 -120 q0 -67 30 -121.5 q30 -54.5 80.5 -85 q50.5 -30.5 111.5 -30.5 q137 0 152 158 l-115 2 q-30 1 -43.5 15.5 q-13.5 14.5 -13.5 38.5 q0 27 16 42.5 q16 15.5 44 14.5 l231 -5 Z" /><glyph glyph-name="Gbreve" unicode="&#x11e;" d="M664 376 q32 0 48.5 -14 q16.5 -14 16.5 -39 q0 -25 -16 -41 q-16 -16 -44 -15 l-6 0 q-9 -128 -77 -197.5 q-68 -69.5 -190 -69.5 q-100 0 -179.5 46 q-79.5 46 -123.5 125.5 q-44 79.5 -44 176.5 q0 96 43 174.5 q43 78.5 118 123.5 q75 45 166 45 q73 0 123 -27.5 q50 -27.5 75 -63.5 l0 23 q0 18 15 31 q15 13 41 13 q27 0 41.5 -12 q14.5 -12 15.5 -31 q2 -78 -13 -109 q-8 -15 -23.5 -22 q-15.5 -7 -33.5 -7 q-17 0 -30 6.5 q-13 6.5 -34 25.5 q-33 29 -64.5 45.5 q-31.5 16.5 -84.5 16.5 q-68 0 -121 -30 q-53 -30 -82.5 -83 q-29.5 -53 -29.5 -120 q0 -67 30 -121.5 q30 -54.5 80.5 -85 q50.5 -30.5 111.5 -30.5 q137 0 152 158 l-115 2 q-30 1 -43.5 15.5 q-13.5 14.5 -13.5 38.5 q0 27 16 42.5 q16 15.5 44 14.5 l231 -5 ZM393 755 q-49 0 -89 19.5 q-40 19.5 -63 53 q-23 33.5 -23 74.5 q0 17 13.5 30.5 q13.5 13.5 31.5 13.5 q16 0 28.5 -7.5 q12.5 -7.5 13.5 -20.5 q5 -41 28 -62.5 q23 -21.5 59 -21.5 q31 0 55 21.5 q24 21.5 25 58.5 q0 17 13.5 26 q13.5 9 30.5 9 q18 0 31.5 -13 q13.5 -13 13.5 -31 q0 -41 -23 -75.5 q-23 -34.5 -61.5 -54.5 q-38.5 -20 -83.5 -20 Z" /><glyph glyph-name="H" unicode="h" d="M663 374 q19 0 33.5 -14 q14.5 -14 14.5 -42 q0 -29 -14.5 -42 q-14.5 -13 -34.5 -13 l-11 0 l6 -206 q1 -27 -15.5 -43 q-16.5 -16 -44.5 -16 q-29 0 -45.5 15 q-16.5 15 -17.5 41 l-6 211 l-280 4 l-19 -232 q-3 -44 -60 -44 q-31 0 -47.5 13.5 q-16.5 13.5 -15.5 39.5 l18 225 l-10 0 q-22 0 -35 15 q-13 15 -13 41 q0 26 14 40 q14 14 37 14 l16 0 l23 289 q2 25 19.5 39 q17.5 14 45.5 14 q30 0 45 -17.5 q15 -17.5 13 -44.5 l-23 -282 l269 -3 l-9 289 q-1 25 15.5 41.5 q16.5 16.5 45.5 16.5 q28 0 45 -16 q17 -16 17 -39 l9 -294 l15 0 Z" /><glyph glyph-name="I" unicode="i" d="M395 114 q54 -1 54 -55 q0 -56 -55 -56 l-301 4 q-27 1 -39 17 q-12 16 -12 38 q0 28 15 42 q15 14 36 14 l93 -1 q14 227 16 482 l-83 -6 q-24 -3 -35 -3 q-22 0 -34.5 15 q-12.5 15 -12.5 41 q0 27 13 39.5 q13 12.5 36 15.5 q19 3 79 6 q60 3 119 3 q54 0 116 -6 q24 -2 36.5 -16 q12.5 -14 12.5 -38 q0 -25 -13 -40 q-13 -15 -41 -14 q-26 2 -71 3 q-2 -291 -15 -484 l86 -1 Z" /><glyph glyph-name="Idotaccent" unicode="&#x130;" d="M395 114 q54 -1 54 -55 q0 -56 -55 -56 l-301 4 q-27 1 -39 17 q-12 16 -12 38 q0 28 15 42 q15 14 36 14 l93 -1 q14 227 16 482 l-83 -6 q-24 -3 -35 -3 q-22 0 -34.5 15 q-12.5 15 -12.5 41 q0 27 13 39.5 q13 12.5 36 15.5 q19 3 79 6 q60 3 119 3 q54 0 116 -6 q24 -2 36.5 -16 q12.5 -14 12.5 -38 q0 -25 -13 -40 q-13 -15 -41 -14 q-26 2 -71 3 q-2 -291 -15 -484 l86 -1 ZM251 765 q-30 0 -50 20 q-20 20 -20 51 q0 29 20 48.5 q20 19.5 50 19.5 q30 0 50 -19.5 q20 -19.5 20 -48.5 q0 -31 -19.5 -51 q-19.5 -20 -50.5 -20 Z" /><glyph glyph-name="J" unicode="j" d="M527 701 q52 -3 52 -53 q0 -24 -13 -39 q-13 -15 -40 -15 l-36 0 q-1 -42 -1 -116 l1 -211 q0 -126 -61 -197 q-61 -71 -170 -71 q-105 0 -165 66.5 q-60 66.5 -60 192.5 q0 63 63 63 q30 0 45 -16 q15 -16 15 -44 q2 -72 25 -111.5 q23 -39.5 74 -39.5 q48 0 78 39 q30 39 30 119 q0 202 4 326 l-50 0 q-29 0 -42 12.5 q-13 12.5 -13 40.5 q0 25 11 38.5 q11 13.5 28 14.5 q66 3 122 3 q63 0 103 -2 Z" /><glyph glyph-name="K" unicode="k" d="M589 600 q-25 -20 -62 -44.5 q-37 -24.5 -73 -47.5 l-46 -30 q-42 -28 -136 -87 l-31 -20 q38 -31 100 -85 l54 -46 q23 -20 37 -30 q74 -62 134 -108 q24 -20 24 -45 q0 -25 -17.5 -42.5 q-17.5 -17.5 -43.5 -17.5 q-20 0 -37 12 q-68 56 -164 139 q-65 56 -130 117 l-1 -55 q-3 -79 -3 -150 q0 -28 -16.5 -44.5 q-16.5 -16.5 -44.5 -16.5 q-32 0 -46.5 13.5 q-14.5 13.5 -14.5 45.5 q0 44 2 136 q3 77 3 168 q0 60 -2 152 l-1 132 q0 24 17.5 39 q17.5 15 45.5 15 q28 0 44.5 -16 q16.5 -16 16.5 -41 l1 -177 l136 96 l48 34 q71 51 125 91 q17 12 39 12 q28 0 44.5 -16 q16.5 -16 16.5 -42 q0 -25 -19 -41 Z" /><glyph glyph-name="L" unicode="l" d="M272 -2 q-95 0 -139 20 q-44 20 -58.5 67.5 q-14.5 47.5 -14.5 146.5 q0 113 10.5 210 q10.5 97 30.5 217 q3 20 20 32.5 q17 12.5 45 12.5 q28 0 42.5 -14 q14.5 -14 14.5 -37 q0 -11 -1 -16 q-23 -140 -33.5 -225 q-10.5 -85 -10.5 -183 q0 -54 5.5 -79.5 q5.5 -25.5 22 -35.5 q16.5 -10 52.5 -10 q74 0 215 27 q4 1 13 1 q23 0 35.5 -16 q12.5 -16 12.5 -39 q0 -44 -65 -57 q-55 -11 -99 -16.5 q-44 -5.5 -98 -5.5 Z" /><glyph glyph-name="M" unicode="m" d="M728 330 q0 -49 2 -137 q2 -90 2 -140 q0 -28 -16 -44 q-16 -16 -45 -16 q-29 0 -45.5 16 q-16.5 16 -16.5 41 q-1 95 -1 276 q0 119 -7.5 179 q-7.5 60 -20.5 60 q-19 0 -67 -129 q-19 -52 -43 -155 q-11 -45 -67 -45 q-29 0 -45.5 10.5 q-16.5 10.5 -23.5 31.5 l-11 41 q-24 88 -35 118 q-16 42 -37 85 q-21 43 -29 43 q-21 0 -25 -234 q-1 -34 -1 -94 l1 -189 q0 -23 -17 -36.5 q-17 -13.5 -47 -13.5 q-30 0 -45 15.5 q-15 15.5 -15 50.5 q0 48 2 136 l1 133 q0 201 30.5 290.5 q30.5 89.5 98.5 89.5 q55 0 93.5 -49 q38.5 -49 59.5 -110.5 q21 -61.5 43 -150.5 q32 128 79 219 q47 91 124 91 q48 0 75 -44 q27 -44 37.5 -127 q10.5 -83 11.5 -212 Z" /><glyph glyph-name="N" unicode="n" d="M617 714 q62 0 62 -65 q0 -98 -1 -144 l-1 -156 q0 -142 -8 -213 q-8 -71 -28 -98 q-20 -27 -60 -27 q-34 0 -65.5 26 q-31.5 26 -71.5 81.5 q-40 55.5 -111 169.5 l-12 19 q-81 133 -125 199 q2 -94 2 -174 l1 -271 q0 -22 -17.5 -37 q-17.5 -15 -44.5 -15 q-27 0 -44.5 14.5 q-17.5 14.5 -17.5 37.5 l0 275 l-1 123 q-1 36 -1 101 q0 57 6 88 q6 31 21.5 45 q15.5 14 44.5 14 q34 0 63.5 -25 q29.5 -25 66 -78 q36.5 -53 116.5 -181 l85 -135 q51 -82 75 -116 q3 117 3 178 l1 311 q0 24 15.5 38.5 q15.5 14.5 46.5 14.5 Z" /><glyph glyph-name="O" unicode="o" d="M396 7 q-101 0 -179 39.5 q-78 39.5 -122 116 q-44 76.5 -44 182.5 q0 105 43 187.5 q43 82.5 120.5 129 q77.5 46.5 177.5 46.5 q102 0 184.5 -48 q82.5 -48 130 -132 q47.5 -84 47.5 -187 q0 -103 -47 -178.5 q-47 -75.5 -128 -115.5 q-81 -40 -183 -40 ZM401 117 q63 0 115.5 25.5 q52.5 25.5 84 77 q31.5 51.5 31.5 126.5 q0 73 -29.5 130.5 q-29.5 57.5 -83 89.5 q-53.5 32 -122.5 32 q-68 0 -118.5 -31.5 q-50.5 -31.5 -78 -88 q-27.5 -56.5 -27.5 -128.5 q0 -78 31 -130.5 q31 -52.5 83 -77.5 q52 -25 114 -25 Z" /><glyph glyph-name="Odieresis" unicode="ö" d="M396 7 q-101 0 -179 39.5 q-78 39.5 -122 116 q-44 76.5 -44 182.5 q0 105 43 187.5 q43 82.5 120.5 129 q77.5 46.5 177.5 46.5 q102 0 184.5 -48 q82.5 -48 130 -132 q47.5 -84 47.5 -187 q0 -103 -47 -178.5 q-47 -75.5 -128 -115.5 q-81 -40 -183 -40 ZM401 117 q63 0 115.5 25.5 q52.5 25.5 84 77 q31.5 51.5 31.5 126.5 q0 73 -29.5 130.5 q-29.5 57.5 -83 89.5 q-53.5 32 -122.5 32 q-68 0 -118.5 -31.5 q-50.5 -31.5 -78 -88 q-27.5 -56.5 -27.5 -128.5 q0 -78 31 -130.5 q31 -52.5 83 -77.5 q52 -25 114 -25 ZM266 765 q-29 0 -49.5 21 q-20.5 21 -20.5 50 q0 28 20.5 48 q20.5 20 49.5 20 q29 0 50 -20 q21 -20 21 -48 q0 -28 -21.5 -49.5 q-21.5 -21.5 -49.5 -21.5 ZM530 765 q-29 0 -49.5 21 q-20.5 21 -20.5 50 q0 28 20.5 48 q20.5 20 49.5 20 q29 0 49.5 -20 q20.5 -20 20.5 -48 q0 -29 -21 -50 q-21 -21 -49 -21 Z" /><glyph glyph-name="P" unicode="p" d="M332 700 q79 0 145.5 -29.5 q66.5 -29.5 105.5 -82.5 q39 -53 39 -121 q0 -64 -34.5 -114 q-34.5 -50 -94.5 -78 q-60 -28 -135 -28 q-37 0 -71 6.5 q-34 6.5 -57 15.5 l-3 -221 q0 -25 -17 -40.5 q-17 -15.5 -46 -15.5 q-29 0 -45.5 15.5 q-16.5 15.5 -16.5 41.5 q0 26 2 94 q2 90 2 159 q0 128 -5 226 l-3 -2 q-10 -5 -17 -5 q-16 0 -26.5 17 q-10.5 17 -10.5 40 q0 17 10.5 27.5 q10.5 10.5 32.5 24.5 l11 6 l0 14 q0 30 15.5 44.5 q15.5 14.5 48.5 14.5 q33 0 46.5 -7 q13.5 -7 13.5 -16 l0 -1 q57 15 110 15 ZM337 348 q64 0 105 35 q41 35 41 88 q0 54 -44 87.5 q-44 33.5 -110 33.5 q-43 0 -105 -18 q2 -50 2 -61 q0 -39 2 -99 q2 -30 2 -43 q20 -10 50 -16.5 q30 -6.5 57 -6.5 Z" /><glyph glyph-name="Q" unicode="q" d="M715 117 q19 -19 19 -41 q0 -26 -19 -45.5 q-19 -19.5 -45 -19.5 q-23 0 -44 18 l-40 40 q-89 -57 -204 -57 q-98 0 -173 43 q-75 43 -116.5 119.5 q-41.5 76.5 -41.5 174.5 q0 105 46 188 q46 83 124.5 129 q78.5 46 171.5 46 q94 0 174.5 -46.5 q80.5 -46.5 128.5 -127.5 q48 -81 48 -179 q0 -117 -67 -206 l38 -36 ZM383 122 q61 0 117 31 l-52 51 q-17 17 -17 34 q0 23 23 45.5 q23 22.5 47 22.5 q14 0 27 -10 l60 -58 q33 55 33 125 q0 66 -29.5 121 q-29.5 55 -81 86.5 q-51.5 31.5 -114.5 31.5 q-61 0 -111.5 -30.5 q-50.5 -30.5 -80.5 -87 q-30 -56.5 -30 -129.5 q0 -71 27.5 -123.5 q27.5 -52.5 75 -81 q47.5 -28.5 106.5 -28.5 Z" /><glyph glyph-name="R" unicode="r" d="M579 117 q31 -17 31 -46 q0 -25 -15.5 -43 q-15.5 -18 -40.5 -18 q-13 0 -27 4.5 q-14 4.5 -22 10.5 l-282 176 q-1 -53 -1 -152 q0 -25 -15.5 -40 q-15.5 -15 -43.5 -15 q-31 0 -47 17 q-16 17 -16 46 q0 153 -2 320 q0 59 -2 137 l-6 -2 q-6 -2 -9 -2 q-37 0 -37 62 q0 20 13.5 34 q13.5 14 37.5 27 l0 15 q0 55 70 55 q46 0 48 -20 l0 -4 q74 22 121 22 q88 0 153 -27.5 q65 -27.5 100 -76.5 q35 -49 35 -113 q0 -67 -38.5 -114.5 q-38.5 -47.5 -104.5 -71.5 q-66 -24 -148 -24 l-18 0 l266 -157 ZM337 590 q-55 0 -118 -24 q4 -108 4 -189 q36 -7 98 -7 q77 0 120.5 29.5 q43.5 29.5 43.5 81.5 q0 49 -40 79 q-40 30 -108 30 Z" /><glyph glyph-name="S" unicode="s" d="M313 0 q-74 0 -131.5 31 q-57.5 31 -88.5 81.5 q-31 50.5 -31 109.5 q0 31 16 45.5 q16 14.5 43 14.5 q62 0 64 -51 q2 -58 39.5 -89.5 q37.5 -31.5 88.5 -31.5 q45 0 78 20.5 q33 20.5 33 60.5 q0 30 -20 50 q-20 20 -49 32 q-29 12 -75 25 q-60 17 -102.5 35 q-42.5 18 -80 59.5 q-37.5 41.5 -37.5 107.5 q0 60 32 107.5 q32 47.5 87 74 q55 26.5 120 26.5 q68 0 123.5 -28.5 q55.5 -28.5 87 -75.5 q31.5 -47 31.5 -100 q0 -31 -15.5 -44 q-15.5 -13 -45.5 -13 q-28 0 -41 13 q-13 13 -19 41 q-6 40 -37.5 69 q-31.5 29 -83.5 29 q-50 0 -83.5 -28 q-33.5 -28 -33.5 -73 q0 -27 17 -43 q17 -16 42 -25.5 q25 -9.5 91 -29.5 q53 -16 98 -37.5 q45 -21.5 80.5 -63.5 q35.5 -42 35.5 -106 q0 -57 -31 -101 q-31 -44 -84.5 -68 q-53.5 -24 -117.5 -24 Z" /><glyph glyph-name="Scedilla" unicode="&#x15e;" d="M546 193 q0 -78 -56.5 -130 q-56.5 -52 -143.5 -61 l-39 -58 q84 -18 84 -76 q0 -43 -33 -69 q-33 -26 -93 -26 q-41 0 -76 15 q-15 6 -22.5 13.5 q-7.5 7.5 -7.5 19.5 q0 18 10 26.5 q10 8.5 26 8.5 q11 0 21 -3 q37 -11 53 -11 q24 0 35.5 6 q11.5 6 11.5 19 q0 12 -14 18 q-14 6 -47 11 q-18 3 -28 13.5 q-10 10.5 -10 24.5 q0 4 2 14 l37 57 q-59 11 -103 43 q-44 32 -67.5 77.5 q-23.5 45.5 -23.5 96.5 q0 31 16 45.5 q16 14.5 43 14.5 q62 0 64 -51 q2 -58 39.5 -89.5 q37.5 -31.5 88.5 -31.5 q45 0 78 20.5 q33 20.5 33 60.5 q0 30 -20 50 q-20 20 -49 32 q-29 12 -75 25 q-60 17 -102.5 35 q-42.5 18 -80 59.5 q-37.5 41.5 -37.5 107.5 q0 60 32 107.5 q32 47.5 87 74 q55 26.5 120 26.5 q68 0 123.5 -28.5 q55.5 -28.5 87 -75.5 q31.5 -47 31.5 -100 q0 -31 -15.5 -44 q-15.5 -13 -45.5 -13 q-28 0 -41 13 q-13 13 -19 41 q-6 40 -37.5 69 q-31.5 29 -83.5 29 q-50 0 -83.5 -28 q-33.5 -28 -33.5 -73 q0 -27 17 -43 q17 -16 42 -25.5 q25 -9.5 91 -29.5 q53 -16 98 -37.5 q45 -21.5 80.5 -63.5 q35.5 -42 35.5 -106 Z" /><glyph glyph-name="T" unicode="t" d="M494 691 q25 -3 39.5 -15.5 q14.5 -12.5 14.5 -40.5 q0 -29 -16.5 -43 q-16.5 -14 -46.5 -12 q-83 5 -132 6 q-8 -103 -13 -248 q-4 -164 -4 -290 q0 -32 -12.5 -45 q-12.5 -13 -47.5 -13 q-36 0 -52 14 q-16 14 -16 48 q0 121 8 286 l8 145 q1 41 5 102 q-41 -1 -109 -6 l-24 -2 l-10 -1 q-25 0 -39.5 16 q-14.5 16 -14.5 42 q0 45 49 52 q78 11 222 11 q130 0 191 -6 Z" /><glyph glyph-name="U" unicode="u" d="M617 427 q0 -39 1 -61 q2 -158 2 -306 q0 -33 -15.5 -48 q-15.5 -15 -46.5 -15 q-31 0 -46 14 q-15 14 -15 46 l0 39 q-28 -42 -78 -68.5 q-50 -26.5 -115 -26.5 q-75 0 -127.5 34 q-52.5 34 -79 93 q-26.5 59 -26.5 134 q0 133 3 263 l3 125 q1 24 16.5 38.5 q15.5 14.5 45.5 14.5 q60 0 60 -53 q0 -76 -2 -192 q-2 -116 -2 -196 q0 -71 35 -110.5 q35 -39.5 92 -39.5 q43 0 83.5 29 q40.5 29 65 76.5 q24.5 47.5 24.5 101.5 l-1 336 q0 54 57 54 q30 0 46.5 -14 q16.5 -14 16.5 -41 q0 -104 3 -227 Z" /><glyph glyph-name="Udieresis" unicode="ü" d="M617 427 q0 -39 1 -61 q2 -158 2 -306 q0 -33 -15.5 -48 q-15.5 -15 -46.5 -15 q-31 0 -46 14 q-15 14 -15 46 l0 39 q-28 -42 -78 -68.5 q-50 -26.5 -115 -26.5 q-75 0 -127.5 34 q-52.5 34 -79 93 q-26.5 59 -26.5 134 q0 133 3 263 l3 125 q1 24 16.5 38.5 q15.5 14.5 45.5 14.5 q60 0 60 -53 q0 -76 -2 -192 q-2 -116 -2 -196 q0 -71 35 -110.5 q35 -39.5 92 -39.5 q43 0 83.5 29 q40.5 29 65 76.5 q24.5 47.5 24.5 101.5 l-1 336 q0 54 57 54 q30 0 46.5 -14 q16.5 -14 16.5 -41 q0 -104 3 -227 ZM210 765 q-29 0 -49.5 21 q-20.5 21 -20.5 50 q0 28 20.5 48 q20.5 20 49.5 20 q29 0 50 -20 q21 -20 21 -48 q0 -28 -21.5 -49.5 q-21.5 -21.5 -49.5 -21.5 ZM474 765 q-29 0 -49.5 21 q-20.5 21 -20.5 50 q0 28 20.5 48 q20.5 20 49.5 20 q29 0 49.5 -20 q20.5 -20 20.5 -48 q0 -29 -21 -50 q-21 -21 -49 -21 Z" /><glyph glyph-name="V" unicode="v" d="M334 -1 q-33 0 -60.5 15 q-27.5 15 -40.5 41 q-14 26 -43.5 112 q-29.5 86 -63.5 200 q-3 13 -30 104 q-25 92 -50 172 q-3 9 -3 15 q0 23 19.5 37 q19.5 14 45.5 14 q43 0 53 -30 q26 -84 56 -191 l27 -97 q40 -141 57.5 -189 q17.5 -48 30.5 -48 q14 1 31 50.5 q17 49.5 52 186.5 q41 163 76 287 q10 30 52 30 q31 0 50 -12.5 q19 -12.5 19 -37.5 q0 -13 -2 -20 q-11 -43 -59 -213 q-12 -44 -16 -56 q-31 -110 -59.5 -199 q-28.5 -89 -39.5 -113 q-13 -27 -41 -42.5 q-28 -15.5 -61 -15.5 Z" /><glyph glyph-name="W" unicode="w" d="M279 1 q-28 0 -50.5 14 q-22.5 14 -28.5 36 q-14 58 -24 102 q-26 121 -56 225 q-36 133 -35 128 l-34 124 q-3 9 -3 19 q0 25 19.5 40.5 q19.5 15.5 49.5 15.5 q21 0 34 -9 q13 -9 19 -31 l25 -94 q31 -113 43 -166 l20 -93 q11 -52 21 -95 q10 -43 14 -43 q3 0 12 21 q9 21 19 49 q5 13 11 30.5 q6 17.5 15 39.5 q3 7 18.5 46 q15.5 39 31 56 q15.5 17 32.5 17 q24 0 42 -27.5 q18 -27.5 48 -96.5 q30 -75 43.5 -104.5 q13.5 -29.5 18.5 -29.5 q3 0 11 37.5 q8 37.5 16 83.5 l21 108 l8 37 q26 128 48 224 q9 39 57 39 q29 0 48.5 -15 q19.5 -15 19.5 -40 q0 -7 -3 -16 q-25 -95 -61 -254 q-9 -41 -44 -209 q-2 -11 -23 -113 q-6 -26 -25.5 -40 q-19.5 -14 -50.5 -14 q-33 0 -58 22 q-25 22 -52 75 q-16 31 -30 66 q-10 23 -19 41 q-9 18 -12 18 q-4 0 -24 -54 q-19 -51 -30 -75 q-25 -53 -48.5 -74 q-23.5 -21 -53.5 -21 Z" /><glyph glyph-name="X" unicode="x" d="M593 92 q20 -24 20 -38 q0 -24 -20.5 -43 q-20.5 -19 -47.5 -19 q-14 0 -22 5.5 q-8 5.5 -17 16.5 l-170 227 l-156 -208 q-13 -17 -27 -25 q-14 -8 -33 -8 q-27 0 -45.5 17 q-18.5 17 -18.5 38 q0 14 3.5 21 q3.5 7 12.5 18 l191 246 q-130 177 -198 271 q-12 17 -12 29 q0 25 20.5 42.5 q20.5 17.5 50.5 17.5 q16 0 26.5 -9.5 q10.5 -9.5 25.5 -29.5 q76 -103 162 -222 q85 112 175 232 q13 16 20 22.5 q7 6.5 19 6.5 q28 0 50.5 -18.5 q22.5 -18.5 22.5 -36.5 q0 -18 -13 -36 l-201 -269 l182 -248 Z" /><glyph glyph-name="Y" unicode="y" d="M331 2 q-30 0 -46 15.5 q-16 15.5 -16 41.5 l-3 272 q-18 3 -53.5 39.5 q-35.5 36.5 -62.5 77.5 q-44 68 -91 183 q-2 8 -2 15 q0 21 20.5 38 q20.5 17 48.5 17 q20 0 34 -11.5 q14 -11.5 25 -34.5 q21 -45 38.5 -81 q17.5 -36 39.5 -73 q47 -78 67 -78 q20 0 64 78 q56 105 80 158 q11 22 22 31 q11 9 33 9 q31 0 51 -14.5 q20 -14.5 20 -38.5 q0 -6 -5 -24 q-16 -39 -43 -92.5 q-27 -53.5 -47 -85.5 q-28 -44 -64 -77.5 q-36 -33.5 -53 -35.5 l3 -269 q0 -28 -15.5 -44 q-15.5 -16 -44.5 -16 Z" /><glyph glyph-name="Z" unicode="z" d="M575 14 q-156 12 -236 12 q-36 0 -66 -1 q-30 -1 -49 -2 l-77 -2 q-51 0 -78.5 7.5 q-27.5 7.5 -27.5 35.5 q0 29 37 74 q37 45 128 138 q78 81 118 123 l113 121 q44 45 60 64 q-103 -9 -144 -9 q-56 0 -121.5 5.5 q-65.5 5.5 -98.5 13.5 q-31 7 -44.5 20.5 q-13.5 13.5 -13.5 34.5 q0 24 14.5 39 q14.5 15 42.5 15 q15 0 71 -6 q80 -12 155 -12 q35 0 72 2.5 q37 2.5 86 6.5 q35 2 51 4 q16 2 35 -3 q19 -5 32 -14 q26 -18 26 -49 q0 -32 -43 -83.5 q-43 -51.5 -132 -141.5 q-15 -16 -28 -29 q-13 -13 -23 -24 q-127 -131 -153 -159 l-65 -67 q9 1 24 1 q79 6 151 6 q53 0 89.5 -2.5 q36.5 -2.5 95.5 -10.5 q26 -3 40 -16.5 q14 -13.5 14 -35.5 q0 -25 -16 -41 q-16 -16 -39 -15 Z" /><glyph glyph-name="a" unicode="a" d="M535 96 q17 -3 26.5 -12.5 q9.5 -9.5 9.5 -33.5 q0 -21 -11 -35 q-11 -14 -29 -14 q-43 0 -65 11 q-22 11 -39 41 q-42 -63 -152 -63 q-115 0 -172 67.5 q-57 67.5 -57 177.5 q0 73 29.5 132 q29.5 59 84.5 93 q55 34 127 34 q41 0 74 -16.5 q33 -16.5 50 -43.5 l3 21 q1 14 13 24 q12 10 38 10 q30 0 43.5 -14 q13.5 -14 10.5 -35 q-6 -32 -13 -113 q-3 -40 -3 -103 l0 -47 q0 -42 5 -60.5 q5 -18.5 27 -20.5 ZM385 178 q1 43 1 125 q0 46 -29.5 71 q-29.5 25 -67.5 25 q-55 0 -88 -48 q-33 -48 -33 -115 q0 -65 29 -108 q29 -43 85 -43 q46 0 74 24 q28 24 29 69 Z" /><glyph glyph-name="b" unicode="b" d="M335 511 q71 0 129 -31.5 q58 -31.5 91.5 -89.5 q33.5 -58 33.5 -136 q0 -79 -34.5 -137 q-34.5 -58 -93.5 -88.5 q-59 -30.5 -131 -30.5 q-49 1 -98.5 22.5 q-49.5 21.5 -67.5 45.5 q-10 -17 -25.5 -31.5 q-15.5 -14.5 -27.5 -19.5 q-12 -6 -26 -6 q-23 0 -39 17 q-16 17 -16 37 q0 15 15 30 q4 4 11.5 11 q7.5 7 10.5 14 q6 15 6 61 q0 40 -1 70 l-2 131 q0 41 -1 61 q-2 272 -6 380 q-1 23 17.5 36.5 q18.5 13.5 44.5 13.5 q25 0 42 -12 q17 -12 18 -33 q2 -42 3 -105.5 q1 -63.5 2 -106.5 q0 -41 2 -153 q21 22 57.5 36 q36.5 14 85.5 14 ZM329 94 q58 0 98 43 q40 43 40 120 q0 76 -39 117.5 q-39 41.5 -104 41.5 q-45 0 -79 -21 q-34 -21 -50 -46 l0 -73 q0 -51 3 -88 q1 -24 20 -46 q19 -22 48.5 -35 q29.5 -13 62.5 -13 Z" /><glyph glyph-name="c" unicode="c" d="M298 0 q-76 0 -133.5 31.5 q-57.5 31.5 -88.5 87 q-31 55.5 -31 126.5 q0 74 32.5 135.5 q32.5 61.5 92 97.5 q59.5 36 136.5 36 q82 0 142.5 -40 q60.5 -40 85.5 -100 q6 -15 6 -27 q0 -28 -39 -38 q-10 -3 -20 -3 q-17 0 -28 9.5 q-11 9.5 -23 29.5 q-17 32 -46 53 q-29 21 -71 21 q-43 0 -76 -23.5 q-33 -23.5 -51.5 -63.5 q-18.5 -40 -18.5 -88 q0 -68 36.5 -108.5 q36.5 -40.5 106.5 -40.5 q66 0 99.5 34.5 q33.5 34.5 34.5 78.5 q0 15 14 26 q14 11 37 11 q28 0 43 -11 q15 -11 15 -38 q0 -48 -26.5 -93 q-26.5 -45 -83.5 -74 q-57 -29 -145 -29 Z" /><glyph glyph-name="ccedilla" unicode="ç" d="M495 245 q28 0 43 -11 q15 -11 15 -38 q0 -44 -21.5 -85.5 q-21.5 -41.5 -69 -71.5 q-47.5 -30 -120.5 -37 l-39 -58 q84 -19 84 -76 q0 -43 -33 -69 q-33 -26 -93 -26 q-41 0 -76 15 q-15 7 -22.5 14 q-7.5 7 -7.5 19 q0 18 9.5 26.5 q9.5 8.5 25.5 8.5 q10 0 22 -3 q3 -1 20 -6 q17 -5 33 -5 q24 0 35.5 6 q11.5 6 11.5 19 q0 12 -14 18 q-14 6 -47 11 q-18 3 -28 13.5 q-10 10.5 -10 24.5 q0 4 2 14 l35 55 q-95 14 -150 80 q-55 66 -55 162 q0 74 32.5 135.5 q32.5 61.5 92 97.5 q59.5 36 136.5 36 q82 0 142.5 -40 q60.5 -40 85.5 -100 q6 -15 6 -27 q0 -28 -39 -38 q-10 -3 -20 -3 q-17 0 -28 9.5 q-11 9.5 -23 29.5 q-17 32 -46 53 q-29 21 -71 21 q-43 0 -76 -23.5 q-33 -23.5 -51.5 -63.5 q-18.5 -40 -18.5 -88 q0 -68 36.5 -108.5 q36.5 -40.5 106.5 -40.5 q66 0 99.5 34.5 q33.5 34.5 34.5 78.5 q0 15 14 26 q14 11 37 11 Z" /><glyph glyph-name="d" unicode="d" d="M310 -8 q-76 0 -136 31 q-60 31 -94 90 q-34 59 -34 141 q0 79 32.5 137 q32.5 58 92 89.5 q59.5 31.5 138.5 31.5 q84 0 135 -40 q8 244 15 338 q1 21 17.5 33.5 q16.5 12.5 42.5 12.5 q28 0 46 -14.5 q18 -14.5 15 -37.5 q-6 -59 -11.5 -233 q-5.5 -174 -5.5 -307 q0 -126 5 -145 q7 -29 29 -51 q5 -7 5 -18 q0 -22 -20 -39.5 q-20 -17.5 -44 -17.5 q-20 0 -36 10 q-15 11 -26.5 25.5 q-11.5 14.5 -18.5 38.5 q-25 -34 -62.5 -54.5 q-37.5 -20.5 -84.5 -20.5 ZM310 91 q34 0 64.5 16.5 q30.5 16.5 49 44.5 q18.5 28 18.5 58 l0 150 q-12 20 -50.5 38 q-38.5 18 -78.5 18 q-68 0 -106.5 -43.5 q-38.5 -43.5 -38.5 -120.5 q0 -51 19.5 -87.5 q19.5 -36.5 52 -55 q32.5 -18.5 70.5 -18.5 Z" /><glyph glyph-name="e" unicode="e" d="M319 -8 q-88 0 -149.5 34.5 q-61.5 34.5 -92.5 94 q-31 59.5 -31 133.5 q0 74 34.5 133.5 q34.5 59.5 95 93 q60.5 33.5 136.5 33.5 q69 0 124 -27 q55 -27 87 -77 q32 -50 32 -116 q0 -39 -12.5 -55.5 q-12.5 -16.5 -46.5 -16.5 l-343 -3 q0 -28 19 -58 q19 -30 56 -50.5 q37 -20.5 87 -20.5 q34 0 57.5 8.5 q23.5 8.5 38.5 20.5 q15 12 35 33 q15 15 33 15 q19 0 36.5 -15 q17.5 -15 17.5 -34 q0 -14 -11 -31 q-24 -36 -72.5 -65.5 q-48.5 -29.5 -130.5 -29.5 ZM442 302 q8 0 10.5 3 q2.5 3 2.5 11 q0 46 -41 76 q-41 30 -102 30 q-47 0 -83.5 -20.5 q-36.5 -20.5 -56 -50 q-19.5 -29.5 -19.5 -52.5 l289 3 Z" /><glyph glyph-name="f" unicode="f" d="M273 740 q74 0 114.5 -41 q40.5 -41 40.5 -114 q0 -33 -14.5 -48.5 q-14.5 -15.5 -45.5 -15.5 q-30 0 -44.5 13 q-14.5 13 -16.5 39 q0 3 -0.5 24.5 q-0.5 21.5 -9.5 33 q-9 11.5 -27 11.5 q-17 0 -26 -11 q-9 -11 -12.5 -35 q-3.5 -24 -4.5 -70 l0 -106 l62 0 q42 0 42 -47 q0 -44 -43 -44 l-60 -1 l3 -165 q2 -80 2 -112 q0 -24 -17 -37.5 q-17 -13.5 -43 -13.5 q-27 0 -43 13.5 q-16 13.5 -17 35.5 l-5 276 q-11 -1 -35 -1 q-29 0 -41 12 q-12 12 -12 36 q0 22 10 34.5 q10 12.5 38 12.5 q24 0 38 1 l-1 111 q0 99 43 154 q43 55 125 55 Z" /><glyph glyph-name="g" unicode="g" d="M533 172 q7 -52 12 -96.5 q5 -44.5 5 -74.5 q0 -71 -31 -128.5 q-31 -57.5 -87.5 -90 q-56.5 -32.5 -130.5 -32.5 q-58 0 -106.5 22 q-48.5 22 -77 59.5 q-28.5 37.5 -28.5 81.5 q0 24 14 35 q14 11 43 11 q39 0 45 -33 q15 -77 107 -77 q63 0 97 38.5 q34 38.5 34 116.5 q0 21 -3 45 q-23 -22 -60 -36 q-37 -14 -83 -14 q-71 0 -126 33.5 q-55 33.5 -85 91 q-30 57.5 -30 126.5 q0 71 30.5 129.5 q30.5 58.5 85.5 92 q55 33.5 126 33.5 q72 0 113 -35 q7 20 17 37 q11 22 40 22 q23 0 44 -12.5 q21 -12.5 22 -32.5 q0 -2 -2 -12 q-6 -16 -19 -60 q19 -126 34 -240 ZM295 95 q39 0 74 20 q35 20 43 45 q-12 101 -29 203 q-9 17 -33.5 31 q-24.5 14 -55.5 14 q-57 0 -94 -46 q-37 -46 -37 -114 q0 -64 34 -108.5 q34 -44.5 98 -44.5 Z" /><glyph glyph-name="gbreve" unicode="&#x11f;" d="M533 172 q7 -52 12 -96.5 q5 -44.5 5 -74.5 q0 -71 -31 -128.5 q-31 -57.5 -87.5 -90 q-56.5 -32.5 -130.5 -32.5 q-58 0 -106.5 22 q-48.5 22 -77 59.5 q-28.5 37.5 -28.5 81.5 q0 24 14 35 q14 11 43 11 q39 0 45 -33 q15 -77 107 -77 q63 0 97 38.5 q34 38.5 34 116.5 q0 21 -3 45 q-23 -22 -60 -36 q-37 -14 -83 -14 q-71 0 -126 33.5 q-55 33.5 -85 91 q-30 57.5 -30 126.5 q0 71 30.5 129.5 q30.5 58.5 85.5 92 q55 33.5 126 33.5 q72 0 113 -35 q7 20 17 37 q11 22 40 22 q23 0 44 -12.5 q21 -12.5 22 -32.5 q0 -2 -2 -12 q-6 -16 -19 -60 q19 -126 34 -240 ZM295 95 q39 0 74 20 q35 20 43 45 q-12 101 -29 203 q-9 17 -33.5 31 q-24.5 14 -55.5 14 q-57 0 -94 -46 q-37 -46 -37 -114 q0 -64 34 -108.5 q34 -44.5 98 -44.5 ZM298 555 q-49 0 -89 19.5 q-40 19.5 -63 53 q-23 33.5 -23 74.5 q0 17 13.5 30.5 q13.5 13.5 31.5 13.5 q16 0 28.5 -7.5 q12.5 -7.5 13.5 -20.5 q5 -41 28 -62.5 q23 -21.5 59 -21.5 q31 0 55 21.5 q24 21.5 25 58.5 q0 17 13.5 26 q13.5 9 30.5 9 q18 0 31.5 -13 q13.5 -13 13.5 -31 q0 -41 -23 -75.5 q-23 -34.5 -61.5 -54.5 q-38.5 -20 -83.5 -20 Z" /><glyph glyph-name="h" unicode="h" d="M511 380 q24 -96 24 -331 q0 -21 -17 -33.5 q-17 -12.5 -43 -12.5 q-27 0 -44.5 13.5 q-17.5 13.5 -17.5 38.5 q0 123 -3.5 198 q-3.5 75 -13.5 114 q-15 56 -66 56 q-63 0 -94 -48.5 q-31 -48.5 -31 -120.5 l0 -208 q0 -18 -18 -30.5 q-18 -12.5 -43 -12.5 q-25 0 -42.5 12.5 q-17.5 12.5 -17.5 31.5 q0 197 5 385 q4 119 12 264 l2 39 q2 23 18 37 q16 14 43 14 q26 0 41.5 -12.5 q15.5 -12.5 14.5 -33.5 l-14 -257 l-1 -21 q24 26 60.5 42 q36.5 16 84.5 16 q67 0 105.5 -34 q38.5 -34 55.5 -106 Z" /><glyph glyph-name="i" unicode="i" d="M169 537 q-36 0 -59 22.5 q-23 22.5 -23 57.5 q0 35 23 57.5 q23 22.5 60 22.5 q35 0 58 -22.5 q23 -22.5 23 -56.5 q0 -35 -23 -58 q-23 -23 -59 -23 ZM154 6 q-27 0 -44.5 13.5 q-17.5 13.5 -16.5 36.5 l8 388 q1 24 18 37 q17 13 44 13 q28 0 45.5 -13.5 q17.5 -13.5 16.5 -38.5 l-8 -386 q-1 -23 -18.5 -36.5 q-17.5 -13.5 -44.5 -13.5 Z" /><glyph glyph-name="dotlessi" unicode="&#x131;" d="M165 3 q-27 0 -44.5 14.5 q-17.5 14.5 -17.5 38.5 l9 399 q0 24 17 38 q17 14 44 14 q28 0 45.5 -14.5 q17.5 -14.5 17.5 -39.5 l-13 -399 q0 -22 -16 -36.5 q-16 -14.5 -42 -14.5 Z" /><glyph glyph-name="j" unicode="j" d="M211 540 q-35 0 -59.5 23.5 q-24.5 23.5 -24.5 55.5 q0 32 23.5 54.5 q23.5 22.5 59.5 22.5 q35 0 58.5 -22 q23.5 -22 23.5 -56 q0 -34 -24 -56 q-24 -22 -57 -22 ZM82 -236 q-71 0 -116.5 41.5 q-45.5 41.5 -45.5 107.5 q0 30 13 43.5 q13 13.5 43 13.5 q54 0 57 -45 q4 -36 14 -50.5 q10 -14.5 29 -14.5 q32 0 47 38.5 q15 38.5 16 126.5 q5 247 5 432 q0 18 17 30 q17 12 44 12 q27 0 43 -12 q16 -12 16 -33 q0 -230 -4 -429 q-4 -131 -48 -196 q-44 -65 -130 -65 Z" /><glyph glyph-name="k" unicode="k" d="M132 -7 q-26 0 -43.5 12.5 q-17.5 12.5 -17.5 31.5 l0 661 q0 24 16.5 37.5 q16.5 13.5 43.5 13.5 q27 0 44.5 -14 q17.5 -14 17.5 -37 l-2 -305 q129 79 226 137 q16 10 33 10 q19 0 34 -18.5 q15 -18.5 15 -41.5 q0 -13 -7 -21 q-7 -8 -23 -18 l-258 -156 l265 -197 q15 -11 15 -33 q0 -23 -17 -38.5 q-17 -15.5 -39 -15.5 q-21 0 -44 16 q-27 20 -101 80 q-19 15 -43.5 34.5 q-24.5 19.5 -55.5 43.5 l0 -137 q0 -20 -16.5 -32.5 q-16.5 -12.5 -42.5 -12.5 Z" /><glyph glyph-name="l" unicode="l" d="M131 9 q-27 0 -43.5 14.5 q-16.5 14.5 -16.5 37.5 l-6 678 q0 24 17.5 38.5 q17.5 14.5 45.5 14.5 q27 0 43.5 -14 q16.5 -14 16.5 -38 l5 -679 q0 -24 -18 -38 q-18 -14 -44 -14 Z" /><glyph glyph-name="m" unicode="m" d="M561 506 q175 0 175 -241 l-1 -219 q0 -20 -15.5 -33 q-15.5 -13 -40.5 -13 q-27 0 -44 13 q-17 13 -17 36 l0 211 q0 83 -15.5 119.5 q-15.5 36.5 -52.5 36.5 q-32 0 -51 -42.5 q-19 -42.5 -20 -113.5 l0 -72 l0 -139 q0 -47 -57 -47 q-61 0 -61 49 l1 209 q-1 71 -20 111 q-19 40 -54 40 q-25 0 -46.5 -30 q-21.5 -30 -33.5 -90 q-8 -39 -8 -89 l1 -90 l0 -70 q0 -20 -17.5 -30.5 q-17.5 -10.5 -42.5 -10.5 q-23 1 -39 12 q-16 11 -16 30 l-1 323 q0 24 -4 35 q-4 11 -13 21 q-2 2 -6.5 6 q-4.5 4 -6.5 8 q-2 4 -2 9 q0 23 17 37 q17 14 37 14 q19 0 41 -28 q18 -25 18 -52 l0 -7 q18 42 49.5 68 q31.5 26 78.5 26 q50 0 79.5 -22.5 q29.5 -22.5 44.5 -63.5 q20 43 56.5 66 q36.5 23 86.5 23 Z" /><glyph glyph-name="n" unicode="n" d="M332 510 q86 0 133 -60.5 q47 -60.5 47 -180.5 l-1 -229 q0 -20 -17 -30 q-17 -10 -43 -10 q-26 0 -44 9 q-18 9 -18 27 l0 234 q0 77 -17 110.5 q-17 33.5 -57 33.5 q-38 0 -61 -31.5 q-23 -31.5 -36 -103.5 q-7 -44 -7 -100 l1 -135 q0 -22 -16.5 -33.5 q-16.5 -11.5 -44.5 -11.5 q-28 0 -44.5 12 q-16.5 12 -16.5 33 q0 168 -7 332 q0 16 -5 28 q-5 12 -11.5 22 q-6.5 10 -8.5 14 q-6 8 -6 19 q0 18 21.5 34 q21.5 16 40.5 16 q10 0 19 -6 q9 -6 20 -21 q24 -32 24 -60 l0 -8 q18 41 55.5 68.5 q37.5 27.5 99.5 27.5 Z" /><glyph glyph-name="o" unicode="o" d="M303 -2 q-122 0 -196.5 64 q-74.5 64 -74.5 187 q0 79 32 139.5 q32 60.5 92 94.5 q60 34 141 34 q80 0 142.5 -34 q62.5 -34 97 -95.5 q34.5 -61.5 34.5 -142.5 q0 -119 -73 -183 q-73 -64 -195 -64 ZM301 93 q68 0 107.5 38.5 q39.5 38.5 39.5 114.5 q0 76 -39 126 q-39 50 -108 50 q-67 0 -107 -47 q-40 -47 -40 -126 q0 -79 40.5 -117.5 q40.5 -38.5 106.5 -38.5 Z" /><glyph glyph-name="odieresis" unicode="ö" d="M303 -2 q-122 0 -196.5 64 q-74.5 64 -74.5 187 q0 79 32 139.5 q32 60.5 92 94.5 q60 34 141 34 q80 0 142.5 -34 q62.5 -34 97 -95.5 q34.5 -61.5 34.5 -142.5 q0 -119 -73 -183 q-73 -64 -195 -64 ZM301 93 q68 0 107.5 38.5 q39.5 38.5 39.5 114.5 q0 76 -39 126 q-39 50 -108 50 q-67 0 -107 -47 q-40 -47 -40 -126 q0 -79 40.5 -117.5 q40.5 -38.5 106.5 -38.5 ZM169 565 q-29 0 -49.5 21 q-20.5 21 -20.5 50 q0 28 20.5 48 q20.5 20 49.5 20 q29 0 50 -20 q21 -20 21 -48 q0 -28 -21.5 -49.5 q-21.5 -21.5 -49.5 -21.5 ZM433 565 q-29 0 -49.5 21 q-20.5 21 -20.5 50 q0 28 20.5 48 q20.5 20 49.5 20 q29 0 49.5 -20 q20.5 -20 20.5 -48 q0 -29 -21 -50 q-21 -21 -49 -21 Z" /><glyph glyph-name="p" unicode="p" d="M336 513 q71 0 127 -31 q56 -31 88 -89.5 q32 -58.5 32 -138.5 q0 -80 -31.5 -138 q-31.5 -58 -88 -89 q-56.5 -31 -130.5 -31 q-47 0 -88.5 11.5 q-41.5 11.5 -61.5 23.5 l-4 -208 q0 -21 -17.5 -34 q-17.5 -13 -44.5 -13 q-29 0 -45 14 q-16 14 -14 38 q5 85 6 231 l1 80 q2 116 2 205 q0 27 -5.5 43 q-5.5 16 -16.5 29 q-8 9 -11 14 q-3 5 -3 13 q0 20 22 38.5 q22 18.5 44 18.5 q12 0 25 -9 q9 -7 19.5 -22 q10.5 -15 19.5 -32 q24 32 68 54 q44 22 107 22 ZM321 92 q64 0 102 43 q38 43 38 122 q0 77 -36 117.5 q-36 40.5 -97 40.5 q-40 0 -71.5 -17 q-31.5 -17 -49 -40.5 q-17.5 -23.5 -17.5 -41.5 l-2 -181 q4 -8 25 -18 q21 -10 50.5 -17.5 q29.5 -7.5 57.5 -7.5 Z" /><glyph glyph-name="q" unicode="q" d="M602 442 q0 -12 -11 -31 q-4 -6 -15 -23 q-11 -17 -21 -37 q-5 -154 -5 -320 l-1 -105 q-2 -72 -2 -117 q0 -20 -16.5 -33 q-16.5 -13 -45.5 -13 q-27 0 -43 12 q-16 12 -16 31 q0 47 2 195 l0 35 q-48 -41 -127 -41 q-75 0 -134.5 31.5 q-59.5 31.5 -93 90 q-33.5 58.5 -33.5 136.5 q0 79 35 138 q35 59 94 90 q59 31 128 31 q65 0 112.5 -26 q47.5 -26 68.5 -64 q6 15 21 38 q11 17 19.5 24.5 q8.5 7.5 23.5 7.5 q23 0 41.5 -14.5 q18.5 -14.5 18.5 -35.5 ZM436 307 q-2 26 -20.5 51.5 q-18.5 25.5 -49.5 41.5 q-31 16 -67 16 q-58 0 -97.5 -43.5 q-39.5 -43.5 -39.5 -120.5 q0 -76 39 -118 q39 -42 105 -42 q42 0 78 18 q36 18 48 38 l4 159 Z" /><glyph glyph-name="r" unicode="r" d="M327 517 q62 0 103 -41 q41 -41 41 -105 q0 -62 -39.5 -96 q-39.5 -34 -101.5 -34 q-30 0 -42 9.5 q-12 9.5 -12 30.5 q0 20 8.5 28.5 q8.5 8.5 24.5 10.5 q61 7 61 54 q0 22 -11.5 36 q-11.5 14 -33.5 14 q-31 0 -56.5 -31.5 q-25.5 -31.5 -41 -75.5 q-15.5 -44 -19.5 -79 q-6 -61 -6 -162 q0 -50 -13 -67.5 q-13 -17.5 -46 -17.5 q-32 0 -47 13 q-15 13 -16 41 l0 172 q0 55 -2.5 98 q-2.5 43 -8.5 104 l-6 62 q-2 22 14 35.5 q16 13.5 44 13.5 q47 0 51 -44 q2 -35 4 -86 q19 52 58 84.5 q39 32.5 93 32.5 Z" /><glyph glyph-name="s" unicode="s" d="M249 -8 q-69 0 -121 33 q-52 33 -76 86 q-7 17 -6 26 q2 18 20 33 q18 15 39 15 q14 0 22 -6.5 q8 -6.5 18 -18.5 q28 -36 50 -52.5 q22 -16.5 55 -16.5 q31 0 52.5 14 q21.5 14 21.5 37 q0 25 -23.5 38.5 q-23.5 13.5 -75.5 31.5 q-53 18 -85.5 34 q-32.5 16 -56 46.5 q-23.5 30.5 -23.5 77.5 q0 46 26 81 q26 35 70.5 54 q44.5 19 97.5 19 q56 0 97.5 -21 q41.5 -21 63.5 -55.5 q22 -34.5 22 -74.5 q0 -25 -12.5 -37 q-12.5 -12 -41.5 -12 q-28 0 -37.5 9 q-9.5 9 -12.5 25 q-7 67 -79 67 q-36 0 -54 -15.5 q-18 -15.5 -18 -36.5 q0 -25 24 -39 q24 -14 77 -32 q51 -16 84 -32 q33 -16 56.5 -46 q23.5 -30 23.5 -77 q0 -53 -29.5 -87.5 q-29.5 -34.5 -75 -51 q-45.5 -16.5 -93.5 -16.5 Z" /><glyph glyph-name="scedilla" unicode="&#x15f;" d="M259 -58 q44 -11 68.5 -34 q24.5 -23 24.5 -66 q0 -50 -39 -78 q-39 -28 -98 -28 q-25 0 -49 4.5 q-24 4.5 -39 11.5 q-15 6 -24 17.5 q-9 11.5 -9 23.5 q0 16 11 27 q11 11 28 11 q3 0 25 -6 q35 -11 58 -11 q24 0 36 10 q12 10 12 25 q0 19 -15.5 25 q-15.5 6 -57.5 13 q-17 3 -25.5 12.5 q-8.5 9.5 -8.5 21.5 q0 12 6 21 l34 55 q-51 11 -88.5 41.5 q-37.5 30.5 -56.5 72.5 q-7 17 -6 26 q2 18 20 33 q18 15 39 15 q14 0 22 -6.5 q8 -6.5 18 -18.5 q28 -36 50 -52.5 q22 -16.5 55 -16.5 q31 0 52.5 14 q21.5 14 21.5 37 q0 25 -23.5 38.5 q-23.5 13.5 -75.5 31.5 q-53 18 -85.5 34 q-32.5 16 -56 46.5 q-23.5 30.5 -23.5 77.5 q0 46 26 81 q26 35 70.5 54 q44.5 19 97.5 19 q56 0 97.5 -21 q41.5 -21 63.5 -55.5 q22 -34.5 22 -74.5 q0 -25 -12.5 -37 q-12.5 -12 -41.5 -12 q-28 0 -37.5 9 q-9.5 9 -12.5 25 q-7 67 -79 67 q-36 0 -54 -15.5 q-18 -15.5 -18 -36.5 q0 -25 24 -39 q24 -14 77 -32 q51 -16 84 -32 q33 -16 56.5 -46 q23.5 -30 23.5 -77 q0 -66 -45 -104 q-45 -38 -111 -48 l-32 -53 Z" /><glyph glyph-name="t" unicode="t" d="M353 187 q28 0 40.5 -12 q12.5 -12 12.5 -38 q0 -61 -39.5 -99.5 q-39.5 -38.5 -100.5 -38.5 q-83 0 -120.5 68.5 q-37.5 68.5 -37.5 217.5 q0 31 2 85 l-36 2 q-48 2 -48 47 q0 25 13 36.5 q13 11.5 43 10.5 l36 -2 q7 71 23 163 q8 43 59 43 q31 0 47.5 -16 q16.5 -16 12.5 -38 q-16 -108 -21 -158 l61 -1 q44 -1 44 -45 q0 -23 -12 -34 q-12 -11 -41 -11 l-60 0 q-2 -52 -2 -82 q0 -106 10 -148 q10 -42 35 -42 q16 0 23 11.5 q7 11.5 8 38.5 q1 22 12 32 q11 10 36 10 Z" /><glyph glyph-name="u" unicode="u" d="M479 142 q0 -29 5.5 -47 q5.5 -18 12.5 -29.5 q7 -11.5 7 -14.5 q0 -20 -16 -34.5 q-16 -14.5 -40 -14.5 q-20 0 -41 23 q-21 23 -25 48 q-39 -74 -140 -74 q-87 0 -133.5 60.5 q-46.5 60.5 -46.5 161.5 l0 240 q0 19 17 31.5 q17 12.5 43 12.5 q25 0 43 -12.5 q18 -12.5 18 -31.5 l0 -239 q0 -57 18 -92.5 q18 -35.5 57 -35.5 q49 0 72 45.5 q23 45.5 23 141.5 l0 179 q0 24 16.5 37 q16.5 13 43.5 13 q28 0 45.5 -13.5 q17.5 -13.5 17.5 -36.5 l3 -318 Z" /><glyph glyph-name="udieresis" unicode="ü" d="M479 142 q0 -29 5.5 -47 q5.5 -18 12.5 -29.5 q7 -11.5 7 -14.5 q0 -20 -16 -34.5 q-16 -14.5 -40 -14.5 q-20 0 -41 23 q-21 23 -25 48 q-39 -74 -140 -74 q-87 0 -133.5 60.5 q-46.5 60.5 -46.5 161.5 l0 240 q0 19 17 31.5 q17 12.5 43 12.5 q25 0 43 -12.5 q18 -12.5 18 -31.5 l0 -239 q0 -57 18 -92.5 q18 -35.5 57 -35.5 q49 0 72 45.5 q23 45.5 23 141.5 l0 179 q0 24 16.5 37 q16.5 13 43.5 13 q28 0 45.5 -13.5 q17.5 -13.5 17.5 -36.5 l3 -318 ZM135 565 q-29 0 -49.5 21 q-20.5 21 -20.5 50 q0 28 20.5 48 q20.5 20 49.5 20 q29 0 50 -20 q21 -20 21 -48 q0 -28 -21.5 -49.5 q-21.5 -21.5 -49.5 -21.5 ZM399 565 q-29 0 -49.5 21 q-20.5 21 -20.5 50 q0 28 20.5 48 q20.5 20 49.5 20 q29 0 49.5 -20 q20.5 -20 20.5 -48 q0 -29 -21 -50 q-21 -21 -49 -21 Z" /><glyph glyph-name="v" unicode="v" d="M265 2 q-46 0 -86.5 55 q-40.5 55 -77.5 161 q-24 65 -41 133.5 q-17 68.5 -17 97.5 q0 26 17 40.5 q17 14.5 44 14.5 q24 0 40.5 -12 q16.5 -12 20.5 -34 q14 -99 40 -189 q16 -54 34 -96 q18 -42 25 -42 q9 0 30.5 45.5 q21.5 45.5 35.5 94.5 q22 77 30 114 q8 37 12 76 q3 21 19.5 34.5 q16.5 13.5 42.5 13.5 q27 0 43.5 -15 q16.5 -15 16.5 -42 q0 -30 -16.5 -94.5 q-16.5 -64.5 -43.5 -136.5 q-41 -108 -82 -163.5 q-41 -55.5 -87 -55.5 Z" /><glyph glyph-name="w" unicode="w" d="M250 1 q-38 0 -72.5 42.5 q-34.5 42.5 -61.5 125.5 q-21 69 -36 155.5 q-15 86.5 -15 132.5 q0 36 14.5 50 q14.5 14 43.5 14 q27 0 42.5 -10.5 q15.5 -10.5 18.5 -35.5 q6 -69 12 -114 q6 -45 21 -113 q12 -53 20.5 -80.5 q8.5 -27.5 16.5 -27.5 q8 0 23 52.5 q15 52.5 39 153.5 l7 28 q7 30 21.5 45.5 q14.5 15.5 39.5 15.5 q24 0 39 -14.5 q15 -14.5 25 -46.5 l21 -68 q25 -84 40 -124.5 q15 -40.5 25 -40.5 q7 0 13.5 26.5 q6.5 26.5 17.5 89.5 q13 79 17 119.5 q4 40.5 7 96.5 q3 48 61 48 q32 0 46 -17 q14 -17 14 -55 q0 -44 -12 -125 q-12 -81 -30 -149 q-45 -174 -126 -174 q-52 0 -91.5 72.5 q-39.5 72.5 -64.5 207.5 q-38 -280 -136 -280 Z" /><glyph glyph-name="x" unicode="x" d="M472 72 q9 -10 9 -23 q0 -22 -19 -39 q-19 -17 -42 -17 q-20 0 -34 18 l-128 165 q-52 -78 -112 -161 q-8 -11 -19.5 -16.5 q-11.5 -5.5 -23.5 -5.5 q-25 0 -43 17 q-18 17 -18 37 q0 11 6 18 l141 201 l-135 176 q-6 9 -6 20 q0 19 20.5 36 q20.5 17 42.5 17 q8 0 17 -3.5 q9 -3.5 15 -10.5 l110 -143 l98 142 q11 15 29 15 q23 0 44 -18.5 q21 -18.5 21 -37.5 q0 -8 -4 -13 l-63 -93 l-56 -84 l150 -197 Z" /><glyph glyph-name="y" unicode="y" d="M229 -262 q-29 0 -47 15.5 q-18 15.5 -18 38.5 q0 8 4 22 q25 63 82 227 q-46 32 -89 103 q-43 71 -74.5 153.5 q-31.5 82.5 -44.5 147.5 q-2 8 -2 18 q0 23 15.5 35 q15.5 12 41.5 12 q25 0 35 -9.5 q10 -9.5 14 -28.5 q33 -122 70.5 -205.5 q37.5 -83.5 74.5 -109.5 q25 85 56 205 l30 114 q5 20 16 28 q11 8 33 8 q29 0 47 -12.5 q18 -12.5 19 -33.5 q0 -7 -1 -11 q-51 -205 -106 -375 q-72 -223 -105 -305 q-8 -18 -18.5 -27.5 q-10.5 -9.5 -32.5 -9.5 Z" /><glyph glyph-name="z" unicode="z" d="M423 -2 q-68 6 -122 6 q-47 0 -121 -4 q-39 -3 -64 -3 q-82 0 -82 46 q0 23 21 44 q177 185 310 320 q-12 0 -23.5 -1 q-11.5 -1 -21.5 -2 q-68 -5 -88 -5 q-31 0 -64 3 q-33 3 -53 7 q-49 11 -49 52 q0 22 12 36.5 q12 14.5 35 11.5 q108 -12 170 -12 q41 0 105 6 q54 4 72 4 q40 0 54.5 -10.5 q14.5 -10.5 14.5 -31.5 q0 -32 -28 -61 l-74 -75 q-121 -121 -228 -231 l36 1 q81 3 91 3 q77 0 135 -9 q39 -7 39 -47 q0 -23 -13.5 -37.5 q-13.5 -14.5 -40.5 -12.5 l-23 2 Z" /><glyph glyph-name="zero" unicode="0" d="M314 14 q-85 0 -149 40 q-64 40 -99 109 q-35 69 -35 154 q0 94 34.5 172 q34.5 78 99.5 124 q65 46 151 46 q88 0 153 -45.5 q65 -45.5 99.5 -123.5 q34.5 -78 34.5 -173 q0 -85 -36 -154.5 q-36 -69.5 -101.5 -109 q-65.5 -39.5 -151.5 -39.5 ZM312 110 q77 0 122 57.5 q45 57.5 45 149.5 q0 67 -20.5 123.5 q-20.5 56.5 -57 89.5 q-36.5 33 -83.5 33 q-47 0 -84.5 -33 q-37.5 -33 -58 -89.5 q-20.5 -56.5 -20.5 -123.5 q0 -59 19.5 -106.5 q19.5 -47.5 55 -74 q35.5 -26.5 82.5 -26.5 Z" /><glyph glyph-name="one" unicode="1" d="M341 52 q0 -22 -17 -35.5 q-17 -13.5 -45 -13.5 q-27 0 -41 13 q-14 13 -14 36 l0 446 q-34 -42 -57 -67 q-4 -5 -14 -8.5 q-10 -3.5 -20 -3.5 q-26 0 -40.5 13 q-14.5 13 -14.5 34 q0 7 5 18 q5 11 13 21 q53 63 111 140 q8 12 25 19.5 q17 7.5 36 7.5 q31 0 51.5 -16 q20.5 -16 20.5 -43 l1 -561 Z" /><glyph glyph-name="two" unicode="2" d="M450 106 q26 0 44 -13.5 q18 -13.5 18 -34.5 q0 -22 -18 -36 q-18 -14 -44 -14 q-11 0 -55 2 q-93 3 -120 3 q-103 0 -174 -4 q-26 0 -42.5 13.5 q-16.5 13.5 -12.5 34.5 q12 71 67 136.5 q55 65.5 161 138.5 q105 76 105 163 q0 49 -29.5 79.5 q-29.5 30.5 -77.5 30.5 q-43 0 -71 -33 q-28 -33 -30 -80 q-1 -24 -15 -34 q-14 -10 -45 -10 q-57 0 -57 55 q0 54 29.5 99.5 q29.5 45.5 81 72.5 q51.5 27 115.5 27 q64 0 115 -27 q51 -27 79.5 -74.5 q28.5 -47.5 28.5 -106.5 q0 -133 -159 -242 q-114 -77 -153 -144 q30 1 84 1 q49 0 175 -3 Z" /><glyph glyph-name="three" unicode="3" d="M470 357 q42 -22 67.5 -62 q25.5 -40 25.5 -98 q0 -51 -30.5 -95.5 q-30.5 -44.5 -85 -71.5 q-54.5 -27 -123.5 -27 q-140 0 -215.5 63 q-75.5 63 -75.5 189 q0 28 16.5 43 q16.5 15 45.5 15 q58 0 58 -51 q0 -80 41 -120.5 q41 -40.5 122 -40.5 q53 0 91.5 25.5 q38.5 25.5 38.5 69.5 q0 111 -129 111 q-25 0 -37 12.5 q-12 12.5 -12 33.5 q0 25 11 38 q11 13 37 13 q58 0 84 22.5 q26 22.5 26 68.5 q0 37 -26 64 q-26 27 -67 27 q-45 0 -76 -28.5 q-31 -28.5 -31 -70.5 q0 -7 1 -16.5 q1 -9.5 3 -16.5 q3 -19 -12 -34 q-15 -15 -46 -15 q-19 0 -34.5 7.5 q-15.5 7.5 -21.5 22.5 q-7 16 -9 28 q-2 12 -2 30 q0 53 30.5 96.5 q30.5 43.5 82 68.5 q51.5 25 113.5 25 q59 0 109 -25 q50 -25 80 -68 q30 -43 30 -95 q0 -48 -21.5 -83.5 q-21.5 -35.5 -58.5 -54.5 Z" /><glyph glyph-name="four" unicode="4" d="M551 292 q20 3 33.5 -10.5 q13.5 -13.5 13.5 -38.5 q0 -21 -9.5 -33.5 q-9.5 -12.5 -36.5 -17.5 q-25 -4 -82 -8 l-6 -136 q-1 -21 -17.5 -35 q-16.5 -14 -44.5 -14 q-29 0 -43 15 q-14 15 -13 39 l5 128 l-122 0 q-91 0 -161 17 q-45 12 -45 47 q0 15 9 33 q68 133 130.5 230 q62.5 97 132.5 168 q13 13 37 13 q24 0 38.5 -14.5 q14.5 -14.5 14.5 -35.5 q0 -21 -25 -49 q-62 -67 -115.5 -149.5 q-53.5 -82.5 -77.5 -140.5 q-3 -6 -3 -9 q0 -7 17 -10 q34 -5 125 -5 q33 0 49 1 l8 197 q1 22 15 35.5 q14 13.5 42 13.5 q30 0 46 -15.5 q16 -15.5 15 -39.5 l-7 -184 q25 2 77 8 Z" /><glyph glyph-name="five" unicode="5" d="M285 0 q-115 0 -179.5 60.5 q-64.5 60.5 -64.5 168.5 q0 25 16.5 39 q16.5 14 44.5 14 q62 0 63 -48 q1 -69 29 -101.5 q28 -32.5 91 -32.5 q67 0 100 31 q33 31 33 100 q0 74 -33 112.5 q-33 38.5 -98 38.5 q-27 0 -54 -4 q-27 -4 -70 -16 q-12 -3 -24 -3 q-24 0 -40 13 q-16 13 -15 35 q7 183 8 279 q78 -3 216 -3 q37 0 93 2 l66 1 q45 0 45 -48 q0 -23 -13 -36.5 q-13 -13.5 -38 -13.5 q-38 0 -60 -1 l-93 -1 l-97 1 q-1 -25 -4 -106 l0 -2 q0 -13 11 -13 q3 0 11 2 q27 6 47.5 9 q20.5 3 51.5 3 q57 0 106.5 -31 q49.5 -31 79 -88 q29.5 -57 29.5 -131 q0 -107 -69 -168.5 q-69 -61.5 -189 -61.5 Z" /><glyph glyph-name="six" unicode="6" d="M311 424 q74 0 130 -29.5 q56 -29.5 86 -80 q30 -50.5 30 -112.5 q0 -60 -31 -105 q-31 -45 -88 -69.5 q-57 -24.5 -131 -24.5 q-134 0 -203.5 77.5 q-69.5 77.5 -69.5 227.5 q0 111 35.5 195 q35.5 84 101.5 129.5 q66 45.5 155 45.5 q137 0 217 -141 q10 -16 10 -30 q0 -20 -19 -34.5 q-19 -14.5 -37 -14.5 q-16 0 -25.5 7 q-9.5 7 -17 16 q-7.5 9 -10.5 13 q-24 31 -39 47 q-15 16 -38 28 q-23 12 -54 12 q-66 0 -112.5 -58.5 q-46.5 -58.5 -55.5 -170.5 q28 32 73 52 q45 20 93 20 ZM311 100 q61 0 93 28.5 q32 28.5 32 76.5 q0 52 -33 87 q-33 35 -91 35 q-60 0 -97 -28.5 q-37 -28.5 -37 -83.5 q0 -55 34 -85 q34 -30 99 -30 Z" /><glyph glyph-name="seven" unicode="7" d="M464 387 q28 0 43 -13.5 q15 -13.5 15 -35.5 q0 -22 -13.5 -36 q-13.5 -14 -39.5 -14 l-56 0 q-29 -90 -95 -256 q-6 -14 -23.5 -23 q-17.5 -9 -37.5 -9 q-27 0 -44.5 13 q-17.5 13 -17.5 33 q0 8 5 20 q26 59 82 220 l-41 0 q-54 0 -54 48 q0 22 14 35.5 q14 13.5 40 13.5 l74 0 q30 90 30 141 q0 27 -8 41.5 q-8 14.5 -28 20.5 q-20 6 -58 6 q-77 0 -177 -25 q-5 -1 -14 -1 q-21 0 -34.5 13 q-13.5 13 -13.5 34 q0 34 45 51 q98 28 193 28 q104 0 160 -40.5 q56 -40.5 56 -120.5 q0 -51 -24 -145 q7 1 22 1 Z" /><glyph glyph-name="eight" unicode="8" d="M424 423 q159 -46 159 -197 q0 -67 -34.5 -117.5 q-34.5 -50.5 -96 -77.5 q-61.5 -27 -141.5 -27 q-81 0 -144.5 28 q-63.5 28 -99.5 79.5 q-36 51.5 -36 119.5 q0 67 49 119.5 q49 52.5 125 72.5 q-34 14 -55.5 41.5 q-21.5 27.5 -21.5 64.5 q0 47 24.5 83 q24.5 36 66.5 55.5 q42 19.5 92 19.5 q78 0 128.5 -43.5 q50.5 -43.5 50.5 -113.5 q0 -38 -18 -65.5 q-18 -27.5 -48 -41.5 ZM313 591 q-28 0 -47.5 -18 q-19.5 -18 -19.5 -50 q0 -31 19.5 -49 q19.5 -18 47.5 -18 q29 0 46.5 19 q17.5 19 17.5 49 q0 31 -18 49 q-18 18 -46 18 ZM313 97 q71 0 111 37 q40 37 40 92 q0 58 -43.5 95 q-43.5 37 -109.5 37 q-47 0 -83.5 -18 q-36.5 -18 -57 -47 q-20.5 -29 -20.5 -61 q0 -63 42.5 -99 q42.5 -36 120.5 -36 Z" /><glyph glyph-name="nine" unicode="9" d="M296 686 q85 0 148 -37.5 q63 -37.5 96.5 -107 q33.5 -69.5 33.5 -161.5 q0 -115 -32.5 -200 q-32.5 -85 -95.5 -131 q-63 -46 -150 -46 q-119 0 -191 52 q-72 52 -72 142 q0 23 16 37.5 q16 14.5 43 14.5 q24 0 40.5 -13.5 q16.5 -13.5 16.5 -38.5 q0 -48 39 -74 q39 -26 105 -26 q72 0 118.5 59.5 q46.5 59.5 57.5 175.5 q-25 -38 -70 -62 q-45 -24 -100 -24 q-118 0 -184 57.5 q-66 57.5 -66 165.5 q0 61 32 110.5 q32 49.5 88.5 78 q56.5 28.5 126.5 28.5 ZM299 336 q56 0 94.5 35 q38.5 35 38.5 91 q0 55 -38.5 91.5 q-38.5 36.5 -97.5 36.5 q-57 0 -92 -36 q-35 -36 -35 -88 q0 -64 31.5 -97 q31.5 -33 98.5 -33 Z" /><glyph glyph-name="period" unicode="." d="M150 1 q-32 0 -53 21.5 q-21 21.5 -21 53.5 q0 34 22.5 56.5 q22.5 22.5 54.5 22.5 q29 0 52 -24 q23 -24 23 -55 q0 -30 -23.5 -52.5 q-23.5 -22.5 -54.5 -22.5 Z" /><glyph glyph-name="comma" unicode="," d="M144 177 q48 0 75.5 -32.5 q27.5 -32.5 27.5 -89.5 q0 -49 -19.5 -91 q-19.5 -42 -54 -67 q-34.5 -25 -76.5 -25 q-40 0 -40 31 q0 15 9 23 q9 8 23 8 q34 0 60 24 q26 24 38 57 q-19 -12 -47 -12 q-35 0 -60.5 26 q-25.5 26 -25.5 61 q0 36 26 61.5 q26 25.5 64 25.5 ZM142 57 q15 0 24.5 9 q9.5 9 9.5 24 q0 14 -9.5 23 q-9.5 9 -24.5 9 q-13 0 -22.5 -9 q-9.5 -9 -9.5 -23 q0 -16 8.5 -24.5 q8.5 -8.5 23.5 -8.5 Z" /><glyph glyph-name="colon" unicode=":" d="M155 293 q-39 0 -62.5 24 q-23.5 24 -23.5 63 q0 37 24.5 60 q24.5 23 62.5 23 q38 0 62 -23 q24 -23 24 -60 q0 -39 -23.5 -63 q-23.5 -24 -63.5 -24 ZM156 346 q13 0 21.5 9 q8.5 9 8.5 23 q0 13 -10 21.5 q-10 8.5 -21 8.5 q-11 0 -20 -8.5 q-9 -8.5 -9 -21.5 q0 -15 9 -23.5 q9 -8.5 21 -8.5 ZM159 12 q-37 0 -61.5 25 q-24.5 25 -24.5 62 q0 36 24 60.5 q24 24.5 62 24.5 q37 0 62 -24.5 q25 -24.5 25 -60.5 q0 -39 -24 -63 q-24 -24 -63 -24 ZM160 66 q14 0 21.5 8.5 q7.5 8.5 7.5 21.5 q0 11 -8.5 18.5 q-8.5 7.5 -20.5 7.5 q-13 0 -21 -8 q-8 -8 -8 -18 q0 -13 8.5 -21.5 q8.5 -8.5 20.5 -8.5 Z" /><glyph glyph-name="semicolon" unicode=";" d="M174 293 q-39 0 -62.5 24 q-23.5 24 -23.5 63 q0 37 24.5 60 q24.5 23 62.5 23 q38 0 62.5 -23 q24.5 -23 24.5 -60 q0 -39 -24 -63 q-24 -24 -64 -24 ZM175 408 q-11 0 -20 -8.5 q-9 -8.5 -9 -21.5 q0 -15 8.5 -23.5 q8.5 -8.5 20.5 -8.5 q13 0 21.5 9 q8.5 9 8.5 23 q0 13 -9.5 21.5 q-9.5 8.5 -20.5 8.5 ZM170 177 q48 0 75.5 -32.5 q27.5 -32.5 27.5 -89.5 q0 -49 -19.5 -91 q-19.5 -42 -54 -67 q-34.5 -25 -76.5 -25 q-40 0 -40 31 q0 15 9 23 q9 8 23 8 q34 0 60 24 q26 24 38 57 q-19 -12 -47 -12 q-35 0 -60.5 26 q-25.5 26 -25.5 61 q0 36 26 61.5 q26 25.5 64 25.5 ZM168 57 q15 0 24.5 9 q9.5 9 9.5 24 q0 14 -9.5 23 q-9.5 9 -24.5 9 q-13 0 -22.5 -9 q-9.5 -9 -9.5 -23 q0 -16 8.5 -24.5 q8.5 -8.5 23.5 -8.5 Z" /><glyph glyph-name="question" unicode="?" d="M272 188 q-19 0 -30.5 13 q-11.5 13 -11.5 36 q0 40 13.5 71 q13.5 31 32 52.5 q18.5 21.5 49.5 50.5 q35 31 52.5 55 q17.5 24 17.5 55 q0 56 -33.5 91.5 q-33.5 35.5 -87.5 35.5 q-66 0 -96.5 -27.5 q-30.5 -27.5 -30.5 -81.5 q0 -24 14 -41 q14 -17 35 -17 q22 0 34.5 -12 q12.5 -12 12.5 -34 q0 -18 -13.5 -29.5 q-13.5 -11.5 -33.5 -11.5 q-37 0 -68 19.5 q-31 19.5 -49.5 53 q-18.5 33.5 -18.5 72.5 q0 88 57 140 q57 52 155 52 q62 0 109.5 -28 q47.5 -28 74 -76 q26.5 -48 26.5 -106 q0 -40 -13.5 -71 q-13.5 -31 -32.5 -53 q-19 -22 -49 -50 q-36 -33 -53 -56.5 q-17 -23.5 -17 -53.5 q0 -22 -12.5 -35.5 q-12.5 -13.5 -32.5 -13.5 ZM274 5 q-28 0 -48 20 q-20 20 -20 48 q0 26 20 45.5 q20 19.5 48 19.5 q27 0 46.5 -19.5 q19.5 -19.5 19.5 -45.5 q0 -28 -19 -48 q-19 -20 -47 -20 Z" /><glyph glyph-name="asterisk" unicode="*" d="M414 446 q10 -5 13 -11 q3 -6 3 -17 q0 -14 -10 -25.5 q-10 -11.5 -22 -11.5 q-11 0 -28 7 l-75 40 l1 -83 q0 -14 -11.5 -22.5 q-11.5 -8.5 -29.5 -8.5 q-18 0 -28.5 8.5 q-10.5 8.5 -10.5 22.5 q0 46 -1 84 l-70 -35 q-16 -9 -27 -9 q-13 0 -23 10.5 q-10 10.5 -10 25.5 q0 18 15 24 l110 52 l-125 56 q-15 7 -15 27 q0 12 9.5 23 q9.5 11 19.5 11 q12 0 28 -8 l87 -44 l-1 94 q0 34 40 34 q21 0 30.5 -8 q9.5 -8 9.5 -26 l1 -96 l75 41 q2 1 12 5.5 q10 4.5 19 4.5 q13 0 23.5 -11 q10.5 -11 10.5 -24 q0 -9 -6 -16.5 q-6 -7.5 -16 -11.5 l-113 -51 l115 -51 Z" /><glyph glyph-name="slash" unicode="/" d="M157 -4 q-26 0 -39.5 7 q-13.5 7 -22.5 23 q-5 10 -5 19 q0 14 6 30 l271 799 q8 28 46 28 q18 0 34.5 -9.5 q16.5 -9.5 22.5 -23.5 q4 -11 4 -21 q0 -6 -5 -24 l-270 -793 q-6 -16 -17 -25.5 q-11 -9.5 -25 -9.5 Z" /><glyph glyph-name="parenleft" unicode="(" d="M262 -126 q-14 0 -20.5 2 q-6.5 2 -14.5 9 q-84 71 -130.5 182 q-46.5 111 -46.5 238 q0 91 22.5 177 q22.5 86 64.5 152.5 q42 66.5 98 101.5 q12 9 28 9 q20 0 36 -13 q16 -13 16 -31 q0 -17 -8 -26.5 q-8 -9.5 -17 -16 q-9 -6.5 -13 -9.5 q-63 -48 -95.5 -139.5 q-32.5 -91.5 -32.5 -204.5 q0 -92 21.5 -157.5 q21.5 -65.5 49.5 -104.5 q28 -39 67 -80 q23 -23 23 -46 q0 -16 -16 -29.5 q-16 -13.5 -32 -13.5 Z" /><glyph glyph-name="parenright" unicode=")" d="M102 -126 q-20 0 -36 13 q-16 13 -16 31 q0 17 9.5 28 q9.5 11 18 16.5 q8.5 5.5 10.5 7.5 q62 51 94.5 142 q32.5 91 32.5 202 q0 92 -21 158 q-21 66 -49.5 105.5 q-28.5 39.5 -67.5 78.5 q-23 25 -23 46 q0 16 16 29.5 q16 13.5 32 13.5 q14 0 21 -2 q7 -2 15 -9 q84 -73 130.5 -183 q46.5 -110 46.5 -237 q0 -136 -50.5 -255.5 q-50.5 -119.5 -134.5 -175.5 q-14 -9 -28 -9 Z" /><glyph glyph-name="hyphen" unicode="-" d="M82 320 q-19 0 -30.5 15 q-11.5 15 -11.5 37 q0 22 12.5 35.5 q12.5 13.5 32.5 13.5 l108 -1 q74 0 134 4 q26 2 40.5 -12 q14.5 -14 14.5 -39 q0 -21 -15 -35 q-15 -14 -38 -16 q-36 -2 -134 -2 l-113 0 Z" /><glyph glyph-name="emdash" unicode="&#x2014;" d="M409 327 q-152 0 -221.5 1 q-69.5 1 -102.5 6 q-21 3 -33 17 q-12 14 -12 34 q0 21 15.5 35.5 q15.5 14.5 38.5 13.5 q72 -6 322 -6 q88 0 176.5 0.5 q88.5 0.5 176.5 1.5 q90 1 180 1.5 q90 0.5 181 0.5 q101 0 227 -4 q86 -2 107 -2 q18 0 30.5 -14.5 q12.5 -14.5 12.5 -35.5 q0 -21 -12 -35 q-12 -14 -31 -14 l-88 2 q-159 3 -196 3 q-94 0 -190 -0.5 q-96 -0.5 -193 -1.5 q-196 -3 -388 -3 Z" /><glyph glyph-name="quoteright" unicode="&#x2019;" d="M141 731 q41 0 65 -24.5 q24 -24.5 24 -66.5 q0 -83 -72 -148 q-14 -12 -26 -12 q-14 0 -24.5 8.5 q-10.5 8.5 -10.5 21.5 q0 12 10 25 q2 2 12.5 15 q10.5 13 21.5 29 l-1 0 q-29 0 -54.5 19 q-25.5 19 -25.5 61 q0 30 22.5 51 q22.5 21 58.5 21 ZM111 656 q0 -12 8 -20.5 q8 -8.5 23 -8.5 q15 0 23 8.5 q8 8.5 8 20.5 q0 28 -32 28 q-13 0 -21.5 -8.5 q-8.5 -8.5 -8.5 -19.5 Z" /><glyph glyph-name="guillemotleft" unicode="«" d="M281 191 q-8 0 -12 1 q-54 16 -102.5 46.5 q-48.5 30.5 -77.5 65 q-29 34.5 -29 63.5 q0 29 30.5 65 q30.5 36 80.5 66.5 q50 30.5 104 45.5 q9 3 18 3 q18 0 30 -11 q12 -11 12 -29 q0 -17 -10 -27 q-10 -10 -32 -19 q-26 -9 -61.5 -28.5 q-35.5 -19.5 -62 -38.5 q-26.5 -19 -26.5 -26 q0 -7 25.5 -27 q25.5 -20 58.5 -39.5 q33 -19.5 54 -25.5 q19 -5 30 -18 q11 -13 11 -28 q0 -17 -12 -28 q-12 -11 -29 -11 ZM487 185 q-4 0 -12 2 q-55 17 -103 47.5 q-48 30.5 -77 65 q-29 34.5 -29 63.5 q0 28 30 62.5 q30 34.5 80 65.5 q50 31 105 48 q9 3 17 3 q17 0 28 -12 q11 -12 11 -31 q0 -32 -36 -43 q-30 -8 -65 -27.5 q-35 -19.5 -59.5 -39 q-24.5 -19.5 -24.5 -27.5 q0 -7 24 -26.5 q24 -19.5 56.5 -38 q32.5 -18.5 57.5 -26.5 q18 -7 28 -18.5 q10 -11.5 10 -26.5 q0 -17 -12 -29 q-12 -12 -29 -12 Z" /><glyph glyph-name="quotedbl" unicode="&quot;" d="M125 473 q-21 0 -33 9 q-12 9 -12 25 q0 37 1 62 l1 117 q0 13 12 21 q12 8 33 8 q21 0 34 -8 q13 -8 13 -21 l-1 -181 q0 -15 -13 -23.5 q-13 -8.5 -35 -8.5 ZM282 473 q-21 0 -33 9 q-12 9 -12 25 q0 37 1 62 l1 117 q0 13 11.5 21 q11.5 8 32.5 8 q22 0 34.5 -8 q12.5 -8 12.5 -21 l-1 -181 q0 -15 -12.5 -23.5 q-12.5 -8.5 -34.5 -8.5 Z" /><glyph glyph-name="quotesingle" unicode="&#39;" d="M125 473 q-21 0 -33 9 q-12 9 -12 25 q0 37 1 62 l1 117 q0 13 11.5 21 q11.5 8 32.5 8 q22 0 34.5 -8 q12.5 -8 12.5 -21 l-1 -181 q0 -15 -12.5 -23.5 q-12.5 -8.5 -34.5 -8.5 Z" /><glyph glyph-name="plus" unicode="+" d="M459 353 q28 0 39 -11.5 q11 -11.5 11 -35.5 q0 -43 -53 -43 q-83 0 -135 1 l0 -126 q0 -50 -46 -50 q-26 0 -35.5 12.5 q-9.5 12.5 -9.5 39.5 l0 124 l-137 2 q-25 0 -36.5 11 q-11.5 11 -11.5 33 q0 46 48 46 q84 0 136 -1 l0 118 q0 47 47 47 q25 0 35 -12 q10 -12 10 -35 l0 -119 q54 -1 138 -1 Z" /><glyph glyph-name="plusminus" unicode="±" d="M117 326 q-25 0 -37.5 13 q-12.5 13 -12.5 35 q0 22 13.5 34 q13.5 12 39.5 12 l110 -1 l0 88 q0 21 12.5 33.5 q12.5 12.5 37.5 12.5 q48 0 48 -46 l0 -90 q41 -1 102 -1 q57 0 57 -47 q0 -21 -14 -33 q-14 -12 -42 -12 q-61 0 -103 1 l0 -86 q0 -24 -12 -37.5 q-12 -13.5 -37 -13.5 q-26 0 -37 13 q-11 13 -11 39 l0 85 q-46 1 -114 1 ZM418 136 q29 0 45.5 -13 q16.5 -13 16.5 -36 q0 -21 -17 -32.5 q-17 -11.5 -48 -12.5 l-282 -3 q-55 0 -55 46 q0 48 58 48 l282 3 Z" /><glyph glyph-name="copyright" unicode="©" d="M464 702 q102 0 182 -47 q80 -47 124.5 -127 q44.5 -80 44.5 -176 q0 -98 -44 -178.5 q-44 -80.5 -124 -127 q-80 -46.5 -183 -46.5 q-106 0 -191.5 48.5 q-85.5 48.5 -134 130.5 q-48.5 82 -48.5 178 q0 96 47.5 175 q47.5 79 133 124.5 q85.5 45.5 193.5 45.5 ZM464 77 q79 0 139 32.5 q60 32.5 93 92.5 q33 60 33 140 q0 130 -66 208 q-66 78 -199 78 q-83 0 -149 -36 q-66 -36 -103 -98 q-37 -62 -37 -136 q0 -78 37 -142.5 q37 -64.5 103 -101.5 q66 -37 149 -37 ZM595 322 q19 0 30 -8 q11 -8 11 -22 q-1 -65 -47.5 -105 q-46.5 -40 -125.5 -40 q-90 0 -147 51 q-57 51 -57 139 q0 63 24.5 113 q24.5 50 68 78.5 q43.5 28.5 98.5 28.5 q24 0 49 -9.5 q25 -9.5 46 -25.5 l0 4 q0 30 26 30 q18 0 30 -7.5 q12 -7.5 12 -20.5 q0 -55 -7.5 -77 q-7.5 -22 -28.5 -23 q-11 0 -18.5 2 q-7.5 2 -14.5 10 q-23 28 -39 39.5 q-16 11.5 -40 11.5 q-30 0 -56 -19.5 q-26 -19.5 -42 -54.5 q-16 -35 -16 -79 q0 -65 29.5 -95 q29.5 -30 85.5 -30 q43 0 65.5 21.5 q22.5 21.5 22.5 57.5 q0 13 11.5 21.5 q11.5 8.5 29.5 8.5 Z" /><glyph glyph-name="registered" unicode="®" d="M459 710 q106 0 187 -48.5 q81 -48.5 125 -131 q44 -82.5 44 -179.5 q0 -98 -44.5 -178 q-44.5 -80 -124.5 -126.5 q-80 -46.5 -183 -46.5 q-106 0 -191 48.5 q-85 48.5 -133.5 130.5 q-48.5 82 -48.5 178 q0 96 48 177 q48 81 132.5 128.5 q84.5 47.5 188.5 47.5 ZM463 73 q79 0 141.5 36 q62.5 36 97.5 99.5 q35 63.5 35 142.5 q0 77 -34 142.5 q-34 65.5 -97 104.5 q-63 39 -147 39 q-82 0 -147 -37.5 q-65 -37.5 -101 -101.5 q-36 -64 -36 -140 q0 -77 37 -142.5 q37 -65.5 103 -104 q66 -38.5 148 -38.5 ZM621 421 q0 -59 -46 -89 q-46 -30 -110 -30 l-20 0 l149 -97 q12 -7 12 -22 q0 -15 -12.5 -28.5 q-12.5 -13.5 -27.5 -13.5 q-12 0 -25 9 l-145 112 l-1 -90 q0 -14 -10 -23 q-10 -9 -30 -9 q-40 0 -40 35 l1 78 l0 97 l-1 49 q-2 32 -2 49 q-10 5 -15 16.5 q-5 11.5 -5 23.5 q0 12 17 22 l0 11 q0 17 15 25 q15 8 33 8 q23 0 31 -13 q41 12 80 12 q66 0 109 -35.5 q43 -35.5 43 -96.5 ZM397 373 q8 -4 28 -6 q20 -2 38 -2 q37 0 59 15.5 q22 15.5 22 45.5 q0 28 -23 44 q-23 16 -60 16 q-30 0 -67 -13 l3 -100 Z" /><glyph glyph-name="degree" unicode="°" d="M197 560 q-70 0 -113.5 40 q-43.5 40 -43.5 102 q0 43 21 78 q21 35 58 55 q37 20 82 20 q45 0 81 -19.5 q36 -19.5 56.5 -53 q20.5 -33.5 20.5 -71.5 q0 -43 -22 -77.5 q-22 -34.5 -59 -54 q-37 -19.5 -81 -19.5 ZM197 633 q36 0 58 20.5 q22 20.5 22 55.5 q0 30 -20 51 q-20 21 -60 21 q-34 0 -55 -23 q-21 -23 -21 -56 q0 -32 21.5 -50.5 q21.5 -18.5 54.5 -18.5 Z" /><glyph glyph-name="brokenbar" unicode="¦" d="M156 428 q-21 0 -34 9 q-13 9 -13 25 l-8 396 q0 16 13.5 25 q13.5 9 34.5 9 q21 0 33 -9 q12 -9 13 -25 l8 -396 q0 -16 -13 -25 q-13 -9 -34 -9 ZM148 -127 q-22 0 -35 9 q-13 9 -13 26 l7 397 q0 18 12.5 27.5 q12.5 9.5 34.5 9.5 q47 0 47 -37 l-6 -397 q0 -17 -12.5 -26 q-12.5 -9 -34.5 -9 Z" /><glyph glyph-name="acute" unicode="´" d="M137 561 q-15 0 -27 10 q-12 10 -14 24 q-1 3 -1 11 q0 16 13 35 l87 106 q14 16 25.5 22.5 q11.5 6.5 26.5 6.5 q20 0 33.5 -14 q13.5 -14 13.5 -34 q0 -23 -24 -50 l-89 -94 q-12 -13 -21.5 -18 q-9.5 -5 -22.5 -5 Z" /><glyph glyph-name="dieresis" unicode="¨" d="M63 565 q-29 0 -50 21.5 q-21 21.5 -21 50.5 q0 28 21 48.5 q21 20.5 50 20.5 q29 0 50.5 -20.5 q21.5 -20.5 21.5 -48.5 q0 -29 -21.5 -50.5 q-21.5 -21.5 -50.5 -21.5 ZM327 565 q-29 0 -50 21.5 q-21 21.5 -21 50.5 q0 28 21 48.5 q21 20.5 50 20.5 q29 0 50 -20.5 q21 -20.5 21 -48.5 q0 -29 -21 -50.5 q-21 -21.5 -50 -21.5 Z" /><glyph glyph-name="grave" unicode="`" d="M247 490 q-19 0 -35 14 l-175 174 q-18 15 -18 36 q0 18 14.5 33 q14.5 15 33.5 15 q20 0 37 -19 l46 -47 q81 -81 130 -127 q15 -12 15 -34 q0 -18 -14.5 -31.5 q-14.5 -13.5 -33.5 -13.5 Z" /></font>
</defs>
</svg>
