<?xml version="1.0" standalone="no"?><!DOCTYPE svg PUBLIC "-//W3C//DTD SVG 1.1//EN" "http://www.w3.org/Graphics/SVG/1.1/DTD/svg11.dtd" ><svg xmlns="http://www.w3.org/2000/svg"><metadata></metadata><defs><font id="1.000;CDK ;Mali-Regular" horiz-adv-x="1547"><font-face font-family="Mali" font-weight="400" font-stretch="normal" units-per-em="1000" panose-1="0 0 5 0 0 0 0 0 0 0" ascent="1050" descent="-250" x-height="0" bbox="-80 -259 1507 928" underline-thickness="50" underline-position="-75" unicode-range="U+0020-2019" /><missing-glyph horiz-adv-x="522" d="M424 9 q-117 2 -204 2 l-140 -1 q-10 0 -13.5 3 q-3.5 3 -3.5 12 l0 334 q0 99 5 339 q0 24 27 24 l92 -1 q23 -1 73 -1 l120 1 q21 1 47 1 q18 0 18 -19 l-5 -339 l0 -124 l0 -213 q0 -18 -16 -18 ZM403 364 l3 318 l-150 0 l-144 1 q-4 0 -6 -2.5 q-2 -2.5 -2 -9.5 q0 -4 -1.5 -108.5 q-1.5 -104.5 -1.5 -239.5 l0 -274 l133 1 l57 -1 q33 0 113 -2 l-1 317 Z" /><glyph glyph-name="space" unicode=" " d="" /><glyph glyph-name="A" unicode="a" d="M609 34 q3 -9 3 -12 q0 -16 -12.5 -24 q-12.5 -8 -30.5 -8 q-13 0 -23 6 q-10 6 -13 16 l-46 155 l-285 2 l-49 -153 q-8 -25 -37 -25 q-17 0 -29.5 9 q-12.5 9 -12.5 23 q0 2 2 12 q101 296 171 515 q16 48 16 48 q20 61 40 87 q20 26 49 26 q28 0 46 -23 q18 -23 36 -80 q38 -118 95 -306 l17 -57 l28 0 q16 0 26.5 -11 q10.5 -11 10.5 -28 q0 -39 -31 -39 l-11 0 q23 -79 40 -133 ZM465 246 l-30 103 q-35 121 -54 185 q-12 40 -19 58 q-7 18 -13 18 q-5 0 -11 -15.5 q-6 -15.5 -20 -59.5 l-49 -154 l-41 -132 l237 -3 Z" /><glyph glyph-name="B" unicode="b" d="M43 37 q0 16 8.5 26.5 q8.5 10.5 26.5 9.5 l14 0 q14 139 14 309 q0 137 -2 217 l-11 -3 q-12 -2 -20.5 5 q-8.5 7 -8.5 22 q0 16 10.5 26.5 q10.5 10.5 36.5 21.5 q85 36 186 36 q75 0 136 -23 q61 -23 96.5 -66.5 q35.5 -43.5 35.5 -103.5 q0 -62 -50.5 -106 q-50.5 -44 -130.5 -55 q79 -13 125 -60.5 q46 -47.5 46 -106.5 q0 -63 -37 -106.5 q-37 -43.5 -99 -64 q-62 -20.5 -135 -17.5 l-70 3 l-52 1 q-7 -25 -35 -25 q-33 0 -40 28 l-13 1 q-31 2 -31 31 ZM167 69 q76 -2 113 -2 q99 0 149 28 q50 28 50 91 q0 70 -58 99.5 q-58 29.5 -163 34.5 q-22 1 -34.5 7.5 q-12.5 6.5 -12.5 27.5 q0 21 12.5 28 q12.5 7 32.5 8 q66 4 113 12 q47 8 83 34 q36 26 36 77 q0 62 -51.5 94 q-51.5 32 -139.5 32 q-26 0 -59 -4 q-33 -4 -57 -11 q2 -93 2 -242 q0 -158 -16 -314 Z" /><glyph glyph-name="C" unicode="c" d="M640 283 q40 0 40 -38 q0 -68 -36.5 -124.5 q-36.5 -56.5 -104 -90 q-67.5 -33.5 -157.5 -33.5 q-88 0 -164 37 q-76 37 -122 113 q-46 76 -46 188 q0 109 44.5 195.5 q44.5 86.5 120 134.5 q75.5 48 163.5 48 q61 0 110 -23 q49 -23 82 -65 l-1 49 q0 16 9.5 25 q9.5 9 28.5 9 q36 0 36 -37 l0 -112 q0 -45 -36 -45 q-13 0 -22 5 q-9 5 -17 16 q-79 107 -190 107 q-68 0 -126 -40.5 q-58 -40.5 -91.5 -111 q-33.5 -70.5 -33.5 -158.5 q0 -87 37.5 -146.5 q37.5 -59.5 97 -88.5 q59.5 -29 126.5 -29 q54 0 103 19 q49 19 80 58.5 q31 39.5 31 99.5 q0 18 10 28 q10 10 28 10 Z" /><glyph glyph-name="Ccedilla" unicode="ç" d="M680 245 q0 -67 -35 -122.5 q-35 -55.5 -101 -89.5 q-66 -34 -153 -36 l-31 -51 q39 -8 62.5 -23.5 q23.5 -15.5 23.5 -47.5 q0 -50 -37 -74 q-37 -24 -95 -24 q-37 0 -74 14 q-10 4 -15.5 12 q-5.5 8 -5.5 17 q0 13 8.5 21 q8.5 8 20.5 8 q7 0 10 -1 q40 -11 60 -11 q35 0 49.5 5 q14.5 5 14.5 26 q0 14 -13 19.5 q-13 5.5 -33.5 8.5 q-20.5 3 -29.5 5 q-17 2 -25 11.5 q-8 9.5 -4 22.5 l43 67 q-76 12 -137 52.5 q-61 40.5 -97 111.5 q-36 71 -36 169 q0 109 44.5 195.5 q44.5 86.5 120 134.5 q75.5 48 163.5 48 q61 0 110 -23 q49 -23 82 -65 l-1 49 q0 16 9.5 25 q9.5 9 28.5 9 q36 0 36 -37 l0 -112 q0 -45 -36 -45 q-13 0 -22 5 q-9 5 -17 16 q-79 107 -190 107 q-68 0 -126 -40.5 q-58 -40.5 -91.5 -111 q-33.5 -70.5 -33.5 -158.5 q0 -87 37.5 -146.5 q37.5 -59.5 97 -88.5 q59.5 -29 126.5 -29 q54 0 103 19 q49 19 80 58.5 q31 39.5 31 99.5 q0 18 10 28 q10 10 28 10 q40 0 40 -38 Z" /><glyph glyph-name="D" unicode="d" d="M201 698 q203 -13 318.5 -95.5 q115.5 -82.5 115.5 -241.5 q0 -107 -53.5 -187 q-53.5 -80 -154 -123.5 q-100.5 -43.5 -236.5 -43.5 l-71 0 q-22 0 -32 8 q-10 8 -10 27 q0 34 32 34 l34 0 l-15 554 l-7 0 q-22 0 -33.5 7 q-11.5 7 -11.5 26 q0 21 11.5 29 q11.5 8 33.5 8 l11 0 q9 18 34 18 q27 0 34 -20 ZM220 76 q100 4 176.5 38.5 q76.5 34.5 119.5 97.5 q43 63 43 149 q0 242 -353 266 l14 -551 Z" /><glyph glyph-name="E" unicode="e" d="M487 90 q21 2 31.5 -7 q10.5 -9 10.5 -28 q0 -17 -8 -24.5 q-8 -7.5 -22 -10.5 q-39 -8 -151 -8 l-32 0 q-67 0 -119.5 2 q-52.5 2 -118.5 10 q-27 3 -27 33 q0 15 7 25 q7 10 18 10 q10 0 17 -1 q16 100 17 244 l-12 0 q-17 0 -26 9 q-9 9 -9 26 q0 35 31 35 l16 0 l0 111 q0 72 -1 108 q-28 5 -28 32 q0 21 10.5 27.5 q10.5 6.5 29.5 8.5 q56 6 172 6 q145 0 208 -9 q17 -3 25.5 -9.5 q8.5 -6.5 8.5 -23.5 q0 -17 -9 -27 q-9 -10 -23 -8 q-100 8 -184 8 q-65 0 -135 -4 q4 -140 4 -221 l67 -1 q80 -2 102 -2 q54 -2 68 -2 q28 0 28 -33 q0 -17 -7 -27 q-7 -10 -21 -10 l-53 1 q-45 3 -119 3 q-45 0 -66 1 q-1 -114 -17 -248 q62 -5 155 -5 q54 0 85.5 2 q31.5 2 76.5 7 Z" /><glyph glyph-name="F" unicode="f" d="M496 690 q15 -3 23.5 -11 q8.5 -8 8.5 -24 q0 -16 -9 -26 q-9 -10 -25 -8 q-54 7 -95 10 q-41 3 -92 3 q-40 0 -120 -4 q9 -105 10 -240 q37 3 86 3 q102 0 157 -7 q16 -2 23.5 -12 q7.5 -10 7.5 -24 q0 -14 -8 -23.5 q-8 -9.5 -26 -8.5 q-72 5 -155 5 q-46 0 -85 -3 q0 -167 -10 -283 q-2 -14 -12 -22.5 q-10 -8.5 -27 -8.5 q-18 0 -28.5 9 q-10.5 9 -9.5 23 q10 113 11 275 l-44 -6 q-14 -2 -22.5 8 q-8.5 10 -8.5 26 q0 32 33 36 q32 4 42 5 q-1 143 -12 244 l-28 -1 q-20 -1 -28.5 8 q-8.5 9 -8.5 27 q0 15 7.5 24 q7.5 9 26.5 10 l24 2 l-1 12 q-1 17 9.5 27 q10.5 10 29.5 10 q35 0 39 -38 l1 -7 q61 3 122 3 q65 0 117.5 -3.5 q52.5 -3.5 76.5 -9.5 Z" /><glyph glyph-name="G" unicode="g" d="M667 355 q39 0 39 -34 q0 -17 -10 -26.5 q-10 -9.5 -27 -8.5 l-26 1 q-5 -139 -69 -212.5 q-64 -73.5 -189 -73.5 q-101 0 -178.5 47 q-77.5 47 -119 126 q-41.5 79 -41.5 173 q0 94 42 172.5 q42 78.5 117 124.5 q75 46 169 46 q71 0 122.5 -24.5 q51.5 -24.5 83.5 -61.5 l0 20 q0 17 11 26.5 q11 9.5 29 9.5 q17 0 27.5 -8 q10.5 -8 10.5 -19 q0 -71 -11 -94 q-10 -22 -39 -22 q-11 0 -20 4.5 q-9 4.5 -23 17.5 q-30 27 -52 43 q-22 16 -52.5 26.5 q-30.5 10.5 -72.5 10.5 q-79 0 -139 -37 q-60 -37 -93 -100 q-33 -63 -33 -138 q0 -75 33 -137.5 q33 -62.5 92.5 -98.5 q59.5 -36 135.5 -36 q91 0 135.5 54 q44.5 54 48.5 160 l-141 3 q-37 1 -37 35 q0 18 11.5 27.5 q11.5 9.5 27.5 8.5 l238 -5 Z" /><glyph glyph-name="Gbreve" unicode="&#x11e;" d="M667 355 q39 0 39 -34 q0 -17 -10 -26.5 q-10 -9.5 -27 -8.5 l-26 1 q-5 -139 -69 -212.5 q-64 -73.5 -189 -73.5 q-101 0 -178.5 47 q-77.5 47 -119 126 q-41.5 79 -41.5 173 q0 94 42 172.5 q42 78.5 117 124.5 q75 46 169 46 q71 0 122.5 -24.5 q51.5 -24.5 83.5 -61.5 l0 20 q0 17 11 26.5 q11 9.5 29 9.5 q17 0 27.5 -8 q10.5 -8 10.5 -19 q0 -71 -11 -94 q-10 -22 -39 -22 q-11 0 -20 4.5 q-9 4.5 -23 17.5 q-30 27 -52 43 q-22 16 -52.5 26.5 q-30.5 10.5 -72.5 10.5 q-79 0 -139 -37 q-60 -37 -93 -100 q-33 -63 -33 -138 q0 -75 33 -137.5 q33 -62.5 92.5 -98.5 q59.5 -36 135.5 -36 q91 0 135.5 54 q44.5 54 48.5 160 l-141 3 q-37 1 -37 35 q0 18 11.5 27.5 q11.5 9.5 27.5 8.5 l238 -5 ZM375 766 q-45 0 -81 18 q-36 18 -56.5 48 q-20.5 30 -20.5 65 q0 11 8.5 19.5 q8.5 8.5 19.5 8.5 q11 0 20 -4.5 q9 -4.5 10 -14.5 q2 -40 30 -63.5 q28 -23.5 70 -23.5 q37 0 64.5 24.5 q27.5 24.5 28.5 59.5 q0 12 9.5 18.5 q9.5 6.5 21.5 6.5 q12 0 20.5 -8 q8.5 -8 8.5 -20 q0 -35 -21 -66 q-21 -31 -56 -49.5 q-35 -18.5 -76 -18.5 Z" /><glyph glyph-name="H" unicode="h" d="M618 351 q45 0 45 -36 q0 -35 -45 -35 l-16 0 l7 -243 q1 -17 -9 -27.5 q-10 -10.5 -28 -10.5 q-19 0 -29 9.5 q-10 9.5 -11 26.5 l-7 247 l-330 5 l-21 -265 q-3 -28 -38 -28 q-42 0 -39 34 l21 261 l-19 0 q-17 0 -29 9 q-12 9 -12 26 q0 17 12 26 q12 9 31 9 l23 0 l26 328 q1 18 12.5 26.5 q11.5 8.5 27.5 8.5 q20 0 29 -11.5 q9 -11.5 8 -28.5 l-26 -325 l322 -5 l-10 332 q0 18 10 28 q10 10 28 10 q18 0 28.5 -10 q10.5 -10 10.5 -25 l10 -336 l18 0 Z" /><glyph glyph-name="I" unicode="i" d="M372 75 q34 0 34 -35 q0 -36 -35 -36 l-303 4 q-31 1 -31 36 q0 18 9.5 26.5 q9.5 8.5 23.5 8.5 l114 -2 q18 288 18 560 q-45 -1 -117 -6 l-27 -2 q-10 0 -18 10 q-8 10 -8 26 q0 29 32 35 q18 3 77 6 q59 3 115 3 q84 0 119 -6 q15 -3 23 -9.5 q8 -6.5 8 -24.5 q0 -17 -9.5 -26.5 q-9.5 -9.5 -25.5 -8.5 q-39 3 -92 4 q0 -162 -4 -292.5 q-4 -130.5 -15 -269.5 l112 -1 Z" /><glyph glyph-name="Idotaccent" unicode="&#x130;" d="M372 75 q34 0 34 -35 q0 -36 -35 -36 l-303 4 q-31 1 -31 36 q0 18 9.5 26.5 q9.5 8.5 23.5 8.5 l114 -2 q18 288 18 560 q-45 -1 -117 -6 l-27 -2 q-10 0 -18 10 q-8 10 -8 26 q0 29 32 35 q18 3 77 6 q59 3 115 3 q84 0 119 -6 q15 -3 23 -9.5 q8 -6.5 8 -24.5 q0 -17 -9.5 -26.5 q-9.5 -9.5 -25.5 -8.5 q-39 3 -92 4 q0 -162 -4 -292.5 q-4 -130.5 -15 -269.5 l112 -1 ZM225 776 q-23 0 -38.5 16 q-15.5 16 -15.5 39 q0 22 15.5 37 q15.5 15 38.5 15 q23 0 38.5 -15 q15.5 -15 15.5 -37 q0 -23 -15.5 -39 q-15.5 -16 -38.5 -16 Z" /><glyph glyph-name="J" unicode="j" d="M507 700 q32 -3 32 -35 q0 -34 -37 -34 l-51 0 q-3 -211 -3 -373 q0 -122 -58 -190 q-58 -68 -164 -68 q-94 0 -148.5 60 q-54.5 60 -54.5 196 q0 20 8 30 q8 10 29 10 q21 0 30 -10 q9 -10 10 -30 q3 -53 11 -91 q8 -38 35 -66 q27 -28 80 -28 q65 0 103.5 46.5 q38.5 46.5 38.5 145.5 q0 158 6 366 l-70 0 q-18 0 -28 9 q-10 9 -10 26 q0 15 7.5 23.5 q7.5 8.5 18.5 9.5 q48 4 112 4 q83 0 103 -1 Z" /><glyph glyph-name="K" unicode="k" d="M551 694 q15 0 26.5 -11 q11.5 -11 11.5 -27 q0 -17 -13 -27 q-60 -48 -153 -108 q-32 -20 -48 -31 q-15 -10 -119 -77 q-52 -33 -67 -43 l46 -42 q55 -52 121 -109 q56 -48 93 -76 q37 -28 104 -76 q15 -10 15 -31 q0 -17 -11 -27 q-11 -10 -26 -10 q-14 0 -22 7 q-122 94 -196 156 q-80 67 -156 144 q0 -37 -2 -103 q-2 -104 -2 -166 q0 -18 -10.5 -27.5 q-10.5 -9.5 -28.5 -9.5 q-38 0 -38 45 q0 45 2 145 q3 86 3 190 q0 93 -1 136 l-1 149 q0 14 11 24 q11 10 28 10 q18 0 28.5 -10.5 q10.5 -10.5 10.5 -26.5 l1 -233 q77 51 169 114 l22 15 q121 84 178 128 q11 8 24 8 Z" /><glyph glyph-name="L" unicode="l" d="M259 -1 q-90 0 -131 18 q-41 18 -54 62.5 q-13 44.5 -13 139.5 q0 109 10.5 213 q10.5 104 32.5 240 q2 14 13 22.5 q11 8.5 28 8.5 q36 0 36 -33 q0 -7 -1 -10 q-26 -170 -35.5 -255 q-9.5 -85 -9.5 -188 q0 -66 7.5 -95.5 q7.5 -29.5 31.5 -41.5 q24 -12 78 -12 q56 0 98.5 6 q42.5 6 109.5 20 q4 1 10 1 q16 0 23.5 -10 q7.5 -10 7.5 -25 q0 -16 -10 -25 q-10 -9 -31 -14 q-93 -22 -201 -22 Z" /><glyph glyph-name="M" unicode="m" d="M715 231 q2 -128 2 -199 q0 -17 -9.5 -27.5 q-9.5 -10.5 -28.5 -10.5 q-18 0 -28.5 10.5 q-10.5 10.5 -10.5 26.5 q-1 96 -1 288 q0 303 -43 303 q-18 0 -47 -45.5 q-29 -45.5 -49 -91.5 q-19 -44 -32 -92 q-13 -48 -27 -111 q-6 -30 -43 -30 q-17 0 -27.5 6.5 q-10.5 6.5 -15.5 21.5 l-14 50 q-26 104 -44 150 q-20 52 -48 98 q-28 46 -44 46 q-22 0 -32.5 -84.5 q-10.5 -84.5 -13.5 -212.5 q-1 -45 -1 -139 l0 -157 q0 -15 -10.5 -23.5 q-10.5 -8.5 -30.5 -8.5 q-22 0 -29.5 10.5 q-7.5 10.5 -7.5 28.5 q0 57 2 157 l1 133 q0 198 27 291 q27 93 86 93 q67 0 117.5 -100 q50.5 -100 83.5 -241 q18 82 51 161 q33 79 75 129.5 q42 50.5 86 50.5 q40 0 62.5 -45 q22.5 -45 31.5 -129.5 q9 -84.5 11 -216.5 l1 -90 Z" /><glyph glyph-name="N" unicode="n" d="M618 713 q20 0 30 -10.5 q10 -10.5 10 -29.5 l-1 -365 q0 -121 -7.5 -185 q-7.5 -64 -22 -87.5 q-14.5 -23.5 -39.5 -23.5 q-30 0 -63 31.5 q-33 31.5 -74 92 q-41 60.5 -119 183.5 q-73 116 -110.5 173.5 q-37.5 57.5 -64.5 94.5 q0 -68 1 -109 l1 -133 l1 -303 q0 -13 -11 -22.5 q-11 -9.5 -28 -9.5 q-16 0 -27.5 9.5 q-11.5 9.5 -11.5 22.5 l0 304 q0 95 -1 148 l-1 149 q0 32 10 47.5 q10 15.5 35 15.5 q27 0 54 -24 q27 -24 55.5 -66 q28.5 -42 83.5 -130 q-8 14 53 -86 q124 -198 198 -293 q10 73 10 202 l0 369 q0 16 10.5 25.5 q10.5 9.5 28.5 9.5 Z" /><glyph glyph-name="O" unicode="o" d="M389 8 q-93 0 -169 36.5 q-76 36.5 -121 112 q-45 75.5 -45 186.5 q0 105 41 188 q41 83 116 129.5 q75 46.5 173 46.5 q99 0 180 -47.5 q81 -47.5 127.5 -131.5 q46.5 -84 46.5 -190 q0 -107 -48 -181.5 q-48 -74.5 -127.5 -111.5 q-79.5 -37 -173.5 -37 ZM394 79 q67 0 128 27.5 q61 27.5 100 87 q39 59.5 39 148.5 q0 84 -35 151 q-35 67 -97.5 105 q-62.5 38 -140.5 38 q-76 0 -134.5 -36.5 q-58.5 -36.5 -91 -101.5 q-32.5 -65 -32.5 -150 q0 -95 39 -155.5 q39 -60.5 99 -87 q60 -26.5 126 -26.5 Z" /><glyph glyph-name="Odieresis" unicode="ö" d="M389 8 q-93 0 -169 36.5 q-76 36.5 -121 112 q-45 75.5 -45 186.5 q0 105 41 188 q41 83 116 129.5 q75 46.5 173 46.5 q99 0 180 -47.5 q81 -47.5 127.5 -131.5 q46.5 -84 46.5 -190 q0 -107 -48 -181.5 q-48 -74.5 -127.5 -111.5 q-79.5 -37 -173.5 -37 ZM394 79 q67 0 128 27.5 q61 27.5 100 87 q39 59.5 39 148.5 q0 84 -35 151 q-35 67 -97.5 105 q-62.5 38 -140.5 38 q-76 0 -134.5 -36.5 q-58.5 -36.5 -91 -101.5 q-32.5 -65 -32.5 -150 q0 -95 39 -155.5 q39 -60.5 99 -87 q60 -26.5 126 -26.5 ZM274 776 q-23 0 -38.5 16 q-15.5 16 -15.5 39 q0 22 15.5 37 q15.5 15 38.5 15 q23 0 39 -15 q16 -15 16 -37 q0 -22 -16.5 -38.5 q-16.5 -16.5 -38.5 -16.5 ZM514 776 q-23 0 -38.5 16 q-15.5 16 -15.5 39 q0 22 15.5 37 q15.5 15 38.5 15 q23 0 38.5 -15 q15.5 -15 15.5 -37 q0 -23 -16 -39 q-16 -16 -38 -16 Z" /><glyph glyph-name="P" unicode="p" d="M299 705 q75 0 139.5 -28.5 q64.5 -28.5 103.5 -81 q39 -52.5 39 -121.5 q0 -63 -34 -111.5 q-34 -48.5 -93.5 -74.5 q-59.5 -26 -135.5 -26 q-86 0 -145 31 l-3 -262 q0 -18 -10.5 -28 q-10.5 -10 -28.5 -10 q-19 0 -29.5 10 q-10.5 10 -10.5 27 q0 46 2 136 q2 96 2 152 q0 103 -4 223 q-1 7 -1 21 l-3 -2 q-10 -5 -17 -5 q-14 0 -22.5 13.5 q-8.5 13.5 -8.5 31.5 q0 12 8 19.5 q8 7.5 24 15.5 l17 10 l0 16 q0 23 10 34 q10 11 31 11 q18 0 28 -6 q10 -6 10 -16 l0 -2 q64 23 132 23 ZM304 328 q57 0 100.5 19 q43.5 19 67.5 53 q24 34 24 77 q0 46 -27 82 q-27 36 -71.5 56 q-44.5 20 -97.5 20 q-55 0 -132 -35 q2 -70 2 -92 q0 -22 2 -70 q2 -59 1 -78 q56 -32 131 -32 Z" /><glyph glyph-name="Q" unicode="q" d="M704 86 q13 -13 13 -28 q0 -16 -12 -28 q-12 -12 -28 -12 q-17 0 -28 11 l-55 55 q-46 -34 -102.5 -52.5 q-56.5 -18.5 -118.5 -18.5 q-96 0 -169 43 q-73 43 -112.5 119.5 q-39.5 76.5 -39.5 174.5 q0 109 47 191 q47 82 123.5 126 q76.5 44 162.5 44 q88 0 166.5 -45 q78.5 -45 127 -125.5 q48.5 -80.5 48.5 -181.5 q0 -128 -76 -221 l53 -52 ZM374 84 q46 0 88 14 q42 14 77 40 l-74 73 q-11 11 -11 22 q0 15 15.5 28.5 q15.5 13.5 30.5 13.5 q10 0 17 -6 l78 -77 q55 74 55 168 q0 78 -37 142 q-37 64 -97 101 q-60 37 -127 37 q-65 0 -125 -35 q-60 -35 -97.5 -100.5 q-37.5 -65.5 -37.5 -152.5 q0 -78 31 -139 q31 -61 87 -95 q56 -34 127 -34 Z" /><glyph glyph-name="R" unicode="r" d="M551 88 q20 -12 20 -30 q0 -17 -10 -31 q-10 -14 -28 -14 q-8 0 -17.5 3.5 q-9.5 3.5 -15.5 7.5 l-332 209 q-1 -73 -1 -203 q0 -17 -10 -26 q-10 -9 -27 -9 q-19 0 -29.5 10.5 q-10.5 10.5 -10.5 30.5 l0 316 q0 58 -2 146 l-1 60 l-3 -1 q-6 -2 -9 -2 q-15 0 -21.5 12.5 q-6.5 12.5 -6.5 29.5 q0 22 30 38 l9 4 l0 28 q0 17 10 26 q10 9 27 9 q16 0 26 -7 q10 -7 10 -18 l0 -5 q71 28 148 28 q83 0 145.5 -26 q62.5 -26 96 -73 q33.5 -47 33.5 -110 q0 -68 -38.5 -114.5 q-38.5 -46.5 -102 -70 q-63.5 -23.5 -139.5 -23.5 q-36 0 -84 12 l333 -207 ZM312 629 q-36 0 -72 -8.5 q-36 -8.5 -80 -27.5 q2 -38 2 -56 q5 -82 6 -171 q54 -15 126 -15 q94 0 149 36 q55 36 55 101 q0 62 -51.5 101.5 q-51.5 39.5 -134.5 39.5 Z" /><glyph glyph-name="S" unicode="s" d="M292 1 q-73 0 -125 29.5 q-52 29.5 -78.5 79 q-26.5 49.5 -26.5 107.5 q0 18 8.5 28 q8.5 10 29.5 10 q39 0 39 -33 q0 -47 21 -81 q21 -34 56 -52 q35 -18 76 -18 q60 0 98.5 28 q38.5 28 38.5 81 q0 39 -21 64.5 q-21 25.5 -55 41 q-34 15.5 -87 31.5 q-57 16 -97 33.5 q-40 17.5 -74.5 56.5 q-34.5 39 -34.5 103 q0 57 30 102 q30 45 80 70 q50 25 110 25 q62 0 112.5 -27 q50.5 -27 79 -71 q28.5 -44 28.5 -93 q0 -22 -8.5 -31 q-8.5 -9 -28.5 -9 q-23 0 -31 9 q-8 9 -8 25 q0 53 -40 90 q-40 37 -104 37 q-64 0 -103.5 -36.5 q-39.5 -36.5 -39.5 -91.5 q0 -37 21.5 -60.5 q21.5 -23.5 54 -36.5 q32.5 -13 92.5 -31 q51 -16 92.5 -35.5 q41.5 -19.5 74.5 -60.5 q33 -41 33 -104 q0 -54 -27.5 -95 q-27.5 -41 -76 -63 q-48.5 -22 -109.5 -22 Z" /><glyph glyph-name="Scedilla" unicode="&#x15e;" d="M505 181 q0 -74 -50 -122 q-50 -48 -130 -56 l-35 -57 q39 -8 62.5 -23.5 q23.5 -15.5 23.5 -47.5 q0 -50 -37 -74 q-37 -24 -95 -24 q-37 0 -74 14 q-10 4 -15.5 12 q-5.5 8 -5.5 17 q0 13 8.5 21 q8.5 8 20.5 8 q7 0 10 -1 q40 -11 60 -11 q34 0 49 5 q15 5 15 26 q0 14 -13 19.5 q-13 5.5 -33.5 8.5 q-20.5 3 -29.5 5 q-17 2 -25 11.5 q-8 9.5 -4 22.5 l44 69 q-60 8 -102.5 38.5 q-42.5 30.5 -64.5 76 q-22 45.5 -22 98.5 q0 18 8.5 28 q8.5 10 29.5 10 q39 0 39 -33 q0 -47 21 -81 q21 -34 56 -52 q35 -18 76 -18 q60 0 98.5 28 q38.5 28 38.5 81 q0 39 -21 64.5 q-21 25.5 -55 41 q-34 15.5 -87 31.5 q-57 16 -97 33.5 q-40 17.5 -74.5 56.5 q-34.5 39 -34.5 103 q0 57 30 102 q30 45 80 70 q50 25 110 25 q62 0 112.5 -27 q50.5 -27 79 -71 q28.5 -44 28.5 -93 q0 -22 -8.5 -31 q-8.5 -9 -28.5 -9 q-23 0 -31 9 q-8 9 -8 25 q0 53 -40 90 q-40 37 -104 37 q-64 0 -103.5 -36.5 q-39.5 -36.5 -39.5 -91.5 q0 -37 21.5 -60.5 q21.5 -23.5 54 -36.5 q32.5 -13 92.5 -31 q51 -16 92.5 -35.5 q41.5 -19.5 74.5 -60.5 q33 -41 33 -104 Z" /><glyph glyph-name="T" unicode="t" d="M487 689 q35 -4 35 -36 q0 -18 -10 -27.5 q-10 -9.5 -28 -8.5 q-91 7 -163 8 q-8 -93 -13 -269 l-1 -21 q-7 -204 -7 -303 q0 -23 -9.5 -32.5 q-9.5 -9.5 -31.5 -9.5 q-23 0 -32 11 q-9 11 -9 40 q0 31 3 110.5 q3 79.5 5 124.5 l3 58 l14 291 q-77 -2 -168 -11 q-18 -2 -28.5 7.5 q-10.5 9.5 -10.5 28.5 q0 31 30 34 q110 12 222 12 q139 0 199 -7 Z" /><glyph glyph-name="U" unicode="u" d="M590 426 q0 -41 1 -64 q2 -170 2 -331 q0 -33 -38 -33 q-20 0 -29.5 9.5 q-9.5 9.5 -9.5 30.5 l0 78 q-28 -50 -84 -82 q-56 -32 -126 -32 q-120 0 -177 74 q-57 74 -57 185 q0 54 1 116 q1 62 2 95 q2 67 4 197 q0 33 37 33 q19 0 29 -9 q10 -9 10 -25 q0 -30 -3 -210 q-2 -128 -2 -196 q0 -93 43.5 -141 q43.5 -48 125.5 -48 q52 0 97 32 q45 32 71.5 81 q26.5 49 26.5 96 q0 124 -3 391 q0 35 36 35 q19 0 29.5 -10 q10.5 -10 10.5 -27 q0 -108 3 -245 Z" /><glyph glyph-name="Udieresis" unicode="ü" d="M590 426 q0 -41 1 -64 q2 -170 2 -331 q0 -33 -38 -33 q-20 0 -29.5 9.5 q-9.5 9.5 -9.5 30.5 l0 78 q-28 -50 -84 -82 q-56 -32 -126 -32 q-120 0 -177 74 q-57 74 -57 185 q0 54 1 116 q1 62 2 95 q2 67 4 197 q0 33 37 33 q19 0 29 -9 q10 -9 10 -25 q0 -30 -3 -210 q-2 -128 -2 -196 q0 -93 43.5 -141 q43.5 -48 125.5 -48 q52 0 97 32 q45 32 71.5 81 q26.5 49 26.5 96 q0 124 -3 391 q0 35 36 35 q19 0 29.5 -10 q10.5 -10 10.5 -27 q0 -108 3 -245 ZM212 776 q-23 0 -38.5 16 q-15.5 16 -15.5 39 q0 22 15.5 37 q15.5 15 38.5 15 q23 0 39 -15 q16 -15 16 -37 q0 -22 -16.5 -38.5 q-16.5 -16.5 -38.5 -16.5 ZM452 776 q-23 0 -38.5 16 q-15.5 16 -15.5 39 q0 22 15.5 37 q15.5 15 38.5 15 q23 0 38.5 -15 q15.5 -15 15.5 -37 q0 -23 -16 -39 q-16 -16 -38 -16 Z" /><glyph glyph-name="V" unicode="v" d="M328 0 q-26 0 -47 12.5 q-21 12.5 -33 35.5 q-28 53 -111 325 q-50 170 -46 158 q-17 55 -39 133 q-2 8 -2 11 q0 14 12.5 23.5 q12.5 9.5 28.5 9.5 q26 0 32 -19 q32 -105 51 -176 l37 -127 q39 -129 59 -188.5 q20 -59.5 32.5 -82 q12.5 -22.5 24.5 -22.5 q13 1 24.5 22.5 q11.5 21.5 29.5 79 q18 57.5 55 191.5 l81 301 q7 19 34 19 q18 0 30 -9.5 q12 -9.5 12 -24.5 q0 -6 -1 -9 q-24 -91 -64 -231 l-16 -56 q-77 -271 -104 -328 q-10 -22 -32 -35 q-22 -13 -48 -13 Z" /><glyph glyph-name="W" unicode="w" d="M278 2 q-19 0 -34 9.5 q-15 9.5 -20 26.5 q-21 69 -57 227 q6 -27 -28 120 q-26 109 -73 270 q-2 8 -2 16 q0 14 10.5 23.5 q10.5 9.5 29.5 9.5 q15 0 23.5 -6.5 q8.5 -6.5 12.5 -21.5 q48 -174 73 -274 q13 -53 23 -99 q20 -88 33 -136 q13 -48 18 -48 q5 0 15 22 q10 22 25 57 l25 58 l9 20 q32 76 48 104.5 q16 28.5 30 28.5 q14 0 29.5 -23.5 q15.5 -23.5 45.5 -85.5 q8 -15 15.5 -29.5 q7.5 -14.5 13.5 -26.5 q7 -13 14.5 -28.5 q7.5 -15.5 16.5 -31.5 q14 -28 24 -46.5 q10 -18.5 14 -18.5 q3 0 14 49 q11 49 24 110 q21 107 25 123 q28 130 62 276 q3 13 13 19.5 q10 6.5 24 6.5 q17 0 28.5 -10 q11.5 -10 11.5 -27 q0 -6 -1 -10 q-31 -119 -64 -270 l-34 -161 q-18 -95 -38 -181 q-9 -40 -52 -40 q-18 0 -34.5 14 q-16.5 14 -35 45 q-18.5 31 -48.5 91 q-15 30 -35 78 q-9 22 -17 39 q-8 17 -11 17 q-6 0 -33 -69 q-23 -58 -32 -78 q-26 -59 -42 -88 q-16 -29 -29 -40 q-13 -11 -30 -11 Z" /><glyph glyph-name="X" unicode="x" d="M590 58 q11 -15 11 -23 q0 -15 -13 -27 q-13 -12 -30 -12 q-15 0 -27 15 l-201 271 l-195 -260 q-8 -11 -17 -16 q-9 -5 -22 -5 q-16 0 -27.5 11 q-11.5 11 -11.5 24 q0 9 2.5 14 q2.5 5 9.5 13 l215 282 l-216 296 q-8 11 -8 20 q0 16 12.5 27 q12.5 11 30.5 11 q10 0 17 -6 q7 -6 19 -21 l192 -264 q129 170 201 267 q8 12 14.5 17 q6.5 5 14.5 5 q18 0 31.5 -11.5 q13.5 -11.5 13.5 -23.5 q0 -13 -11 -26 l-217 -291 l212 -287 Z" /><glyph glyph-name="Y" unicode="y" d="M330 3 q-39 0 -39 38 l-3 287 q-49 17 -121 131 q-31 49 -50.5 90 q-19.5 41 -44.5 106 q-2 6 -2 12 q0 13 12.5 23 q12.5 10 28.5 10 q25 0 40 -35 q29 -69 42.5 -96.5 q13.5 -27.5 42.5 -75.5 q28 -45 51 -74 q23 -29 41 -29 q31 0 93 104 q23 39 42 78 q19 39 44 97 q7 17 15 23 q8 6 20 6 q18 0 30.5 -10.5 q12.5 -10.5 12.5 -25.5 q0 -7 -3 -13 q-28 -70 -48 -112 q-20 -42 -44 -80 q-35 -56 -69 -89 q-34 -33 -56 -40 l3 -285 q0 -40 -38 -40 Z" /><glyph glyph-name="Z" unicode="z" d="M540 19 q-51 4 -100 7 q-49 3 -107 3 q-56 0 -186 -5 q-22 0 -31.5 -0.5 q-9.5 -0.5 -12.5 -0.5 q-31 0 -45.5 6.5 q-14.5 6.5 -14.5 23.5 q0 25 38.5 71 q38.5 46 134.5 145 q100 103 115 119 q4 5 9.5 10.5 q5.5 5.5 11.5 12.5 q93 98 130 138.5 q37 40.5 62 73.5 q-112 -11 -186 -11 q-59 0 -132 5.5 q-73 5.5 -108 13.5 q-20 5 -29 13.5 q-9 8.5 -9 21.5 q0 16 9.5 25.5 q9.5 9.5 28.5 9.5 q25 0 78 -7 q84 -12 155 -12 q42 0 85 3 q43 3 102 8 l37 3 q11 1 24.5 -2.5 q13.5 -3.5 23.5 -10.5 q18 -13 18 -32 q0 -29 -52 -90 q-52 -61 -166 -179 l-24 -25 q-22 -22 -58 -60 q-69 -72 -122 -127.5 q-53 -55.5 -72 -78.5 q133 7 219 7 q59 0 104 -3 q45 -3 105 -10 q16 -2 24.5 -11 q8.5 -9 8.5 -23 q0 -16 -11.5 -26.5 q-11.5 -10.5 -28.5 -7.5 l-28 2 Z" /><glyph glyph-name="a" unicode="a" d="M536 65 q14 -2 21 -8 q7 -6 7 -22 q0 -15 -7.5 -24 q-7.5 -9 -20.5 -9 q-41 0 -60.5 13 q-19.5 13 -33.5 49 q-45 -73 -160 -73 q-81 0 -131 36 q-50 36 -71.5 91.5 q-21.5 55.5 -21.5 117.5 q0 67 27 126 q27 59 79.5 95 q52.5 36 125.5 36 q50 0 87 -20 q37 -20 58 -56 l4 33 q2 37 34 37 q20 0 30.5 -9.5 q10.5 -9.5 8.5 -22.5 l-3 -25 q-7 -42 -10 -87 q-3 -38 -3 -102 l0 -69 q0 -43 2.5 -63.5 q2.5 -20.5 10.5 -31.5 q8 -11 27 -12 ZM420 173 q1 47 1 121 q0 49 -21 79.5 q-21 30.5 -51 43.5 q-30 13 -57 13 q-53 0 -88.5 -30 q-35.5 -30 -52 -75 q-16.5 -45 -16.5 -89 q0 -70 34.5 -125.5 q34.5 -55.5 113.5 -55.5 q59 0 97.5 30.5 q38.5 30.5 39.5 87.5 Z" /><glyph glyph-name="b" unicode="b" d="M324 506 q73 0 130 -31.5 q57 -31.5 89 -89.5 q32 -58 32 -137 q0 -86 -37 -142.5 q-37 -56.5 -94 -82.5 q-57 -26 -120 -26 q-44 0 -83 13.5 q-39 13.5 -66 33 q-27 19.5 -38 37.5 q-6 -22 -22.5 -41 q-16.5 -19 -31.5 -26 q-8 -4 -17 -4 q-15 0 -25 11 q-10 11 -10 23 q0 12 10 21 q3 3 10 8.5 q7 5.5 12.5 12 q5.5 6.5 8.5 15.5 q7 21 7 60 l-2 77 l-3 147 l-2 136 q-2 197 -8 318 q-1 15 10 23.5 q11 8.5 28 8.5 q16 0 26.5 -8 q10.5 -8 11.5 -22 q5 -85 7 -161 q2 -76 3 -158 q0 -54 1 -85 q24 29 68 49 q44 20 105 20 ZM323 60 q44 0 83.5 19 q39.5 19 65.5 62 q26 43 26 109 q0 92 -49.5 142.5 q-49.5 50.5 -129.5 50.5 q-55 0 -99.5 -28 q-44.5 -28 -65.5 -64 l0 -76 q0 -58 3 -96 q2 -31 25.5 -58.5 q23.5 -27.5 61 -44 q37.5 -16.5 79.5 -16.5 Z" /><glyph glyph-name="c" unicode="c" d="M304 1 q-80 0 -136.5 32.5 q-56.5 32.5 -85 87 q-28.5 54.5 -28.5 121.5 q0 71 30 133 q30 62 87.5 100 q57.5 38 136.5 38 q86 0 140.5 -41 q54.5 -41 78.5 -99 q4 -8 4 -17 q0 -11 -9.5 -19 q-9.5 -8 -26.5 -8 q-12 0 -20 6.5 q-8 6.5 -15 20.5 q-15 39 -53.5 66.5 q-38.5 27.5 -93.5 27.5 q-55 0 -97 -29 q-42 -29 -64 -76.5 q-22 -47.5 -22 -100.5 q0 -78 46 -129 q46 -51 130 -51 q54 0 91.5 21 q37.5 21 57 52.5 q19.5 31.5 21.5 63.5 q0 11 7.5 17.5 q7.5 6.5 22.5 6.5 q38 0 38 -33 q0 -44 -28 -88 q-28 -44 -82.5 -73.5 q-54.5 -29.5 -129.5 -29.5 Z" /><glyph glyph-name="ccedilla" unicode="ç" d="M506 225 q38 0 38 -33 q0 -39 -22.5 -79.5 q-22.5 -40.5 -67.5 -70.5 q-45 -30 -108 -38 l0 -1 l-35 -57 q39 -8 62.5 -23.5 q23.5 -15.5 23.5 -47.5 q0 -50 -37 -74 q-37 -24 -95 -24 q-37 0 -74 14 q-10 4 -15.5 12 q-5.5 8 -5.5 17 q0 13 8.5 21 q8.5 8 20.5 8 q7 0 10 -1 q40 -11 60 -11 q35 0 49.5 5 q14.5 5 14.5 26 q0 14 -13 19.5 q-13 5.5 -33.5 8.5 q-20.5 3 -29.5 5 q-17 2 -25 11.5 q-8 9.5 -4 22.5 l44 67 q-70 7 -119 40.5 q-49 33.5 -74 85.5 q-25 52 -25 114 q0 71 30 133 q30 62 87.5 100 q57.5 38 136.5 38 q86 0 140.5 -41 q54.5 -41 78.5 -99 q4 -8 4 -17 q0 -11 -9.5 -19 q-9.5 -8 -26.5 -8 q-12 0 -20 6.5 q-8 6.5 -15 20.5 q-15 39 -53.5 66.5 q-38.5 27.5 -93.5 27.5 q-55 0 -97 -29 q-42 -29 -64 -76.5 q-22 -47.5 -22 -100.5 q0 -78 46 -129 q46 -51 130 -51 q54 0 91.5 21 q37.5 21 57 52.5 q19.5 31.5 21.5 63.5 q0 11 7.5 17.5 q7.5 6.5 22.5 6.5 Z" /><glyph glyph-name="d" unicode="d" d="M313 -4 q-70 0 -128 28 q-58 28 -93 86 q-35 58 -35 144 q0 78 32 135 q32 57 90.5 87.5 q58.5 30.5 136.5 30.5 q56 0 98.5 -16.5 q42.5 -16.5 67.5 -42.5 l0 21 q4 157 6.5 229 q2.5 72 9.5 144 q2 14 12 23 q10 9 26 9 q18 0 29 -9.5 q11 -9.5 10 -24.5 q-7 -73 -13 -251 q-6 -178 -6 -321 q0 -146 7 -168 q6 -22 14.5 -36.5 q8.5 -14.5 18.5 -14.5 q3 0 3 -11 q0 -15 -13 -27 q-13 -12 -29 -12 q-11 0 -19 5 q-14 8 -28.5 26.5 q-14.5 18.5 -19.5 51.5 q-25 -40 -72 -63 q-47 -23 -105 -23 ZM311 64 q43 0 81.5 18.5 q38.5 18.5 62.5 50 q24 31.5 24 68.5 q0 44 1 70 l1 83 q-17 32 -62 59 q-45 27 -103 27 q-83 0 -133 -50 q-50 -50 -50 -139 q0 -64 26.5 -106 q26.5 -42 67.5 -61.5 q41 -19.5 84 -19.5 Z" /><glyph glyph-name="e" unicode="e" d="M320 -4 q-82 0 -141.5 35.5 q-59.5 35.5 -90 94 q-30.5 58.5 -30.5 127.5 q0 71 32 130.5 q32 59.5 91 94.5 q59 35 136 35 q68 0 122 -27.5 q54 -27.5 84 -76.5 q30 -49 30 -112 q0 -30 -7 -42.5 q-7 -12.5 -35 -13.5 l-381 -8 q0 -38 23 -78 q23 -40 65.5 -67 q42.5 -27 98.5 -27 q42 0 72 12.5 q30 12.5 47 28.5 q17 16 41 45 q7 9 22 9 q13 0 24.5 -10 q11.5 -10 11.5 -23 q0 -10 -8 -21 q-32 -44 -77.5 -75 q-45.5 -31 -129.5 -31 ZM478 302 q10 0 10 14 q0 60 -48 97.5 q-48 37.5 -121 37.5 q-55 0 -98 -28 q-43 -28 -67 -66 q-24 -38 -24 -64 l348 9 Z" /><glyph glyph-name="f" unicode="f" d="M263 740 q139 0 139 -158 q0 -36 -37 -36 q-39 0 -39 34 q0 45 -12 70 q-12 25 -50 25 q-43 0 -59.5 -36 q-16.5 -36 -16.5 -109 q0 -77 1 -125 l79 0 q14 0 22 -8.5 q8 -8.5 8 -24.5 q0 -27 -30 -28 l-78 -2 q2 -188 2 -308 q0 -18 -10.5 -26 q-10.5 -8 -26.5 -8 q-18 0 -27 9 q-9 9 -9 24 q0 92 -4 252 l-1 55 l-60 -1 q-18 0 -26 8 q-8 8 -8 24 q0 14 7 22 q7 8 26 9 l60 1 q-2 98 -2 128 q0 96 37.5 152.5 q37.5 56.5 114.5 56.5 Z" /><glyph glyph-name="g" unicode="g" d="M524 118 q7 -43 10 -66 q3 -23 3 -48 q0 -76 -30 -133.5 q-30 -57.5 -85 -89 q-55 -31.5 -127 -31.5 q-53 0 -99 22.5 q-46 22.5 -73.5 60 q-27.5 37.5 -27.5 81.5 q0 30 37 30 q12 0 18.5 -5.5 q6.5 -5.5 9.5 -18.5 q12 -53 47.5 -79 q35.5 -26 87.5 -26 q80 0 123 50 q43 50 43 139 q0 29 -8 75 q-23 -34 -64.5 -54.5 q-41.5 -20.5 -97.5 -20.5 q-74 0 -130 34 q-56 34 -85.5 90 q-29.5 56 -29.5 121 q0 67 29 126 q29 59 82.5 95 q53.5 36 123.5 36 q45 0 79.5 -13 q34.5 -13 53.5 -32 q16 46 19 52 q9 17 26 17 q15 0 28.5 -8 q13.5 -8 14.5 -20 q0 -6 -1 -9 q-1 -4 -6.5 -22 q-5.5 -18 -14.5 -53 l36 -247 l8 -53 ZM290 75 q32 0 65 13.5 q33 13.5 57 34 q24 20.5 29 40.5 q-5 48 -24 160 l-9 52 q-5 13 -23 27.5 q-18 14.5 -45 24.5 q-27 10 -57 10 q-47 0 -83.5 -24.5 q-36.5 -24.5 -57 -66.5 q-20.5 -42 -20.5 -94 q0 -47 18.5 -87.5 q18.5 -40.5 56.5 -65 q38 -24.5 93 -24.5 Z" /><glyph glyph-name="gbreve" unicode="&#x11f;" d="M524 118 q7 -43 10 -66 q3 -23 3 -48 q0 -76 -30 -133.5 q-30 -57.5 -85 -89 q-55 -31.5 -127 -31.5 q-53 0 -99 22.5 q-46 22.5 -73.5 60 q-27.5 37.5 -27.5 81.5 q0 30 37 30 q12 0 18.5 -5.5 q6.5 -5.5 9.5 -18.5 q12 -53 47.5 -79 q35.5 -26 87.5 -26 q80 0 123 50 q43 50 43 139 q0 29 -8 75 q-23 -34 -64.5 -54.5 q-41.5 -20.5 -97.5 -20.5 q-74 0 -130 34 q-56 34 -85.5 90 q-29.5 56 -29.5 121 q0 67 29 126 q29 59 82.5 95 q53.5 36 123.5 36 q45 0 79.5 -13 q34.5 -13 53.5 -32 q16 46 19 52 q9 17 26 17 q15 0 28.5 -8 q13.5 -8 14.5 -20 q0 -6 -1 -9 q-1 -4 -6.5 -22 q-5.5 -18 -14.5 -53 l36 -247 l8 -53 ZM290 75 q32 0 65 13.5 q33 13.5 57 34 q24 20.5 29 40.5 q-5 48 -24 160 l-9 52 q-5 13 -23 27.5 q-18 14.5 -45 24.5 q-27 10 -57 10 q-47 0 -83.5 -24.5 q-36.5 -24.5 -57 -66.5 q-20.5 -42 -20.5 -94 q0 -47 18.5 -87.5 q18.5 -40.5 56.5 -65 q38 -24.5 93 -24.5 ZM288 566 q-45 0 -81 18 q-36 18 -56.5 48 q-20.5 30 -20.5 65 q0 11 8.5 19.5 q8.5 8.5 19.5 8.5 q11 0 20 -4.5 q9 -4.5 10 -14.5 q2 -40 30 -63.5 q28 -23.5 70 -23.5 q37 0 64.5 24.5 q27.5 24.5 28.5 59.5 q0 12 9.5 18.5 q9.5 6.5 21.5 6.5 q12 0 20.5 -8 q8.5 -8 8.5 -20 q0 -35 -21 -66 q-21 -31 -56 -49.5 q-35 -18.5 -76 -18.5 Z" /><glyph glyph-name="h" unicode="h" d="M500 380 q14 -56 19 -139 q5 -83 5 -211 q0 -13 -10.5 -21.5 q-10.5 -8.5 -27.5 -8.5 q-17 0 -27.5 8.5 q-10.5 8.5 -10.5 25.5 q0 263 -22 334 q-12 41 -34.5 59.5 q-22.5 18.5 -60.5 18.5 q-52 0 -88 -30.5 q-36 -30.5 -54 -77.5 q-18 -47 -18 -98 l0 -211 q0 -12 -11 -20 q-11 -8 -27 -8 q-17 0 -27.5 8 q-10.5 8 -10.5 21 q0 207 5 390 q5 164 16 330 q3 35 38 35 q16 0 26.5 -7.5 q10.5 -7.5 9.5 -20.5 l-7 -140 q-6 -129 -10 -188 q25 37 66 61.5 q41 24.5 102 24.5 q66 0 103.5 -33 q37.5 -33 55.5 -102 Z" /><glyph glyph-name="i" unicode="i" d="M168 566 q-26 0 -44 17.5 q-18 17.5 -18 44.5 q0 27 18 44.5 q18 17.5 46 17.5 q27 0 44.5 -17 q17.5 -17 17.5 -44 q0 -27 -18.5 -45 q-18.5 -18 -45.5 -18 ZM153 6 q-18 0 -28.5 9 q-10.5 9 -10.5 24 l10 425 q0 17 10.5 26 q10.5 9 28.5 9 q18 0 28.5 -9 q10.5 -9 10.5 -27 l-10 -424 q-1 -16 -11.5 -24.5 q-10.5 -8.5 -27.5 -8.5 Z" /><glyph glyph-name="dotlessi" unicode="&#x131;" d="M152 4 q-17 0 -27.5 10.5 q-10.5 10.5 -10.5 27.5 l9 426 q0 18 10.5 28 q10.5 10 28.5 10 q18 0 28.5 -10 q10.5 -10 10.5 -28 l-13 -427 q0 -17 -9.5 -27 q-9.5 -10 -26.5 -10 Z" /><glyph glyph-name="j" unicode="j" d="M203 567 q-27 0 -45.5 17.5 q-18.5 17.5 -18.5 43.5 q0 26 18 43.5 q18 17.5 46 17.5 q28 0 45.5 -17.5 q17.5 -17.5 17.5 -43.5 q0 -27 -18.5 -44 q-18.5 -17 -44.5 -17 ZM63 -236 q-62 0 -102.5 39.5 q-40.5 39.5 -40.5 100.5 q0 23 8 32 q8 9 27 9 q34 0 37 -33 q5 -46 20.5 -65.5 q15.5 -19.5 44.5 -19.5 q94 0 98 197 q6 243 6 444 q0 13 9.5 21.5 q9.5 8.5 29.5 8.5 q37 0 37 -32 q0 -212 -6 -442 q-4 -127 -47 -193.5 q-43 -66.5 -121 -66.5 Z" /><glyph glyph-name="k" unicode="k" d="M132 -5 q-16 0 -27 8 q-11 8 -11 20 l0 707 q0 16 10 25 q10 9 28 9 q18 0 28.5 -8.5 q10.5 -8.5 10.5 -25.5 l-2 -354 l73 41 q151 85 200 115 q15 9 23 9 q14 0 24.5 -14.5 q10.5 -14.5 10.5 -31.5 q0 -11 -22 -24 l-308 -183 l312 -222 q10 -8 10 -22 q0 -15 -12.5 -27.5 q-12.5 -12.5 -25.5 -12.5 q-12 0 -30 11 l-103 72 q-73 54 -151 107 l-1 -170 q0 -13 -10.5 -21 q-10.5 -8 -26.5 -8 Z" /><glyph glyph-name="l" unicode="l" d="M120 9 q-17 0 -27.5 9 q-10.5 9 -10.5 26 l-6 712 q0 17 11 26.5 q11 9.5 29 9.5 q17 0 27 -9.5 q10 -9.5 10 -25.5 l5 -713 q0 -17 -10.5 -26 q-10.5 -9 -27.5 -9 Z" /><glyph glyph-name="m" unicode="m" d="M560 511 q89 0 125 -59 q36 -59 36 -165 q0 -168 -1 -255 q0 -14 -9.5 -23 q-9.5 -9 -26.5 -9 q-18 0 -27.5 9 q-9.5 9 -9.5 25 l0 247 q0 90 -19.5 130 q-19.5 40 -72.5 40 q-50 0 -74 -56 q-24 -56 -25 -132 l0 -77 l0 -152 q0 -32 -37 -32 q-39 0 -39 34 l1 181 l0 46 q-1 71 -28.5 127.5 q-27.5 56.5 -75.5 56.5 q-37 0 -61.5 -36.5 q-24.5 -36.5 -40.5 -116.5 q-9 -48 -9 -139 l0 -66 l0 -58 q0 -14 -11 -21.5 q-11 -7.5 -26 -7.5 q-17 1 -26.5 8.5 q-9.5 7.5 -9.5 21.5 q0 101 -2 323 l0 38 q-1 25 -6 36 q-5 11 -14 20 q-2 2 -6.5 6 q-4.5 4 -4.5 10 q0 15 11 25 q11 10 25 10 q7 0 16.5 -7.5 q9.5 -7.5 16.5 -17.5 q11 -15 15.5 -30 q4.5 -15 4.5 -36 l0 -17 q17 57 51 86.5 q34 29.5 81 29.5 q103 0 135 -116 q15 58 52 88.5 q37 30.5 92 30.5 Z" /><glyph glyph-name="n" unicode="n" d="M318 509 q169 0 169 -239 l0 -234 q0 -35 -37 -35 q-40 0 -40 34 l0 236 q0 88 -20 129.5 q-20 41.5 -72 41.5 q-55 0 -90 -42 q-35 -42 -49 -110 q-9 -46 -9 -113 l1 -148 q0 -14 -10 -21.5 q-10 -7.5 -27 -7.5 q-19 0 -29 8 q-10 8 -10 21 q0 89 -4 217 q-3 74 -3 131 q0 25 -5.5 39.5 q-5.5 14.5 -21.5 40.5 q-4 6 -4 14 q0 12 13.5 22.5 q13.5 10.5 26.5 10.5 q13 0 27 -19 q11 -16 20.5 -38.5 q9.5 -22.5 9.5 -42.5 l0 -11 q18 50 58 83 q40 33 106 33 Z" /><glyph glyph-name="o" unicode="o" d="M298 -1 q-113 0 -187.5 60 q-74.5 60 -74.5 188 q0 80 30.5 140.5 q30.5 60.5 88.5 94.5 q58 34 137 34 q76 0 136.5 -31.5 q60.5 -31.5 95 -92 q34.5 -60.5 34.5 -144.5 q0 -122 -71.5 -185.5 q-71.5 -63.5 -188.5 -63.5 ZM296 62 q80 0 132.5 47.5 q52.5 47.5 52.5 139.5 q0 60 -23.5 106.5 q-23.5 46.5 -66 72 q-42.5 25.5 -97.5 25.5 q-82 0 -131.5 -56 q-49.5 -56 -49.5 -148 q0 -97 53 -142 q53 -45 130 -45 Z" /><glyph glyph-name="odieresis" unicode="ö" d="M298 -1 q-113 0 -187.5 60 q-74.5 60 -74.5 188 q0 80 30.5 140.5 q30.5 60.5 88.5 94.5 q58 34 137 34 q76 0 136.5 -31.5 q60.5 -31.5 95 -92 q34.5 -60.5 34.5 -144.5 q0 -122 -71.5 -185.5 q-71.5 -63.5 -188.5 -63.5 ZM296 62 q80 0 132.5 47.5 q52.5 47.5 52.5 139.5 q0 60 -23.5 106.5 q-23.5 46.5 -66 72 q-42.5 25.5 -97.5 25.5 q-82 0 -131.5 -56 q-49.5 -56 -49.5 -148 q0 -97 53 -142 q53 -45 130 -45 ZM177 576 q-23 0 -38.5 16 q-15.5 16 -15.5 39 q0 22 15.5 37 q15.5 15 38.5 15 q23 0 39 -15 q16 -15 16 -37 q0 -22 -16.5 -38.5 q-16.5 -16.5 -38.5 -16.5 ZM417 576 q-23 0 -38.5 16 q-15.5 16 -15.5 39 q0 22 15.5 37 q15.5 15 38.5 15 q23 0 38.5 -15 q15.5 -15 15.5 -37 q0 -23 -16 -39 q-16 -16 -38 -16 Z" /><glyph glyph-name="p" unicode="p" d="M325 513 q67 0 122.5 -28.5 q55.5 -28.5 88.5 -86 q33 -57.5 33 -141.5 q0 -81 -31.5 -139.5 q-31.5 -58.5 -87.5 -88.5 q-56 -30 -128 -30 q-59 0 -107 17 q-48 17 -71 34 l-3 -101 l-4 -141 q-1 -15 -11.5 -23.5 q-10.5 -8.5 -27.5 -8.5 q-18 0 -27.5 9.5 q-9.5 9.5 -9.5 25.5 q2 81 4 126 l3 109 q3 119 3 305 q0 31 -7 51.5 q-7 20.5 -22 38.5 q-1 1 -5.5 5.5 q-4.5 4.5 -4.5 13.5 q0 13 14.5 24.5 q14.5 11.5 27.5 11.5 q7 0 12.5 -3.5 q5.5 -3.5 6.5 -4.5 q7 -6 19.5 -26 q12.5 -20 20.5 -39 q24 35 73 62.5 q49 27.5 119 27.5 ZM321 63 q76 0 123.5 51 q47.5 51 47.5 144 q0 97 -49 143 q-49 46 -121 46 q-50 0 -90 -22.5 q-40 -22.5 -62 -52.5 q-22 -30 -22 -48 q0 -110 -1 -189 q5 -13 32 -30.5 q27 -17.5 65.5 -29.5 q38.5 -12 76.5 -12 Z" /><glyph glyph-name="q" unicode="q" d="M588 453 q0 -7 -8 -20 q-34 -60 -41 -73 q-8 -166 -8 -348 l-1 -95 q-2 -74 -2 -124 q0 -14 -11 -22 q-11 -8 -27 -8 q-18 0 -28.5 8 q-10.5 8 -10.5 20 q1 24 1 68 l5 200 q-24 -27 -68 -44 q-44 -17 -95 -17 q-72 0 -129.5 30 q-57.5 30 -91 88 q-33.5 58 -33.5 140 q0 87 37.5 144.5 q37.5 57.5 95.5 84.5 q58 27 119 27 q64 0 117.5 -29.5 q53.5 -29.5 79.5 -73.5 q11 21 32 56 q7 11 12 15.5 q5 4.5 13 4.5 q14 1 26.5 -7 q12.5 -8 14.5 -19 l1 -6 ZM463 324 q-6 24 -28.5 53 q-22.5 29 -60 50 q-37.5 21 -85.5 21 q-43 0 -82.5 -21.5 q-39.5 -21.5 -64.5 -65 q-25 -43.5 -25 -106.5 q0 -93 50.5 -142 q50.5 -49 127.5 -49 q33 0 69 13 q36 13 62 32.5 q26 19.5 33 37.5 l4 177 Z" /><glyph glyph-name="r" unicode="r" d="M306 514 q64 0 100 -40.5 q36 -40.5 36 -98.5 q0 -55 -33 -86.5 q-33 -31.5 -85 -31.5 q-20 0 -28.5 6 q-8.5 6 -8.5 22 q0 26 25 27 q65 6 65 64 q0 31 -17 53 q-17 22 -55 22 q-40 0 -69.5 -34 q-29.5 -34 -46.5 -84.5 q-17 -50.5 -20 -99.5 q-6 -92 -6 -174 q0 -41 -7.5 -54 q-7.5 -13 -29.5 -13 q-22 0 -30.5 10.5 q-8.5 10.5 -8.5 36.5 l-1 191 q0 66 -10 174 q-6 63 -7 90 q-1 16 9 24.5 q10 8.5 28 8.5 q31 0 33 -30 q6 -63 7 -123 q17 66 59 103 q42 37 101 37 Z" /><glyph glyph-name="s" unicode="s" d="M245 -5 q-68 0 -116 33.5 q-48 33.5 -75 85.5 q-7 14 -7 19 q0 14 12.5 24.5 q12.5 10.5 27.5 10.5 q10 0 15.5 -5.5 q5.5 -5.5 15.5 -19.5 q25 -38 53 -60.5 q28 -22.5 74 -22.5 q43 0 71.5 21 q28.5 21 28.5 53 q0 23 -15.5 39 q-15.5 16 -38 26 q-22.5 10 -64.5 25 q-53 19 -85.5 34.5 q-32.5 15.5 -55.5 44 q-23 28.5 -23 72.5 q0 39 21.5 72.5 q21.5 33.5 61.5 53.5 q40 20 92 20 q52 0 92 -20 q40 -20 62 -53 q22 -33 22 -73 q0 -20 -7.5 -29 q-7.5 -9 -26.5 -9 q-20 0 -26.5 7.5 q-6.5 7.5 -7.5 19.5 q-4 47 -33 69.5 q-29 22.5 -75 22.5 q-54 0 -76.5 -25.5 q-22.5 -25.5 -22.5 -54.5 q0 -34 29.5 -52.5 q29.5 -18.5 91.5 -40.5 q53 -19 85 -35 q32 -16 54.5 -44 q22.5 -28 22.5 -70 q0 -65 -51 -102 q-51 -37 -126 -37 Z" /><glyph glyph-name="scedilla" unicode="&#x15f;" d="M422 134 q0 -56 -39.5 -92 q-39.5 -36 -101.5 -45 l-37 -57 q37 -10 62.5 -31 q25.5 -21 25.5 -56 q0 -44 -38 -72.5 q-38 -28.5 -90 -28.5 q-20 0 -42 4.5 q-22 4.5 -36 10.5 q-22 10 -22 29 q0 12 8 20.5 q8 8.5 22 8.5 q6 0 24 -6 q32 -9 51 -9 q25 0 42 10.5 q17 10.5 17 30.5 q0 23 -20 32 q-20 9 -38.5 11.5 q-18.5 2.5 -23.5 3.5 q-11 3 -17.5 10 q-6.5 7 -6.5 15 q0 7 4 12 l41 63 q-54 9 -92 40.5 q-38 31.5 -61 75.5 q-7 14 -7 19 q0 14 12.5 24.5 q12.5 10.5 27.5 10.5 q10 0 15.5 -5.5 q5.5 -5.5 15.5 -19.5 q25 -38 53 -60.5 q28 -22.5 74 -22.5 q43 0 71.5 21 q28.5 21 28.5 53 q0 23 -15.5 39 q-15.5 16 -38 26 q-22.5 10 -64.5 25 q-53 19 -85.5 34.5 q-32.5 15.5 -55.5 44 q-23 28.5 -23 72.5 q0 39 21.5 72.5 q21.5 33.5 61.5 53.5 q40 20 92 20 q52 0 92 -20 q40 -20 62 -53 q22 -33 22 -73 q0 -20 -7.5 -29 q-7.5 -9 -26.5 -9 q-20 0 -26.5 7.5 q-6.5 7.5 -7.5 19.5 q-4 47 -33 69.5 q-29 22.5 -75 22.5 q-54 0 -76.5 -25.5 q-22.5 -25.5 -22.5 -54.5 q0 -34 29.5 -52.5 q29.5 -18.5 91.5 -40.5 q53 -19 85 -35 q32 -16 54.5 -44 q22.5 -28 22.5 -70 Z" /><glyph glyph-name="t" unicode="t" d="M356 163 q18 0 25.5 -8.5 q7.5 -8.5 7.5 -30.5 q0 -52 -34.5 -88 q-34.5 -36 -88.5 -36 q-75 0 -107.5 66 q-32.5 66 -32.5 205 q0 52 5 119 q-11 1 -62 5 q-30 3 -30 33 q0 30 29 30 q8 0 34 -2 q22 -2 34 -2 q7 74 24 186 q2 15 10.5 22.5 q8.5 7.5 27.5 7.5 q19 0 30 -10 q11 -10 9 -25 l-5 -33 q-15 -116 -19 -152 l80 -2 q15 0 22.5 -6 q7.5 -6 7.5 -21 q0 -19 -7.5 -25.5 q-7.5 -6.5 -28.5 -7.5 q-31 -1 -80 -1 q-5 -63 -5 -116 q0 -97 15.5 -152 q15.5 -55 56.5 -55 q22 0 35 17 q13 17 15 51 q1 16 6.5 23.5 q5.5 7.5 25.5 7.5 Z" /><glyph glyph-name="u" unicode="u" d="M459 110 q0 -19 4.5 -32 q4.5 -13 11.5 -24.5 q7 -11.5 7 -15.5 q0 -11 -11 -21 q-11 -10 -21 -10 q-20 0 -35.5 25 q-15.5 25 -15.5 48 l0 14 q-21 -46 -64.5 -70 q-43.5 -24 -99.5 -24 q-85 0 -127 58 q-42 58 -42 169 l0 247 q0 13 10.5 21 q10.5 8 26.5 8 q17 0 28 -8 q11 -8 11 -21 l0 -249 q0 -84 24 -123 q24 -39 77 -39 q135 0 135 245 l0 167 q0 16 10 25 q10 9 27 9 q18 0 29 -9 q11 -9 11 -25 l4 -365 Z" /><glyph glyph-name="udieresis" unicode="ü" d="M459 110 q0 -19 4.5 -32 q4.5 -13 11.5 -24.5 q7 -11.5 7 -15.5 q0 -11 -11 -21 q-11 -10 -21 -10 q-20 0 -35.5 25 q-15.5 25 -15.5 48 l0 14 q-21 -46 -64.5 -70 q-43.5 -24 -99.5 -24 q-85 0 -127 58 q-42 58 -42 169 l0 247 q0 13 10.5 21 q10.5 8 26.5 8 q17 0 28 -8 q11 -8 11 -21 l0 -249 q0 -84 24 -123 q24 -39 77 -39 q135 0 135 245 l0 167 q0 16 10 25 q10 9 27 9 q18 0 29 -9 q11 -9 11 -25 l4 -365 ZM141 576 q-23 0 -38.5 16 q-15.5 16 -15.5 39 q0 22 15.5 37 q15.5 15 38.5 15 q23 0 39 -15 q16 -15 16 -37 q0 -22 -16.5 -38.5 q-16.5 -16.5 -38.5 -16.5 ZM381 576 q-23 0 -38.5 16 q-15.5 16 -15.5 39 q0 22 15.5 37 q15.5 15 38.5 15 q23 0 38.5 -15 q15.5 -15 15.5 -37 q0 -23 -16 -39 q-16 -16 -38 -16 Z" /><glyph glyph-name="v" unicode="v" d="M260 6 q-38 0 -76.5 59 q-38.5 59 -73.5 159 q-25 70 -42.5 140 q-17.5 70 -17.5 100 q0 19 10.5 28.5 q10.5 9.5 28.5 9.5 q16 0 25.5 -8.5 q9.5 -8.5 11.5 -23.5 q11 -89 50 -212 q22 -65 47.5 -115 q25.5 -50 35.5 -50 q12 0 37 47.5 q25 47.5 51 117.5 q47 129 56 216 q2 15 12 24 q10 9 26 9 q18 0 28 -11 q10 -11 10 -29 q0 -31 -17.5 -98.5 q-17.5 -67.5 -45.5 -140.5 q-85 -222 -156 -222 Z" /><glyph glyph-name="w" unicode="w" d="M247 2 q-32 0 -62.5 44.5 q-30.5 44.5 -55.5 122.5 q-24 73 -39.5 161 q-15.5 88 -15.5 142 q0 23 7 34 q7 11 31 11 q35 0 37 -31 q6 -83 13.5 -133.5 q7.5 -50.5 29.5 -133.5 q18 -67 32 -99.5 q14 -32.5 30 -32.5 q12 0 36.5 83 q24.5 83 57.5 215 q6 21 15 31 q9 10 26 10 q17 0 25 -9.5 q8 -9.5 16 -31.5 q11 -31 37 -117 q27 -90 44.5 -133.5 q17.5 -43.5 34.5 -43.5 q14 0 25.5 33.5 q11.5 33.5 26.5 101.5 q20 90 26 134 q6 44 10 123 q1 15 8 24 q7 9 29 9 q24 0 31 -12 q7 -12 7 -38 q0 -50 -13 -134.5 q-13 -84.5 -32 -155.5 q-22 -82 -50 -128 q-28 -46 -60 -46 q-31 0 -62.5 42 q-31.5 42 -58 113.5 q-26.5 71.5 -43.5 159.5 q-19 -135 -57.5 -225 q-38.5 -90 -85.5 -90 Z" /><glyph glyph-name="x" unicode="x" d="M465 52 q7 -8 7 -16 q0 -15 -12 -25.5 q-12 -10.5 -27 -10.5 q-15 0 -24 12 q-63 82 -155 200 l-141 -201 q-9 -13 -27 -13 q-16 0 -27.5 10.5 q-11.5 10.5 -11.5 24.5 q0 7 4 13 q40 55 159 223 q-20 25 -48 62 q-50 63 -101 130 q-4 6 -4 14 q0 11 13.5 22.5 q13.5 11.5 26.5 11.5 q6 0 12 -2.5 q6 -2.5 9 -6.5 l23 -30 q73 -93 110 -141 l119 170 q8 11 19 11 q15 0 28.5 -12.5 q13.5 -12.5 13.5 -25.5 q0 -5 -3 -10 l-133 -190 l170 -220 Z" /><glyph glyph-name="y" unicode="y" d="M212 -259 q-17 0 -28.5 10.5 q-11.5 10.5 -11.5 25.5 q0 6 3 14 q55 136 94 246 q-41 26 -87 98 q-46 72 -83.5 162.5 q-37.5 90.5 -57.5 167.5 q-2 6 -2 13 q0 12 10 21 q10 9 29 9 q15 0 21 -6 q6 -6 10 -21 q102 -314 186 -369 q61 216 101 373 q4 14 11 20 q7 6 22 6 q37 0 43 -30 q1 -4 -1 -11 q-34 -140 -55.5 -217 q-21.5 -77 -53.5 -170 q-23 -66 -57.5 -161.5 q-34.5 -95.5 -57.5 -153.5 q-5 -14 -13.5 -20.5 q-8.5 -6.5 -21.5 -6.5 Z" /><glyph glyph-name="z" unicode="z" d="M452 -2 q-83 9 -153 9 q-38 0 -138 -5 l-63 -2 q-28 0 -42.5 7 q-14.5 7 -14.5 23 q0 18 17 35 q195 208 356 373 q-17 0 -57 -4 q-70 -5 -103 -5 q-47 0 -89 4 q-42 4 -61 9 q-29 8 -29 32 q0 14 8 24 q8 10 24 8 q99 -13 172 -13 q38 0 115 7 q50 4 67 4 q33 0 44 -7.5 q11 -7.5 11 -23.5 q0 -23 -18 -42 l-108 -111 q-144 -145 -245 -255 l45 2 q68 4 117 4 q75 0 153 -9 q12 -1 18.5 -10 q6.5 -9 6.5 -22 q0 -15 -9 -24 q-9 -9 -24 -8 Z" /><glyph glyph-name="zero" unicode="0" d="M305 13 q-87 0 -149 42.5 q-62 42.5 -93 112 q-31 69.5 -31 148.5 q0 84 30.5 163 q30.5 79 92.5 130 q62 51 152 51 q92 0 154.5 -49.5 q62.5 -49.5 93 -128.5 q30.5 -79 30.5 -166 q0 -81 -33 -150.5 q-33 -69.5 -96.5 -111 q-63.5 -41.5 -150.5 -41.5 ZM303 77 q64 0 110.5 31.5 q46.5 31.5 70.5 86 q24 54.5 24 121.5 q0 74 -24 138 q-24 64 -69 103 q-45 39 -106 39 q-62 0 -107.5 -39.5 q-45.5 -39.5 -69 -104 q-23.5 -64.5 -23.5 -136.5 q0 -66 23 -120.5 q23 -54.5 67 -86.5 q44 -32 104 -32 Z" /><glyph glyph-name="one" unicode="1" d="M311 35 q0 -15 -10 -24 q-10 -9 -29 -9 q-35 0 -35 33 l0 532 q-54 -70 -95 -117 q-3 -3 -9.5 -5 q-6.5 -2 -12.5 -2 q-16 0 -25.5 8 q-9.5 8 -9.5 22 q0 6 4 14 q4 8 10 15 q36 42 63 77 q27 35 37 48 l19 25 q7 11 19 16 q12 5 24 5 q21 0 35 -11.5 q14 -11.5 14 -31.5 l1 -595 Z" /><glyph glyph-name="two" unicode="2" d="M459 71 q17 0 27.5 -9 q10.5 -9 10.5 -23 q0 -15 -11 -24 q-11 -9 -27 -9 q-12 0 -56 2 q-99 3 -130 3 q-109 0 -185 -4 q-15 0 -24 8 q-9 8 -7 21 q12 73 69 139.5 q57 66.5 161 139.5 q123 87 123 189 q0 60 -39 98 q-39 38 -101 38 q-39 0 -69 -19.5 q-30 -19.5 -45.5 -51 q-15.5 -31.5 -15.5 -67.5 q-1 -15 -10 -22 q-9 -7 -28 -7 q-20 0 -28.5 10 q-8.5 10 -8.5 29 q0 50 27 94.5 q27 44.5 76 71 q49 26.5 111 26.5 q62 0 109.5 -26.5 q47.5 -26.5 73.5 -72.5 q26 -46 26 -102 q0 -133 -157 -242 q-66 -44 -116.5 -93.5 q-50.5 -49.5 -68.5 -95.5 q39 2 127 2 q72 0 186 -3 Z" /><glyph glyph-name="three" unicode="3" d="M442 358 q50 -20 78 -65.5 q28 -45.5 28 -104.5 q0 -44 -26 -87 q-26 -43 -77.5 -71 q-51.5 -28 -123.5 -28 q-281 0 -281 248 q0 42 38 42 q38 0 38 -35 q0 -191 197 -191 q51 0 87.5 17 q36.5 17 55 44 q18.5 27 18.5 58 q0 69 -38 104 q-38 35 -122 35 q-31 0 -31 30 q0 17 6.5 26 q6.5 9 23.5 9 q144 0 144 115 q0 29 -15.5 56 q-15.5 27 -44 44 q-28.5 17 -66.5 17 q-37 0 -69 -16 q-32 -16 -51 -44.5 q-19 -28.5 -19 -64.5 q0 -6 3 -20 q3 -14 3 -21 q0 -12 -9.5 -19.5 q-9.5 -7.5 -27.5 -7.5 q-27 0 -36 20 q-9 26 -9 54 q0 51 28.5 93 q28.5 42 77.5 65.5 q49 23.5 107 23.5 q54 0 101.5 -23.5 q47.5 -23.5 76 -64.5 q28.5 -41 28.5 -92 q0 -51 -25 -89.5 q-25 -38.5 -68 -56.5 Z" /><glyph glyph-name="four" unicode="4" d="M543 279 q14 2 23.5 -7 q9.5 -9 9.5 -26 q0 -14 -6.5 -22.5 q-6.5 -8.5 -23.5 -10.5 q-53 -6 -106 -9 l-7 -173 q0 -15 -10 -24.5 q-10 -9.5 -28 -9.5 q-19 0 -28 10 q-9 10 -8 27 l7 167 q-44 -1 -142 -1 q-109 0 -177 17 q-28 7 -28 32 q0 13 7 26 q67 131 129.5 228 q62.5 97 143.5 178 q9 9 24 9 q15 0 25 -9.5 q10 -9.5 10 -22.5 q0 -15 -19 -35 q-77 -80 -137 -169 q-60 -89 -92 -168 q-2 -6 -2 -8 q0 -5 13 -8 q49 -7 140 -7 q38 0 108 2 l9 226 q0 33 35 33 q20 0 30 -10.5 q10 -10.5 9 -28.5 l-9 -216 q66 6 100 10 Z" /><glyph glyph-name="five" unicode="5" d="M278 0 q-113 0 -169.5 60 q-56.5 60 -56.5 164 q0 18 10 27.5 q10 9.5 28 9.5 q40 0 40 -34 q1 -77 34 -118.5 q33 -41.5 112 -41.5 q84 0 130.5 39.5 q46.5 39.5 46.5 119.5 q0 84 -42.5 131.5 q-42.5 47.5 -124.5 47.5 q-29 0 -55 -5 q-26 -5 -79 -18 q-6 -2 -16 -2 q-17 0 -28.5 9.5 q-11.5 9.5 -10.5 24.5 l2 26 q9 166 10 250 q88 -4 200 -4 q38 0 94 2 q46 2 65 2 q30 0 30 -31 q0 -16 -9 -25 q-9 -9 -25 -9 q-39 0 -61 -1 l-94 -1 q-54 0 -106 2 q-7 1 -20 1 l-9 -164 l0 -3 q0 -10 9 -10 l10 2 q35 9 60 14 q25 5 52 5 q70 0 121.5 -31.5 q51.5 -31.5 78 -87 q26.5 -55.5 26.5 -126.5 q0 -107 -68.5 -166 q-68.5 -59 -184.5 -59 Z" /><glyph glyph-name="six" unicode="6" d="M308 409 q76 0 129.5 -30.5 q53.5 -30.5 80 -79.5 q26.5 -49 26.5 -106 q0 -88 -65 -139.5 q-65 -51.5 -174 -51.5 q-130 0 -196.5 76.5 q-66.5 76.5 -66.5 227.5 q0 111 34 195.5 q34 84.5 98 131 q64 46.5 151 46.5 q74 0 123 -37 q49 -37 84 -102 q7 -14 7 -22 q0 -14 -12 -23.5 q-12 -9.5 -25 -9.5 q-11 0 -17.5 5.5 q-6.5 5.5 -17.5 20.5 q-20 34 -36.5 54.5 q-16.5 20.5 -44.5 35.5 q-28 15 -68 15 q-95 0 -149 -80 q-54 -80 -57 -224 q27 44 81.5 70.5 q54.5 26.5 114.5 26.5 ZM309 65 q80 0 119 37 q39 37 39 92 q0 37 -16.5 72 q-16.5 35 -51.5 57.5 q-35 22.5 -88 22.5 q-69 0 -119.5 -34 q-50.5 -34 -50.5 -104 q0 -65 43 -104 q43 -39 125 -39 Z" /><glyph glyph-name="seven" unicode="7" d="M471 372 q39 0 39 -33 q0 -15 -8.5 -24 q-8.5 -9 -25.5 -9 q-50 0 -76 -1 q-47 -140 -105 -284 q-4 -10 -15.5 -15.5 q-11.5 -5.5 -23.5 -5.5 q-17 0 -28 9 q-11 9 -11 21 q0 7 3 13 q45 101 97 261 q-24 -1 -73 -1 q-36 0 -36 32 q0 15 10 24 q10 9 26 9 q65 0 95 1 q35 109 35 168 q0 48 -26.5 71 q-26.5 23 -98.5 23 q-47 0 -91.5 -7.5 q-44.5 -7.5 -94.5 -19.5 q-3 -1 -10 -1 q-14 0 -22 8.5 q-8 8.5 -8 22.5 q0 22 29 33 q31 10 84 19.5 q53 9.5 112 9.5 q203 0 203 -152 q0 -61 -31 -173 l51 1 Z" /><glyph glyph-name="eight" unicode="8" d="M399 424 q80 -24 125 -76.5 q45 -52.5 45 -128.5 q0 -67 -34 -116 q-34 -49 -94 -75 q-60 -26 -136 -26 q-77 0 -139.5 27 q-62.5 27 -98 78 q-35.5 51 -35.5 119 q0 47 25.5 87.5 q25.5 40.5 67 69 q41.5 28.5 89.5 40.5 q-33 15 -55 44.5 q-22 29.5 -22 69.5 q0 47 23.5 81.5 q23.5 34.5 62 52.5 q38.5 18 82.5 18 q71 0 116.5 -40.5 q45.5 -40.5 45.5 -107.5 q0 -40 -18.5 -69.5 q-18.5 -29.5 -49.5 -47.5 ZM308 626 q-42 0 -69.5 -24.5 q-27.5 -24.5 -27.5 -67.5 q0 -41 28 -66 q28 -25 69 -25 q39 0 63.5 27 q24.5 27 24.5 68 q0 41 -24 64.5 q-24 23.5 -64 23.5 ZM306 64 q61 0 104 21.5 q43 21.5 64 56.5 q21 35 21 75 q0 46 -24.5 83 q-24.5 37 -67.5 58 q-43 21 -97 21 q-56 0 -101.5 -21.5 q-45.5 -21.5 -71.5 -56.5 q-26 -35 -26 -73 q0 -73 52.5 -118.5 q52.5 -45.5 146.5 -45.5 Z" /><glyph glyph-name="nine" unicode="9" d="M293 689 q84 0 144.5 -38 q60.5 -38 92 -106.5 q31.5 -68.5 31.5 -160.5 q0 -113 -30.5 -199.5 q-30.5 -86.5 -91 -134.5 q-60.5 -48 -146.5 -48 q-78 0 -135.5 26 q-57.5 26 -88 71.5 q-30.5 45.5 -30.5 102.5 q0 16 10 26.5 q10 10.5 26 10.5 q16 0 26.5 -9.5 q10.5 -9.5 10.5 -26.5 q0 -60 47.5 -98.5 q47.5 -38.5 130.5 -38.5 q96 0 148 81.5 q52 81.5 57 225.5 q-24 -56 -79.5 -86 q-55.5 -30 -119.5 -30 q-112 0 -175 56.5 q-63 56.5 -63 164.5 q0 59 30 107.5 q30 48.5 83.5 76 q53.5 27.5 121.5 27.5 ZM296 317 q43 0 82 18.5 q39 18.5 62.5 53.5 q23.5 35 23.5 82 q0 44 -22.5 79.5 q-22.5 35.5 -61.5 55.5 q-39 20 -87 20 q-51 0 -87.5 -21.5 q-36.5 -21.5 -54.5 -56 q-18 -34.5 -18 -71.5 q0 -160 163 -160 Z" /><glyph glyph-name="period" unicode="." d="M146 4 q-26 0 -42 16.5 q-16 16.5 -16 42.5 q0 27 18 45 q18 18 43 18 q23 0 41 -19 q18 -19 18 -44 q0 -24 -18.5 -41.5 q-18.5 -17.5 -43.5 -17.5 Z" /><glyph glyph-name="comma" unicode="," d="M140 152 q43 0 67 -33.5 q24 -33.5 24 -87.5 q0 -42 -19 -79 q-19 -37 -51 -59 q-32 -22 -68 -22 q-13 0 -20.5 6.5 q-7.5 6.5 -7.5 17.5 q0 10 6 17 q6 7 14 7 q41 0 70.5 32 q29.5 32 32.5 72 q-20 -20 -53 -20 q-32 0 -52.5 21.5 q-20.5 21.5 -20.5 52.5 q0 31 22.5 53 q22.5 22 55.5 22 ZM137 41 q17 0 27.5 11 q10.5 11 10.5 27 q0 14 -10.5 23.5 q-10.5 9.5 -27.5 9.5 q-15 0 -24.5 -10.5 q-9.5 -10.5 -9.5 -24.5 q0 -16 9 -26 q9 -10 25 -10 Z" /><glyph glyph-name="colon" unicode=":" d="M153 300 q-34 0 -55 22 q-21 22 -21 55 q0 32 21.5 53 q21.5 21 54.5 21 q35 0 56.5 -21 q21.5 -21 21.5 -53 q0 -34 -21 -55.5 q-21 -21.5 -57 -21.5 ZM154 339 q17 0 26 10.5 q9 10.5 9 27.5 q0 14 -11 24 q-11 10 -26 10 q-12 0 -22.5 -10.5 q-10.5 -10.5 -10.5 -23.5 q0 -17 10 -27.5 q10 -10.5 25 -10.5 ZM156 15 q-33 0 -54.5 22 q-21.5 22 -21.5 55 q0 32 21 53.5 q21 21.5 55 21.5 q34 0 55.5 -22 q21.5 -22 21.5 -53 q0 -34 -20.5 -55.5 q-20.5 -21.5 -56.5 -21.5 ZM155 55 q18 0 27.5 9.5 q9.5 9.5 9.5 26.5 q0 15 -10.5 23.5 q-10.5 8.5 -26.5 8.5 q-14 0 -23.5 -10 q-9.5 -10 -9.5 -22 q0 -15 10 -25.5 q10 -10.5 23 -10.5 Z" /><glyph glyph-name="semicolon" unicode=";" d="M163 300 q-34 0 -55 22 q-21 22 -21 55 q0 32 21.5 53 q21.5 21 54.5 21 q35 0 56.5 -21 q21.5 -21 21.5 -53 q0 -34 -21 -55.5 q-21 -21.5 -57 -21.5 ZM162 411 q-12 0 -22.5 -10.5 q-10.5 -10.5 -10.5 -23.5 q0 -17 10 -27.5 q10 -10.5 25 -10.5 q17 0 26 10.5 q9 10.5 9 27.5 q0 14 -11 24 q-11 10 -26 10 ZM158 152 q43 0 67 -33.5 q24 -33.5 24 -87.5 q0 -42 -19 -79 q-19 -37 -51 -59 q-32 -22 -68 -22 q-13 0 -20.5 6.5 q-7.5 6.5 -7.5 17.5 q0 10 6 17 q6 7 14 7 q41 0 71 32 q30 32 32 72 q-18 -20 -53 -20 q-32 0 -52.5 21.5 q-20.5 21.5 -20.5 52.5 q0 31 22.5 53 q22.5 22 55.5 22 ZM155 41 q17 0 27.5 11 q10.5 11 10.5 27 q0 14 -10.5 23.5 q-10.5 9.5 -27.5 9.5 q-15 0 -24.5 -10.5 q-9.5 -10.5 -9.5 -24.5 q0 -16 9 -26 q9 -10 25 -10 Z" /><glyph glyph-name="question" unicode="?" d="M265 183 q-13 0 -20.5 9 q-7.5 9 -7.5 26 q0 38 13 69 q13 31 31.5 53.5 q18.5 22.5 49.5 54.5 q38 37 57.5 66 q19.5 29 19.5 66 q0 64 -39 104 q-39 40 -102 40 q-77 0 -112.5 -31.5 q-35.5 -31.5 -35.5 -93.5 q0 -31 18.5 -53.5 q18.5 -22.5 48.5 -22.5 q33 0 33 -32 q0 -13 -9.5 -20 q-9.5 -7 -24.5 -7 q-34 0 -62.5 18.5 q-28.5 18.5 -45.5 49.5 q-17 31 -17 67 q0 85 55 134.5 q55 49.5 150 49.5 q63 0 108.5 -28 q45.5 -28 69.5 -74.5 q24 -46.5 24 -100.5 q0 -52 -23 -88.5 q-23 -36.5 -69 -83.5 q-40 -40 -59.5 -69.5 q-19.5 -29.5 -19.5 -67.5 q0 -16 -8.5 -25.5 q-8.5 -9.5 -22.5 -9.5 ZM267 13 q-23 0 -39 16 q-16 16 -16 39 q0 21 16.5 36.5 q16.5 15.5 38.5 15.5 q21 0 37 -15.5 q16 -15.5 16 -36.5 q0 -23 -15.5 -39 q-15.5 -16 -37.5 -16 Z" /><glyph glyph-name="asterisk" unicode="*" d="M413 433 q12 -6 12 -21 q0 -11 -7 -19.5 q-7 -8.5 -17 -8.5 q-7 0 -19 5 l-102 58 l1 -109 q0 -10 -8.5 -16.5 q-8.5 -6.5 -20.5 -6.5 q-12 0 -19.5 6 q-7.5 6 -7.5 17 q0 60 -1 108 l-94 -51 q-12 -5 -17 -5 q-10 0 -17.5 8 q-7.5 8 -7.5 20 q0 13 11 18 l112 60 l-128 66 q-13 7 -13 21 q0 9 7.5 17.5 q7.5 8.5 16.5 8.5 q9 0 18 -6 l111 -60 q0 60 -0.5 86.5 q-0.5 26.5 -0.5 32.5 q0 27 28 27 q15 0 21.5 -6.5 q6.5 -6.5 6.5 -20.5 l1 -121 l99 57 q19 8 25 8 q10 0 17 -9 q7 -9 7 -18 q0 -13 -18 -22 l-119 -61 l123 -63 Z" /><glyph glyph-name="slash" unicode="/" d="M130 -13 q-16 0 -24.5 5 q-8.5 5 -13.5 17 q-2 6 -2 9 q0 9 5 22 l271 819 q4 12 11.5 16.5 q7.5 4.5 19.5 4.5 q12 0 22.5 -6.5 q10.5 -6.5 13.5 -17.5 q2 -8 2 -12 q0 -7 -4 -17 l-271 -814 q-9 -26 -30 -26 Z" /><glyph glyph-name="parenleft" unicode="(" d="M255 -128 q-11 0 -16 1 q-5 1 -11 7 q-85 72 -131.5 184 q-46.5 112 -46.5 240 q0 89 21.5 175.5 q21.5 86.5 63.5 155.5 q42 69 100 105 q10 7 21 7 q13 0 23.5 -8.5 q10.5 -8.5 10.5 -22.5 q0 -11 -5.5 -17.5 q-5.5 -6.5 -14 -13 q-8.5 -6.5 -14.5 -11.5 q-70 -55 -104 -154.5 q-34 -99.5 -34 -215.5 q0 -98 23 -169 q23 -71 53.5 -113 q30.5 -42 71.5 -84 q19 -21 19 -36 q0 -12 -10 -21 q-10 -9 -20 -9 Z" /><glyph glyph-name="parenright" unicode=")" d="M84 -128 q-13 0 -23.5 8.5 q-10.5 8.5 -10.5 22.5 q0 11 6 18.5 q6 7.5 14.5 13.5 q8.5 6 13.5 10 q70 56 104 155.5 q34 99.5 34 214.5 q0 98 -23 169 q-23 71 -53.5 113.5 q-30.5 42.5 -71.5 83.5 q-19 19 -19 36 q0 12 10 21 q10 9 20 9 q11 0 15.5 -1 q4.5 -1 10.5 -7 q85 -74 132 -185.5 q47 -111.5 47 -238.5 q0 -135 -49.5 -257 q-49.5 -122 -135.5 -179 q-10 -7 -21 -7 Z" /><glyph glyph-name="hyphen" unicode="-" d="M67 335 q-12 0 -19.5 11 q-7.5 11 -7.5 26 q0 15 8 24 q8 9 21 9 q92 -2 123 -2 q86 0 152 5 q38 3 38 -35 q0 -14 -10.5 -24 q-10.5 -10 -27.5 -11 q-107 -3 -277 -3 Z" /><glyph glyph-name="emdash" unicode="&#x2014;" d="M391 343 q-262 0 -319 7 q-16 2 -24 11.5 q-8 9.5 -8 23.5 q0 14 11 24 q11 10 26 9 q72 -6 321 -6 q89 0 182.5 0.5 q93.5 0.5 188.5 1.5 q96 1 191 1.5 q95 0.5 187 0.5 q100 0 226 -4 q86 -2 108 -2 q11 0 18.5 -10 q7.5 -10 7.5 -24 q0 -14 -7.5 -23.5 q-7.5 -9.5 -18.5 -9.5 l-88 2 q-159 3 -196 3 q-95 0 -196 -0.5 q-101 -0.5 -205 -1.5 q-208 -3 -405 -3 Z" /><glyph glyph-name="quoteright" unicode="&#x2019;" d="M134 724 q38 0 59.5 -22.5 q21.5 -22.5 21.5 -61.5 q0 -41 -20 -78.5 q-20 -37.5 -51 -66.5 q-10 -10 -20 -10 q-10 0 -16.5 5.5 q-6.5 5.5 -6.5 14.5 q0 8 7 18 q1 1 18 21 q17 20 32 46 q-12 -6 -25 -6 q-28 0 -50.5 17.5 q-22.5 17.5 -22.5 53.5 q0 30 21 49.5 q21 19.5 53 19.5 ZM98 654 q0 -15 10 -24.5 q10 -9.5 27 -9.5 q17 0 27.5 9.5 q10.5 9.5 10.5 25.5 q0 14 -9.5 24 q-9.5 10 -29.5 10 q-13 0 -24.5 -10.5 q-11.5 -10.5 -11.5 -24.5 Z" /><glyph glyph-name="guillemotleft" unicode="«" d="M280 196 q-7 0 -10 1 q-55 16 -103.5 46 q-48.5 30 -77.5 64 q-29 34 -29 60 q0 26 30 60.5 q30 34.5 80 65.5 q50 31 107 47 q6 2 16 2 q13 0 20.5 -6.5 q7.5 -6.5 7.5 -19.5 q0 -13 -8 -20.5 q-8 -7.5 -25 -13.5 q-37 -9 -76.5 -32.5 q-39.5 -23.5 -67 -48 q-27.5 -24.5 -27.5 -33.5 q0 -10 26.5 -34 q26.5 -24 63.5 -47.5 q37 -23.5 69 -31.5 q14 -4 22.5 -13.5 q8.5 -9.5 8.5 -20.5 q0 -11 -8 -18 q-8 -7 -19 -7 ZM470 190 q-5 0 -8 1 q-56 17 -104.5 48 q-48.5 31 -77.5 64.5 q-29 33.5 -29 58.5 q0 25 30.5 59 q30.5 34 80.5 65.5 q50 31.5 107 48.5 q8 2 11 2 q12 0 20 -8.5 q8 -8.5 8 -21.5 q0 -23 -26 -30 q-41 -12 -80.5 -35 q-39.5 -23 -64.5 -46 q-25 -23 -25 -35 q0 -10 24 -32.5 q24 -22.5 60.5 -45 q36.5 -22.5 72.5 -33.5 q30 -10 30 -33 q0 -11 -8.5 -19 q-8.5 -8 -20.5 -8 Z" /><glyph glyph-name="quotedbl" unicode="&quot;" d="M110 478 q-13 0 -21.5 6.5 q-8.5 6.5 -8.5 17.5 q0 51 1 81 l1 112 q0 8 8.5 13.5 q8.5 5.5 21.5 5.5 q14 0 22.5 -5.5 q8.5 -5.5 8.5 -13.5 l-1 -195 q0 -10 -9 -16 q-9 -6 -23 -6 ZM240 478 q-13 0 -21.5 6.5 q-8.5 6.5 -8.5 17.5 q0 51 1 81 l1 112 q0 8 8.5 13.5 q8.5 5.5 21.5 5.5 q14 0 22.5 -5.5 q8.5 -5.5 8.5 -13.5 l-1 -195 q0 -10 -9 -16 q-9 -6 -23 -6 Z" /><glyph glyph-name="quotesingle" unicode="&#39;" d="M109 478 q-13 0 -21.5 6.5 q-8.5 6.5 -8.5 17.5 q0 51 1 81 l1 112 q0 8 8.5 13.5 q8.5 5.5 21.5 5.5 q14 0 22.5 -5.5 q8.5 -5.5 8.5 -13.5 l-1 -195 q0 -10 -9 -16 q-9 -6 -23 -6 Z" /><glyph glyph-name="plus" unicode="+" d="M460 342 q21 0 28 -7.5 q7 -7.5 7 -23.5 q0 -29 -36 -29 l-158 2 l0 -153 q0 -16 -6.5 -25 q-6.5 -9 -23.5 -9 q-18 0 -24 8.5 q-6 8.5 -6 27.5 l0 151 q-52 1 -164 1 q-31 0 -31 30 q0 30 32 30 l162 -1 l0 145 q0 30 31 30 q17 0 23.5 -7.5 q6.5 -7.5 6.5 -22.5 l0 -146 l159 -1 Z" /><glyph glyph-name="plusminus" unicode="±" d="M447 393 q24 0 34 -8 q10 -8 10 -23 q0 -30 -43 -30 l-143 1 l0 -111 q0 -16 -8.5 -25.5 q-8.5 -9.5 -24.5 -9.5 q-17 0 -24 9 q-7 9 -7 27 l0 111 l-154 1 q-37 0 -37 32 q0 30 39 30 l151 -2 l0 113 q0 30 33 30 q17 0 24.5 -7.5 q7.5 -7.5 7.5 -22.5 l0 -114 l142 -1 ZM426 117 q22 0 33 -9 q11 -9 11 -24 q0 -29 -48 -29 l-308 -3 q-20 0 -29.5 7 q-9.5 7 -9.5 23 q0 16 9.5 24 q9.5 8 32.5 8 l309 3 Z" /><glyph glyph-name="copyright" unicode="©" d="M459 706 q108 0 186 -51 q78 -51 118.5 -132.5 q40.5 -81.5 40.5 -170.5 q0 -94 -41 -174.5 q-41 -80.5 -119.5 -129 q-78.5 -48.5 -184.5 -48.5 q-109 0 -193.5 50 q-84.5 50 -130 132 q-45.5 82 -45.5 175 q0 93 45 173 q45 80 128.5 128 q83.5 48 195.5 48 ZM459 54 q84 0 149.5 37.5 q65.5 37.5 101.5 104.5 q36 67 36 151 q0 79 -31 149 q-31 70 -95.5 113.5 q-64.5 43.5 -160.5 43.5 q-91 0 -162 -40.5 q-71 -40.5 -110 -108 q-39 -67.5 -39 -144.5 q0 -83 40 -153 q40 -70 111 -111.5 q71 -41.5 160 -41.5 ZM604 307 q13 0 21 -5.5 q8 -5.5 8 -15.5 q-1 -64 -47 -105.5 q-46 -41.5 -127 -41.5 q-55 0 -101.5 21.5 q-46.5 21.5 -74.5 66 q-28 44.5 -28 109.5 q0 67 27 119 q27 52 72 81 q45 29 99 29 q33 0 59.5 -12 q26.5 -12 51.5 -36 l0 26 q0 20 20 20 q12 0 20 -5 q8 -5 8 -13 q0 -53 -5.5 -75 q-5.5 -22 -22.5 -23 q-17 0 -24 8 q-29 33 -49 46.5 q-20 13.5 -50 13.5 q-36 0 -69 -22 q-33 -22 -53.5 -62.5 q-20.5 -40.5 -20.5 -93.5 q0 -79 39 -114 q39 -35 106 -35 q57 0 84.5 29 q27.5 29 27.5 69 q0 10 8 15.5 q8 5.5 21 5.5 Z" /><glyph glyph-name="registered" unicode="®" d="M455 710 q111 0 190 -52 q79 -52 119 -135 q40 -83 40 -174 q0 -92 -41.5 -172 q-41.5 -80 -120 -128.5 q-78.5 -48.5 -185.5 -48.5 q-108 0 -192 50 q-84 50 -129.5 132 q-45.5 82 -45.5 175 q0 92 45.5 173.5 q45.5 81.5 128.5 130.5 q83 49 191 49 ZM458 52 q84 0 150.5 39 q66.5 39 104 107 q37.5 68 37.5 150 q0 78 -33.5 149 q-33.5 71 -100 116 q-66.5 45 -161.5 45 q-90 0 -160 -41.5 q-70 -41.5 -108.5 -110 q-38.5 -68.5 -38.5 -147.5 q0 -81 40 -151.5 q40 -70.5 111 -113 q71 -42.5 159 -42.5 ZM612 427 q0 -59 -48.5 -89.5 q-48.5 -30.5 -129.5 -30.5 q-6 0 -22 2 l179 -123 q7 -4 9.5 -7.5 q2.5 -3.5 2.5 -9.5 q0 -11 -9 -20 q-9 -9 -20 -9 q-10 0 -18 6 l-181 136 l-1 -117 q0 -11 -6.5 -19 q-6.5 -8 -21.5 -8 q-26 0 -26 27 l1 81 l0 104 q0 29 -4 117 q-10 1 -15.5 10.5 q-5.5 9.5 -5.5 19.5 q0 10 19 19 l0 16 q0 13 8.5 18.5 q8.5 5.5 21.5 5.5 q24 0 24 -18 q53 17 95 17 q63 0 105.5 -34.5 q42.5 -34.5 42.5 -93.5 ZM559 430 q0 36 -28 56.5 q-28 20.5 -75 20.5 q-39 0 -87 -19 q2 -83 5 -121 q22 -11 73 -11 q48 0 80 17.5 q32 17.5 32 56.5 Z" /><glyph glyph-name="degree" unicode="°" d="M190 562 q-67 0 -108.5 39.5 q-41.5 39.5 -41.5 99.5 q0 43 20.5 78 q20.5 35 55.5 54.5 q35 19.5 78 19.5 q44 0 78.5 -20 q34.5 -20 53.5 -53 q19 -33 19 -69 q0 -43 -22 -77 q-22 -34 -57.5 -53 q-35.5 -19 -75.5 -19 ZM190 614 q43 0 71 26 q28 26 28 69 q0 35 -24.5 63 q-24.5 28 -74.5 28 q-44 0 -69 -30 q-25 -30 -25 -69 q0 -40 27.5 -63.5 q27.5 -23.5 66.5 -23.5 Z" /><glyph glyph-name="brokenbar" unicode="¦" d="M140 444 q-14 0 -22.5 6.5 q-8.5 6.5 -8.5 19.5 l-8 396 q0 12 9 19 q9 7 23 7 q30 0 30 -26 l8 -396 q0 -13 -8.5 -19.5 q-8.5 -6.5 -22.5 -6.5 ZM132 -92 q-15 0 -23.5 7 q-8.5 7 -8.5 20 l7 397 q0 29 31 29 q31 0 31 -29 l-6 -397 q0 -27 -31 -27 Z" /><glyph glyph-name="acute" unicode="´" d="M138 562 q-10 0 -17.5 6 q-7.5 6 -9.5 15 l-1 6 q0 11 11 25 l87 106 q10 13 18.5 18 q8.5 5 19.5 5 q14 0 23 -9 q9 -9 9 -23 q0 -16 -20 -38 l-88 -94 q-9 -10 -16 -13.5 q-7 -3.5 -16 -3.5 Z" /><glyph glyph-name="dieresis" unicode="¨" d="M70 576 q-24 0 -40.5 16.5 q-16.5 16.5 -16.5 41.5 q0 24 16.5 39.5 q16.5 15.5 40.5 15.5 q24 0 41 -16 q17 -16 17 -39 q0 -24 -16.5 -41 q-16.5 -17 -41.5 -17 ZM310 576 q-24 0 -40.5 16.5 q-16.5 16.5 -16.5 41.5 q0 24 16.5 39.5 q16.5 15.5 40.5 15.5 q24 0 40.5 -16 q16.5 -16 16.5 -39 q0 -24 -16.5 -41 q-16.5 -17 -40.5 -17 Z" /><glyph glyph-name="grave" unicode="`" d="M247 490 q-14 0 -24 10 l-175 173 q-13 12 -13 25 q0 11 10 21.5 q10 10.5 22 10.5 q12 0 26 -14 q110 -110 176 -174 q10 -9 10 -23 q0 -11 -10 -20 q-10 -9 -22 -9 Z" /></font>
</defs>
</svg>
