<?xml version="1.0" standalone="no"?><!DOCTYPE svg PUBLIC "-//W3C//DTD SVG 1.1//EN" "http://www.w3.org/Graphics/SVG/1.1/DTD/svg11.dtd" ><svg xmlns="http://www.w3.org/2000/svg"><metadata></metadata><defs><font id="1.000;CDK ;Mali-Light" horiz-adv-x="1547"><font-face font-family="Mali Light" font-weight="300" font-stretch="normal" units-per-em="1000" panose-1="0 0 4 0 0 0 0 0 0 0" ascent="1050" descent="-250" x-height="0" bbox="-80 -257 1507 918" underline-thickness="50" underline-position="-75" unicode-range="U+0020-2019" /><missing-glyph horiz-adv-x="522" d="M426 9 q-70 2 -143 2 l-63 0 l-141 -1 q-9 0 -12.5 2.5 q-3.5 2.5 -3.5 9.5 l0 337 q0 104 5 344 q0 19 24 19 l90 -1 q23 -1 78 -1 q63 0 137 2 l35 0 q13 0 13 -14 l-5 -344 l0 -125 l0 -215 q0 -15 -14 -15 ZM413 364 l3 328 l-160 0 l-153 1 q-8 0 -8 -13 q0 -4 -1.5 -113 q-1.5 -109 -1.5 -244 l0 -283 q25 -1 98 1 l39 0 q18 -1 157 -3 l28 0 l-1 326 Z" /><glyph glyph-name="space" unicode=" " d="" /><glyph glyph-name="A" unicode="a" d="M589 23 q3 -6 3 -10 q0 -11 -9 -17 q-9 -6 -22 -6 q-19 0 -24 16 l-52 172 l-309 2 l-55 -170 q-5 -18 -25 -18 q-12 0 -20.5 6 q-8.5 6 -8.5 16 q0 1 2 9 q82 244 136 409 l56 168 q20 59 37 85 q17 26 41 26 q22 0 38 -23.5 q16 -23.5 33 -77.5 q59 -189 116 -379 l30 0 q11 0 18 -7.5 q7 -7.5 7 -18.5 q0 -27 -23 -27 l-16 0 l47 -155 ZM470 232 l-100 339 q-10 35 -19 55 q-9 20 -15 20 q-5 0 -12.5 -18.5 q-7.5 -18.5 -20.5 -57.5 l-109 -335 l276 -3 Z" /><glyph glyph-name="B" unicode="b" d="M47 28 q0 26 26 25 l22 0 q15 159 15 329 q0 151 -3 235 q-4 -1 -9 -3 q-5 -2 -8 -2 l-2 0 q-8 0 -13.5 5 q-5.5 5 -5.5 15 q0 13 8.5 21.5 q8.5 8.5 30.5 17.5 q86 36 185 36 q73 0 132.5 -21.5 q59.5 -21.5 94.5 -64.5 q35 -43 35 -104 q0 -67 -50.5 -109.5 q-50.5 -42.5 -140.5 -53.5 q87 -14 134 -61.5 q47 -47.5 47 -112.5 q0 -89 -70.5 -135.5 q-70.5 -46.5 -177.5 -46.5 l-27 1 q-55 3 -76 3 l-50 1 q-5 -23 -27 -23 q-23 0 -26 24 l-20 1 q-14 1 -19 7 q-5 6 -5 16 ZM147 51 q24 0 37 -1 q40 0 64 -1 q243 -8 243 131 q0 73 -65 110.5 q-65 37.5 -178 39.5 q-17 1 -26 6 q-9 5 -9 21 q0 14 9.5 19.5 q9.5 5.5 25.5 6.5 q110 2 181.5 32.5 q71.5 30.5 71.5 100.5 q0 71 -57.5 106.5 q-57.5 35.5 -148.5 35.5 q-36 0 -73 -4.5 q-37 -4.5 -61 -14.5 q3 -97 3 -256 q0 -180 -17 -332 Z" /><glyph glyph-name="C" unicode="c" d="M642 270 q14 0 20.5 -6.5 q6.5 -6.5 6.5 -21.5 q0 -66 -36.5 -122 q-36.5 -56 -101.5 -89.5 q-65 -33.5 -147 -33.5 q-86 0 -162 35.5 q-76 35.5 -124 110.5 q-48 75 -48 189 q0 113 46 199.5 q46 86.5 121.5 134 q75.5 47.5 162.5 47.5 q62 0 113.5 -26.5 q51.5 -26.5 86.5 -74.5 l-1 71 q0 12 7 18.5 q7 6.5 20 6.5 q12 0 19 -6.5 q7 -6.5 7 -19.5 l0 -121 q0 -15 -7 -22.5 q-7 -7.5 -19 -7.5 q-10 0 -17 3.5 q-7 3.5 -13 12.5 q-40 55 -86.5 85 q-46.5 30 -109.5 30 q-72 0 -135.5 -43 q-63.5 -43 -102 -118.5 q-38.5 -75.5 -38.5 -169.5 q0 -95 41 -158.5 q41 -63.5 105.5 -93.5 q64.5 -30 136.5 -30 q58 0 110.5 23.5 q52.5 23.5 85 67.5 q32.5 44 32.5 102 q0 13 7 20.5 q7 7.5 20 7.5 Z" /><glyph glyph-name="Ccedilla" unicode="ç" d="M376 -3 l-35 -56 q90 -19 90 -73 q0 -48 -35.5 -71.5 q-35.5 -23.5 -88.5 -23.5 q-35 0 -72 14 q-9 3 -13 11 q-4 8 -2 16 q2 7 7.5 11 q5.5 4 13.5 4 q5 0 8 -1 q40 -11 62 -11 q34 0 53 9.5 q19 9.5 19 34.5 q0 21 -20 30 q-20 9 -63 16 q-13 1 -19 8 q-6 7 -4 16 l46 71 q-75 11 -136.5 50 q-61.5 39 -99 109.5 q-37.5 70.5 -37.5 170.5 q0 113 46 199.5 q46 86.5 121.5 134 q75.5 47.5 162.5 47.5 q62 0 113.5 -26.5 q51.5 -26.5 86.5 -74.5 l-1 71 q0 12 7 18.5 q7 6.5 20 6.5 q12 0 19 -6.5 q7 -6.5 7 -19.5 l0 -121 q0 -15 -7 -22.5 q-7 -7.5 -19 -7.5 q-10 0 -17 3.5 q-7 3.5 -13 12.5 q-40 55 -86.5 85 q-46.5 30 -109.5 30 q-72 0 -135.5 -43 q-63.5 -43 -102 -118.5 q-38.5 -75.5 -38.5 -169.5 q0 -95 41 -158.5 q41 -63.5 105.5 -93.5 q64.5 -30 136.5 -30 q58 0 110.5 23.5 q52.5 23.5 85 67.5 q32.5 44 32.5 102 q0 13 7 20.5 q7 7.5 20 7.5 q14 0 20.5 -6.5 q6.5 -6.5 6.5 -21.5 q0 -66 -36.5 -122 q-36.5 -56 -101.5 -89.5 q-65 -33.5 -147 -33.5 l-8 0 Z" /><glyph glyph-name="D" unicode="d" d="M172 697 q206 -12 324 -94 q118 -82 118 -243 q0 -107 -53 -186.5 q-53 -79.5 -152.5 -122.5 q-99.5 -43 -236.5 -43 l-73 0 q-15 0 -22 6 q-7 6 -7 19 q0 24 23 24 l44 0 l-17 592 l-20 0 q-16 0 -23.5 5 q-7.5 5 -7.5 19 q0 15 8 20.5 q8 5.5 24 5.5 l20 0 q6 17 26 17 q20 0 25 -19 ZM190 57 q111 3 195 39 q84 36 130 103.5 q46 67.5 46 160.5 q0 149 -109.5 213 q-109.5 64 -276.5 74 l15 -590 Z" /><glyph glyph-name="E" unicode="e" d="M498 72 q31 3 31 -26 q0 -12 -5.5 -17.5 q-5.5 -5.5 -17.5 -7.5 q-26 -5 -70.5 -6.5 q-44.5 -1.5 -115.5 -1.5 q-125 0 -233 11 q-21 3 -21 24 q0 12 5.5 19 q5.5 7 14.5 7 q12 0 19 -1 q16 122 19 273 l-20 0 q-26 0 -26 25 q0 11 6 18 q6 7 18 7 l22 0 l0 3 l0 99 q0 100 -2 144 q-14 1 -19.5 6.5 q-5.5 5.5 -5.5 16.5 q0 14 8 19.5 q8 5.5 22 6.5 q67 6 175 6 q139 0 208 -9 q12 -2 18.5 -7 q6.5 -5 6.5 -17 q0 -12 -7 -19 q-7 -7 -18 -6 q-92 9 -188 9 q-85 0 -147 -5 q4 -144 4 -244 l0 -4 q25 -1 82 -1 q72 -2 97 -2 q56 -2 70 -2 q22 0 22 -25 q0 -26 -22 -26 q-12 0 -58 2 l-111 3 q-55 0 -80 1 q-3 -123 -20 -276 q76 -6 177 -6 q55 0 85.5 2 q30.5 2 76.5 7 Z" /><glyph glyph-name="F" unicode="f" d="M507 689 q24 -5 24 -26 q0 -12 -6.5 -18.5 q-6.5 -6.5 -19.5 -5.5 q-99 13 -189 13 q-54 0 -136 -5 q12 -130 13 -268 q41 4 106 4 q95 0 149 -5 q24 -3 24 -27 q0 -23 -25 -22 q-84 4 -146 4 q-67 0 -108 -4 q0 -180 -11 -301 q-3 -22 -28 -22 q-12 0 -19.5 6.5 q-7.5 6.5 -6.5 16.5 q11 123 11 294 l-51 -7 q-10 -1 -17 5.5 q-7 6.5 -7 18.5 q0 11 6 18.5 q6 7.5 17 8.5 l52 6 q-1 155 -13 271 q-24 -2 -39 -2 q-25 0 -25 25 q0 23 26 25 l33 2 q0 7 -1 14 q-1 7 -1 14 q0 23 27 23 q25 0 28 -27 l2 -21 q83 5 136 5 q128 0 195 -13 Z" /><glyph glyph-name="G" unicode="g" d="M672 345 q26 0 26 -25 q0 -12 -7 -18.5 q-7 -6.5 -18 -6.5 l-37 1 q-8 -294 -252 -294 q-102 0 -178.5 47.5 q-76.5 47.5 -117 126.5 q-40.5 79 -40.5 171 q0 93 41 171 q41 78 115.5 124.5 q74.5 46.5 169.5 46.5 q135 0 219 -96 q1 12 1 37 q0 28 27 28 q12 0 19.5 -5.5 q7.5 -5.5 7.5 -13.5 q0 -65 -10 -88 q-8 -18 -30 -18 q-10 0 -16.5 3.5 q-6.5 3.5 -17.5 13.5 q-46 44 -87 66 q-41 22 -105 22 q-84 0 -147.5 -40.5 q-63.5 -40.5 -98 -108 q-34.5 -67.5 -34.5 -146.5 q0 -79 35 -145.5 q35 -66.5 98.5 -105.5 q63.5 -39 147.5 -39 q102 0 150 61.5 q48 61.5 51 181.5 l-155 3 q-14 0 -20.5 7 q-6.5 7 -6.5 18 q0 13 8.5 19.5 q8.5 6.5 19.5 6.5 l242 -5 Z" /><glyph glyph-name="Gbreve" unicode="&#x11e;" d="M672 345 q26 0 26 -25 q0 -12 -7 -18.5 q-7 -6.5 -18 -6.5 l-37 1 q-8 -294 -252 -294 q-102 0 -178.5 47.5 q-76.5 47.5 -117 126.5 q-40.5 79 -40.5 171 q0 93 41 171 q41 78 115.5 124.5 q74.5 46.5 169.5 46.5 q135 0 219 -96 q1 12 1 37 q0 28 27 28 q12 0 19.5 -5.5 q7.5 -5.5 7.5 -13.5 q0 -65 -10 -88 q-8 -18 -30 -18 q-10 0 -16.5 3.5 q-6.5 3.5 -17.5 13.5 q-46 44 -87 66 q-41 22 -105 22 q-84 0 -147.5 -40.5 q-63.5 -40.5 -98 -108 q-34.5 -67.5 -34.5 -146.5 q0 -79 35 -145.5 q35 -66.5 98.5 -105.5 q63.5 -39 147.5 -39 q102 0 150 61.5 q48 61.5 51 181.5 l-155 3 q-14 0 -20.5 7 q-6.5 7 -6.5 18 q0 13 8.5 19.5 q8.5 6.5 19.5 6.5 l242 -5 ZM370 772 q-43 0 -77.5 17.5 q-34.5 17.5 -53.5 45.5 q-19 28 -19 60 q0 8 5.5 14 q5.5 6 13.5 6 q23 0 24 -15 q1 -39 32 -63.5 q31 -24.5 75 -24.5 q39 0 69 26 q30 26 31 59 q0 10 7.5 15.5 q7.5 5.5 16.5 5.5 q9 0 15 -5.5 q6 -5.5 6 -14.5 q0 -32 -20 -61 q-20 -29 -53 -47 q-33 -18 -72 -18 Z" /><glyph glyph-name="H" unicode="h" d="M612 340 q32 0 32 -26 q0 -25 -31 -25 l-30 1 l7 -263 q1 -13 -5.5 -20.5 q-6.5 -7.5 -19.5 -7.5 q-27 0 -29 27 l-8 264 l-354 7 l-23 -283 q-1 -20 -26 -20 q-30 0 -28 25 l23 278 l-33 1 q-12 0 -20 6.5 q-8 6.5 -8 18.5 q0 12 8.5 18.5 q8.5 6.5 20.5 6.5 l36 -1 l28 349 q1 13 9 19.5 q8 6.5 19 6.5 q14 0 20.5 -8.5 q6.5 -8.5 5.5 -21.5 l-28 -345 l349 -6 l-10 353 q0 13 6.5 20.5 q6.5 7.5 19.5 7.5 q13 0 20.5 -7.5 q7.5 -7.5 7.5 -18.5 l10 -356 l31 0 Z" /><glyph glyph-name="I" unicode="i" d="M373 56 q24 0 24 -25 q0 -26 -25 -26 l-304 4 q-10 1 -16 8 q-6 7 -6 18 q0 13 7 19 q7 6 17 6 l125 -2 q10 163 14.5 300 q4.5 137 4.5 300 q-25 -1 -62.5 -3.5 q-37.5 -2.5 -53.5 -3.5 l-36 -3 q-9 0 -15 7 q-6 7 -6 19 q0 22 24 25 q16 3 74.5 6.5 q58.5 3.5 100.5 3.5 q99 0 135 -6 q11 -2 16.5 -7 q5.5 -5 5.5 -18 q0 -13 -7 -19.5 q-7 -6.5 -19 -5.5 q-5 0 -28.5 2.5 q-23.5 2.5 -74.5 2.5 q0 -175 -4 -311.5 q-4 -136.5 -15 -288.5 l124 -2 Z" /><glyph glyph-name="Idotaccent" unicode="&#x130;" d="M373 56 q24 0 24 -25 q0 -26 -25 -26 l-304 4 q-10 1 -16 8 q-6 7 -6 18 q0 13 7 19 q7 6 17 6 l125 -2 q10 163 14.5 300 q4.5 137 4.5 300 q-25 -1 -62.5 -3.5 q-37.5 -2.5 -53.5 -3.5 l-36 -3 q-9 0 -15 7 q-6 7 -6 19 q0 22 24 25 q16 3 74.5 6.5 q58.5 3.5 100.5 3.5 q99 0 135 -6 q11 -2 16.5 -7 q5.5 -5 5.5 -18 q0 -13 -7 -19.5 q-7 -6.5 -19 -5.5 q-5 0 -28.5 2.5 q-23.5 2.5 -74.5 2.5 q0 -175 -4 -311.5 q-4 -136.5 -15 -288.5 l124 -2 ZM223 782 q-20 0 -33 13.5 q-13 13.5 -13 33.5 q0 19 13 31.5 q13 12.5 33 12.5 q20 0 33.5 -12.5 q13.5 -12.5 13.5 -31.5 q0 -20 -13 -33.5 q-13 -13.5 -34 -13.5 Z" /><glyph glyph-name="J" unicode="j" d="M516 699 q22 -1 22 -25 q0 -24 -24 -24 l-65 0 q-4 -103 -4 -290 l0 -101 q0 -125 -56.5 -191.5 q-56.5 -66.5 -153.5 -66.5 q-87 0 -142.5 57 q-55.5 57 -55.5 196 q0 15 5.5 22.5 q5.5 7.5 20.5 7.5 q14 0 20.5 -7.5 q6.5 -7.5 7.5 -22.5 q1 -103 37 -152.5 q36 -49.5 106 -49.5 q70 0 113 50 q43 50 43 159 q0 245 6 389 l-83 -3 q-12 0 -19 6.5 q-7 6.5 -7 18.5 q0 11 5.5 17 q5.5 6 14.5 7 q41 4 108 4 l61 0 q31 0 40 -1 Z" /><glyph glyph-name="K" unicode="k" d="M553 691 q11 0 18.5 -7.5 q7.5 -7.5 7.5 -19.5 q0 -13 -10 -20 q-46 -36 -147 -105 q1 1 -63 -43 q-78 -52 -128 -82 q-16 -11 -33 -21.5 q-17 -10.5 -35 -22.5 l33 -32 q31 -30 64.5 -61.5 q33.5 -31.5 76.5 -67.5 q57 -49 94 -76.5 q37 -27.5 98 -69.5 l18 -13 q11 -8 11 -22 q0 -12 -7.5 -19.5 q-7.5 -7.5 -17.5 -7.5 q-9 0 -17 6 q-103 73 -210 162 q-55 46 -91 79.5 q-36 33.5 -78 78.5 q0 -45 -2 -133 q-2 -116 -2 -164 q0 -29 -28 -29 q-27 0 -27 32 q0 33 2 135 q3 192 3 217 q0 80 -1 121 l-1 168 q0 10 8 17 q8 7 20 7 q13 0 20.5 -7.5 q7.5 -7.5 7.5 -19.5 l1 -258 q79 48 185 120 q139 94 213 153 q8 5 17 5 Z" /><glyph glyph-name="L" unicode="l" d="M252 -1 q-87 0 -126.5 17.5 q-39.5 17.5 -52 60 q-12.5 42.5 -12.5 134.5 q0 106 10.5 215 q10.5 109 33.5 253 q5 24 30 24 q14 0 20 -8.5 q6 -8.5 4 -23.5 q-27 -177 -36 -266.5 q-9 -89.5 -9 -194.5 q0 -70 7.5 -101.5 q7.5 -31.5 35 -45 q27.5 -13.5 90.5 -13.5 q49 0 91.5 6 q42.5 6 114.5 20 q15 3 23.5 -4.5 q8.5 -7.5 8.5 -20.5 q0 -23 -29 -29 q-115 -23 -204 -23 Z" /><glyph glyph-name="M" unicode="m" d="M705 166 q1 -46 1 -144 q0 -12 -6.5 -20 q-6.5 -8 -19.5 -8 q-14 0 -21 8 q-7 8 -7 20 q-1 102 -1 293 q-1 166 -15 251 q-14 85 -38 85 q-19 0 -52.5 -47 q-33.5 -47 -55.5 -94 q-23 -47 -38 -103 q-15 -56 -29 -125 q-5 -22 -30 -22 q-13 0 -20 5 q-7 5 -11 16 q-5 13 -15 56 q-27 110 -49 165 q-21 54 -53 102.5 q-32 48.5 -51 48.5 q-27 0 -41.5 -94.5 q-14.5 -94.5 -16.5 -233.5 l-1 -302 q0 -11 -7.5 -17.5 q-7.5 -6.5 -20.5 -6.5 q-14 0 -20.5 7.5 q-6.5 7.5 -6.5 19.5 l1 134 q2 106 2 165 q0 199 26 293 q26 94 78 94 q41 0 80.5 -49.5 q39.5 -49.5 71.5 -132 q32 -82.5 52 -178.5 q17 92 53.5 175.5 q36.5 83.5 80 134 q43.5 50.5 82.5 50.5 q51 0 73 -97 q22 -97 24 -299 l1 -150 Z" /><glyph glyph-name="N" unicode="n" d="M615 712 q29 0 29 -30 l-1 -400 q0 -113 -6 -170.5 q-6 -57.5 -18 -78 q-12 -20.5 -34 -20.5 q-35 0 -96.5 82.5 q-61.5 82.5 -159.5 239.5 q-144 228 -195 293 l1 -139 q1 -45 1 -137 l1 -319 q0 -9 -7.5 -15.5 q-7.5 -6.5 -19.5 -6.5 q-11 0 -19.5 6.5 q-8.5 6.5 -8.5 15.5 l0 318 q0 94 -1 142 l-1 160 q0 25 8 38.5 q8 13.5 29 13.5 q29 0 75.5 -63 q46.5 -63 126.5 -190 l42 -67 q157 -247 214 -308 q13 54 13 205 l0 404 q0 26 27 26 Z" /><glyph glyph-name="O" unicode="o" d="M383 9 q-89 0 -164 35 q-75 35 -121 110 q-46 75 -46 188 q0 105 40.5 188 q40.5 83 114 129.5 q73.5 46.5 170.5 46.5 q97 0 177 -47 q80 -47 126.5 -131 q46.5 -84 46.5 -190 q0 -110 -48.5 -184 q-48.5 -74 -127 -109.5 q-78.5 -35.5 -168.5 -35.5 ZM387 60 q70 0 135.5 29 q65.5 29 108 92 q42.5 63 42.5 160 q0 90 -38 161.5 q-38 71.5 -104.5 112 q-66.5 40.5 -149.5 40.5 q-80 0 -142.5 -38.5 q-62.5 -38.5 -97.5 -108.5 q-35 -70 -35 -161 q0 -104 43 -168 q43 -64 107 -91.5 q64 -27.5 131 -27.5 Z" /><glyph glyph-name="Odieresis" unicode="ö" d="M383 9 q-89 0 -164 35 q-75 35 -121 110 q-46 75 -46 188 q0 105 40.5 188 q40.5 83 114 129.5 q73.5 46.5 170.5 46.5 q97 0 177 -47 q80 -47 126.5 -131 q46.5 -84 46.5 -190 q0 -110 -48.5 -184 q-48.5 -74 -127 -109.5 q-78.5 -35.5 -168.5 -35.5 ZM387 60 q70 0 135.5 29 q65.5 29 108 92 q42.5 63 42.5 160 q0 90 -38 161.5 q-38 71.5 -104.5 112 q-66.5 40.5 -149.5 40.5 q-80 0 -142.5 -38.5 q-62.5 -38.5 -97.5 -108.5 q-35 -70 -35 -161 q0 -104 43 -168 q43 -64 107 -91.5 q64 -27.5 131 -27.5 ZM275 782 q-20 0 -33 13.5 q-13 13.5 -13 33.5 q0 19 13 31.5 q13 12.5 33 12.5 q20 0 33.5 -12.5 q13.5 -12.5 13.5 -31.5 q0 -20 -13.5 -33.5 q-13.5 -13.5 -33.5 -13.5 ZM503 782 q-20 0 -33 13.5 q-13 13.5 -13 33.5 q0 19 13 31.5 q13 12.5 33 12.5 q20 0 33 -12.5 q13 -12.5 13 -31.5 q0 -20 -13 -33.5 q-13 -13.5 -33 -13.5 Z" /><glyph glyph-name="P" unicode="p" d="M291 705 q71 0 134.5 -27.5 q63.5 -27.5 102 -79 q38.5 -51.5 38.5 -119.5 q0 -63 -34 -110.5 q-34 -47.5 -93.5 -73 q-59.5 -25.5 -135.5 -25.5 q-93 0 -153 35 l-3 -282 q0 -15 -8 -22.5 q-8 -7.5 -20 -7.5 q-28 0 -28 34 q0 40 2 120 q2 98 2 182 q0 113 -4 237 q-1 7 -1 22 l-10 -5 q-6 -3 -12 -3 q-11 0 -17 9.5 q-6 9.5 -6 21.5 q0 12 18 22 l25 14 l0 26 q0 17 7 25 q7 8 22 8 q27 0 27 -19 l0 -13 q74 31 147 31 ZM291 318 q65 0 114.5 21.5 q49.5 21.5 76 58.5 q26.5 37 26.5 83 q0 50 -30 89.5 q-30 39.5 -80 61.5 q-50 22 -108 22 q-65 0 -145 -37 l0 -21 q2 -70 2 -90 q0 -28 2 -88 l1 -64 q62 -36 141 -36 Z" /><glyph glyph-name="Q" unicode="q" d="M697 70 q10 -9 10 -20 q0 -11 -8.5 -20 q-8.5 -9 -19.5 -9 q-12 0 -20 8 l-64 64 q-46 -38 -104.5 -58.5 q-58.5 -20.5 -123.5 -20.5 q-95 0 -166.5 42.5 q-71.5 42.5 -110.5 118.5 q-39 76 -39 175 q0 111 47.5 192.5 q47.5 81.5 123 124.5 q75.5 43 158.5 43 q84 0 161.5 -44 q77.5 -44 126 -124 q48.5 -80 48.5 -183 q0 -66 -21 -124 q-21 -58 -60 -103 l62 -62 ZM367 65 q53 0 101.5 17 q48.5 17 87.5 49 l-84 84 q-8 6 -8 15 q0 11 11 20.5 q11 9.5 22 9.5 q8 0 13 -4 l86 -85 q31 38 48.5 85.5 q17.5 47.5 17.5 101.5 q0 87 -40 156 q-40 69 -104.5 107 q-64.5 38 -133.5 38 q-69 0 -133.5 -37 q-64.5 -37 -105 -107 q-40.5 -70 -40.5 -165 q0 -82 33 -147 q33 -65 92.5 -101.5 q59.5 -36.5 136.5 -36.5 Z" /><glyph glyph-name="R" unicode="r" d="M547 68 q14 -9 14 -22 q0 -12 -8 -22 q-8 -10 -19 -10 q-12 0 -25 10 l-357 240 l-1 -243 q0 -12 -7.5 -19 q-7.5 -7 -19.5 -7 q-28 0 -28 35 l1 298 q0 108 -6 254 l-8 -4 q-6 -2 -8 -2 q-11 0 -16 10 q-5 10 -5 22 q0 16 21 26 l15 7 l0 36 q0 25 26 25 q12 0 19 -5 q7 -5 7 -14 l0 -19 q47 20 85.5 28 q38.5 8 78.5 8 q81 0 141.5 -25 q60.5 -25 93 -71.5 q32.5 -46.5 32.5 -108.5 q0 -68 -38.5 -114.5 q-38.5 -46.5 -101.5 -69.5 q-63 -23 -136 -23 q-50 0 -109 18 l359 -238 ZM310 649 q-41 0 -79.5 -10 q-38.5 -10 -87.5 -32 l3 -69 q5 -81 6 -178 q61 -22 138 -22 q97 0 161.5 40.5 q64.5 40.5 64.5 113.5 q0 46 -26 81.5 q-26 35.5 -73 55.5 q-47 20 -107 20 Z" /><glyph glyph-name="S" unicode="s" d="M279 2 q-70 0 -120.5 28.5 q-50.5 28.5 -76 76.5 q-25.5 48 -25.5 106 q0 28 27 28 q27 0 27 -24 q0 -77 46 -121 q46 -44 122 -44 q66 0 106.5 31.5 q40.5 31.5 40.5 90.5 q0 62 -43.5 95.5 q-43.5 33.5 -128.5 57.5 q-54 15 -94.5 32.5 q-40.5 17.5 -72.5 55.5 q-32 38 -32 100 q0 56 29 100 q29 44 78 68 q49 24 106 24 q63 0 110 -26.5 q47 -26.5 71.5 -70 q24.5 -43.5 24.5 -92.5 q0 -28 -26 -28 q-27 0 -27 25 q0 61 -42.5 101 q-42.5 40 -110.5 40 q-73 0 -116 -40 q-43 -40 -43 -101 q0 -43 23 -69.5 q23 -26.5 58 -41.5 q35 -15 96 -33 q52 -15 92 -34.5 q40 -19.5 71 -59.5 q31 -40 31 -102 q0 -79 -56 -126 q-56 -47 -145 -47 Z" /><glyph glyph-name="Scedilla" unicode="&#x15e;" d="M302 2 l-38 -61 q89 -19 89 -73 q0 -48 -35.5 -71.5 q-35.5 -23.5 -88.5 -23.5 q-34 0 -71 14 q-9 3 -13 11 q-4 8 -2 16 q2 8 10 12.5 q8 4.5 18 1.5 q40 -11 62 -11 q34 0 53 9.5 q19 9.5 19 34.5 q0 21 -20 30 q-20 9 -63 16 q-13 1 -19 8 q-6 7 -3 16 l47 73 q-90 9 -140 68 q-50 59 -50 141 q0 28 27 28 q27 0 27 -24 q0 -77 46 -121 q46 -44 122 -44 q66 0 106.5 31.5 q40.5 31.5 40.5 90.5 q0 62 -43.5 95.5 q-43.5 33.5 -128.5 57.5 q-54 15 -94.5 32.5 q-40.5 17.5 -72.5 55.5 q-32 38 -32 100 q0 56 29 100 q29 44 78 68 q49 24 106 24 q63 0 110 -26.5 q47 -26.5 71.5 -70 q24.5 -43.5 24.5 -92.5 q0 -28 -26 -28 q-27 0 -27 25 q0 61 -42.5 101 q-42.5 40 -110.5 40 q-73 0 -116 -40 q-43 -40 -43 -101 q0 -43 23 -69.5 q23 -26.5 58 -41.5 q35 -15 96 -33 q52 -15 92 -34.5 q40 -19.5 71 -59.5 q31 -40 31 -102 q0 -74 -49 -120 q-49 -46 -129 -52 l0 -1 Z" /><glyph glyph-name="T" unicode="t" d="M479 688 q26 -2 26 -26 q0 -12 -6.5 -19.5 q-6.5 -7.5 -19.5 -6.5 q-96 8 -178 8 q-9 -135 -15 -311 q-8 -222 -9 -307 q0 -17 -7 -24 q-7 -7 -22 -7 q-15 0 -22 7 q-7 7 -7 25 q0 43 5 148 q8 175 7 157 q5 129 15 312 q-52 -1 -95.5 -4 q-43.5 -3 -90.5 -7 q-12 -2 -19.5 5 q-7.5 7 -7.5 21 q0 23 21 24 q100 12 230 12 q124 0 195 -7 Z" /><glyph glyph-name="U" unicode="u" d="M571 338 q2 -174 2 -315 q0 -25 -27 -25 q-14 0 -20.5 7 q-6.5 7 -6.5 22 l0 101 q-30 -56 -88.5 -90.5 q-58.5 -34.5 -135.5 -34.5 q-82 0 -133.5 38 q-51.5 38 -73.5 96 q-22 58 -22 124 q0 71 1 124.5 q1 53.5 2 89.5 q4 130 4 203 q0 23 26 23 q28 0 28 -25 q0 -48 -1.5 -108 q-1.5 -60 -1.5 -90 q-3 -111 -3 -217 q0 -99 47 -153 q47 -54 133 -54 q67 0 116 32.5 q49 32.5 74.5 81 q25.5 48.5 25.5 94.5 l-2 169 q0 66 -2 250 q0 13 5.5 20 q5.5 7 19.5 7 q29 0 29 -28 q0 -117 3 -264 l1 -78 Z" /><glyph glyph-name="Udieresis" unicode="ü" d="M571 338 q2 -174 2 -315 q0 -25 -27 -25 q-14 0 -20.5 7 q-6.5 7 -6.5 22 l0 101 q-30 -56 -88.5 -90.5 q-58.5 -34.5 -135.5 -34.5 q-82 0 -133.5 38 q-51.5 38 -73.5 96 q-22 58 -22 124 q0 71 1 124.5 q1 53.5 2 89.5 q4 130 4 203 q0 23 26 23 q28 0 28 -25 q0 -48 -1.5 -108 q-1.5 -60 -1.5 -90 q-3 -111 -3 -217 q0 -99 47 -153 q47 -54 133 -54 q67 0 116 32.5 q49 32.5 74.5 81 q25.5 48.5 25.5 94.5 l-2 169 q0 66 -2 250 q0 13 5.5 20 q5.5 7 19.5 7 q29 0 29 -28 q0 -117 3 -264 l1 -78 ZM206 782 q-20 0 -33 13.5 q-13 13.5 -13 33.5 q0 19 13 31.5 q13 12.5 33 12.5 q20 0 33.5 -12.5 q13.5 -12.5 13.5 -31.5 q0 -20 -13.5 -33.5 q-13.5 -13.5 -33.5 -13.5 ZM434 782 q-20 0 -33 13.5 q-13 13.5 -13 33.5 q0 19 13 31.5 q13 12.5 33 12.5 q20 0 33 -12.5 q13 -12.5 13 -31.5 q0 -20 -13 -33.5 q-13 -13.5 -33 -13.5 Z" /><glyph glyph-name="V" unicode="v" d="M327 1 q-44 0 -68 43 q-14 27 -39 96 q-25 69 -75 236 l-35 121 q-41 138 -54 179 q-2 8 -2 9 q0 10 9 16.5 q9 6.5 21 6.5 q17 0 22 -14 l48 -163 q28 -99 43 -147 q44 -146 66.5 -211.5 q22.5 -65.5 36 -87.5 q13.5 -22 27.5 -22 q15 1 27 22.5 q12 21.5 31.5 84 q19.5 62.5 62.5 214.5 l12 41 q61 224 72 266 q6 14 24 14 q13 0 21 -6 q8 -6 8 -17 q0 -5 -1 -8 q-28 -106 -61 -220 l-21 -74 q-48 -169 -70.5 -238.5 q-22.5 -69.5 -35.5 -97.5 q-10 -20 -28 -31.5 q-18 -11.5 -41 -11.5 Z" /><glyph glyph-name="W" unicode="w" d="M265 3 q-16 0 -26.5 7.5 q-10.5 7.5 -14.5 21.5 q-14 42 -33.5 123 q-19.5 81 -38.5 163 l-16 71 q-13 56 -50 194 l-23 86 q-1 3 -1 11 q0 10 7.5 16 q7.5 6 20.5 6 q11 0 16.5 -4.5 q5.5 -4.5 8.5 -16.5 l19 -70 q38 -143 55 -210 l23 -100 q25 -112 38.5 -167 q13.5 -55 20.5 -55 q6 0 22 34 q16 34 49 111 l24 56 q29 69 42.5 94.5 q13.5 25.5 25.5 25.5 q14 0 30.5 -28 q16.5 -28 53.5 -106 l22 -45 l21 -44 q28 -58 39 -78.5 q11 -20.5 15 -20.5 q5 0 16.5 54 q11.5 54 31.5 159 q5 24 10.5 51.5 q5.5 27.5 11.5 57.5 q24 115 54 240 l10 43 q4 19 25 19 q12 0 20.5 -6.5 q8.5 -6.5 8.5 -18.5 q0 -6 -1 -9 q-41 -164 -65 -278 l-25 -123 q-37 -177 -49 -230 q-8 -32 -41 -32 q-21 0 -43 33.5 q-22 33.5 -68 128.5 l-39 83 q-30 70 -35 70 q-3 0 -13 -22.5 q-10 -22.5 -22 -52.5 l-34 -84 q-40 -93 -61.5 -125.5 q-21.5 -32.5 -41.5 -32.5 Z" /><glyph glyph-name="X" unicode="x" d="M589 41 q7 -9 7 -15 q0 -11 -9 -19.5 q-9 -8.5 -21 -8.5 q-12 0 -21 12 l-217 293 l-214 -286 q-11 -15 -29 -15 q-11 0 -18.5 8 q-7.5 8 -7.5 17 q0 7 2 11 q2 4 7 10 q100 131 227 300 q-155 210 -225 308 q-6 9 -6 16 q0 11 8.5 18.5 q8.5 7.5 21.5 7.5 q7 0 13 -5 q6 -5 15 -16 l207 -284 q138 183 213 284 q8 11 13.5 15 q5.5 4 11.5 4 q13 0 22 -8 q9 -8 9 -17 q0 -9 -10 -22 q-146 -196 -226 -301 l227 -307 Z" /><glyph glyph-name="Y" unicode="y" d="M318 4 q-27 0 -27 28 l-3 295 q-27 10 -56 43 q-29 33 -68 95 q-33 52 -52.5 94 q-19.5 42 -44.5 108 q-2 4 -2 8 q0 9 8.5 16 q8.5 7 20.5 7 q12 0 18 -7 q6 -7 11 -21 q23 -59 41 -96.5 q18 -37.5 47 -84.5 q71 -115 105 -115 q18 0 46.5 31 q28.5 31 60.5 85 q24 40 42.5 79.5 q18.5 39.5 46.5 104.5 q6 13 11.5 18 q5.5 5 13.5 5 q13 0 21.5 -7 q8.5 -7 8.5 -17 q0 -6 -3 -12 q-30 -73 -49 -112.5 q-19 -39.5 -45 -83.5 q-35 -58 -69 -94 q-34 -36 -59 -44 l3 -293 q0 -30 -27 -30 Z" /><glyph glyph-name="Z" unicode="z" d="M561 18 q-91 7 -132.5 9.5 q-41.5 2.5 -104.5 2.5 q-66 0 -201 -5 l-40 -1 q-25 0 -35.5 5 q-10.5 5 -10.5 18 q0 25 37 68.5 q37 43.5 130 139.5 q81 83 122 127 q131 140 167.5 181 q36.5 41 65.5 80 q-130 -13 -209 -13 q-61 0 -127 5 q-66 5 -119 15 q-15 4 -21.5 10 q-6.5 6 -6.5 16 q0 12 8 18.5 q8 6.5 24 5.5 q25 -2 71 -8 q34 -4 74 -7.5 q40 -3.5 84 -3.5 q49 0 111 4.5 q62 4.5 80 5.5 q13 2 46 4 q21 2 37 -11 q13 -10 13 -25 q0 -28 -58.5 -95.5 q-58.5 -67.5 -172.5 -185.5 q0 0 -19 -19 q6 7 -80 -83 q-67 -69 -119.5 -125 q-52.5 -56 -67.5 -78 q9 0 39 2 q125 5 194 5 q111 0 227 -14 q23 -3 23 -24 q0 -11 -8 -18.5 q-8 -7.5 -21 -5.5 Z" /><glyph glyph-name="a" unicode="a" d="M527 50 q12 -2 18 -6.5 q6 -4.5 6 -16.5 q0 -11 -6 -17.5 q-6 -6.5 -16 -6.5 q-40 0 -58.5 14.5 q-18.5 14.5 -30.5 53.5 q-22 -38 -64 -58.5 q-42 -20.5 -100 -20.5 q-83 0 -132.5 38.5 q-49.5 38.5 -69.5 93.5 q-20 55 -20 112 q0 65 25.5 123.5 q25.5 58.5 77 95.5 q51.5 37 125.5 37 q109 0 157 -86 l7 53 q1 13 6 20 q5 7 18 7 q15 0 23 -7 q8 -7 6 -16 q-8 -53 -13 -112 q-4 -43 -4 -116 l0 -65 q0 -50 2.5 -73.5 q2.5 -23.5 12 -34.5 q9.5 -11 30.5 -12 ZM428 171 q1 49 1 119 q0 58 -25 93 q-25 35 -58 48.5 q-33 13.5 -63 13.5 q-60 0 -99.5 -33.5 q-39.5 -33.5 -57.5 -82 q-18 -48.5 -18 -93.5 q0 -43 14.5 -87.5 q14.5 -44.5 51.5 -76.5 q37 -32 100 -32 q65 0 109 33.5 q44 33.5 45 97.5 Z" /><glyph glyph-name="b" unicode="b" d="M337 503 q75 0 131.5 -31 q56.5 -31 87.5 -89.5 q31 -58.5 31 -137.5 q0 -89 -38 -145 q-38 -56 -94 -80 q-56 -24 -115 -24 q-49 0 -90.5 15 q-41.5 15 -69.5 36.5 q-28 21.5 -38 41.5 q-4 -25 -19.5 -45.5 q-15.5 -20.5 -34.5 -29.5 q-6 -3 -12 -3 q-11 0 -18 8 q-7 8 -7 17 q0 9 7 15 q3 3 16 14 q13 11 20 28 q4 9 5 23.5 q1 14.5 1 36.5 q0 41 -3 158 l-2 77 q-2 86 -2 121 q-1 40 -3 148.5 q-2 108.5 -7 189.5 q-1 11 7 17.5 q8 6.5 21 6.5 q12 0 19 -6 q7 -6 8 -16 q5 -120 6 -233 q-1 25 5 -190 q28 33 75.5 55 q47.5 22 112.5 22 ZM340 43 q47 0 90.5 19.5 q43.5 19.5 73 65.5 q29.5 46 29.5 119 q0 100 -54.5 154.5 q-54.5 54.5 -142.5 54.5 q-61 0 -108.5 -27.5 q-47.5 -27.5 -75.5 -67.5 l0 -87 q2 -74 4 -99 q2 -35 27.5 -65.5 q25.5 -30.5 67 -48.5 q41.5 -18 89.5 -18 Z" /><glyph glyph-name="c" unicode="c" d="M298 2 q-81 0 -136 33 q-55 33 -82.5 87.5 q-27.5 54.5 -27.5 119.5 q0 68 28.5 130.5 q28.5 62.5 85 101.5 q56.5 39 136.5 39 q88 0 142.5 -43.5 q54.5 -43.5 73.5 -97.5 q2 -4 2 -11 q0 -15 -18 -20 q-23 -5 -33 20 q-15 42 -57.5 73.5 q-42.5 31.5 -104.5 31.5 q-62 0 -107.5 -32 q-45.5 -32 -69.5 -83 q-24 -51 -24 -107 q0 -53 22 -97.5 q22 -44.5 65.5 -71 q43.5 -26.5 106.5 -26.5 q60 0 101.5 24 q41.5 24 61.5 57.5 q20 33.5 21 64.5 q0 9 6 14.5 q6 5.5 17 5.5 q26 0 26 -25 q0 -40 -25.5 -84 q-25.5 -44 -78.5 -74 q-53 -30 -131 -30 Z" /><glyph glyph-name="ccedilla" unicode="ç" d="M507 215 q26 0 26 -25 q0 -38 -23 -79.5 q-23 -41.5 -70.5 -72 q-47.5 -30.5 -117.5 -35.5 l0 -1 l-38 -61 q89 -19 89 -73 q0 -48 -35.5 -71.5 q-35.5 -23.5 -88.5 -23.5 q-34 0 -71 14 q-9 3 -13 11 q-4 8 -2 16 q2 8 10 12.5 q8 4.5 18 1.5 q40 -11 62 -11 q34 0 53 9.5 q19 9.5 19 34.5 q0 21 -20 30 q-20 9 -63 16 q-13 1 -19 8 q-6 7 -3 16 l47 72 q-71 7 -119 41 q-48 34 -72 85.5 q-24 51.5 -24 112.5 q0 68 28.5 130.5 q28.5 62.5 85 101.5 q56.5 39 136.5 39 q88 0 142.5 -43.5 q54.5 -43.5 73.5 -97.5 q2 -4 2 -11 q0 -15 -18 -20 q-23 -5 -33 20 q-15 42 -57.5 73.5 q-42.5 31.5 -104.5 31.5 q-62 0 -107.5 -32 q-45.5 -32 -69.5 -83 q-24 -51 -24 -107 q0 -53 22 -97.5 q22 -44.5 65.5 -71 q43.5 -26.5 106.5 -26.5 q60 0 101.5 24 q41.5 24 61.5 57.5 q20 33.5 21 64.5 q0 9 6 14.5 q6 5.5 17 5.5 Z" /><glyph glyph-name="d" unicode="d" d="M305 -6 q-67 0 -124 27 q-57 27 -92 84.5 q-35 57.5 -35 144.5 q0 119 69.5 186.5 q69.5 67.5 186.5 67.5 q63 0 110.5 -20 q47.5 -20 71.5 -48 q4 265 17 412 q1 12 8 18.5 q7 6.5 19 6.5 q12 0 20 -7 q8 -7 7 -18 q-7 -79 -13 -256 q-6 -177 -6 -320 q0 -153 7 -180 q7 -23 16.5 -36 q9.5 -13 19.5 -15 q3 0 3 -9 q0 -10 -8.5 -19 q-8.5 -9 -19.5 -9 q-6 0 -14 4 q-41 18 -50 83 q-26 -44 -78.5 -70.5 q-52.5 -26.5 -114.5 -26.5 ZM304 44 q46 0 89 20 q43 20 69.5 55 q26.5 35 26.5 77 q0 47 1 74 l1 95 q-9 20 -34.5 41 q-25.5 21 -63.5 35 q-38 14 -83 14 q-92 0 -147.5 -55 q-55.5 -55 -55.5 -152 q0 -71 30 -116.5 q30 -45.5 75.5 -66.5 q45.5 -21 91.5 -21 Z" /><glyph glyph-name="e" unicode="e" d="M311 -2 q-82 0 -140 36 q-58 36 -87.5 94 q-29.5 58 -29.5 125 q0 69 31 129 q31 60 89.5 95.5 q58.5 35.5 135.5 35.5 q67 0 120 -27.5 q53 -27.5 82.5 -76 q29.5 -48.5 29.5 -109.5 q0 -28 -6.5 -38 q-6.5 -10 -31.5 -11 l-398 -10 q0 -48 25 -93 q25 -45 71 -73.5 q46 -28.5 108 -28.5 q47 0 79 14.5 q32 14.5 50.5 33 q18.5 18.5 43.5 50.5 q5 7 16 7 q10 0 18.5 -7.5 q8.5 -7.5 8.5 -17.5 q0 -8 -7 -17 q-32 -47 -78 -79 q-46 -32 -130 -32 ZM487 297 q5 0 6.5 3 q1.5 3 1.5 10 q0 44 -23.5 80 q-23.5 36 -65.5 56 q-42 20 -94 20 q-61 0 -108 -30 q-47 -30 -72.5 -72.5 q-25.5 -42.5 -25.5 -77.5 l381 11 Z" /><glyph glyph-name="f" unicode="f" d="M263 740 q61 0 96 -38 q35 -38 35 -116 q0 -14 -6 -20.5 q-6 -6.5 -20 -6.5 q-27 0 -27 25 q0 49 -16 78.5 q-16 29.5 -60 29.5 q-54 0 -73 -42.5 q-19 -42.5 -19 -131.5 l1 -122 q29 1 88 1 q25 0 25 -24 q0 -21 -23 -21 l-44 -1 q-33 0 -45 -1 q4 -198 4 -324 q0 -26 -26 -26 q-26 0 -26 25 q-1 142 -5 323 q-30 0 -46 -1 l-25 -1 q-26 0 -26 24 q0 22 26 23 l70 2 l0 21 q-2 80 -2 102 q0 106 34 164 q34 58 110 58 Z" /><glyph glyph-name="g" unicode="g" d="M503 171 q0 3 11 -73 q6 -37 9 -62 q3 -25 3 -46 q0 -71 -29.5 -125.5 q-29.5 -54.5 -83 -84.5 q-53.5 -30 -124.5 -30 q-52 0 -97 22 q-45 22 -72 59 q-27 37 -27 80 q0 21 26 21 q18 0 21 -19 q7 -51 49 -83 q42 -32 100 -32 q87 0 135 53 q48 53 48 139 q0 40 -11 104 q-25 -40 -70.5 -63.5 q-45.5 -23.5 -106.5 -23.5 q-76 0 -130.5 35 q-54.5 35 -82.5 91.5 q-28 56.5 -28 119.5 q0 65 28 123.5 q28 58.5 81 94.5 q53 36 124 36 q49 0 86 -15.5 q37 -15.5 57 -35.5 l7 23 q9 32 12 37 q8 14 20 14 q10 0 19.5 -5.5 q9.5 -5.5 10.5 -13.5 q0 -6 -1 -10 l-12 -48 l-9 -32 q13 -81 37 -250 ZM283 58 q56 0 103.5 29 q47.5 29 64.5 75 q-9 64 -25 162 l-10 63 q-12 28 -52.5 49 q-40.5 21 -86.5 21 q-52 0 -93 -27.5 q-41 -27.5 -64 -74 q-23 -46.5 -23 -101.5 q0 -51 20.5 -96 q20.5 -45 62.5 -72.5 q42 -27.5 103 -27.5 Z" /><glyph glyph-name="gbreve" unicode="&#x11f;" d="M503 171 q0 3 11 -73 q6 -37 9 -62 q3 -25 3 -46 q0 -71 -29.5 -125.5 q-29.5 -54.5 -83 -84.5 q-53.5 -30 -124.5 -30 q-52 0 -97 22 q-45 22 -72 59 q-27 37 -27 80 q0 21 26 21 q18 0 21 -19 q7 -51 49 -83 q42 -32 100 -32 q87 0 135 53 q48 53 48 139 q0 40 -11 104 q-25 -40 -70.5 -63.5 q-45.5 -23.5 -106.5 -23.5 q-76 0 -130.5 35 q-54.5 35 -82.5 91.5 q-28 56.5 -28 119.5 q0 65 28 123.5 q28 58.5 81 94.5 q53 36 124 36 q49 0 86 -15.5 q37 -15.5 57 -35.5 l7 23 q9 32 12 37 q8 14 20 14 q10 0 19.5 -5.5 q9.5 -5.5 10.5 -13.5 q0 -6 -1 -10 l-12 -48 l-9 -32 q13 -81 37 -250 ZM283 58 q56 0 103.5 29 q47.5 29 64.5 75 q-9 64 -25 162 l-10 63 q-12 28 -52.5 49 q-40.5 21 -86.5 21 q-52 0 -93 -27.5 q-41 -27.5 -64 -74 q-23 -46.5 -23 -101.5 q0 -51 20.5 -96 q20.5 -45 62.5 -72.5 q42 -27.5 103 -27.5 ZM285 570 q-43 0 -77.5 17.5 q-34.5 17.5 -53.5 45.5 q-19 28 -19 60 q0 8 5.5 14 q5.5 6 13.5 6 q23 0 24 -15 q1 -39 32 -63.5 q31 -24.5 75 -24.5 q39 0 69 26 q30 26 31 59 q0 10 7.5 15.5 q7.5 5.5 16.5 5.5 q9 0 15 -5.5 q6 -5.5 6 -14.5 q0 -32 -20 -61 q-20 -29 -53 -47 q-33 -18 -72 -18 Z" /><glyph glyph-name="h" unicode="h" d="M483 376 q14 -57 18.5 -140 q4.5 -83 4.5 -215 q0 -10 -7.5 -16 q-7.5 -6 -19.5 -6 q-12 0 -19.5 6.5 q-7.5 6.5 -7.5 18.5 q0 135 -5 218.5 q-5 83.5 -17 126.5 q-14 48 -40 71 q-26 23 -70 23 q-57 0 -97 -33 q-40 -33 -60 -80.5 q-20 -47.5 -20 -88.5 l-1 -241 q0 -9 -8 -14.5 q-8 -5.5 -20 -5.5 q-12 0 -19 6 q-7 6 -7 15 q0 213 5 393 q4 147 17 344 q1 14 7 20.5 q6 6.5 19 6.5 q13 0 20 -6 q7 -6 6 -17 l-18 -354 q24 43 69.5 74 q45.5 31 112.5 31 q65 0 102 -33.5 q37 -33.5 55 -103.5 Z" /><glyph glyph-name="i" unicode="i" d="M141 581 q-22 0 -37.5 15 q-15.5 15 -15.5 37 q0 23 15.5 38.5 q15.5 15.5 39.5 15.5 q23 0 38 -15 q15 -15 15 -38 q0 -23 -16 -38 q-16 -15 -39 -15 ZM126 6 q-13 0 -20.5 6.5 q-7.5 6.5 -7.5 17.5 l10 444 q0 28 28 28 q27 0 27 -28 l-10 -443 q-1 -12 -8 -18.5 q-7 -6.5 -19 -6.5 Z" /><glyph glyph-name="dotlessi" unicode="&#x131;" d="M152 5 q-12 0 -19.5 8.5 q-7.5 8.5 -7.5 21.5 l10 440 q0 15 7.5 22.5 q7.5 7.5 19.5 7.5 q13 0 20.5 -7.5 q7.5 -7.5 7.5 -22.5 l-13 -440 q0 -14 -6.5 -22 q-6.5 -8 -18.5 -8 Z" /><glyph glyph-name="j" unicode="j" d="M199 581 q-23 0 -38.5 15 q-15.5 15 -15.5 37 q0 22 15.5 37.5 q15.5 15.5 39.5 15.5 q23 0 38 -15 q15 -15 15 -38 q0 -23 -16 -37.5 q-16 -14.5 -38 -14.5 ZM54 -236 q-57 0 -95.5 38 q-38.5 38 -38.5 98 q0 18 5.5 25.5 q5.5 7.5 18.5 7.5 q25 0 27 -28 q8 -95 78 -95 q55 0 83.5 54.5 q28.5 54.5 30.5 159.5 q7 298 7 447 q0 14 6.5 20.5 q6.5 6.5 21.5 6.5 q14 0 20 -6.5 q6 -6.5 6 -22.5 q0 -114 -5 -332 l-2 -113 q-2 -124 -45 -192 q-43 -68 -118 -68 Z" /><glyph glyph-name="k" unicode="k" d="M109 -4 q-11 0 -19 5.5 q-8 5.5 -8 14.5 l1 730 q0 26 27 26 q27 0 27 -26 l-2 -394 l100 59 q148 88 199 119 q11 6 17 6 q10 0 18 -11.5 q8 -11.5 7 -23.5 q-1 -7 -16 -17 l-324 -195 l329 -237 q8 -6 8 -17 q0 -11 -8.5 -20.5 q-8.5 -9.5 -19.5 -9.5 q-7 0 -25 11 l-284 207 l-1 -206 q0 -10 -7 -15.5 q-7 -5.5 -19 -5.5 Z" /><glyph glyph-name="l" unicode="l" d="M116 9 q-12 0 -19.5 6.5 q-7.5 6.5 -7.5 20.5 l-6 729 q0 13 8 20 q8 7 21 7 q26 0 26 -27 l5 -729 q0 -27 -27 -27 Z" /><glyph glyph-name="m" unicode="m" d="M562 514 q86 0 120 -57 q34 -57 34 -154 q0 -191 -1 -278 q0 -11 -6.5 -18 q-6.5 -7 -19.5 -7 q-26 0 -26 27 l1 270 q0 88 -21.5 130 q-21.5 42 -82.5 42 q-59 0 -85.5 -58.5 q-26.5 -58.5 -27.5 -145.5 q-1 -82 -1 -238 q0 -25 -27 -25 q-15 0 -21 6.5 q-6 6.5 -6 20.5 l1 188 l0 48 q-1 81 -32.5 140.5 q-31.5 59.5 -86.5 59.5 q-42 0 -69 -39.5 q-27 -39.5 -44 -129.5 q-6 -36 -8 -76.5 q-2 -40.5 -2 -101.5 l0 -40 l0 -53 q0 -11 -7.5 -16.5 q-7.5 -5.5 -18.5 -5.5 q-26 0 -26 23 q0 186 -3 381 q-1 23 -6 34 q-5 11 -9.5 16 q-4.5 5 -5.5 6 q-2 2 -5.5 5 q-3.5 3 -3.5 7 q0 12 8.5 19.5 q8.5 7.5 18.5 7.5 q6 0 14 -7 q8 -7 14 -16 q11 -14 15.5 -30.5 q4.5 -16.5 4.5 -47.5 l0 -27 q17 71 53 104 q36 33 83 33 q111 0 140 -138 q12 69 49 105 q37 36 96 36 Z" /><glyph glyph-name="n" unicode="n" d="M315 508 q82 0 123 -58.5 q41 -58.5 41 -178.5 l0 -242 q0 -27 -26 -27 q-28 0 -28 26 l0 244 q0 97 -25 142.5 q-25 45.5 -88 45.5 q-118 0 -149 -173 q-9 -49 -9 -111 l1 -154 q0 -21 -26 -21 q-12 0 -19.5 6 q-7.5 6 -7.5 15 q-2 132 -4 199 q-3 89 -3 167 q0 21 -4.5 33.5 q-4.5 12.5 -12 25.5 q-7.5 13 -11.5 19 q-3 5 -3 12 q0 9 10 16.5 q10 7.5 19 7.5 q10 0 21 -15 q12 -21 21 -41.5 q9 -20.5 9 -44.5 l0 -23 q17 56 59 93 q42 37 112 37 Z" /><glyph glyph-name="o" unicode="o" d="M300 -1 q-107 0 -182 58.5 q-75 58.5 -75 189.5 q0 79 29.5 140 q29.5 61 86.5 95 q57 34 136 34 q75 0 134 -31 q59 -31 93.5 -91.5 q34.5 -60.5 34.5 -144.5 q0 -123 -71.5 -186.5 q-71.5 -63.5 -185.5 -63.5 ZM299 47 q56 0 102 22 q46 22 74 68 q28 46 28 113 q0 66 -26.5 115.5 q-26.5 49.5 -73.5 76.5 q-47 27 -106 27 q-60 0 -105.5 -27 q-45.5 -27 -70 -77 q-24.5 -50 -24.5 -116 q0 -106 60 -154 q60 -48 142 -48 Z" /><glyph glyph-name="odieresis" unicode="ö" d="M300 -1 q-107 0 -182 58.5 q-75 58.5 -75 189.5 q0 79 29.5 140 q29.5 61 86.5 95 q57 34 136 34 q75 0 134 -31 q59 -31 93.5 -91.5 q34.5 -60.5 34.5 -144.5 q0 -123 -71.5 -186.5 q-71.5 -63.5 -185.5 -63.5 ZM299 47 q56 0 102 22 q46 22 74 68 q28 46 28 113 q0 66 -26.5 115.5 q-26.5 49.5 -73.5 76.5 q-47 27 -106 27 q-60 0 -105.5 -27 q-45.5 -27 -70 -77 q-24.5 -50 -24.5 -116 q0 -106 60 -154 q60 -48 142 -48 ZM186 582 q-20 0 -33 13.5 q-13 13.5 -13 33.5 q0 19 13 31.5 q13 12.5 33 12.5 q20 0 33.5 -12.5 q13.5 -12.5 13.5 -31.5 q0 -20 -13.5 -33.5 q-13.5 -13.5 -33.5 -13.5 ZM414 582 q-20 0 -33 13.5 q-13 13.5 -13 33.5 q0 19 13 31.5 q13 12.5 33 12.5 q20 0 33 -12.5 q13 -12.5 13 -31.5 q0 -20 -13 -33.5 q-13 -13.5 -33 -13.5 Z" /><glyph glyph-name="p" unicode="p" d="M338 513 q65 0 120.5 -27 q55.5 -27 89 -84.5 q33.5 -57.5 33.5 -142.5 q0 -82 -31.5 -140.5 q-31.5 -58.5 -88 -88 q-56.5 -29.5 -128.5 -29.5 q-64 0 -115.5 20 q-51.5 20 -74.5 39 l-2 -74 q-6 -175 -6 -186 q-2 -24 -27 -24 q-27 0 -27 27 q6 146 8 237 l1 62 q2 130 2 253 q0 35 -8 56 q-8 21 -25 43 q-1 1 -4.5 4.5 q-3.5 3.5 -3.5 9.5 q0 10 10 18 q10 8 20 8 q9 0 16 -7 q8 -8 21.5 -30.5 q13.5 -22.5 18.5 -42.5 q22 36 74 67.5 q52 31.5 127 31.5 ZM334 48 q86 0 139.5 55 q53.5 55 53.5 156 q0 73 -27.5 119 q-27.5 46 -70 66.5 q-42.5 20.5 -91.5 20.5 q-55 0 -99 -24 q-44 -24 -68.5 -55 q-24.5 -31 -24.5 -49 q0 -129 -1 -211 q9 -17 38 -35.5 q29 -18.5 69.5 -30.5 q40.5 -12 81.5 -12 Z" /><glyph glyph-name="q" unicode="q" d="M580 463 q1 -2 1 -5 q0 -5 -6 -14 q-27 -45 -44 -80 q-6 -252 -8 -308 l-1 -43 q-3 -129 -3 -228 q0 -11 -7.5 -16.5 q-7.5 -5.5 -20.5 -5.5 q-27 0 -27 25 l3 105 q2 56 4 178 q-25 -32 -75 -52 q-50 -20 -106 -20 q-69 0 -126 29 q-57 29 -90.5 87.5 q-33.5 58.5 -33.5 141.5 q0 90 39 147.5 q39 57.5 95.5 82.5 q56.5 25 113.5 25 q63 0 120.5 -30 q57.5 -30 86.5 -77 l14 25 q17 30 23 38 q3 5 7.5 9.5 q4.5 4.5 10.5 4.5 q10 1 19 -5 q9 -6 11 -14 ZM473 139 q3 92 3 145 q1 15 1 44 q-3 31 -31 62.5 q-28 31.5 -71.5 52.5 q-43.5 21 -90.5 21 q-46 0 -89.5 -22.5 q-43.5 -22.5 -72 -69.5 q-28.5 -47 -28.5 -117 q0 -68 27 -114.5 q27 -46.5 71 -69 q44 -22.5 97 -22.5 q55 0 108.5 27 q53.5 27 75.5 63 Z" /><glyph glyph-name="r" unicode="r" d="M295 512 q66 0 99.5 -40 q33.5 -40 33.5 -95 q0 -54 -30.5 -83 q-30.5 -29 -75.5 -29 q-16 0 -22.5 5 q-6.5 5 -6.5 17 q0 10 4.5 15 q4.5 5 15.5 6 q30 3 48.5 17 q18.5 14 18.5 52 q0 35 -19.5 61.5 q-19.5 26.5 -66.5 26.5 q-66 0 -101.5 -67 q-35.5 -67 -43.5 -167 q-5 -76 -5 -194 q0 -26 -5.5 -35.5 q-5.5 -9.5 -20.5 -9.5 q-15 0 -21 7.5 q-6 7.5 -6 26.5 l-2 202 q0 80 -12 208 l-5 65 q-1 12 7 18.5 q8 6.5 20 6.5 q12 0 18 -7 q6 -7 6 -17 q5 -58 8 -151 q14 80 58 120.5 q44 40.5 106 40.5 Z" /><glyph glyph-name="s" unicode="s" d="M253 -4 q-68 0 -112.5 33 q-44.5 33 -74.5 87 q-7 12 -7 17 q0 11 11 19.5 q11 8.5 22 6.5 q5 -1 11 -7.5 q6 -6.5 12 -16.5 q25 -42 57.5 -66 q32.5 -24 80.5 -24 q50 0 81.5 24.5 q31.5 24.5 31.5 61.5 q0 26 -17 43.5 q-17 17.5 -42 29 q-25 11.5 -69 26.5 q-52 18 -84.5 34 q-32.5 16 -55.5 43.5 q-23 27.5 -23 69.5 q0 37 19.5 69.5 q19.5 32.5 56.5 52.5 q37 20 89 20 q50 0 89.5 -19 q39.5 -19 61.5 -52 q22 -33 22 -73 q0 -16 -5.5 -23 q-5.5 -7 -19.5 -7 q-14 0 -19.5 6 q-5.5 6 -5.5 16 q-2 54 -37 79 q-35 25 -86 25 q-61 0 -86 -30 q-25 -30 -25 -63 q0 -38 32.5 -59.5 q32.5 -21.5 98.5 -44.5 q53 -19 84.5 -34.5 q31.5 -15.5 53.5 -42 q22 -26.5 22 -66.5 q0 -59 -47 -97 q-47 -38 -120 -38 Z" /><glyph glyph-name="scedilla" unicode="&#x15f;" d="M420 131 q0 -54 -40 -91 q-40 -37 -104 -43 l-38 -57 q37 -7 64 -27.5 q27 -20.5 27 -54.5 q0 -45 -36.5 -70.5 q-36.5 -25.5 -85.5 -25.5 q-34 0 -74 14 q-16 7 -16 23 q1 9 6.5 14 q5.5 5 14.5 5 q9 0 26 -5 q26 -8 47 -8 q30 0 50 12 q20 12 20 37 q0 26 -23 36 q-23 10 -63 17 q-9 2 -14 7.5 q-5 5.5 -5 11.5 q0 6 2 8 l42 64 q-97 15 -154 118 q-7 12 -7 17 q0 11 11 19.5 q11 8.5 22 6.5 q5 -1 11 -7.5 q6 -6.5 12 -16.5 q25 -42 57.5 -66 q32.5 -24 80.5 -24 q50 0 81.5 24.5 q31.5 24.5 31.5 61.5 q0 26 -17 43.5 q-17 17.5 -42 29 q-25 11.5 -69 26.5 q-52 18 -84.5 34 q-32.5 16 -55.5 43.5 q-23 27.5 -23 69.5 q0 37 19.5 69.5 q19.5 32.5 56.5 52.5 q37 20 89 20 q50 0 89.5 -19 q39.5 -19 61.5 -52 q22 -33 22 -73 q0 -16 -5.5 -23 q-5.5 -7 -19.5 -7 q-14 0 -19.5 6 q-5.5 6 -5.5 16 q-2 54 -37 79 q-35 25 -86 25 q-61 0 -86 -30 q-25 -30 -25 -63 q0 -38 32.5 -59.5 q32.5 -21.5 98.5 -44.5 q53 -19 84.5 -34.5 q31.5 -15.5 53.5 -42 q22 -26.5 22 -66.5 Z" /><glyph glyph-name="t" unicode="t" d="M356 151 q14 0 19.5 -7 q5.5 -7 5.5 -26 q0 -48 -31.5 -83 q-31.5 -35 -82.5 -35 q-71 0 -101.5 70 q-30.5 70 -30.5 203 q0 62 6 128 l-75 6 q-21 2 -21 25 q0 12 6.5 18 q6.5 6 18.5 4 q45 -4 75 -5 q7 77 25 198 q2 12 8 17.5 q6 5.5 19 5.5 q13 0 20.5 -7 q7.5 -7 6.5 -19 q-13 -88 -26 -198 q66 -2 91 -2 q23 0 23 -21 q0 -13 -5.5 -18 q-5.5 -5 -20.5 -6 l-48 -1 l-44 1 q-6 -66 -6 -129 q0 -101 18.5 -161.5 q18.5 -60.5 64.5 -60.5 q25 0 43 18.5 q18 18.5 19 58.5 q0 13 4 19.5 q4 6.5 19 6.5 Z" /><glyph glyph-name="u" unicode="u" d="M449 103 q0 -20 5 -32.5 q5 -12.5 11.5 -23.5 q6.5 -11 6.5 -15 q0 -8 -8 -16 q-8 -8 -16 -8 q-17 0 -30.5 25 q-13.5 25 -14.5 53 l0 31 q-20 -55 -65.5 -85.5 q-45.5 -30.5 -105.5 -30.5 q-164 0 -164 228 l0 252 q0 10 7.5 15.5 q7.5 5.5 18.5 5.5 q12 0 20 -5.5 q8 -5.5 8 -15.5 l0 -254 q0 -92 27 -135.5 q27 -43.5 87 -43.5 q83 0 119 76 q36 76 36 198 l0 161 q0 25 26 25 q13 0 20.5 -6.5 q7.5 -6.5 7.5 -18.5 l4 -380 Z" /><glyph glyph-name="udieresis" unicode="ü" d="M449 103 q0 -20 5 -32.5 q5 -12.5 11.5 -23.5 q6.5 -11 6.5 -15 q0 -8 -8 -16 q-8 -8 -16 -8 q-17 0 -30.5 25 q-13.5 25 -14.5 53 l0 31 q-20 -55 -65.5 -85.5 q-45.5 -30.5 -105.5 -30.5 q-164 0 -164 228 l0 252 q0 10 7.5 15.5 q7.5 5.5 18.5 5.5 q12 0 20 -5.5 q8 -5.5 8 -15.5 l0 -254 q0 -92 27 -135.5 q27 -43.5 87 -43.5 q83 0 119 76 q36 76 36 198 l0 161 q0 25 26 25 q13 0 20.5 -6.5 q7.5 -6.5 7.5 -18.5 l4 -380 ZM144 582 q-20 0 -33 13.5 q-13 13.5 -13 33.5 q0 19 13 31.5 q13 12.5 33 12.5 q20 0 33.5 -12.5 q13.5 -12.5 13.5 -31.5 q0 -20 -13.5 -33.5 q-13.5 -13.5 -33.5 -13.5 ZM372 582 q-20 0 -33 13.5 q-13 13.5 -13 33.5 q0 19 13 31.5 q13 12.5 33 12.5 q20 0 33 -12.5 q13 -12.5 13 -31.5 q0 -20 -13 -33.5 q-13 -13.5 -33 -13.5 Z" /><glyph glyph-name="v" unicode="v" d="M259 8 q-33 0 -70.5 61.5 q-37.5 61.5 -72.5 157.5 q-26 72 -43.5 143 q-17.5 71 -17.5 101 q0 30 28 30 q22 0 25 -25 q7 -48 18.5 -99.5 q11.5 -51.5 36.5 -124.5 q26 -75 55 -130 q29 -55 40 -55 q13 0 41.5 52.5 q28.5 52.5 59.5 132.5 q50 129 61 228 q2 26 26 26 q13 0 20 -8.5 q7 -8.5 7 -23.5 q0 -32 -18.5 -100 q-18.5 -68 -46.5 -142 q-38 -100 -77 -162 q-39 -62 -72 -62 Z" /><glyph glyph-name="w" unicode="w" d="M241 3 q-57 0 -112 166 q-25 75 -41 163.5 q-16 88.5 -16 152.5 q0 14 6 22 q6 8 21 8 q12 0 18.5 -4.5 q6.5 -4.5 7.5 -18.5 q5 -86 13.5 -142.5 q8.5 -56.5 34.5 -145.5 q41 -143 71 -143 q10 0 31 51 q21 51 43 128.5 q22 77.5 36 150.5 q7 30 29 30 q14 0 21 -7.5 q7 -7.5 11 -22.5 q34 -125 72.5 -225 q38.5 -100 60.5 -100 q14 0 29 38.5 q15 38.5 32 106.5 q23 92 30.5 145.5 q7.5 53.5 10.5 131.5 q0 12 5.5 19 q5.5 7 20.5 7 q16 0 21.5 -8 q5.5 -8 5.5 -26 q0 -57 -13.5 -144.5 q-13.5 -87.5 -33.5 -158.5 q-23 -82 -48 -128 q-25 -46 -55 -46 q-28 0 -60 46 q-32 46 -61 122.5 q-29 76.5 -46 163.5 q-13 -88 -36 -164 q-23 -76 -51.5 -122 q-28.5 -46 -57.5 -46 Z" /><glyph glyph-name="x" unicode="x" d="M461 43 q6 -7 6 -13 q0 -11 -9 -19 q-9 -8 -20 -8 q-11 0 -18 10 l-169 216 q-83 -117 -108 -153 l-48 -67 q-6 -9 -18 -9 q-11 0 -19.5 8 q-8.5 8 -8.5 18 q0 4 4 12 q22 30 150 210 l16 22 q-104 132 -155 201 q-3 3 -3 10 q0 8 9.5 16.5 q9.5 8.5 19.5 8.5 q9 0 14 -6 l145 -186 q94 134 128 185 q6 9 15 9 q11 0 21 -9 q10 -9 10 -19 q0 -5 -3 -10 l-138 -198 l179 -229 Z" /><glyph glyph-name="y" unicode="y" d="M205 -257 q-13 0 -21.5 7 q-8.5 7 -8.5 18 q0 6 3 12 q57 131 99 255 q-62 41 -127 166.5 q-65 125.5 -109 273.5 q-2 7 -1 11 q1 9 8.5 15 q7.5 6 20.5 6 q10 0 14.5 -4.5 q4.5 -4.5 7.5 -16.5 q51 -158 107 -263 q56 -105 99 -134 q33 105 54.5 184.5 q21.5 79.5 54.5 215.5 q3 12 8.5 16.5 q5.5 4.5 16.5 4.5 q27 0 32 -22 q1 -3 0 -5.5 q-1 -2.5 -1 -4.5 q-37 -152 -57 -225.5 q-20 -73.5 -54 -168.5 q-21 -61 -56.5 -155.5 q-35.5 -94.5 -63.5 -163.5 q-5 -12 -10.5 -17 q-5.5 -5 -15.5 -5 Z" /><glyph glyph-name="z" unicode="z" d="M456 -1 q-72 9 -155 9 q-61 0 -143 -4 l-68 -2 q-22 0 -33 4.5 q-11 4.5 -11 17.5 q0 18 15 30 q163 171 270 284 l109 115 q-20 0 -66 -4 q-70 -5 -109 -5 q-107 0 -165 14 q-21 5 -19 25 q0 10 6 16.5 q6 6.5 18 5.5 q93 -14 173 -14 q43 0 118 7 q50 4 67 4 q29 0 38.5 -5.5 q9.5 -5.5 9.5 -17.5 q2 -18 -13 -34 q19 20 -154 -160 q-124 -127 -225 -236 l50 2 q93 5 131 5 q65 0 160 -10 q10 -1 14.5 -7.5 q4.5 -6.5 4.5 -15.5 q0 -11 -6.5 -18 q-6.5 -7 -16.5 -6 Z" /><glyph glyph-name="zero" unicode="0" d="M314 13 q-88 0 -148.5 44 q-60.5 44 -90 113.5 q-29.5 69.5 -29.5 145.5 q0 79 28 158.5 q28 79.5 89 133 q61 53.5 154 53.5 q93 0 154.5 -52 q61.5 -52 90 -131 q28.5 -79 28.5 -162 q0 -79 -32 -148.5 q-32 -69.5 -94 -112 q-62 -42.5 -150 -42.5 ZM312 60 q71 0 121.5 34.5 q50.5 34.5 76.5 92.5 q26 58 26 129 q0 76 -25.5 144.5 q-25.5 68.5 -74.5 110.5 q-49 42 -117 42 q-69 0 -119 -43 q-50 -43 -75 -111 q-25 -68 -25 -143 q0 -69 25 -127.5 q25 -58.5 72.5 -93.5 q47.5 -35 114.5 -35 Z" /><glyph glyph-name="one" unicode="1" d="M301 27 q0 -25 -28 -25 q-13 0 -19 6 q-6 6 -6 19 l0 574 q-36 -46 -114 -141 q-5 -5 -16 -5 q-12 0 -18.5 6 q-6.5 6 -6.5 16 q0 10 12 24 q62 75 123 155 q12 18 34 18 q16 0 27 -9 q11 -9 11 -26 l1 -612 Z" /><glyph glyph-name="two" unicode="2" d="M460 54 q12 0 19 -7 q7 -7 7 -17 q0 -12 -7.5 -18.5 q-7.5 -6.5 -18.5 -6.5 q-13 0 -57 2 q-105 3 -135 3 q-111 0 -190 -4 q-10 0 -15 5 q-5 5 -4 14 q12 76 69.5 143 q57.5 67 161.5 139 q132 92 132 202 q0 64 -44 106.5 q-44 42.5 -113 42.5 q-45 0 -78 -21.5 q-33 -21.5 -50 -56 q-17 -34.5 -17 -73.5 q0 -11 -6 -16 q-6 -5 -20 -5 q-15 0 -21 7.5 q-6 7.5 -6 23.5 q0 48 25.5 91.5 q25.5 43.5 72.5 70 q47 26.5 109 26.5 q61 0 107 -26 q46 -26 71 -71 q25 -45 25 -100 q0 -133 -156 -242 q-70 -47 -127 -103.5 q-57 -56.5 -72 -107.5 q76 2 146 2 q81 0 192 -3 Z" /><glyph glyph-name="three" unicode="3" d="M434 359 q54 -18 83.5 -67 q29.5 -49 29.5 -108 q0 -41 -24 -83.5 q-24 -42.5 -73.5 -71 q-49.5 -28.5 -122.5 -28.5 q-129 0 -203 56.5 q-74 56.5 -74 189.5 q0 35 27 35 q27 0 27 -27 q0 -111 56 -158.5 q56 -47.5 158 -47.5 q60 0 99.5 19.5 q39.5 19.5 58.5 50 q19 30.5 19 61.5 q0 78 -42 115.5 q-42 37.5 -134 37.5 q-22 0 -22 22 q0 27 21 27 q83 0 122 34 q39 34 39 93 q0 31 -17 61 q-17 30 -49.5 49 q-32.5 19 -75.5 19 q-41 0 -76.5 -17.5 q-35.5 -17.5 -57 -49 q-21.5 -31.5 -21.5 -70.5 q0 -8 5 -36 q3 -11 -3.5 -18.5 q-6.5 -7.5 -20.5 -7.5 q-10 0 -16.5 3.5 q-6.5 3.5 -10.5 12.5 q-8 25 -8 52 q0 50 28 91 q28 41 75.5 64 q47.5 23 103.5 23 q52 0 97.5 -22.5 q45.5 -22.5 73.5 -63 q28 -40.5 28 -90.5 q0 -53 -27 -93 q-27 -40 -73 -57 Z" /><glyph glyph-name="four" unicode="4" d="M562 272 q10 2 18 -4.5 q8 -6.5 8 -19.5 q0 -22 -22 -25 q-79 -8 -117 -10 l-8 -191 q0 -12 -7 -19 q-7 -7 -20 -7 q-14 0 -20.5 8 q-6.5 8 -5.5 21 l8 186 q-92 -2 -152 -2 q-117 0 -185 18 q-19 4 -19 24 q0 10 6 22 q65 130 128 227 q63 97 150 184 q7 7 18 7 q11 0 18 -7.5 q7 -7.5 7 -16.5 q0 -10 -16 -28 q-84 -86 -147 -177.5 q-63 -91.5 -100 -182.5 q-1 -2 -1 -6 q0 -7 11 -8 q50 -9 148 -9 q71 0 136 3 l10 240 q0 26 25 26 q29 0 27 -31 l-9 -232 q33 2 111 10 Z" /><glyph glyph-name="five" unicode="5" d="M273 0 q-112 0 -164.5 59.5 q-52.5 59.5 -52.5 162.5 q0 29 27 29 q29 0 29 -27 q0 -82 35.5 -128 q35.5 -46 123.5 -46 q92 0 145 43.5 q53 43.5 53 130.5 q0 90 -47 141.5 q-47 51.5 -138 51.5 q-26 0 -47 -4 q-21 -4 -69 -15 l-23 -6 q-8 -2 -12 -2 q-13 0 -22 8 q-9 8 -8 20 q12 176 14 274 q79 -4 191 -4 q40 0 96 2 q44 2 63 2 q23 0 23 -23 q0 -12 -7 -19 q-7 -7 -18 -7 q-40 0 -62 -1 l-95 -1 q-60 0 -140 5 q-3 -57 -5.5 -95.5 q-2.5 -38.5 -4.5 -64.5 l-2 -33 l0 -3 q0 -9 7 -9 q1 0 11 2 q78 22 119 22 q114 0 172.5 -67 q58.5 -67 58.5 -176 q0 -107 -68.5 -164.5 q-68.5 -57.5 -182.5 -57.5 Z" /><glyph glyph-name="six" unicode="6" d="M312 402 q77 0 128.5 -31 q51.5 -31 76.5 -79.5 q25 -48.5 25 -102.5 q0 -86 -63 -137 q-63 -51 -170 -51 q-128 0 -193 76 q-65 76 -65 228 q0 111 33.5 196 q33.5 85 96.5 132 q63 47 149 47 q75 0 121.5 -36.5 q46.5 -36.5 79.5 -101.5 q6 -12 6 -19 q0 -11 -8.5 -17.5 q-8.5 -6.5 -18.5 -6.5 q-8 0 -13.5 5 q-5.5 5 -12.5 16 q-18 34 -35.5 57.5 q-17.5 23.5 -48 39.5 q-30.5 16 -75.5 16 q-110 0 -167 -91 q-57 -91 -57 -252 q25 52 84.5 82 q59.5 30 126.5 30 ZM313 48 q89 0 132 41 q43 41 43 100 q0 39 -17.5 77 q-17.5 38 -56.5 63.5 q-39 25.5 -99 25.5 q-45 0 -87.5 -15 q-42.5 -15 -71 -49 q-28.5 -34 -28.5 -87 q0 -70 47.5 -113 q47.5 -43 137.5 -43 Z" /><glyph glyph-name="seven" unicode="7" d="M484 365 q29 0 29 -25 q0 -11 -6.5 -18 q-6.5 -7 -18.5 -7 q-57 0 -87 -1 q-42 -132 -109 -298 q-3 -8 -11.5 -12 q-8.5 -4 -16.5 -4 q-12 0 -19.5 6.5 q-7.5 6.5 -7.5 15.5 q0 4 2 10 q51 115 105 281 q-29 -1 -89 -1 q-28 0 -28 24 q0 12 8 18.5 q8 6.5 20 6.5 l105 1 q37 122 37 182 q0 52 -30 79.5 q-30 27.5 -110 27.5 q-49 0 -92 -7.5 q-43 -7.5 -99 -20.5 q-12 -3 -20.5 3 q-8.5 6 -8.5 19 q0 17 21 24 q33 11 85.5 20 q52.5 9 112.5 9 q94 0 145 -34.5 q51 -34.5 51 -112.5 q0 -64 -36 -188 q50 2 68 2 Z" /><glyph glyph-name="eight" unicode="8" d="M402 424 q80 -24 127 -78.5 q47 -54.5 47 -130.5 q0 -68 -34 -116 q-34 -48 -93 -73 q-59 -25 -133 -25 q-76 0 -137.5 26.5 q-61.5 26.5 -97 77 q-35.5 50.5 -35.5 119.5 q0 47 27 89 q27 42 69.5 70.5 q42.5 28.5 88.5 39.5 q-33 16 -54.5 46 q-21.5 30 -21.5 72 q0 46 23 80 q23 34 60 51.5 q37 17.5 78 17.5 q68 0 111 -39 q43 -39 43 -104 q0 -40 -18.5 -71.5 q-18.5 -31.5 -49.5 -51.5 ZM319 644 q-48 0 -79.5 -27.5 q-31.5 -27.5 -31.5 -76.5 q0 -47 32 -75 q32 -28 79 -28 q44 0 72 31 q28 31 28 77 q0 46 -27.5 72.5 q-27.5 26.5 -72.5 26.5 ZM316 48 q68 0 115 24 q47 24 70 61.5 q23 37.5 23 79.5 q0 49 -26.5 89.5 q-26.5 40.5 -74 64 q-47.5 23.5 -106.5 23.5 q-60 0 -110 -23.5 q-50 -23.5 -79 -61.5 q-29 -38 -29 -79 q0 -51 25 -91 q25 -40 74 -63.5 q49 -23.5 118 -23.5 Z" /><glyph glyph-name="nine" unicode="9" d="M299 691 q83 0 142 -38 q59 -38 90 -107 q31 -69 31 -160 q0 -113 -29.5 -199.5 q-29.5 -86.5 -88.5 -135.5 q-59 -49 -145 -49 q-77 0 -133.5 27.5 q-56.5 27.5 -86 74 q-29.5 46.5 -29.5 101.5 q0 12 6.5 20.5 q6.5 8.5 18.5 8.5 q12 0 19.5 -7.5 q7.5 -7.5 7.5 -20.5 q0 -43 22.5 -78.5 q22.5 -35.5 66.5 -56.5 q44 -21 105 -21 q110 0 163 93.5 q53 93.5 55 252.5 q-24 -70 -83.5 -101.5 q-59.5 -31.5 -128.5 -31.5 q-110 0 -171 56 q-61 56 -61 164 q0 59 29 106.5 q29 47.5 81 74.5 q52 27 119 27 ZM302 308 q47 0 89.5 20 q42.5 20 69.5 58 q27 38 27 90 q0 48 -25 86.5 q-25 38.5 -68.5 60 q-43.5 21.5 -95.5 21.5 q-58 0 -97.5 -24 q-39.5 -24 -59 -61.5 q-19.5 -37.5 -19.5 -76.5 q0 -174 179 -174 Z" /><glyph glyph-name="period" unicode="." d="M144 5 q-22 0 -36 14.5 q-14 14.5 -14 36.5 q0 24 16 39.5 q16 15.5 37 15.5 q20 0 35.5 -16.5 q15.5 -16.5 15.5 -38.5 q0 -20 -16 -35.5 q-16 -15.5 -38 -15.5 Z" /><glyph glyph-name="comma" unicode="," d="M139 139 q41 0 63 -34 q22 -34 22 -87 q0 -38 -19 -72.5 q-19 -34.5 -49.5 -55.5 q-30.5 -21 -63.5 -21 q-10 0 -16 5 q-6 5 -6 13 q0 8 4 13.5 q4 5.5 10 5.5 q43 0 73.5 34 q30.5 34 30.5 78 q0 7 -1 10 q-16 -26 -53 -26 q-30 0 -48.5 19.5 q-18.5 19.5 -18.5 48.5 q0 28 20.5 48.5 q20.5 20.5 51.5 20.5 ZM135 32 q19 0 29.5 12 q10.5 12 10.5 29 q0 15 -11 24.5 q-11 9.5 -29 9.5 q-15 0 -25 -11.5 q-10 -11.5 -10 -25.5 q0 -16 9.5 -27 q9.5 -11 25.5 -11 Z" /><glyph glyph-name="colon" unicode=":" d="M152 304 q-31 0 -51 20.5 q-20 20.5 -20 51.5 q0 29 20 49 q20 20 51 20 q33 0 53 -20 q20 -20 20 -49 q0 -32 -19.5 -52 q-19.5 -20 -53.5 -20 ZM153 336 q19 0 28.5 11 q9.5 11 9.5 30 q0 14 -12 25 q-12 11 -28 11 q-13 0 -24 -11 q-11 -11 -11 -25 q0 -18 10.5 -29.5 q10.5 -11.5 26.5 -11.5 ZM155 20 q-32 0 -51.5 20.5 q-19.5 20.5 -19.5 51.5 q0 30 19 50 q19 20 52 20 q32 0 52 -20.5 q20 -20.5 20 -49.5 q0 -32 -19 -52 q-19 -20 -53 -20 ZM153 53 q41 0 41 39 q0 16 -11.5 25.5 q-11.5 9.5 -29.5 9.5 q-15 0 -25 -11 q-10 -11 -10 -24 q0 -16 10.5 -27.5 q10.5 -11.5 24.5 -11.5 Z" /><glyph glyph-name="semicolon" unicode=";" d="M158 304 q-32 0 -51.5 20.5 q-19.5 20.5 -19.5 51.5 q0 29 20 49 q20 20 51 20 q32 0 52.5 -20 q20.5 -20 20.5 -49 q0 -32 -19.5 -52 q-19.5 -20 -53.5 -20 ZM156 413 q-13 0 -24 -11.5 q-11 -11.5 -11 -24.5 q0 -19 10.5 -30 q10.5 -11 27.5 -11 q19 0 28.5 11 q9.5 11 9.5 30 q0 14 -12 25 q-12 11 -29 11 ZM152 139 q41 0 63 -34 q22 -34 22 -87 q0 -38 -18.5 -72.5 q-18.5 -34.5 -49.5 -55.5 q-31 -21 -64 -21 q-10 0 -16 5 q-6 5 -6 13 q0 8 4.5 13.5 q4.5 5.5 9.5 5.5 q28 0 52.5 15.5 q24.5 15.5 38.5 41 q14 25.5 14 53.5 q0 9 -1 12 q-7 -12 -21 -19 q-14 -7 -33 -7 q-30 0 -48.5 19.5 q-18.5 19.5 -18.5 48.5 q0 28 20.5 48.5 q20.5 20.5 51.5 20.5 ZM149 32 q18 0 29 12 q11 12 11 29 q0 15 -11 24.5 q-11 9.5 -29 9.5 q-15 0 -25.5 -11.5 q-10.5 -11.5 -10.5 -25.5 q0 -16 9.5 -27 q9.5 -11 26.5 -11 Z" /><glyph glyph-name="question" unicode="?" d="M262 181 q-21 0 -21 28 q0 53 23.5 91 q23.5 38 70.5 87 q40 42 60 73 q20 31 20 70 q0 69 -41.5 111.5 q-41.5 42.5 -109.5 42.5 q-159 0 -159 -135 q0 -33 21 -59 q21 -26 55 -26 q14 0 20 -6 q6 -6 6 -19 q0 -10 -7.5 -15 q-7.5 -5 -19.5 -5 q-32 0 -60 18 q-28 18 -44 48 q-16 30 -16 64 q0 83 53.5 131.5 q53.5 48.5 148.5 48.5 q63 0 107.5 -28.5 q44.5 -28.5 67.5 -74 q23 -45.5 23 -96.5 q0 -50 -22.5 -86 q-22.5 -36 -68.5 -85 q-42 -44 -62.5 -76 q-20.5 -32 -20.5 -74 q0 -28 -24 -28 ZM264 14 q-20 0 -34.5 14 q-14.5 14 -14.5 34 q0 19 14.5 32.5 q14.5 13.5 34.5 13.5 q18 0 32 -13.5 q14 -13.5 14 -32.5 q0 -20 -13.5 -34 q-13.5 -14 -32.5 -14 Z" /><glyph glyph-name="asterisk" unicode="*" d="M413 427 q10 -5 10 -18 q0 -9 -6 -16 q-6 -7 -14 -7 q-8 0 -15 4 l-115 67 l1 -122 q0 -9 -7 -14.5 q-7 -5.5 -16 -5.5 q-21 0 -21 20 l-1 121 l-106 -60 q-6 -3 -13 -3 q-8 0 -14 6.5 q-6 6.5 -6 16.5 q0 10 9 16 l112 64 l-129 71 q-12 8 -12 18 q0 8 6.5 15 q6.5 7 14.5 7 q6 0 14 -5 l123 -68 l-2 131 q0 24 23 24 q12 0 17 -5.5 q5 -5.5 5 -18.5 l1 -132 l111 64 q14 6 21 6 q9 0 14.5 -7.5 q5.5 -7.5 5.5 -14.5 q0 -12 -16 -19 l-122 -66 l127 -69 Z" /><glyph glyph-name="slash" unicode="/" d="M117 -17 q-22 0 -26 17 l0 4 q0 9 3 19 l272 829 q4 10 9 13.5 q5 3.5 14 3.5 q23 0 26 -20 q1 -2 1 -6 q0 -5 -4 -15 l-272 -824 q-7 -21 -23 -21 Z" /><glyph glyph-name="parenleft" unicode="(" d="M249 -129 q-6 0 -10.5 1 q-4.5 1 -9.5 5 q-84 78 -131.5 190 q-47.5 112 -47.5 237 q0 87 21.5 174 q21.5 87 63 157 q41.5 70 100.5 107 q9 6 18 6 q10 0 17.5 -6.5 q7.5 -6.5 7.5 -17.5 q0 -8 -4.5 -14 q-4.5 -6 -13 -12 q-8.5 -6 -14.5 -11 q-73 -58 -108.5 -159 q-35.5 -101 -35.5 -214 q0 -142 45 -233 q45 -91 108 -156 q18 -18 18 -30 q0 -9 -8 -16.5 q-8 -7.5 -16 -7.5 Z" /><glyph glyph-name="parenright" unicode=")" d="M75 -129 q-10 0 -17.5 6.5 q-7.5 6.5 -7.5 17.5 q0 9 4.5 14.5 q4.5 5.5 13 11.5 q8.5 6 14.5 11 q74 60 109 163.5 q35 103.5 35 219.5 q0 101 -24 175.5 q-24 74.5 -56 120 q-32 45.5 -73 86.5 q-9 9 -13.5 15.5 q-4.5 6.5 -4.5 12.5 q0 10 7.5 17 q7.5 7 16.5 7 q7 0 10.5 -1 q3.5 -1 8.5 -6 q86 -73 133 -185.5 q47 -112.5 47 -241.5 q0 -86 -21.5 -172 q-21.5 -86 -63.5 -156.5 q-42 -70.5 -100 -109.5 q-8 -6 -18 -6 Z" /><glyph glyph-name="hyphen" unicode="-" d="M60 344 q-9 0 -14.5 8 q-5.5 8 -5.5 20 q0 12 5.5 18.5 q5.5 6.5 15.5 6.5 q47 -2 125 -2 q95 0 167 5 q17 1 23 -6 q6 -7 6 -21 q0 -11 -8 -18.5 q-8 -7.5 -22 -8.5 q-77 -2 -292 -2 Z" /><glyph glyph-name="emdash" unicode="&#x2014;" d="M382 351 q-247 0 -317 7 q-25 4 -25 27 q0 11 8.5 18.5 q8.5 7.5 20.5 6.5 q72 -6 320 -6 q90 0 185.5 0.5 q95.5 0.5 193.5 1.5 q100 1 197 1.5 q97 0.5 190 0.5 q100 0 226 -4 q86 -2 108 -2 q8 0 13 -7.5 q5 -7.5 5 -18.5 q0 -11 -5 -18 q-5 -7 -13 -7 q-15 0 -87 2 q-162 3 -197 3 q-96 0 -199 -0.5 q-103 -0.5 -210 -1.5 q-216 -3 -414 -3 Z" /><glyph glyph-name="quoteright" unicode="&#x2019;" d="M131 721 q36 0 56.5 -21.5 q20.5 -21.5 20.5 -59.5 q0 -41 -21 -78.5 q-21 -37.5 -50 -65.5 q-8 -8 -17 -8 q-6 0 -11.5 4.5 q-5.5 4.5 -5.5 10.5 q0 7 6 14 q2 3 23 28 q21 25 34 52 q-16 -10 -36 -10 q-28 0 -49 17 q-21 17 -21 49 q0 30 20.5 49 q20.5 19 50.5 19 ZM132 617 q17 0 29 10 q12 10 12 27 q0 15 -10 26.5 q-10 11.5 -31 11.5 q-15 0 -27.5 -11 q-12.5 -11 -12.5 -28 q0 -16 11 -26 q11 -10 29 -10 Z" /><glyph glyph-name="guillemotleft" unicode="«" d="M279 198 q-5 0 -8 1 q-56 16 -104.5 46.5 q-48.5 30.5 -77.5 64 q-29 33.5 -29 57.5 q0 24 29.5 58 q29.5 34 80 65.5 q50.5 31.5 108.5 47.5 q6 2 16 2 q20 0 20 -20 q0 -19 -28 -27 q-43 -10 -85 -35.5 q-42 -25.5 -69.5 -52.5 q-27.5 -27 -27.5 -37 q0 -11 26.5 -37 q26.5 -26 66 -51 q39.5 -25 76.5 -35 q13 -4 20 -11.5 q7 -7.5 7 -16.5 q0 -8 -6 -13.5 q-6 -5.5 -15 -5.5 ZM463 192 q-4 0 -7 1 q-57 18 -105.5 48.5 q-48.5 30.5 -77.5 63.5 q-29 33 -29 57 q0 24 30.5 57.5 q30.5 33.5 81 65 q50.5 31.5 107.5 48.5 q6 2 9 2 q10 0 16 -7 q6 -7 6 -17 q0 -10 -5 -15 q-5 -5 -17 -9 q-46 -13 -87.5 -37.5 q-41.5 -24.5 -67 -49.5 q-25.5 -25 -25.5 -39 q0 -11 24.5 -35.5 q24.5 -24.5 63 -48.5 q38.5 -24 79.5 -37 q26 -9 26 -27 q0 -8 -6.5 -14 q-6.5 -6 -15.5 -7 Z" /><glyph glyph-name="quotedbl" unicode="&quot;" d="M102 480 q-22 0 -22 20 q0 58 1 88 l1 111 q0 7 6.5 11 q6.5 4 16.5 4 q10 0 16 -4 q6 -4 6 -11 l-1 -201 q0 -18 -24 -18 ZM229 480 q-22 0 -22 20 q0 55 2 199 q0 7 6 11 q6 4 15 4 q11 0 17.5 -4 q6.5 -4 6.5 -11 q0 -33 -1 -49 l-1 -152 q0 -18 -23 -18 Z" /><glyph glyph-name="quotesingle" unicode="&#39;" d="M102 480 q-10 0 -16 5 q-6 5 -6 14 q0 59 1 90 l1 108 q0 8 6 12.5 q6 4.5 16 4.5 q11 0 17 -4.5 q6 -4.5 6 -12.5 l-1 -104 q-1 -31 -1 -95 q0 -18 -23 -18 Z" /><glyph glyph-name="plus" unicode="+" d="M456 334 q17 0 22.5 -5.5 q5.5 -5.5 5.5 -17.5 q0 -22 -28 -22 l-168 2 l0 -165 q0 -13 -4.5 -20 q-4.5 -7 -17.5 -7 q-13 0 -18 7 q-5 7 -5 22 l0 163 q-54 1 -173 1 q-23 0 -23 23 q0 22 24 22 l171 -1 l0 161 q0 22 24 22 q13 0 17.5 -5.5 q4.5 -5.5 4.5 -16.5 l0 -162 l168 -1 Z" /><glyph glyph-name="plusminus" unicode="±" d="M437 382 q20 0 27 -5.5 q7 -5.5 7 -17.5 q0 -23 -33 -23 l-146 1 l0 -123 q0 -12 -6.5 -19.5 q-6.5 -7.5 -18.5 -7.5 q-13 0 -17.5 7 q-4.5 7 -4.5 21 l-1 123 l-157 1 q-26 0 -26 24 q0 22 28 22 l155 -1 l0 125 q0 22 24 22 q14 0 19 -5.5 q5 -5.5 5 -16.5 l0 -126 l145 -1 ZM418 107 q33 0 33 -25 q0 -11 -8.5 -16 q-8.5 -5 -27.5 -5 l-302 -3 q-15 0 -22 5 q-7 5 -7 17 q0 13 7 18.5 q7 5.5 25 5.5 l302 3 Z" /><glyph glyph-name="copyright" unicode="©" d="M457 708 q110 0 187.5 -53 q77.5 -53 116 -135.5 q38.5 -82.5 38.5 -167.5 q0 -92 -40 -172.5 q-40 -80.5 -117.5 -130 q-77.5 -49.5 -184.5 -49.5 q-111 0 -194.5 51 q-83.5 51 -128 133 q-44.5 82 -44.5 173 q0 91 43.5 171.5 q43.5 80.5 127 130 q83.5 49.5 196.5 49.5 ZM457 43 q87 0 155 40 q68 40 105.5 110 q37.5 70 37.5 156 q-1 78 -33 150.5 q-32 72.5 -99 119.5 q-67 47 -166 47 q-95 0 -168.5 -42.5 q-73.5 -42.5 -113.5 -113 q-40 -70.5 -40 -149.5 q0 -85 41.5 -158 q41.5 -73 115 -116.5 q73.5 -43.5 165.5 -43.5 ZM605 301 q9 0 15 -4.5 q6 -4.5 6 -11.5 q-1 -62 -45.5 -103 q-44.5 -41 -123.5 -41 q-52 0 -97.5 20.5 q-45.5 20.5 -73.5 64.5 q-28 44 -28 110 q0 68 27.5 119.5 q27.5 51.5 72.5 80 q45 28.5 96 28.5 q37 0 62.5 -13 q25.5 -13 53.5 -42 q1 13 1 38 q0 14 16 14 q9 0 15 -3 q6 -3 6 -9 q0 -50 -4 -72 q-4 -22 -20 -22 q-13 0 -18 6 q-32 35 -53 49 q-21 14 -54 14 q-38 0 -74 -22.5 q-36 -22.5 -58.5 -65.5 q-22.5 -43 -22.5 -99 q0 -84 43 -121 q43 -37 114 -37 q64 0 93 32.5 q29 32.5 29 73.5 q0 7 6 11.5 q6 4.5 16 4.5 Z" /><glyph glyph-name="registered" unicode="®" d="M452 710 q114 0 192.5 -54 q78.5 -54 116.5 -137 q38 -83 38 -171 q0 -90 -40 -169.5 q-40 -79.5 -118 -129 q-78 -49.5 -186 -49.5 q-110 0 -193 51 q-83 51 -127.5 133.5 q-44.5 82.5 -44.5 173.5 q0 90 44 171 q44 81 126.5 131 q82.5 50 191.5 50 ZM456 42 q87 0 155.5 40.5 q68.5 40.5 107 110.5 q38.5 70 38.5 154 q0 78 -33.5 152 q-33.5 74 -102 122 q-68.5 48 -168.5 48 q-94 0 -166.5 -43.5 q-72.5 -43.5 -112 -114.5 q-39.5 -71 -39.5 -152 q0 -83 41.5 -156 q41.5 -73 115 -117 q73.5 -44 164.5 -44 ZM605 429 q0 -59 -45.5 -88.5 q-45.5 -29.5 -122.5 -29.5 q-21 0 -44 6 l195 -139 q8 -4 8 -12 q0 -8 -6.5 -15.5 q-6.5 -7.5 -14.5 -7.5 q-7 0 -13 4 l-196 146 l-1 -133 q0 -9 -5 -14.5 q-5 -5.5 -15 -5.5 q-20 0 -20 20 l1 84 l0 106 q0 35 -4 127 l-6 -1 q-8 0 -12.5 7.5 q-4.5 7.5 -4.5 15.5 q0 9 15 15 l7 3 l-1 20 q0 9 6 13 q6 4 15 4 q9 0 13.5 -4 q4.5 -4 4.5 -10 l0 -7 q56 20 102 20 q60 0 102 -32.5 q42 -32.5 42 -91.5 ZM454 516 q-25 0 -46.5 -5.5 q-21.5 -5.5 -47.5 -16.5 l4 -130 q30 -15 78 -15 q53 0 88 19.5 q35 19.5 35 63.5 q0 39 -30 61.5 q-30 22.5 -81 22.5 Z" /><glyph glyph-name="degree" unicode="°" d="M187 563 q-66 0 -106.5 39.5 q-40.5 39.5 -40.5 98.5 q0 43 20.5 77.5 q20.5 34.5 55 54 q34.5 19.5 75.5 19.5 q44 0 77.5 -20.5 q33.5 -20.5 51.5 -53 q18 -32.5 18 -67.5 q0 -44 -22 -78 q-22 -34 -56.5 -52 q-34.5 -18 -72.5 -18 ZM187 604 q47 0 77.5 29 q30.5 29 30.5 76 q0 38 -26.5 69.5 q-26.5 31.5 -81.5 31.5 q-49 0 -76.5 -33.5 q-27.5 -33.5 -27.5 -75.5 q0 -44 31 -70.5 q31 -26.5 73 -26.5 Z" /><glyph glyph-name="brokenbar" unicode="¦" d="M132 437 q-11 0 -17 6 q-6 6 -6 16 l-8 396 q0 10 6.5 16 q6.5 6 17.5 6 q22 0 22 -22 l8 -396 q0 -22 -23 -22 ZM124 -92 q-24 0 -24 23 l7 397 q0 25 23 25 q13 0 18 -6 q5 -6 5 -19 l-6 -397 q0 -23 -23 -23 Z" /><glyph glyph-name="acute" unicode="´" d="M139 562 q-7 0 -12.5 4.5 q-5.5 4.5 -7.5 10.5 l0 4 q0 10 9 20 l86 106 q10 12 16.5 16 q6.5 4 15.5 4 q10 0 17 -7 q7 -7 7 -17 q0 -13 -18 -33 l-87 -93 q-9 -9 -14 -12 q-5 -3 -12 -3 Z" /><glyph glyph-name="dieresis" unicode="¨" d="M75 582 q-22 0 -36 14.5 q-14 14.5 -14 36.5 q0 21 14 34.5 q14 13.5 36 13.5 q22 0 36.5 -13.5 q14.5 -13.5 14.5 -34.5 q0 -22 -14.5 -36.5 q-14.5 -14.5 -36.5 -14.5 ZM303 582 q-22 0 -36 14.5 q-14 14.5 -14 36.5 q0 21 14 34.5 q14 13.5 36 13.5 q22 0 36 -13.5 q14 -13.5 14 -34.5 q0 -22 -14 -36.5 q-14 -14.5 -36 -14.5 Z" /><glyph glyph-name="grave" unicode="`" d="M247 490 q-10 0 -19 8 l-174 173 q-7 6 -9 10 q-2 4 -2 9 q0 8 8 16 q8 8 16 8 q8 0 21 -11 q110 -110 176 -174 q7 -7 7 -18 q0 -8 -7.5 -14.5 q-7.5 -6.5 -16.5 -6.5 Z" /></font>
</defs>
</svg>
