<svg xmlns="http://www.w3.org/2000/svg" viewBox="0 0 217.33 152.67"><defs><style>.cls-1{fill:#313539;stroke:#e6e6e6;stroke-miterlimit:10;stroke-width:4px;}.cls-2{fill:#d2d2d2;}.cls-3,.cls-4{fill:#e6e6e6;}.cls-4{fill-rule:evenodd;}.cls-5{fill:#fff;}</style></defs><title>all</title><g id="Layer_2" data-name="Layer 2"><g id="Layer_1-2" data-name="Layer 1"><g id="all"><rect id="bg" class="cls-1" x="2" y="2" width="213.33" height="148.67"/><g id="inner"><path class="cls-2" d="M194.6,104.7c-.06-.08-.24-.15-.26,0l.26.23Z"/><path class="cls-2" d="M193.71,105.06a.85.85,0,0,0,.57.52c-.22-.26-.09-.22-.36-.52,0-.12.19-.12.28,0s.15-.12,0-.27c-.29,0-.38.17-.29.43C193.82,105.17,193.76,105.1,193.71,105.06Z"/><path class="cls-2" d="M187.36,113.53h.07A.08.08,0,0,0,187.36,113.53Z"/><path class="cls-2" d="M181.88,116.51a.07.07,0,0,0,.05-.09S181.86,116.48,181.88,116.51Z"/><path class="cls-2" d="M180.8,116.32h.06S180.81,116.29,180.8,116.32Z"/><path class="cls-2" d="M187.36,113.53l-.2,0C187.23,113.67,187.28,113.58,187.36,113.53Z"/><path class="cls-2" d="M193.71,106.75a.16.16,0,0,0,0-.13.38.38,0,0,1,0,.1Z"/><path class="cls-2" d="M189,111.22l0,0-.08-.11Z"/><path class="cls-2" d="M190.24,109.4s.19.21.28.29a.3.3,0,0,1-.1-.2A.74.74,0,0,0,190.24,109.4Z"/><path class="cls-2" d="M192.47,106.64v0Z"/><path class="cls-2" d="M188,112.38l-.09,0Z"/><path class="cls-2" d="M173.23,112.35l0,0S173.2,112.35,173.23,112.35Z"/><polygon class="cls-2" points="170.33 110.9 170.37 110.89 170.44 110.75 170.33 110.9"/><path class="cls-2" d="M179,116h0C179,115.93,179,115.93,179,116Z"/><path class="cls-2" d="M169.19,104.18c-.27.17-.29-.36-.6-.09C168.71,104.08,169,104.41,169.19,104.18Z"/><path class="cls-2" d="M193.65,106.78a.2.2,0,0,1,0,.08A.12.12,0,0,0,193.65,106.78Z"/><path class="cls-2" d="M168.59,104.09h0l0,0Z"/><path class="cls-2" d="M174.87,114.89a.3.3,0,0,0,0,.13A.39.39,0,0,0,174.87,114.89Z"/><path class="cls-2" d="M177.79,116.36l-.07-.06A.19.19,0,0,0,177.79,116.36Z"/><path class="cls-2" d="M173.24,114.3s0-.08-.09-.09v0S173.22,114.24,173.24,114.3Z"/><polygon class="cls-2" points="171.9 113.11 171.88 113.17 171.93 113.2 171.9 113.11"/><path class="cls-2" d="M178.19,108a.77.77,0,0,1-.26-.07C178.11,108.05,178,108.34,178.19,108Z"/><path class="cls-2" d="M193.58,106.67s.08.08.07.11l0-.06A.16.16,0,0,0,193.58,106.67Z"/><path class="cls-2" d="M171.82,116l-.24-.23A1.06,1.06,0,0,0,171.82,116Z"/><path class="cls-2" d="M176.62,94.67l.09,0A.08.08,0,0,0,176.62,94.67Z"/><path class="cls-2" d="M170.8,115.13a.54.54,0,0,0,0-.26.12.12,0,0,0-.08,0Z"/><path class="cls-2" d="M177.92,108h0Z"/><path class="cls-2" d="M177.06,110.09c.24-.23-.16-.36-.27-.55.19-.34.33,0,.56.08.08-.25-.07-.61.05-.73,0,0,.09,0,.13.09-.07-.37.45-.59.3-1l.09,0a2.22,2.22,0,0,1-.44-.25c.07-.12,0-.34.18-.24,0,.06,0,.12.06.19v-.17c.36.09,0,.23.2.37.06-.3,0-.71.2-.84.31.14-.17.48.24.4l-.3.21c.59.08-.15.15.47.27.34-.32.12-.52.44-.85-.12-.18-.26-.11-.37-.29,0-.7,1,0,.81-.64-.15-.21-.51-.44-.16-.63l.29.27c.23-.37-.38-.45,0-.75.11.13,0,.36.05.32.4-.14-.11-.28,0-.48l.33.09c.14-.44.09-1,.19-1.5.08.06.16.18.29.1a6.48,6.48,0,0,1,.73-2l-.25-.29c0-.06.14-.1.2,0,.12-.27-.19,0-.3-.17a.15.15,0,0,1,.27-.09c-.21-.55-.54-1.27-.31-1.78l.1.08c.05-.4-.64-.3-.46-.69l.06.06c0-.84-.64-1.56-.74-2.36-.38.16-.52-.83-1-.4-.11-.28-.14-.41-.2-.55a1.38,1.38,0,0,0-.5-.54c-.19-.1-.42.23-.66.24l.07-.3a2.55,2.55,0,0,0-.39.24L177,94.6l-.24.05a.23.23,0,0,1,.15.25.9.9,0,0,1-.84-.42,5.94,5.94,0,0,0-.77.33c0-.12.12-.19.22-.28-.38.37-.13-.31-.47,0,.06.06,0,.19,0,.25a1,1,0,0,0-.93.12v-.22a7.23,7.23,0,0,0-1.63.8c.25,0,.36.34.23.45l-.22-.25c0,.23.22,0,.14.34-.21.08-.31-.24-.25-.4l-.19.23c-.06-.07,0-.15-.07-.27,0,.23-.59,0-.55.37l-.06-.08a7.61,7.61,0,0,0-1,.93c.17.22,0,.3,0,.57a2.78,2.78,0,0,0-1.05.62c-.1.32.12.22.15.44-.2-.16-.47.18-.46-.11a3.16,3.16,0,0,0-.59,1.22c.12,0,.21,0,.26,0a.23.23,0,0,1-.33.08v0c0,.41-.4.68-.73,1s-.61.7-.44,1.07l0,0,.14.65c-.11.26-.15-.2-.35,0a1.13,1.13,0,0,1,0,.84,1.09,1.09,0,0,0,0,.74.78.78,0,0,0-.39.93,1.42,1.42,0,0,1-.11,1.1l.18,0c.17.14-.1.18-.13.29.13,0,.14-.17.25-.08.31,1.19.06,2.55.37,3.84.11.48.94-.07.78.61l-.37,0c.72.7.83,1.75,1.64,2.32-.09,0-.18.05-.23,0-.08.29.42.59.57.47.07.13-.12.13-.15.26s.54.2.43.42c0,0-.1,0-.14,0,.18,0,.38.46.5.18.14.34.52.41.61.71.34-.11.33.5.67.21-.32.32.2.69.51.63-.14.07.07.23-.12.33.21.14.45.21.54,0,.06.73,1,.15.84.86.76.18,1.44.29,2.07.44-.19.41-.67-.24-.84.2.66.09,1.11-.13,1.66.14.13.1-.15.16-.22.21a3.14,3.14,0,0,1,.88.2,2.21,2.21,0,0,0,.85,0s-.07.07-.13.09c.11,0,.23.12.26-.09l-.12,0c-.1-.33.52-.53.56-.69-.27.57.49.22.12.92a.29.29,0,0,0,.17-.26c.1.05.13.13,0,.28.41-.09.29-.31.63-.28,0,.09-.08.13-.12.24.19-.18.37-.36.66-.26,0,.06,0,.14-.08.14.52,0,.84-.55,1.39-.39-.11.44.2.13.28.5a1.56,1.56,0,0,0,.28-.16l-.14-.15c.26,0,.43-.36.67-.29l-.16.19.47-.16-.3-.09c.21-.24-.13-.45.22-.42-.06,0,.24,0,.43.13h0c.08-.16.16-.32.36-.29s.1.4.15.47c0-.34.55-.29.57-.65a.51.51,0,0,0,.08.3V117c.15,0,.17.05.22.2.34-.11-.29-.38.17-.38,0,0,0,.06,0,.13.42-.1.66-.5,1.05-.59.29.27-.25.26,0,.46.46-.36.76-1,1.23-1.25l-.1,0c-.27-.46.46,0,.52-.41,0,.08.12.29.1.23.35-.16.51-.58.78-1.09l0,.15c.24-.06.46-.35.67-.47,0-.14.05-.23-.14-.3,1,0,.59-1.27,1.46-1.36-.05.06,0,.22,0,.17l.23-.5c-.21-.11-.15,0-.36-.05a.42.42,0,0,1,0-.42c0,.28.3.22.46.22-.06,0-.11-.11-.17-.14.49,0-.35-.32.1-.46l.08.09c0-.15,0-.35.09-.46.26.11,0,.2.19.33.12-.18-.17-.63.16-.64,0,.12-.06.23-.06.34.38,0,.33-.06.47-.16h0l.32-.23-.12,0c-.44-.61.19-.53,0-1.07.18.52.18.18.42.36.12,0,.28-.1.33,0-.11-.27.32-.14.14-.54.09,0,.1-.15.29,0,.05-.23-.17,0-.27-.12-.11-.47.78-.49.62-1.15,0-.46-.2-.69-.15-1.11.2,0,.25.27.25.27a.47.47,0,0,0,.29-.5c.05.08.13.07.26.07.05-.15-.26-.26,0-.38a1.23,1.23,0,0,1,.26.33c0-.21-.05-.46,0-.68.18,0,.17.23.24.34,0-.23.13-.57-.07-.76l-.15.08c0-.08.22.07.24.15.09.26-.22.19-.31.16v-.16c-.57-.14-.18.54-.35.77l-.31-.3.17.42c-.12,0-.35-.08-.34-.23-.27.08,0,.23-.24.27a.06.06,0,0,1-.06,0l0,.23c-.06-.08-.28-.11-.16-.19-.39.19,0,.65-.35.61v0c-.12.49.24.19.37.69l-.77-.17.24.2s-.11.11-.21,0c.09.27.14,0,.25.23-.36.07-.23.65-.68.44.16.19.27-.11.28.2-.48-.21-.08.3-.4.36-.2-.2,0-.3-.29-.24.32.35-.31.3-.34.5.3.21-.09.43-.16.75-.09-.08-.51.36-.78.52l0,0c.26.25,0,.46,0,.68a.47.47,0,0,1-.22-.38l-.12.16a.35.35,0,0,1,0,.33l-.18-.21c-.15.21-.08.62-.44.78.18.18.73.23.62.63-.11-.07-.3-.22-.28-.33,0,0,0,.16-.08.17l-.08-.26c-.18,0,.1.19,0,.27-.14-.13-.17,0-.27-.14s.13,0,.11-.11a.58.58,0,0,1-.48.07c.1.07.2.18.15.27s-.24-.09-.41,0c.06.14-.16.17.05.37-.05.06-.16,0-.24-.06,0,.2-.43.47-.09.59h0v0h0c-.13.52-.78.55-1.06.9l-.06-.07c-.14.25-.42.42-.44.71-.07.06-.26,0-.3-.15-.13.17-.09.28-.42.3.07-.25-.14-.09.1-.22-.27.07-.39,0-.49.35-.05-.27-.31-.16-.39,0l.25.06a.63.63,0,0,1-.34.18l-.1-.33c-.62-.15-.53,1.08-1.18.56,0,.26.33.06.31.35-.25,0-.64-.33-.7-.31-.35-.08-.13.59-.51.54.07.1.2.4,0,.56s-.4-.42-.27-.55a.06.06,0,0,1,.09,0c.07,0,.15-.12,0-.23v.12c-.14-.09-.45,0-.42-.22-.14.14,0,.2.11.24-.33-.12-.46.12-.79,0,.06.07.12.2.07.2-.47-.11-.18.24-.5.31-.19-.17,0-.43-.26-.26-.2-.11,0-.31,0-.41-.27.26-.52-.14-.67-.2l.15-.08a.4.4,0,0,1-.23,0l.08.24c-.09,0-.16-.06-.15-.15-.1.14,0,.4-.15.59-.11-.12-.37.11-.38-.21.35.13,0-.32.3-.35a.2.2,0,0,1-.22,0s0-.06,0-.08c-.3-.31-.19.36-.55.3.07-.16,0-.35-.09-.32.14,0,0,.31-.14.41-.21-.18-.27.06-.39,0l.13.09c-.08.16-.2.12-.38.14,0-.14.17-.07.13-.14-.26.26-.35-.37-.64-.26-.08-.15.08-.32,0-.43-.33.13-.21-.33-.55-.23,0,.25,0,.2-.24.36l.53,0-.41.24c.14,0,.35,0,.42,0-.2.14-.17.08-.16.3-.09-.41-.47.07-.62-.23l.21-.56c-.23-.37-.69,0-1.06-.28l.1.15c-.16.18-.29-.07-.46-.08a.61.61,0,0,0,.06-.41c-.06.13-.28-.18-.51.14l-.05-.33c-.27-.26-.67.25-.94,0,.22-.11.16-.32.44-.31-.09-.07-.16-.16-.24,0,0-.14-.43,0-.4-.2-.1,0-.24.19-.34.1a.19.19,0,0,1,.06-.08c-.07.08-.25,0-.3.21.13-.73-.85-.67-.69-1.31a5.05,5.05,0,0,1-.66-.52c.05,0,.07-.06.09,0-.08-.36-.57.19-.65-.25.14-.35.26.06.28-.11.49-.43-.34-.32-.18-.74l.07,0c.06-.27-.46-.26-.58-.56a.28.28,0,0,0,.08-.05,1.34,1.34,0,0,1-.91-.59c.27,0,.18.07.39-.09-.09-.11-.36.22-.54,0,.08-.15.11-.38.36-.51l.12.23c.27-.27-.15-.3-.15-.45l.15,0c-.2-.34-.55-.22-.67-.63L169,109c-.45-.11.14-.26-.21-.4l.36-.18a2.68,2.68,0,0,1-.63-.69,2.69,2.69,0,0,1,.74.52c0-.14-.13-.48-.34-.52.05,0,.16.1.12.18a.83.83,0,0,1-.61-.64c.76-.07.1-.83.67-1.1-.32-.51.08-1,.08-1.62-.62.17,0-.18-.61-.19,0-.15,0-.21,0-.22l.41-.39c.19-.07.12.15.26.16.08-.3.27-.09.45-.26-.23,0-.29-.15-.17-.3l-.33.18c-.22-.48.59-.26.37-.74l.15.18a4.86,4.86,0,0,1,0-.52.65.65,0,0,0-.21-.56c.08,0,.25,0,.26.11.21-.39,0-1.23.5-1.41l.1.12c0-.1-.13-.3.06-.31s.1.12.13.09-.05-.36.1-.41l.06.19c.45-.26.19-.86.44-1.25a.76.76,0,0,0,.88.07l0,0c.47-.32.54-.9.93-1.35.54.23,1.12-.39,1.7-.29-.1,0-.1-.33,0-.4s.25-.4.34,0h0c.19.36.38.19.56.18l-.06-.52a.72.72,0,0,0,.86.17c.27-.07.54-.1.55.27.13-.11.22-.05.37-.14l-.12.25a2,2,0,0,0,.49.4l-.18.1c.07.12.75-.41.89-.22l-.31.29c.21.29,0,.74.46,1-.06,0-.18,0-.21,0,0,.18-.12.74.43.59-.37.07,0,.43.21.67l-.28,0c.36.17.48.18.58.46,0,.07-.23.06-.15,0-.16.21.25.17.09.43l-.17-.1c0,.21.08.19.26.35s-.15.43-.4.42c.14,0,.33.22.23.35a.23.23,0,0,1-.17-.1c-.28.33.16.66-.17.85a.27.27,0,0,0-.18,0,1.88,1.88,0,0,1,.19-.52c-.25-.06-.36.16-.65-.11.14.23.46.68.25.88h-.1l0,0s0,.1,0,.16a.44.44,0,0,0-.14.17c-.21,0-.2.23-.26.34.26.09.15.23.43.17,0,0,0,0,0-.12s0,0,0-.06l0,0,.08-.31c.1.15.18.29,0,.37.14.13.28.26.35.34-.44,0-.77.24-1,.19,0,.42-.31.86.05,1.34,0,.13-.19,0-.29,0s0-.15,0-.22c0,.27-.29.6,0,.84-.28.16-.2-.31-.35.06l-.07-.11c-.44.18-.42.55-.43.94s-.06.79-.63.88a.2.2,0,0,1,.17,0,4.36,4.36,0,0,0-1,1.08,1.75,1.75,0,0,1-1.23.74c-.27,0-.17.26-.22.51l-.19-.23a3,3,0,0,1-.09.41c-.12.2-.36.1-.57,0s-.39-.21-.57.08l.1.19a1.41,1.41,0,0,0-.32.09c-.11,0-.2,0-.19-.14,0,0-.05.21-.12.1v-.16a3.5,3.5,0,0,1-.43.26c-.29-.18.13-.6-.24-.74-.14,0-.58.32-.57.43a.23.23,0,0,1,.1.29l-.2,0c-.2.42-.6.79-.15,1.27.16,0,.32-.1.46-.16l.08.25-.34-.08c.14.26.31.12.46,0a.38.38,0,0,0,.13.29c.16-.14.3-.28.44-.42,0,.18-.21.35.06.46.19-.2-.15-.41.15-.54.17.22.13.39.35.21a.2.2,0,0,1-.1.25c.21-.12.53-.11.59-.38.24.22.61-.2.71.23,0-.1.21-.44.36-.52-.1.61.59-.22.76.31,0-.5.62-.61.81-1,0,0,0,.13,0,.13.22-.09.35,0,.51,0-.22-.33,0-.61,0-.91.44.12.18.45.47.68-.21-.24.15-.54-.1-.68.32,0,.2,0,.5.13-.31-.37.07-.19,0-.52.37,0,.39.27.5-.07C177.13,109.77,177.06,110.09,177.06,110.09Zm3-6.68h0l0,.15Zm.17-.58c0,.07,0,.16-.08.25s-.19-.06-.16-.11S180.1,102.9,180.2,102.83Zm-2.22.52c0-.09.05-.1.11-.09s0,.08,0,.15l0,0Z"/><path class="cls-2" d="M178.27,103.62s0,0,0,0l.08,0-.07-.06Z"/><path class="cls-2" d="M187.45,113.51h0Z"/><polygon class="cls-2" points="177.48 94.68 177.46 94.75 177.54 94.7 177.48 94.68"/><path class="cls-2" d="M190.23,111.76h.09A.14.14,0,0,0,190.23,111.76Z"/><path class="cls-2" d="M191.09,110.66l.19-.11A.73.73,0,0,0,191.09,110.66Z"/><path class="cls-2" d="M191.78,109.85a.38.38,0,0,0-.09-.09h0Z"/><path class="cls-2" d="M177.5,118.21h-.05C177.34,118.25,177.41,118.24,177.5,118.21Z"/><path class="cls-2" d="M182.72,117.42a1.09,1.09,0,0,1-.13.17C182.69,117.59,182.76,117.57,182.72,117.42Z"/><polygon class="cls-2" points="171.85 116.04 171.85 116.04 171.82 116.01 171.85 116.04"/><path class="cls-2" d="M182.35,117.63a.22.22,0,0,0,.24,0A.29.29,0,0,0,182.35,117.63Z"/><path class="cls-2" d="M194.19,105.93l0,0,0,0Z"/><path class="cls-2" d="M194.18,105.87v-.07A.06.06,0,0,0,194.18,105.87Z"/><path class="cls-2" d="M194.17,105.66v.14S194.23,105.72,194.17,105.66Z"/><path class="cls-2" d="M193.41,107.1l.08.06Z"/><path class="cls-2" d="M193.22,107.48c.07-.08.32-.11.33-.27l-.06,0C193.59,107.29,193.12,107.31,193.22,107.48Z"/><path class="cls-2" d="M191.25,108.37l.25-.26c-.13,0-.29,0-.23-.16C190.76,108.16,191.52,108,191.25,108.37Z"/><path class="cls-2" d="M190.55,109.2c0-.18-.14-.08-.19-.13C190.38,109.23,190.39,109.26,190.55,109.2Z"/><path class="cls-2" d="M185.5,114.88l-.14-.22C185.27,114.77,185.42,114.74,185.5,114.88Z"/><polygon class="cls-2" points="184.9 116.79 185.11 116.86 185.06 116.63 184.9 116.79"/><path class="cls-2" d="M183.33,115.54l0-.06c-.05.07-.11.11-.16.17Z"/><path class="cls-2" d="M172.29,113.17l-.19.25C172.21,113.44,172.47,113.2,172.29,113.17Z"/><path class="cls-2" d="M169.27,108.86c.13-.11.18-.28,0-.32C169.29,108.66,169.21,108.81,169.27,108.86Z"/><polygon class="cls-2" points="175.79 97.07 175.71 97.18 175.86 97.08 175.79 97.07"/><path class="cls-2" d="M161.94,116.73c.06-.08.08-.27,0-.26l-.16.3Z"/><path class="cls-2" d="M161.4,115.92a1,1,0,0,0-.49.6c.27-.23.25-.09.52-.39.11,0,.14.16.09.27.06-.07.15.12.26-.06-.07-.29-.22-.33-.47-.22C161.3,116,161.37,116,161.4,115.92Z"/><path class="cls-2" d="M159.4,106.83l0,.07A.16.16,0,0,0,159.4,106.83Z"/><path class="cls-2" d="M159.69,100.55a.08.08,0,0,0,.08.06S159.71,100.53,159.69,100.55Z"/><path class="cls-2" d="M159.75,99.28v.07S159.78,99.29,159.75,99.28Z"/><path class="cls-2" d="M159.4,106.83l.11-.16C159.41,106.66,159.43,106.75,159.4,106.83Z"/><path class="cls-2" d="M159.68,115.68a.32.32,0,0,0,.14,0l-.1,0Z"/><path class="cls-2" d="M159.59,109.53v0l.14,0Z"/><path class="cls-2" d="M159.76,111.52s-.28,0-.4,0c.12,0,.17,0,.2.08A1.15,1.15,0,0,0,159.76,111.52Z"/><path class="cls-2" d="M160.24,114.57l.06,0Z"/><path class="cls-2" d="M159.68,108.06h0Z"/><path class="cls-2" d="M139.07,98.29h.05S139.07,98.28,139.07,98.29Z"/><polygon class="cls-2" points="140.09 95.74 140.11 95.77 140.27 95.75 140.09 95.74"/><path class="cls-2" d="M158.86,97h0C158.93,97.06,158.9,97,158.86,97Z"/><path class="cls-2" d="M145.92,107.71c.3-.09.18.42.55.25C146.35,107.94,146.16,107.54,145.92,107.71Z"/><path class="cls-2" d="M159.66,115.6l-.07-.07A.22.22,0,0,0,159.66,115.6Z"/><path class="cls-2" d="M146.47,108h0l0,0Z"/><path class="cls-2" d="M153.35,96.09l.09.1A.19.19,0,0,0,153.35,96.09Z"/><path class="cls-2" d="M157.32,96.55l-.08-.09A.24.24,0,0,0,157.32,96.55Z"/><path class="cls-2" d="M151.73,97.32c-.06,0-.09,0-.13.06l0,0C151.64,97.35,151.65,97.31,151.73,97.32Z"/><path class="cls-2" d="M150.27,98.73h.06l0-.06Z"/><path class="cls-2" d="M139.38,103.55l.25-.07C139.43,103.5,139.37,103.24,139.38,103.55Z"/><path class="cls-2" d="M159.8,115.57c-.06,0-.1.05-.14,0l.06.05S159.79,115.6,159.8,115.57Z"/><path class="cls-2" d="M153,99.17l-.19.1A.58.58,0,0,0,153,99.17Z"/><path class="cls-2" d="M139.36,117.05l-.1-.06A.15.15,0,0,0,139.36,117.05Z"/><path class="cls-2" d="M152.32,99.73a.43.43,0,0,0-.23,0l0,.07Z"/><path class="cls-2" d="M139.64,103.48h0Z"/><path class="cls-2" d="M139,101.65c0,.26.36.12.57.17.11.32-.27.15-.46.26.1.19.44.35.42.49s-.08,0-.16,0c.29.21,0,.62.37.87l-.09,0a1.74,1.74,0,0,1,.5,0c0,.12.23.23,0,.27,0-.08-.09-.09-.16-.12l.1.12c-.35.11-.12-.17-.38-.18.11.25.39.55.28.73-.34,0-.1-.44-.41-.2l.14-.29c-.54.2.05-.17-.53,0-.12.38.16.43,0,.81.18.09.28,0,.46.08.32.56-.87.38-.44.8.22.11.65.18.4.45l-.38-.12c-.06.37.54.25.26.62-.15-.08-.11-.3-.16-.25-.32.23.21.19.19.39h-.34a3,3,0,0,0,.13.63,2.13,2.13,0,0,1,.12.62c-.1,0-.2-.12-.31,0a2.74,2.74,0,0,1-.51,1.64l.26.26a.15.15,0,0,1-.2,0c-.14.2.18,0,.28.16s-.19.14-.26,0c.18.41.37,1.13,0,1.5l-.08-.09c-.15.3.56.42.26.68l-.05-.07c-.2.68,0,1.45-.4,2,.42.09-.15.76.45.75-.21.47-.39.33-.41,1.06,0,.2.4.15.58.37l-.27.12a3.36,3.36,0,0,0,.44.2,2.82,2.82,0,0,0-.21.38l.23.18c0-.11,0-.28.05-.31a1.15,1.15,0,0,1,.37.55.88.88,0,0,1,.12.47,1.8,1.8,0,0,0,.5.15,1.75,1.75,0,0,0,.51,0c0,.11-.23.14-.38.15.61-.15,0,.36.6.18-.06-.08.06-.17.08-.24a.83.83,0,0,0,.54.13,1.5,1.5,0,0,0,.66-.24v.24a3.34,3.34,0,0,0,.57-.28,4.63,4.63,0,0,0,.48-.4c.25-.25.44-.49.64-.72-.22.1-.46-.2-.37-.34l.29.16c-.08-.21-.21,0-.25-.28.16-.13.38.13.37.3a1.52,1.52,0,0,0,.09-.28c.08,0,.08.13.17.22-.1-.21.54-.16.35-.5l.09,0a8.73,8.73,0,0,0,.58-1.13c-.23-.15-.09-.26-.22-.49a3,3,0,0,0,.76-.78c0-.3-.18-.18-.27-.36.23.1.38-.24.46,0a3.08,3.08,0,0,0,.27-1.14c-.12,0-.19.06-.25,0s.19-.17.3-.1v0c-.08-.73,1.29-1,1-1.7v0l0-.59c.13-.2.12.21.33.11-.18-.68.4-.8.3-1.33.84-.06.42-1.2,1-1.48l-.18,0c-.12-.18.15-.11.22-.18-.13,0-.2.07-.26,0A9.08,9.08,0,0,1,150.3,104c.18-.33-.79-.51-.2-.81l.24.27c0-.9.64-1.47.66-2.25,0,.08.13.12.1.18.28,0,.26-.47.09-.57.08-.08.17.07.29.06s-.08-.47.16-.4c0,0,.05.07.05.1-.05-.14.25-.33,0-.41.25-.13.19-.45.43-.49-.14-.3.37-.18.1-.52.3.33.53,0,.53-.24.05.14.18,0,.25.22a.27.27,0,0,0,.06-.42c.26.15.34,0,.42-.15s.18-.25.39,0a3.12,3.12,0,0,1,1.28-.85c0,.44-.5.12-.39.58.35-.26.58-.66,1-.53.09.08-.07.19-.11.26.41-.15.64.15,1,.09a.21.21,0,0,1-.11.07c.06,0,.08.12.18,0l-.08,0c0-.33.57-.38.69-.48-.45.38.21.37-.43.8a.36.36,0,0,0,.24-.14c0,.07,0,.14-.17.21.23.08.34-.11.49.06-.08.06-.14,0-.24.11.22,0,.45,0,.5.18-.06,0-.12.08-.14,0,.19.28.77.33.74.82-.45,0-.09.19-.43.32l.15.16.16-.12c0,.17.34.3.25.49l-.18-.12c0,.12.09.24.13.36l.11-.23c.22.18.46-.1.4.21,0-.06,0,.22-.19.35h0c.13.1.26.2.18.37s-.41,0-.49,0c.31.09.1.5.43.63a.7.7,0,0,0-.31,0l.25.09c-.08.1-.12.12-.28.1,0,.31.48-.09.27.27,0,0-.06,0-.09-.08-.12.37.14.72,0,1.06-.38.08-.08-.3-.4-.2,0,.49.4,1,.29,1.51l0-.09c.53.1-.28.35,0,.6,0-.06-.28-.09-.23-.07-.1.32.09.68.23,1.19l-.13-.07c-.13.19-.1.51-.17.72.13.07.1.18.3.12-.8.62.37,1.25-.28,1.82,0-.07-.12-.17-.12-.11l.13.5c.23,0,.14-.07.32-.17a.39.39,0,0,1,.24.32c-.15-.22-.37,0-.49.11a1.62,1.62,0,0,1,.22,0c-.41.27.46,0,.19.39h-.12c.07.13.24.24.21.38-.26.07-.13-.13-.35-.13,0,.2.52.36.27.56-.08-.08-.09-.2-.17-.28-.3.22-.21.24-.25.39h0l-.11.36.08-.1c.72.18.18.51.69.78-.48-.26-.26,0-.56,0-.07.11-.14.26-.23.24.28.12-.14.32.27.48-.1,0,0,.18-.22.2.13.2.15-.09.28-.1.39.23-.18.91.46,1.23.36.31.68.23,1,.43-.06.2-.36.12-.36.12a.45.45,0,0,0,.35.46c-.09,0-.12.1-.16.23.14.11.32-.16.39.09a1.29,1.29,0,0,1-.4.16,5.94,5.94,0,0,0,.71.14c-.06.17-.26.13-.39.16.24.12.64.24.81,0l-.07-.16c.07,0-.08.23-.16.23-.29.07-.2-.23-.15-.31l.16,0c.09-.27,0-.32-.19-.36s-.42,0-.5-.15l.38-.2-.44,0c0-.11.2-.28.33-.23,0-.26-.23,0-.13-.3t.06,0l-.2-.08c.09,0,.23-.18.24-.06,0-.36-.51-.28-.3-.52h0c-.3-.33-.29.1-.76-.08.21-.16.41-.32.63-.47l-.3.06a.12.12,0,0,1,.11-.16c-.25-.1-.12.07-.34,0,.19-.28-.28-.57.18-.72-.25,0-.13.24-.34,0,.49-.18-.14-.26.06-.5.27,0,.17.22.37,0-.48,0,0-.39-.07-.54-.36,0-.19-.35-.33-.62.11,0,.16-.55.28-.82h.06c-.36,0-.3-.31-.38-.51a.49.49,0,0,1,.41.14v-.18a.34.34,0,0,1-.22-.23l.27.05c0-.25-.32-.51-.13-.83-.25,0-.72.25-.88-.11.14,0,.38,0,.43.08s-.11-.11-.05-.17l.23.15c.1-.15-.19-.09-.17-.21.2,0,.14-.08.3-.06s-.08.1,0,.15a.54.54,0,0,1,.32-.34c-.12,0-.27,0-.29-.11,0-.25.24-.07.34-.22-.13-.06,0-.22-.28-.23,0-.08.15-.09.23-.11-.13-.14,0-.62-.33-.48l0,0v0h0c-.27-.45.22-.89.12-1.33h.09c-.09-.27,0-.58-.23-.77,0-.08.19-.17.31-.13-.07-.21-.18-.23,0-.51.16.21.16-.06.12.21.09-.25.26-.3,0-.59.25.1.33-.19.25-.31l-.18.17a.8.8,0,0,1,0-.38l.33.08c.42-.54-.67-1,0-1.4-.23-.14-.15.3-.43.18,0-.25.51-.53.51-.61.16-.38-.5-.3-.41-.68a.43.43,0,0,1-.57-.12c0-.24.44-.38.57-.23s0,.1,0,.1.11.18.23.06l-.12,0c.11-.14,0-.52.23-.46-.15-.19-.21,0-.24.11.11-.38-.11-.58-.12-1,0,.08-.15.17-.17.12,0-.54-.28-.14-.46-.44.08-.25.42-.11.14-.37,0-.26.26-.19.38-.14-.35-.21-.17-.66-.27-.88l.2.12a.75.75,0,0,1-.23-.24l-.13.23c0-.12-.09-.2,0-.26-.19,0-.27.3-.57.25,0-.19-.38-.24-.18-.49.24.42.2-.26.51,0a.42.42,0,0,1-.2-.23s.06,0,.1,0c-.15-.56-.42.08-.77-.24.16-.1.11-.34,0-.36.18.13-.1.29-.32.3-.18-.3-.34-.08-.46-.17l.12.14c-.14.13-.25,0-.45,0,0-.13.2,0,.16-.09-.31.2-.36-.51-.75-.37-.12-.16.06-.33-.07-.45-.4.19-.39-.31-.81-.12.11.24.12.18-.14.41a4.13,4.13,0,0,1,.63-.13,2.53,2.53,0,0,0-.42.31c.17,0,.39-.12.5-.07-.21.17-.18.12-.12.33-.21-.4-.47.17-.73-.07v-.59c-.48-.23-.74.37-1.27.35l.19.06c0,.25-.31.11-.44.25,0-.19-.16-.23-.27-.32.05.13-.38.11-.28.5l-.31-.15c-.46.07-.21.71-.57.83,0-.25-.24-.27-.07-.54-.13.06-.26.1-.19.22-.13-.06-.18.42-.38.35,0,.1.11.28,0,.36a.21.21,0,0,1-.06-.08c.05.08-.1.24.13.34-.72-.22-.76.78-1.37.72-.12.27-.26.59-.38.81,0,0-.08,0,0-.08-.35.2.37.47,0,.7-.37,0,0-.26-.21-.21-.6-.27-.15.46-.6.52v-.07c-.29.09,0,.55-.17.82a.14.14,0,0,0-.09,0,1.68,1.68,0,0,1,.12,1.07c-.2-.18-.07-.18-.33-.23,0,.14.39.13.35.41-.16,0-.35.16-.61.07l.09-.24c-.38,0-.12.3-.23.41l-.14-.08c-.12.42.25.56.07,1h.13c.28.35-.28.1-.09.42l-.39-.07a3.71,3.71,0,0,1,.14.91,2.29,2.29,0,0,1-.34-.84c-.06.14-.15.49,0,.63,0-.07-.08-.18,0-.21a.8.8,0,0,1,.18.84c-.7-.32-.46.67-1.09.66.08.59-.49.93-.67,1.52.64,0-.05.17.54.36,0,.14-.05.19-.09.19l-.5.27c-.21,0-.08-.18-.21-.22-.16.27-.29,0-.52.15.22,0,.25.22.11.35l.36-.12c.13.53-.62.15-.49.68l-.13-.21c0,.26-.32.76,0,1.16-.08,0-.25,0-.25-.12-.28.45,0,1.3-.47,1.54l-.11-.1c0,.11.17.28,0,.32s-.11-.1-.14-.06.12.35,0,.43l-.1-.18c-.4.37,0,.89-.11,1.32a.74.74,0,0,0-.86.19l-.05,0c-.34.46-.2,1-.38,1.54a1,1,0,0,0-.68.32,2.93,2.93,0,0,1-.27.21c-.06,0-.13,0-.18,0a.82.82,0,0,1,.13.38c-.06-.06-.09.37-.14,0h0c-.1-.4-.1-.28-.14-.3l-.11.56c0-.42-.08-.39-.23-.42s-.28-.15,0-.31c-.14,0-.17-.15-.33-.21L141,115a2.38,2.38,0,0,0-.06-.81l.2.07c0-.21-.83-.24-.85-.47l.43-.07c0-.42.38-.82,0-1.28.06,0,.18,0,.19.11,0-.2.36-.75-.22-.74.38,0,.09-.45,0-.71l.27.07c-.32-.25-.42-.27-.47-.57,0-.06.23,0,.14,0,.18-.2-.23-.21,0-.46l.16.13c.05-.23,0-.23-.23-.39s.14-.43.4-.42c-.15-.06-.33-.22-.24-.35a.24.24,0,0,1,.18.09c.25-.36-.23-.64.08-.87a.29.29,0,0,0,.18,0,2.4,2.4,0,0,1-.13.54c.25,0,.34-.2.65.06-.15-.24-.51-.66-.36-.9l.09,0,0,0a.17.17,0,0,0,0-.17.54.54,0,0,0,.1-.22c.22,0,.15-.33.16-.44-.28,0-.22-.17-.46,0,0,0,0,0,0,.11s0,0,0,0h0c0,.08,0,.21,0,.34-.13-.12-.23-.25-.07-.37l-.44-.21c.4-.15.64-.47.88-.5-.13-.4,0-.93-.55-1.2-.07-.12.15-.12.24-.16s0,.14.11.18c-.12-.23,0-.66-.39-.73.18-.27.34.17.29-.21l.12.05c.61-.74-.9-1.25-.14-2.08,0,.06-.06.09-.13.1.35-1-.32-2,.15-2.93.09-.28-.15-.3-.34-.45l.29-.08-.37-.25c-.28-.37.68-.76.14-1.22l-.2.09c0-.18-.19-.55,0-.55,0,0-.22,0-.13-.12l.16,0-.34-.4c.06-.36.63,0,.57-.56-.09-.18-.55-.44-.64-.35a.25.25,0,0,1-.21.24l-.12-.15c-.46.06-1,0-1.2.48l.33.23-.2.12-.06-.22c-.18.16,0,.21.16.28a.54.54,0,0,0-.23.16l.48.2c-.17.06-.37-.07-.44.13.22.09.38-.19.55,0-.19.16-.37.14-.17.27a.24.24,0,0,1-.25,0c.16.11.1.35.36.39-.24.17.12.46-.32.5.11,0,.37.21.4.33-.54-.18,0,.48-.56.47.49.13.26.6.54.89,0,0-.12,0-.09-.07,0,.18-.17.23-.26.35.4,0,.5.27.74.41-.37.22-.46-.12-.82,0,.32,0,.33.36.59.28-.23.17-.11.15-.43.24.49,0,.08.15.39.28-.24.24-.46.06-.31.32C139.16,101.88,139,101.65,139,101.65Zm.55,6.2h0v0Zm-.07.52a1.2,1.2,0,0,0,0-.23c.1,0,.2,0,.18.09S139.56,108.3,139.47,108.37Zm2.08-.91c0,.1,0,.13-.09.14a1.09,1.09,0,0,0,0-.17l0,0Z"/><path class="cls-2" d="M141.19,107.28s0,0,0,0l-.07.05.09,0Z"/><path class="cls-2" d="M159.35,106.91h0l0,0Z"/><polygon class="cls-2" points="138.73 116.26 138.8 116.23 138.71 116.19 138.73 116.26"/><path class="cls-2" d="M158.32,109.83a.08.08,0,0,0-.07,0Z"/><path class="cls-2" d="M158.32,111.13l-.09.2A1.43,1.43,0,0,0,158.32,111.13Z"/><path class="cls-2" d="M158.3,112.16a.24.24,0,0,0,.12,0h-.12Z"/><path class="cls-2" d="M156.51,98.24h0C156.4,98.27,156.45,98.27,156.51,98.24Z"/><path class="cls-2" d="M158.68,101.22l-.14-.13C158.53,101.17,158.52,101.23,158.68,101.22Z"/><polygon class="cls-2" points="152.97 99.16 152.97 99.15 152.95 99.17 152.97 99.16"/><path class="cls-2" d="M158.52,100.89a.18.18,0,0,0,0,.2A.24.24,0,0,0,158.52,100.89Z"/><path class="cls-2" d="M160.52,116.39l0,0,0,0Z"/><path class="cls-2" d="M160.59,116.4h.07S160.61,116.38,160.59,116.4Z"/><path class="cls-2" d="M160.81,116.41h-.15S160.75,116.47,160.81,116.41Z"/><path class="cls-2" d="M159.43,115.22l-.09,0Z"/><path class="cls-2" d="M159.15,114.84c0,.11,0,.36.12.46l.07,0C159.17,115.28,159.34,114.84,159.15,114.84Z"/><path class="cls-2" d="M159.69,112.81a1.71,1.71,0,0,0,0,.32c.09-.08.21-.19.27-.07C160.17,112.62,159.74,113.21,159.69,112.81Z"/><path class="cls-2" d="M159.65,111.84c.08.16.16,0,.22,0C159.76,111.73,159.73,111.7,159.65,111.84Z"/><path class="cls-2" d="M159.71,104.63l.25,0C159.93,104.52,159.86,104.65,159.71,104.63Z"/><polygon class="cls-2" points="158.45 103.17 158.29 103.29 158.52 103.36 158.45 103.17"/><polygon class="cls-2" points="160.29 102.36 160.32 102.42 160.23 102.18 160.29 102.36"/><path class="cls-2" d="M150.3,98.29l.27.17C150.6,98.35,150.34,98.09,150.3,98.29Z"/><path class="cls-2" d="M148,103.44c-.17,0-.32.11-.2.25C147.86,103.58,148,103.51,148,103.44Z"/><path class="cls-2" d="M141.26,115.52a.31.31,0,0,0,.05-.1l-.06.07Z"/><path class="cls-2" d="M130.36,117.23c.07-.06.16-.23.06-.26l-.24.24Z"/><path class="cls-2" d="M130.16,116.34a1,1,0,0,0-.6.48c.29-.17.23,0,.56-.28.1,0,.08.18,0,.27s.08.15.24,0-.08-.38-.34-.31C130,116.43,130.11,116.38,130.16,116.34Z"/><path class="cls-2" d="M127.47,108.14l0,0A.08.08,0,0,0,127.47,108.14Z"/><path class="cls-2" d="M125.85,109.18a.07.07,0,0,0,0-.09S125.83,109.17,125.85,109.18Z"/><path class="cls-2" d="M125.06,109.76l0,0S125.05,109.74,125.06,109.76Z"/><path class="cls-2" d="M127.47,108.14l.13-.12C127.5,108,127.51,108.07,127.47,108.14Z"/><path class="cls-2" d="M128.62,116a.28.28,0,0,0,.13,0l-.09,0Z"/><path class="cls-2" d="M127.7,110.49v0h.14Z"/><path class="cls-2" d="M128.17,112.2s-.28,0-.4.06a.36.36,0,0,1,.21,0A.87.87,0,0,0,128.17,112.2Z"/><path class="cls-2" d="M129.17,114.93l.06,0Z"/><path class="cls-2" d="M127.7,109.22h.1A.16.16,0,0,0,127.7,109.22Z"/><path class="cls-2" d="M126.75,96.17l0,0S126.76,96.18,126.75,96.17Z"/><polygon class="cls-2" points="128.21 98.14 128.17 98.15 128.15 98.31 128.21 98.14"/><path class="cls-2" d="M123.76,110.85h0C123.78,110.79,123.76,110.81,123.76,110.85Z"/><path class="cls-2" d="M112.29,113.1c-.17.25-.41-.12-.56.22C111.82,113.26,112.22,113.35,112.29,113.1Z"/><path class="cls-2" d="M128.61,116l-.06-.06A.17.17,0,0,0,128.61,116Z"/><path class="cls-2" d="M111.73,113.32h0l0,0Z"/><path class="cls-2" d="M121,113.51l.1.08S121.1,113.55,121,113.51Z"/><path class="cls-2" d="M123.51,112l-.08,0A.1.1,0,0,0,123.51,112Z"/><path class="cls-2" d="M120,114.64s-.07,0-.1,0l0,0S119.92,114.62,120,114.64Z"/><polygon class="cls-2" points="118.58 115.31 118.62 115.35 118.66 115.31 118.58 115.31"/><path class="cls-2" d="M121.32,94.55a.86.86,0,0,1,.11.24C121.39,94.6,121.66,94.51,121.32,94.55Z"/><path class="cls-2" d="M128.74,115.92c-.06,0-.1,0-.13,0l0,0A.19.19,0,0,0,128.74,115.92Z"/><path class="cls-2" d="M121,116.62l-.28.1A.79.79,0,0,0,121,116.62Z"/><path class="cls-2" d="M111.39,102.27v-.08A.08.08,0,0,0,111.39,102.27Z"/><path class="cls-2" d="M120,117.13a.52.52,0,0,0-.23-.11s0,0,0,.08Z"/><path class="cls-2" d="M121.43,94.8h0Z"/><path class="cls-2" d="M123.64,94.33c-.32-.09-.23.31-.35.5-.38,0-.11-.3-.2-.51-.27.06-.49.37-.65.34,0-.06,0-.08,0-.16-.27.28-.74,0-1,.39l0-.09a1.66,1.66,0,0,1,.08.5c-.12,0-.2.25-.27,0,.07,0,.07-.1.1-.18l-.12.12c-.15-.34.16-.14.14-.39-.25.13-.49.45-.69.39-.1-.33.43-.18.12-.44l.33.09c-.3-.51.19,0-.1-.53-.43,0-.44.23-.86.22-.06.2.08.26,0,.47-.46.46-.67-.72-1-.16,0,.25.06.67-.29.56l0-.4c-.39.1,0,.59-.48.51,0-.17.23-.24.16-.26-.36-.17-.09.27-.27.36l-.18-.3a10.76,10.76,0,0,0-1,.94c0-.1,0-.23-.17-.27a3.68,3.68,0,0,1-1.59.83l0,.36s-.16,0-.15-.12c-.24,0,.11.15.11.3s-.23,0-.23-.14c-.13.44-.42,1.1-.9,1.17v-.12c-.3.14.2.65-.18.68v-.08c-.53.41-.75,1.13-1.4,1.27.29.32-.52.42-.06.78-.45.14-.47,0-.92.35-.09.1.21.37.17.54l-.26-.15.16.36-.38-.07v.18a.27.27,0,0,1,.26,0c0,.29-.48.44-.62.37l0,.66c-.11-.07-.1-.18-.14-.28.14.42-.32-.09-.19.3.09,0,.16.1.22.13-.24,0-.38.36-.4.62l-.17-.13a8.19,8.19,0,0,0-.43,1.4c.16-.14.49,0,.48.17l-.33-.05c.16.15.16-.1.34.16-.1.16-.4,0-.46-.13l0,.25c-.1,0-.13-.08-.25-.13.17.14-.42.29-.12.52h-.1a7.69,7.69,0,0,0-.15,1.16c.28.07.18.21.38.37a2.7,2.7,0,0,0-.42,1c.12.28.23.1.39.23-.26,0-.26.37-.43.17a2.38,2.38,0,0,0,.24,1.14c.1-.07.15-.13.23-.1s-.1.23-.22.22l0,0c.39.57-.59,1.58.06,2l0,0c.14.15.25.3.39.44s-.23-.09-.33.13c.58.43.2.9.67,1.25-.27.32-.13.64.11.94a1.64,1.64,0,0,1,.5.94l.12-.14c.22,0,0,.2.06.31.1-.1,0-.22.16-.21.45.39.87.84,1.36,1.28a7.22,7.22,0,0,0,.79.62,5,5,0,0,0,.9.45c.47.13.42-.85.9-.35-.06.1-.12.21-.19.31.93-.29,1.85,0,2.61-.46,0,.08,0,.18-.1.19.23.21.63-.14.58-.33.13,0,.08.17.18.24s.32-.41.48-.21c0,0,0,.09,0,.11.07-.14.51-.14.31-.36.34,0,.48-.33.77-.26,0-.34.52-.07.38-.49.17.42.62.1.68-.18,0,.16.21.05.24.25.18-.11.3-.28.16-.46.62.28.42-.77,1-.3.38-.55.74-1,1.09-1.45.27.37-.44.42-.14.78.3-.49.3-1,.74-1.22.14,0,.08.2.09.29.27-.48.78-.66.93-1.16a.18.18,0,0,1,0,.15c0-.07.2-.1,0-.24l0,.1c-.31-.1-.2-.68-.31-.8.33.51.41-.23.8.44a.28.28,0,0,0-.13-.27c.09,0,.17,0,.23.17.13-.32-.1-.37.09-.6.07.07.06.14.13.24,0-.25-.11-.48.11-.62,0,0,.12.07.07.13.26-.35,0-.89.45-1.15.28.36.21,0,.53.13l0-.28h-.2c.12-.19,0-.49.2-.59l0,.22c.06-.13.1-.26.15-.4l-.24.14c-.06-.29-.42-.22-.19-.41,0,.06.11-.19.36-.18h0c-.05-.15-.12-.3,0-.41s.36.21.44.22c-.24-.23.14-.51-.11-.77a.49.49,0,0,0,.27.15l-.2-.18c.11-.06.15-.06.29,0,.16-.28-.47-.08-.16-.35,0,0,.05,0,.07.11.24-.31.07-.73.27-1,.4,0,0,.32.35.28a5,5,0,0,0-.12-1.15l-.23-4.8-.79,4.51a1,1,0,0,1-.15.39l.08-.06c.47.26-.39.22-.23.55,0-.07-.26-.17-.2-.14a1.87,1.87,0,0,0,0,1.21l-.12-.09c-.16.17-.17.49-.24.69.12.08.09.2.29.15-.42.27-.33.6-.21.9s.28.56,0,.87c0-.07-.13-.16-.12-.1a3.75,3.75,0,0,0,.17.47c.23-.07.13-.08.29-.2a.4.4,0,0,1,.29.27c-.18-.18-.36,0-.48.17.07,0,.15,0,.22,0-.36.31.47,0,.25.33h-.13c.09.11.28.18.27.32-.24.12-.15-.1-.36-.06.06.19.58.24.36.47-.09-.06-.12-.17-.21-.23-.26.26-.18.27-.19.42v0l0,.36,0-.1c.74,0,.27.43.83.55-.52-.12-.25,0-.54.14,0,.11-.08.27-.17.27.29,0-.08.33.35.38-.08.05.07.15-.16.23.16.15.12-.12.24-.16.43.11,0,.87.66,1,.36.22.69.06,1,.23-.05.19-.34.15-.34.15a.37.37,0,0,0,.33.39c-.08,0-.11.11-.15.22.12.09.32-.17.35.07a1.45,1.45,0,0,1-.38.16,6.38,6.38,0,0,0,.63.12c-.08.15-.26.12-.38.15.21.09.51.24.72.07l0-.15c.06,0-.12.2-.19.2-.28,0-.13-.23-.07-.31l.13,0c.28-.5-.42-.26-.58-.48l.37-.21-.42,0c0-.11.19-.29.32-.25,0-.26-.22,0-.14-.27,0,0,0,0,.06,0l-.2-.05c.09,0,.21-.2.23-.09,0-.37-.55-.17-.35-.45h0c-.34-.26-.27.15-.74.08.17-.2.34-.39.52-.58l-.28.13a.12.12,0,0,1,.07-.18c-.25,0-.1.09-.31.11.14-.31-.39-.45,0-.7-.24,0-.07.25-.32.13.45-.29-.18-.2,0-.48.27,0,.21.17.36-.1-.46.08-.06-.36-.18-.47-.34.12-.25-.26-.44-.48.12,0,.07-.52.15-.78h.06c-.36,0-.34-.24-.44-.41a.52.52,0,0,1,.42.08l0-.16a.29.29,0,0,1-.24-.17h.27c0-.21-.35-.42-.19-.71-.25,0-.7.27-.88-.06.14,0,.38,0,.43.05s-.11-.09,0-.15l.23.12c.1-.13-.19-.06-.17-.17.2,0,.14-.08.3-.06s-.09.09,0,.13a.49.49,0,0,1,.31-.3c-.11,0-.27,0-.29-.1s.23-.06.35-.18c-.14-.06,0-.19-.27-.22,0-.06.14-.06.22-.08-.12-.12,0-.52-.29-.44l0,0v0h0c-.22-.44.32-.74.32-1.13l.09,0c-.05-.26.12-.49,0-.72,0-.07.23-.08.32,0v-.1l-1-.27c0,.11.08.17-.08.34-.14-.19-.16,0-.1-.18-.12.2-.28.2,0,.49-.23-.13-.36.08-.31.2l.21-.1a.51.51,0,0,1-.09.3l-.3-.14c-.49.27.4,1-.36,1,.16.2.25-.15.46,0-.14.18-.66.17-.68.22-.28.17.32.45.06.66.12,0,.42.14.41.4s-.56,0-.58-.18a.05.05,0,0,1,.09,0c0-.08,0-.18-.16-.17l.09.08c-.15,0-.28.28-.41.12,0,.19.13.16.24.09-.29.14-.23.35-.47.52.08,0,.21,0,.19.08-.35.25.08.28,0,.54-.24,0-.32-.3-.36,0-.2.07-.27-.16-.31-.27,0,.34-.4.28-.52.36v-.16a.34.34,0,0,1-.09.19l.23.09c-.08,0-.12.08-.2,0,.07.16.35.2.41.46-.16,0-.11.34-.38.15.31-.17-.25-.18-.11-.42a.18.18,0,0,1-.14.15.1.1,0,0,1,0-.08c-.41,0,.18.34-.05.57-.1-.15-.3-.17-.3-.11.09-.09.26.16.27.34-.24.06-.08.24-.17.3l.13,0c.1.15,0,.21-.06.36-.11-.09,0-.16,0-.17.1.34-.49,0-.51.34-.16,0-.23-.24-.36-.24,0,.34-.36,0-.43.31.21.13.19.08.2.38l.21-.42,0,.45c.11-.08.11-.3.2-.32,0,.23,0,.18.18.29-.38-.15-.13.41-.46.35l-.38-.45c-.41,0-.23.59-.66.71h.17c.1.22-.19.17-.24.33-.1-.17-.21-.18-.33-.25.09.12-.25.16-.06.5l-.3-.11c-.33.08,0,.68-.33.79,0-.24-.22-.29-.12-.52-.09,0-.19.06-.12.18-.11-.08-.12.38-.3.26,0,.1.09.29,0,.33a.18.18,0,0,1,0-.08c0,.08-.11.2.08.34-.56-.39-.83.45-1.3.07a2.67,2.67,0,0,1-.62.37c0-.06,0-.09,0-.09-.32-.08,0,.61-.38.49-.25-.27.12-.21,0-.3-.21-.62-.36.19-.65-.14l0-.05c-.19-.2-.33.31-.61.29a.16.16,0,0,0,0-.09,1.08,1.08,0,0,1-.76.55c.09-.25.12-.13.08-.39-.12,0,0,.42-.22.48a.94.94,0,0,1-.22-.55h.21c-.08-.36-.27,0-.37-.09l0-.15c-.29,0-.39.41-.72.27v.12c-.3.31-.08-.26-.36,0l.09-.39a1.84,1.84,0,0,1-.79.11,4.54,4.54,0,0,1,.76-.3.47.47,0,0,0-.5,0c.06,0,.16-.07.17,0a.57.57,0,0,1-.74.07c.49-.56-.37-.58,0-1.11-.48-.12-.38-.7-.62-1.08-.46.42-.07-.13-.61.16-.09-.1-.1-.14-.06-.17l.19-.47c.13-.14.17.05.29,0,0-.24.21-.18.31-.39-.2.11-.32,0-.28-.14l-.21.28c-.42-.25.4-.44,0-.69l.22.06c-.16-.15-.13-.66-.66-.76.06,0,.22-.12.28,0,0-.43-.65-.93-.34-1.3l.15,0c0-.08-.28-.15-.13-.25s.15,0,.15,0-.26-.22-.16-.33l.16.1c.23-.42-.37-.71-.41-1.11a.74.74,0,0,0,.73-.43l.06,0c.15-.49-.18-.94-.2-1.47.54-.16.51-.94,1-1.29-.11,0-.32-.14-.32-.24s-.16-.42.2-.25l0,0c.39.08.4-.18.49-.34l-.47-.25c.89-.11.35-1.3,1.09-1.19-.05-.17,0-.3,0-.47l.23.16a2.12,2.12,0,0,0,.52-.72l.12.18c.15-.17-.51-.71-.39-.89l.38.2c.24-.33.76-.41.73-.94,0,0,.13.13.1.19.13-.14.68-.34.21-.68.28.25.31-.27.34-.54l.17.22c-.12-.38-.17-.45-.05-.7.07,0,.19.13.08.13.25,0-.06-.3.22-.36l0,.2c.17-.12.1-.18,0-.41s.36-.2.54,0c-.08-.14-.11-.37,0-.39a.23.23,0,0,1,.07.18c.39,0,.24-.56.59-.47.06.08.09.11.12.12a2.19,2.19,0,0,1-.41.23c.15.2.35.13.41.51,0-.25.05-.77.29-.78l.07.07v0c.05,0,.08,0,.09-.1a.39.39,0,0,0,.19,0c.12.17.26,0,.36,0-.14-.24,0-.27-.22-.41,0,0,0,0-.06.08a.08.08,0,0,0,0,0v0l-.23.15c0-.17,0-.32.21-.24,0-.19-.06-.38-.07-.48.32.28.66.36.79.57.23-.28.65-.37.7-.93.07-.1.14.11.2.18s-.1.08-.11.16c.14-.19.51-.19.48-.56.27.12-.06.36.25.24l0,.12c.35.23.54,0,.8-.27s.56-.43.86,0a.27.27,0,0,1-.07-.14,3.83,3.83,0,0,0,1.16.31,1.41,1.41,0,0,1,1,.71c.15.21.29,0,.52-.06l-.11.29.39-.17c.45,0,.19,1,.87.78l0-.21c.14.12.56.13.44.33,0,0,.13-.17.16,0l-.06.14.51-.1c.31.2-.24.59.29.75.24,0,.65-.36.58-.48a.26.26,0,0,1-.16-.28l.17-.06a1.76,1.76,0,0,0,0-1.28l-.26.24v-.24l.17,0c-.05-.23-.14-.07-.25,0a.42.42,0,0,0,0-.26,3.7,3.7,0,0,1-.33.36c0-.18.2-.31.11-.45-.16.16,0,.41-.26.48,0-.23.08-.38-.11-.27a.3.3,0,0,1,.15-.2c-.15.09-.28-.06-.45.13,0-.29-.4-.13-.17-.52-.09.08-.36.2-.47.15.45-.34-.37-.25,0-.71-.38.32-.63-.14-1-.07,0,0,.1-.07.12,0-.14-.13-.12-.28-.19-.41-.2.33-.5.28-.74.44-.06-.44.32-.37.41-.72-.12.29-.52.12-.54.4-.08-.29-.1-.17-.08-.51-.2.45-.2,0-.44.26-.19-.31.06-.47-.28-.4C123.32,94.43,123.64,94.33,123.64,94.33Zm-6.42,2.07h0l.1-.08Zm-.44.29.2-.12c.07.07.1.17.06.19S116.89,96.71,116.78,96.69Zm1.88,1.13c0,.07-.08,0-.12,0l.09-.09v0A.38.38,0,0,1,118.66,97.82Z"/><path class="cls-2" d="M118.6,97.44s0,0,0,0l-.07,0,0,.09Z"/><path class="cls-2" d="M127.42,108.2h0Z"/><polygon class="cls-2" points="111.55 101.68 111.62 101.72 111.59 101.65 111.55 101.68"/><path class="cls-2" d="M126.47,110.93l-.06,0S126.45,111,126.47,110.93Z"/><path class="cls-2" d="M126.68,112.16l0,.2A.63.63,0,0,0,126.68,112.16Z"/><path class="cls-2" d="M126.88,113.12l.12,0h0Z"/><path class="cls-2" d="M124.89,113.23s0,0,0,0S124.88,113.31,124.89,113.23Z"/><path class="cls-2" d="M127,109.25a.65.65,0,0,1,0,.18C127.14,109.37,127.18,109.32,127,109.25Z"/><polygon class="cls-2" points="121.02 116.61 121.02 116.6 120.99 116.62 121.02 116.61"/><path class="cls-2" d="M127,109.61a.15.15,0,0,0,.1-.18S127,109.54,127,109.61Z"/><path class="cls-2" d="M129.25,116.66l0,0,0,0Z"/><path class="cls-2" d="M129.32,116.67h.06S129.34,116.65,129.32,116.67Z"/><path class="cls-2" d="M129.51,116.7l-.13,0S129.44,116.75,129.51,116.7Z"/><path class="cls-2" d="M128.41,115.64l-.09.06Z"/><path class="cls-2" d="M128.14,115.35c0,.09,0,.32.11.39l.07,0C128.16,115.74,128.33,115.31,128.14,115.35Z"/><path class="cls-2" d="M128.36,113.37l.06.3c.07-.1.17-.23.25-.13C128.79,113.07,128.5,113.72,128.36,113.37Z"/><path class="cls-2" d="M128.13,112.5c.1.12.14-.06.2-.07C128.2,112.38,128.17,112.37,128.13,112.5Z"/><path class="cls-2" d="M128.21,106.37l.22.13s0,0,0,0l-1.67-.48s0,0,.1,0l1.48.42A.24.24,0,0,1,128.21,106.37Z"/><polygon class="cls-2" points="128.02 107.53 128.21 107.44 128 107.32 128.02 107.53"/><polygon class="cls-2" points="126.05 107.64 126.03 107.59 126.06 107.79 126.05 107.64"/><path class="cls-2" d="M118.73,115l.16.28C118.94,115.16,118.81,114.83,118.73,115Z"/><path class="cls-2" d="M114.52,115.79c0-.17-.07-.3-.19-.17C114.41,115.67,114.46,115.81,114.52,115.79Z"/><polygon class="cls-2" points="113.16 104.04 113.22 104.17 113.21 103.97 113.16 104.04"/><polygon class="cls-3" points="66.59 38.79 100.45 37.82 100.45 40.31 66.59 41.29 66.59 38.79"/><polygon class="cls-3" points="58.92 45.08 107.56 42.31 107.56 44.81 58.92 47.58 58.92 45.08"/><polygon class="cls-3" points="46.15 51.15 127.75 46.08 127.75 48.58 46.15 53.64 46.15 51.15"/><polygon class="cls-3" points="23.25 58.3 151.56 60.54 151.56 63.04 23.25 60.8 23.25 58.3"/><polygon class="cls-3" points="70.03 54.54 153.64 53.16 153.64 55.65 70.03 57.04 70.03 54.54"/><polygon class="cls-3" points="45.58 65 136.13 65.69 136.13 68.19 45.58 67.5 45.58 65"/><polygon class="cls-3" points="71.81 70.3 131.83 70.61 131.83 73.11 71.81 72.79 71.81 70.3"/><polyline class="cls-3" points="64.78 81.19 132.55 75.49 132.55 77.99 64.78 83.69"/><polyline class="cls-3" points="70.34 86.9 126.72 80.67 126.72 83.17 70.34 89.4"/><g id="Ellipse_1" data-name="Ellipse 1"><path class="cls-4" d="M107.56,41.28a2.29,2.29,0,1,0,2.29,2.28A2.29,2.29,0,0,0,107.56,41.28Z"/></g><g id="Ellipse_1_copy" data-name="Ellipse 1 copy"><circle class="cls-3" cx="58.92" cy="46.23" r="2.28"/></g><g id="Ellipse_1-2" data-name="Ellipse 1"><path class="cls-4" d="M101.17,36.75A2.29,2.29,0,1,0,103.45,39,2.28,2.28,0,0,0,101.17,36.75Z"/></g><g id="Ellipse_1_copy-2" data-name="Ellipse 1 copy"><circle class="cls-3" cx="66.91" cy="40.1" r="2.28"/></g><g id="Ellipse_1_copy_2" data-name="Ellipse 1 copy 2"><path class="cls-4" d="M46.42,50.15a2.29,2.29,0,1,0,2.28,2.29A2.29,2.29,0,0,0,46.42,50.15Z"/></g><g id="Ellipse_1_copy_3" data-name="Ellipse 1 copy 3"><circle class="cls-5" cx="127.75" cy="47.33" r="2.28"/></g><g id="Ellipse_1_copy_6" data-name="Ellipse 1 copy 6"><path class="cls-4" d="M70.52,53.4a2.29,2.29,0,1,0,2.23,2.34A2.29,2.29,0,0,0,70.52,53.4Z"/></g><g id="Ellipse_1_copy_7" data-name="Ellipse 1 copy 7"><path class="cls-4" d="M153.7,52.12a2.29,2.29,0,1,0,2.23,2.34A2.28,2.28,0,0,0,153.7,52.12Z"/></g><g id="Ellipse_1_copy_7-2" data-name="Ellipse 1 copy 7"><path class="cls-4" d="M151.56,59.5a2.29,2.29,0,1,0,2.28,2.29A2.29,2.29,0,0,0,151.56,59.5Z"/></g><g id="Ellipse_1_copy_8" data-name="Ellipse 1 copy 8"><circle class="cls-3" cx="23.11" cy="59.5" r="2.28"/></g><g id="Ellipse_1_copy_12" data-name="Ellipse 1 copy 12"><path class="cls-4" d="M64.52,80.24a2.29,2.29,0,1,0,2.28,2.29A2.28,2.28,0,0,0,64.52,80.24Z"/></g><g id="Ellipse_1_copy_13" data-name="Ellipse 1 copy 13"><path class="cls-4" d="M70.34,86a2.29,2.29,0,1,0,2.29,2.29A2.29,2.29,0,0,0,70.34,86Z"/></g><g id="Ellipse_1_copy_14" data-name="Ellipse 1 copy 14"><circle class="cls-3" cx="126.72" cy="81.92" r="2.28"/></g><g id="Ellipse_1_copy_15" data-name="Ellipse 1 copy 15"><circle class="cls-5" cx="132.55" cy="76.74" r="2.28"/></g><g id="Ellipse_1_copy_17" data-name="Ellipse 1 copy 17"><circle class="cls-5" cx="131.83" cy="71.89" r="2.28"/></g><g id="Rounded_Rectangle_1" data-name="Rounded Rectangle 1"><path class="cls-4" d="M100.15,85.3H97.93a.59.59,0,0,0-.6.59l-3,32.12a.58.58,0,0,0,.59.59h5.2a.59.59,0,0,0,.6-.59V85.89A.59.59,0,0,0,100.15,85.3Z"/></g><g id="Ellipse_1_copy_10" data-name="Ellipse 1 copy 10"><path class="cls-4" d="M45.58,64a2.29,2.29,0,1,0,2.29,2.29A2.3,2.3,0,0,0,45.58,64Z"/></g><g id="Ellipse_1_copy_19" data-name="Ellipse 1 copy 19"><circle class="cls-5" cx="136.13" cy="66.94" r="2.28"/></g><g id="Ellipse_1_copy_20" data-name="Ellipse 1 copy 20"><circle class="cls-3" cx="71.81" cy="71.43" r="2.28"/></g></g></g></g></g></svg>